<svg width="22" height="22" viewBox="0 0 22 22" fill="none" xmlns="http://www.w3.org/2000/svg">
<circle cx="11.0007" cy="10.6316" r="10.1316" stroke="#47B25F"/>
<path d="M13.966 8.40069C13.966 8.75535 13.896 9.09602 13.756 9.42269C13.616 9.74935 13.434 10.0667 13.21 10.3747C12.986 10.6734 12.734 10.9627 12.454 11.2427C12.174 11.5227 11.8986 11.7887 11.628 12.0407C11.488 12.1714 11.334 12.3207 11.166 12.4887C11.0073 12.6474 10.8533 12.8107 10.704 12.9787C10.5546 13.1467 10.4193 13.3054 10.298 13.4547C10.186 13.5947 10.116 13.7114 10.088 13.8047H14.26V15.5547H7.79197C7.7733 15.452 7.76397 15.3214 7.76397 15.1627C7.76397 15.004 7.76397 14.892 7.76397 14.8267C7.76397 14.3787 7.83397 13.968 7.97397 13.5947C8.1233 13.2214 8.31464 12.876 8.54797 12.5587C8.7813 12.232 9.04264 11.9287 9.33197 11.6487C9.63064 11.3687 9.92464 11.0887 10.214 10.8087C10.438 10.594 10.648 10.3934 10.844 10.2067C11.04 10.0107 11.2126 9.82402 11.362 9.64669C11.5113 9.46002 11.628 9.27802 11.712 9.10069C11.796 8.91402 11.838 8.72735 11.838 8.54069C11.838 8.13002 11.7213 7.84069 11.488 7.67269C11.2546 7.50469 10.9653 7.42069 10.62 7.42069C10.368 7.42069 10.13 7.46269 9.90597 7.54669C9.6913 7.62135 9.49064 7.71469 9.30397 7.82669C9.12664 7.92935 8.97264 8.03669 8.84197 8.14869C8.7113 8.25135 8.6133 8.33535 8.54797 8.40069L7.51197 6.94469C7.92264 6.56202 8.39864 6.24935 8.93997 6.00669C9.49064 5.75469 10.0786 5.62869 10.704 5.62869C11.2733 5.62869 11.7633 5.69402 12.174 5.82469C12.5846 5.95535 12.9206 6.14202 13.182 6.38469C13.4526 6.61802 13.6486 6.90735 13.77 7.25269C13.9006 7.58869 13.966 7.97135 13.966 8.40069Z" fill="#47B25F"/>
</svg>
