<svg width="22" height="22" viewBox="0 0 22 22" fill="none" xmlns="http://www.w3.org/2000/svg">
<circle cx="11.0007" cy="11.3464" r="10.1316" stroke="#47B25F"/>
<path d="M10.2149 16.4444C9.96294 16.4444 9.69694 16.4257 9.41694 16.3884C9.13694 16.3604 8.86627 16.3184 8.60494 16.2624C8.3436 16.2064 8.1056 16.1457 7.89094 16.0804C7.67627 16.015 7.50827 15.9544 7.38694 15.8984L7.79294 14.1624C8.0356 14.265 8.3436 14.377 8.71694 14.4984C9.0996 14.6104 9.57094 14.6664 10.1309 14.6664C10.7749 14.6664 11.2463 14.545 11.5449 14.3024C11.8436 14.0597 11.9929 13.733 11.9929 13.3224C11.9929 13.0704 11.9369 12.8604 11.8249 12.6924C11.7223 12.515 11.5776 12.375 11.3909 12.2724C11.2043 12.1604 10.9803 12.0857 10.7189 12.0484C10.4669 12.0017 10.1963 11.9784 9.90694 11.9784H9.09494V10.2984H10.0189C10.2243 10.2984 10.4203 10.2797 10.6069 10.2424C10.8029 10.205 10.9756 10.1444 11.1249 10.0604C11.2743 9.96704 11.3909 9.84571 11.4749 9.69637C11.5683 9.53771 11.6149 9.34171 11.6149 9.10837C11.6149 8.93104 11.5776 8.77704 11.5029 8.64637C11.4283 8.51571 11.3303 8.40837 11.2089 8.32438C11.0969 8.24038 10.9616 8.17971 10.8029 8.14237C10.6536 8.09571 10.4996 8.07237 10.3409 8.07237C9.9396 8.07237 9.56627 8.13304 9.22094 8.25437C8.88494 8.37571 8.57694 8.52504 8.29694 8.70237L7.55494 7.17637C7.70427 7.08304 7.87694 6.98504 8.07294 6.88237C8.27827 6.77971 8.50227 6.68637 8.74494 6.60237C8.9876 6.51837 9.24427 6.44837 9.51494 6.39237C9.79494 6.33637 10.0889 6.30837 10.3969 6.30837C10.9663 6.30837 11.4563 6.37837 11.8669 6.51837C12.2869 6.64904 12.6323 6.84037 12.9029 7.09237C13.1736 7.33504 13.3743 7.62437 13.5049 7.96037C13.6356 8.28704 13.7009 8.64637 13.7009 9.03838C13.7009 9.42104 13.5936 9.79437 13.3789 10.1584C13.1643 10.513 12.8749 10.7837 12.5109 10.9704C13.0149 11.1757 13.4023 11.4837 13.6729 11.8944C13.9529 12.2957 14.0929 12.781 14.0929 13.3504C14.0929 13.7984 14.0183 14.2137 13.8689 14.5964C13.7196 14.9697 13.4863 15.2964 13.1689 15.5764C12.8516 15.847 12.4456 16.0617 11.9509 16.2204C11.4656 16.3697 10.8869 16.4444 10.2149 16.4444Z" fill="#47B25F"/>
</svg>
