<svg width="22" height="21" viewBox="0 0 22 21" fill="none" xmlns="http://www.w3.org/2000/svg">
<path d="M21.5 10.5C21.5 16.0012 16.8212 20.5 11 20.5C5.17884 20.5 0.5 16.0012 0.5 10.5C0.5 4.99882 5.17884 0.5 11 0.5C16.8212 0.5 21.5 4.99882 21.5 10.5Z" stroke="#47B25F"/>
<path d="M11.4875 8.846C11.1235 9.322 10.7362 9.84 10.3255 10.4C9.91482 10.96 9.56948 11.534 9.28948 12.122H11.4875V8.846ZM13.5315 6.298V12.122H14.5675V13.83H13.5315V16H11.4875V13.83H7.30148V12.304C7.50682 11.8933 7.76348 11.4313 8.07148 10.918C8.37948 10.3953 8.72015 9.86333 9.09348 9.322C9.47615 8.77133 9.87748 8.23467 10.2975 7.712C10.7175 7.18933 11.1375 6.718 11.5575 6.298H13.5315Z" fill="#47B25F"/>
</svg>
