<svg width="22" height="21" viewBox="0 0 22 21" fill="none" xmlns="http://www.w3.org/2000/svg">
<path d="M21.5 10.5C21.5 16.0012 16.8212 20.5 11 20.5C5.17884 20.5 0.5 16.0012 0.5 10.5C0.5 4.99882 5.17884 0.5 11 0.5C16.8212 0.5 21.5 4.99882 21.5 10.5Z" stroke="#47B25F"/>
<path d="M12.0615 12.144C12.0615 11.8733 12.0008 11.6353 11.8795 11.43C11.7582 11.2153 11.5482 11.038 11.2495 10.898C10.9508 10.758 10.5495 10.6507 10.0455 10.576C9.54148 10.5013 8.90682 10.464 8.14148 10.464C8.24415 9.596 8.32815 8.714 8.39348 7.818C8.45882 6.922 8.51015 6.082 8.54748 5.298H13.7975V7.048H10.2975C10.2788 7.384 10.2555 7.71067 10.2275 8.028C10.2088 8.336 10.1855 8.60667 10.1575 8.84C11.5202 8.93333 12.5235 9.25533 13.1675 9.806C13.8208 10.3473 14.1475 11.1033 14.1475 12.074C14.1475 12.522 14.0682 12.9373 13.9095 13.32C13.7508 13.7027 13.5128 14.034 13.1955 14.314C12.8782 14.594 12.4768 14.8133 11.9915 14.972C11.5155 15.1307 10.9555 15.21 10.3115 15.21C10.0595 15.21 9.79348 15.1913 9.51348 15.154C9.24282 15.126 8.97682 15.084 8.71548 15.028C8.46348 14.9813 8.23482 14.93 8.02948 14.874C7.82415 14.818 7.66548 14.762 7.55348 14.706L7.93148 12.984C8.16482 13.0867 8.47282 13.1893 8.85548 13.292C9.23815 13.3853 9.69548 13.432 10.2275 13.432C10.8715 13.432 11.3382 13.306 11.6275 13.054C11.9168 12.7927 12.0615 12.4893 12.0615 12.144Z" fill="#47B25F"/>
</svg>
