<svg width="22" height="21" viewBox="0 0 22 21" fill="none" xmlns="http://www.w3.org/2000/svg">
<path d="M21.5 10.5C21.5 16.0012 16.8212 20.5 11 20.5C5.17884 20.5 0.5 16.0012 0.5 10.5C0.5 4.99882 5.17884 0.5 11 0.5C16.8212 0.5 21.5 4.99882 21.5 10.5Z" stroke="#47B25F"/>
<path d="M10.8575 10.436C10.6522 10.436 10.4328 10.4547 10.1995 10.492C9.96615 10.5293 9.78415 10.5807 9.65348 10.646C9.65348 10.6833 9.64882 10.7393 9.63948 10.814C9.63948 10.8887 9.63948 10.954 9.63948 11.01C9.63948 11.346 9.66282 11.6633 9.70948 11.962C9.75615 12.2607 9.83548 12.522 9.94748 12.746C10.0595 12.97 10.2088 13.1473 10.3955 13.278C10.5822 13.3993 10.8155 13.46 11.0955 13.46C11.3288 13.46 11.5248 13.4133 11.6835 13.32C11.8515 13.2173 11.9868 13.0913 12.0895 12.942C12.2015 12.7927 12.2808 12.6293 12.3275 12.452C12.3835 12.2653 12.4115 12.088 12.4115 11.92C12.4115 11.444 12.2902 11.08 12.0475 10.828C11.8142 10.5667 11.4175 10.436 10.8575 10.436ZM11.1235 8.812C11.7302 8.812 12.2435 8.896 12.6635 9.064C13.0928 9.22267 13.4428 9.442 13.7135 9.722C13.9842 10.002 14.1802 10.3287 14.3015 10.702C14.4228 11.0753 14.4835 11.472 14.4835 11.892C14.4835 12.2653 14.4135 12.648 14.2735 13.04C14.1428 13.432 13.9375 13.7867 13.6575 14.104C13.3868 14.4213 13.0368 14.6827 12.6075 14.888C12.1875 15.0933 11.6882 15.196 11.1095 15.196C9.94282 15.196 9.05615 14.8273 8.44948 14.09C7.84282 13.3527 7.53948 12.3353 7.53948 11.038C7.53948 10.1047 7.68415 9.27867 7.97348 8.56C8.26282 7.84133 8.67348 7.23933 9.20548 6.754C9.74682 6.25933 10.3955 5.886 11.1515 5.634C11.9168 5.37267 12.7755 5.23733 13.7275 5.228C13.7462 5.51733 13.7648 5.802 13.7835 6.082C13.8022 6.35267 13.8208 6.63733 13.8395 6.936C13.3635 6.94533 12.9155 6.992 12.4955 7.076C12.0848 7.15067 11.7068 7.272 11.3615 7.44C11.0255 7.608 10.7315 7.82733 10.4795 8.098C10.2275 8.35933 10.0315 8.68133 9.89148 9.064C10.0968 8.97067 10.3068 8.90533 10.5215 8.868C10.7362 8.83067 10.9368 8.812 11.1235 8.812Z" fill="#47B25F"/>
</svg>
