<svg width="76" height="18" viewBox="0 0 76 18" fill="none" xmlns="http://www.w3.org/2000/svg">
<path d="M9.48831 0C9.32671 0.164897 9.52401 0.163938 9.58508 0.183112C10.2954 0.410325 10.8328 0.882966 11.3411 1.41313C12.8603 2.99595 14.3926 4.56534 15.9156 6.14433C17.4245 7.70893 17.4217 9.92066 15.9137 11.4843C14.3908 13.0633 12.8603 14.6356 11.3467 16.2232C10.8159 16.7802 10.2418 17.2528 9.50428 17.4906C9.47797 17.4992 9.45072 17.5289 9.44039 17.5558C9.43569 17.5692 9.46951 17.597 9.48643 17.619C8.82876 17.619 8.17109 17.619 7.51435 17.619C7.53596 17.6008 7.57636 17.5817 7.57448 17.5663C7.57167 17.5395 7.54818 17.5011 7.52469 17.4925C6.94782 17.273 6.43108 16.9662 5.9942 16.5137C4.40827 14.8695 2.81671 13.2291 1.21951 11.5955C0.771353 11.1373 0.408695 10.633 0.191664 10.0223C0.168176 9.95517 0.209515 9.72892 0 9.8641C0 9.19396 0 8.52383 0 7.8537C0.0216092 7.86999 0.0413393 7.88821 0.065767 7.89971C0.0714042 7.90259 0.0939529 7.88246 0.0986506 7.86999C0.326956 7.23725 0.636061 6.66203 1.11052 6.17405C2.70772 4.53562 4.29459 2.88666 5.87769 1.23481C6.32397 0.767921 6.82568 0.40649 7.42886 0.191741C7.50966 0.16298 7.6985 0.206121 7.60925 0C8.23591 0 8.86164 0 9.48831 0ZM12.7738 8.78747C12.7597 8.32154 12.601 7.89588 12.2703 7.5517C11.4397 6.686 10.6129 5.81645 9.76547 4.968C9.02042 4.22309 7.99727 4.23747 7.25317 4.99101C6.43202 5.82125 5.61932 6.65915 4.81509 7.50665C4.08695 8.27457 4.08319 9.3579 4.80851 10.1229C5.61181 10.9714 6.4245 11.8103 7.24565 12.6405C8.00667 13.4113 9.02888 13.4161 9.79177 12.6482C10.6148 11.8199 11.4209 10.9743 12.2317 10.1335C12.5869 9.76631 12.7701 9.32243 12.7738 8.78747Z" fill="#47B25F"/>
<path d="M75.1451 14.4606C74.5992 14.4682 74.0524 14.4663 73.5075 14.4864C73.2529 14.496 73.1514 14.4232 73.1524 14.1423C73.1617 11.7551 73.157 9.36792 73.158 6.98075C73.158 6.8216 73.1364 6.63849 73.375 6.64616C73.965 6.66629 74.5588 6.5733 75.1451 6.70464C75.1451 9.28931 75.1451 11.8749 75.1451 14.4606Z" fill="#47B25F"/>
<path d="M75.1457 5.07714C74.6064 4.97552 74.0624 5.04263 73.5212 5.03975C73.2337 5.03783 73.1379 4.9458 73.1511 4.65435C73.1717 4.19513 73.1755 3.73208 73.1501 3.27382C73.1313 2.94307 73.2694 2.875 73.5579 2.88267C74.0859 2.89801 74.6158 2.87979 75.1447 2.875C75.1457 3.60841 75.1457 4.34277 75.1457 5.07714Z" fill="#47B25F"/>
<path d="M28.6582 8.63921C30.2207 9.41768 30.6923 10.2479 30.5411 11.8374C30.4217 13.0838 29.7331 13.9188 28.5333 14.2505C27.9724 14.4058 27.3974 14.4729 26.8158 14.4739C25.4075 14.4768 23.9991 14.47 22.5908 14.4883C22.2657 14.4921 22.167 14.3981 22.168 14.0607C22.1792 10.5029 22.1755 6.94614 22.1736 3.3884C22.1736 3.16694 22.1642 2.98095 22.4771 2.98862C24.1504 3.02697 25.8265 2.90425 27.497 3.07011C29.1966 3.2398 30.0938 4.22055 30.1502 5.89445C30.1906 7.09187 29.827 8.0592 28.6582 8.63921ZM24.2218 11.1836C24.2218 11.6131 24.2255 12.0426 24.2199 12.4721C24.2171 12.6571 24.2575 12.776 24.4736 12.7722C25.3934 12.754 26.3169 12.8326 27.232 12.7147C27.7074 12.6533 28.1368 12.4673 28.3623 11.9774C28.849 10.9171 28.335 9.87402 27.2104 9.66119C26.3442 9.49725 25.4667 9.62668 24.5957 9.57587C24.2659 9.55669 24.2021 9.69954 24.2161 9.99194C24.2349 10.3879 24.2208 10.7858 24.2218 11.1836ZM24.2208 6.28272C24.2208 6.69688 24.2349 7.11104 24.2161 7.52424C24.203 7.80035 24.3054 7.87992 24.5657 7.87321C25.2684 7.85595 25.9721 7.88376 26.673 7.85212C27.5731 7.81089 28.0616 7.24238 28.0748 6.28176C28.0879 5.27608 27.6642 4.75934 26.7172 4.70949C25.9853 4.67114 25.2496 4.70374 24.5159 4.69223C24.2941 4.6884 24.2115 4.76509 24.2171 4.99327C24.2302 5.42277 24.2218 5.85322 24.2208 6.28272Z" fill="#47B25F"/>
<path d="M37.2539 9.98214C37.2746 8.85279 37.5997 7.54991 38.7506 6.65065C40.126 5.57594 41.68 5.48582 43.2415 6.11761C44.7307 6.71872 45.379 7.99283 45.5725 9.5536C45.6618 10.2765 45.6157 10.9897 45.4428 11.6906C44.9111 13.8467 43.0433 15.0489 40.7743 14.7076C38.5411 14.372 37.2577 12.7518 37.2539 9.98214ZM43.5892 10.2314C43.6051 9.76356 43.5318 9.30913 43.3684 8.87388C43.0423 8.00434 42.411 7.55854 41.5053 7.54512C40.5272 7.52978 39.8714 7.94873 39.5266 8.84128C39.2006 9.6859 39.1922 10.5535 39.443 11.4183C39.7399 12.4412 40.4182 12.9503 41.4433 12.9522C42.4467 12.9541 43.1015 12.4585 43.4219 11.4547C43.5497 11.0568 43.6014 10.6484 43.5892 10.2314Z" fill="#47B25F"/>
<path d="M57.5227 9.31197C57.7134 9.10873 57.8929 8.92082 58.0695 8.72908C58.7554 7.98513 59.4403 7.23926 60.1262 6.4953C60.253 6.35725 60.3639 6.21536 60.5893 6.22016C61.2602 6.23454 61.9319 6.22495 62.6244 6.22495C62.6281 6.45216 62.4618 6.54228 62.3547 6.65924C61.512 7.58151 60.672 8.50762 59.8105 9.41072C59.5803 9.65231 59.5577 9.79995 59.772 10.0741C60.8139 11.4106 61.8314 12.7662 62.8555 14.117C62.9194 14.2014 63.0265 14.3183 63.0067 14.3912C62.9645 14.5503 62.7963 14.4554 62.6836 14.4803C62.6535 14.4871 62.6215 14.4823 62.5896 14.4813C61.9808 14.4698 61.2874 14.6385 60.7876 14.395C60.3056 14.1611 60.02 13.5034 59.6526 13.0279C59.2364 12.4891 58.8193 11.9503 58.4162 11.401C58.2725 11.2054 58.1898 11.1757 57.9887 11.3588C57.5763 11.7346 57.3583 12.1469 57.4212 12.7326C57.472 13.2053 57.4222 13.6894 57.4344 14.1678C57.441 14.4161 57.3498 14.5101 57.1074 14.5024C56.7166 14.4899 56.3229 14.4736 55.934 14.5072C55.5441 14.5407 55.4717 14.371 55.4727 14.0135C55.4839 10.9341 55.4792 7.85379 55.4792 4.77443C55.4792 4.27974 55.4886 3.78505 55.4764 3.29036C55.4708 3.04685 55.5488 2.94714 55.7977 2.95769C56.2046 2.97399 56.6133 2.98262 57.0182 2.95577C57.3527 2.93276 57.44 3.05835 57.4372 3.38719C57.4231 5.17421 57.4297 6.96123 57.4335 8.74922C57.4335 8.91699 57.3837 9.09722 57.5227 9.31197Z" fill="#47B25F"/>
<path d="M64.5329 8.76152C64.5329 7.00806 64.5433 5.25363 64.5245 3.50016C64.5207 3.12147 64.594 2.97671 65.0046 2.98054C67.0377 3.00259 69.0708 2.99972 71.104 2.98246C71.4713 2.97958 71.6132 3.07833 71.5728 3.46181C71.5268 3.90186 71.7485 4.46941 71.4892 4.75702C71.2224 5.0523 70.6596 4.84522 70.2274 4.85097C69.1329 4.86727 68.0374 4.86439 66.9428 4.85097C66.6581 4.84714 66.5614 4.93438 66.567 5.23062C66.5839 6.0436 66.5839 6.85658 66.567 7.66956C66.5614 7.96197 66.6525 8.05112 66.94 8.04729C68.0975 8.03291 69.255 8.05304 70.4115 8.03387C70.7347 8.02907 70.8616 8.11152 70.8334 8.4557C70.8052 8.80371 70.809 9.15747 70.8325 9.50739C70.8531 9.80843 70.7385 9.88417 70.4576 9.88033C69.3001 9.86691 68.1426 9.88608 66.986 9.86787C66.6534 9.86212 66.5614 9.97237 66.5651 10.3022C66.5811 11.5456 66.5585 12.789 66.5792 14.0325C66.5848 14.3949 66.4777 14.5118 66.1282 14.4869C65.7393 14.4581 65.3447 14.4543 64.9566 14.4879C64.5865 14.5195 64.5207 14.3632 64.5235 14.0229C64.5414 12.2694 64.5329 10.515 64.5329 8.76152Z" fill="#47B25F"/>
<path d="M53.133 12.2795C53.2993 12.7665 53.46 13.2478 53.6281 13.7252C53.6977 13.9208 53.6131 14.0157 53.4506 14.0972C51.9248 14.8622 50.3661 15.0204 48.7915 14.2889C47.8153 13.8355 47.2685 12.9851 46.9904 11.9602C46.6841 10.8318 46.6794 9.68715 46.9819 8.55588C47.4103 6.95389 48.55 5.99615 50.1726 5.82262C51.0557 5.72867 51.9191 5.78907 52.7694 6.0623C52.9977 6.13516 53.0954 6.25308 53.0823 6.50714C53.0625 6.905 53.0569 7.30573 53.0832 7.70264C53.1067 8.06886 52.9677 8.05161 52.7102 7.93464C52.0967 7.65662 51.4466 7.57897 50.7823 7.62978C49.7235 7.71127 49.1193 8.23759 48.9014 9.30271C48.7557 10.0131 48.767 10.7331 48.9587 11.4358C49.2471 12.4933 50.1228 13.033 51.2868 12.8883C51.6129 12.848 51.9379 12.7953 52.2442 12.6649C52.5317 12.5431 52.8183 12.4166 53.133 12.2795Z" fill="#47B25F"/>
<path d="M32.3993 8.04928C32.3993 6.51823 32.4115 4.98622 32.3908 3.45613C32.3861 3.07457 32.4594 2.90008 32.87 2.94418C33.2101 2.98062 33.5596 2.97486 33.9016 2.94514C34.269 2.91351 34.3761 3.04006 34.3742 3.42066C34.3582 6.0686 34.3657 8.71654 34.3657 11.3635C34.3657 11.5227 34.3648 11.6828 34.3657 11.8419C34.3742 12.6942 34.5668 12.9137 35.4039 12.8255C35.8943 12.7738 36.0606 12.908 35.977 13.3883C35.9686 13.4343 35.9761 13.4842 35.9761 13.5321C35.9761 14.649 35.9761 14.6519 34.8599 14.6902C34.6419 14.6979 34.4221 14.6797 34.2041 14.6586C33.0316 14.5455 32.4181 13.8897 32.4059 12.6913C32.3899 11.144 32.4021 9.59663 32.4021 8.05024C32.4012 8.04928 32.4002 8.04928 32.3993 8.04928Z" fill="#47B25F"/>
</svg>
