<svg width="180" height="180" viewBox="0 0 180 180" fill="none" xmlns="http://www.w3.org/2000/svg">
<circle cx="90" cy="90" r="85.5" stroke="#E1D3D0" stroke-width="9"/>
<path d="M55.682 49.318C53.9246 47.5607 51.0754 47.5607 49.318 49.318C47.5607 51.0754 47.5607 53.9246 49.318 55.682L55.682 49.318ZM124.318 130.682C126.075 132.439 128.925 132.439 130.682 130.682C132.439 128.925 132.439 126.075 130.682 124.318L124.318 130.682ZM49.318 55.682L124.318 130.682L130.682 124.318L55.682 49.318L49.318 55.682Z" fill="#E1D3D0"/>
<path d="M49.318 124.318C47.5607 126.075 47.5607 128.925 49.318 130.682C51.0754 132.439 53.9246 132.439 55.682 130.682L49.318 124.318ZM130.682 55.682C132.439 53.9246 132.439 51.0754 130.682 49.318C128.925 47.5607 126.075 47.5607 124.318 49.318L130.682 55.682ZM55.682 130.682L130.682 55.682L124.318 49.318L49.318 124.318L55.682 130.682Z" fill="#E1D3D0"/>
</svg>
