<svg width="142" height="56" viewBox="0 0 142 56" fill="none" xmlns="http://www.w3.org/2000/svg">
<path fill-rule="evenodd" clip-rule="evenodd" d="M10.2227 2.05664H95.2134C99.044 2.05664 102.246 4.74885 103.03 8.34434H105.067C104.255 3.63729 100.152 0.0566406 95.2134 0.0566406H10.2227C4.69981 0.0566406 0.222656 4.53379 0.222656 10.0566V25.5999C0.222656 31.1227 4.69981 35.5999 10.2227 35.5999H80.3452V33.5999H10.2227C5.80438 33.5999 2.22266 30.0182 2.22266 25.5999V10.0566C2.22266 5.63836 5.80438 2.05664 10.2227 2.05664Z" fill="#042F24" fill-opacity="0.5"/>
<path d="M89.7498 13.8912C89.3321 14.1323 89.1877 14.6713 89.4288 15.0889L92.0592 19.6448C92.3003 20.0624 92.8393 20.2068 93.2569 19.9657C93.6745 19.7246 93.8189 19.1856 93.5778 18.768L90.9475 14.2121C90.7064 13.7945 90.1712 13.6479 89.7498 13.8912ZM101.381 13.7568C101.242 13.8319 101.123 13.951 101.017 14.1086L98.3799 18.6683C98.136 19.0876 98.2835 19.6149 98.7027 19.8588C99.122 20.1027 99.6493 19.9552 99.8932 19.536L102.53 14.9762C102.774 14.557 102.627 14.0296 102.207 13.7857C101.886 13.6322 101.609 13.635 101.381 13.7568ZM83.7903 23.9279C83.568 24.0865 83.4555 24.3388 83.4334 24.6249C83.435 25.1099 83.8179 25.5014 84.3029 25.4998L89.5703 25.4959C90.0554 25.4943 90.4468 25.1113 90.4452 24.6263C90.4436 24.1413 90.0607 23.7499 89.5756 23.7515L84.3082 23.7554C84.0968 23.7661 83.9241 23.8354 83.7903 23.9279ZM94.1337 21.4844C92.4632 22.4488 91.8855 24.6047 92.85 26.2752L98.446 35.9678C97.3878 35.2221 95.9115 34.6115 94.6966 34.9535C93.0319 35.3932 91.9329 37.5667 92.302 39.1354C92.5288 40.0017 93.1505 40.7716 94.1535 41.5795C98.8655 45.1816 103.922 48.3368 108.874 50.0842C109.109 50.1663 109.376 50.1385 109.595 50.0173L119.846 44.0991C120.009 44.0048 120.135 43.8558 120.207 43.6826C120.834 42.2426 120.917 40.3521 120.699 38.2912C120.481 36.2302 119.94 33.9961 119.155 31.9692C118.369 29.9423 117.359 28.2019 116.065 26.889C114.812 25.6227 113.044 24.9884 111.365 25.7099C110.996 25.9225 110.623 26.1786 110.333 26.4475C109.869 26.0923 109.368 25.8552 108.89 25.8073C108.088 25.7337 107.436 25.9378 106.974 26.215C106.53 26.4812 106.215 26.8812 105.997 27.346C105.689 27.1897 105.373 27.028 105.067 26.9973C104.268 26.9116 103.602 27.1441 103.128 27.4181C102.733 27.646 102.417 27.9753 102.14 28.3376L98.9201 22.7605C97.7214 20.7544 95.5324 20.6717 94.1337 21.4844ZM95.0104 23.003C95.8647 22.5098 96.9127 22.7906 97.4059 23.6448L101.571 30.8583C101.766 31.206 102.217 31.3813 102.595 31.2643C102.973 31.1473 103.245 30.7519 103.21 30.3573C103.175 29.9115 103.599 29.181 104.009 28.9443C104.195 28.8369 104.581 28.7155 104.893 28.7479C105.205 28.7802 105.485 28.8714 105.806 29.4257C106.001 29.7636 106.439 29.9356 106.812 29.8268C107.184 29.7181 107.461 29.3302 107.44 28.9426C107.39 28.1462 107.5 27.9511 107.876 27.7243C107.98 27.6591 108.39 27.5186 108.722 27.5498C109.053 27.5809 109.346 27.6753 109.657 28.2144C109.824 28.5127 110.171 28.6923 110.512 28.6522C110.85 28.6142 111.162 28.3578 111.26 28.0279C111.468 27.7208 111.722 27.513 112.095 27.308C113.064 26.9002 113.864 27.1979 114.84 28.143C115.822 29.0994 116.782 30.7269 117.507 32.5964C118.234 34.4697 118.752 36.5756 118.954 38.4686C119.143 40.2426 119.008 41.7886 118.657 42.7504L109.082 48.2785C104.602 46.6737 99.2699 43.3131 95.261 40.201C94.4026 39.5121 94.0763 39.0171 93.9917 38.6863C93.8496 37.7914 94.3943 36.92 95.1315 36.6362C96.1155 36.473 96.6242 36.8981 97.3248 37.3137L100.579 39.4694C100.904 39.6816 101.379 39.6355 101.659 39.3672C101.939 39.099 102.01 38.6332 101.815 38.2953L94.362 25.387C93.8754 24.5442 94.1562 23.4962 95.0104 23.003Z" fill="#042F24" fill-opacity="0.5"/>
<path d="M27.074 24.7754V12.3014H34.598V13.7954H28.82V17.5574H33.95V19.0334H28.82V24.7754H27.074ZM38.308 24.7754H36.634V15.4154H38.308V24.7754ZM37.462 13.7234C37.162 13.7234 36.904 13.6274 36.688 13.4354C36.484 13.2314 36.382 12.9614 36.382 12.6254C36.382 12.2894 36.484 12.0254 36.688 11.8334C36.904 11.6294 37.162 11.5274 37.462 11.5274C37.762 11.5274 38.014 11.6294 38.218 11.8334C38.434 12.0254 38.542 12.2894 38.542 12.6254C38.542 12.9614 38.434 13.2314 38.218 13.4354C38.014 13.6274 37.762 13.7234 37.462 13.7234ZM44.6427 15.2174C44.7867 15.2174 44.9487 15.2294 45.1287 15.2534C45.3207 15.2654 45.5067 15.2894 45.6867 15.3254C45.8667 15.3494 46.0287 15.3794 46.1727 15.4154C46.3287 15.4394 46.4427 15.4634 46.5147 15.4874L46.2267 16.9454C46.0947 16.8974 45.8727 16.8434 45.5607 16.7834C45.2607 16.7114 44.8707 16.6754 44.3907 16.6754C44.0787 16.6754 43.7667 16.7114 43.4547 16.7834C43.1547 16.8434 42.9567 16.8854 42.8607 16.9094V24.7754H41.1867V15.8114C41.5827 15.6674 42.0747 15.5354 42.6627 15.4154C43.2507 15.2834 43.9107 15.2174 44.6427 15.2174ZM48.1301 15.6854C48.5141 15.5894 49.0181 15.4874 49.6421 15.3794C50.2781 15.2714 51.0101 15.2174 51.8381 15.2174C52.4381 15.2174 52.9421 15.3014 53.3501 15.4694C53.7581 15.6254 54.1001 15.8594 54.3761 16.1714C54.4601 16.1114 54.5921 16.0274 54.7721 15.9194C54.9521 15.8114 55.1741 15.7094 55.4381 15.6134C55.7021 15.5054 55.9961 15.4154 56.3201 15.3434C56.6441 15.2594 56.9921 15.2174 57.3641 15.2174C58.0841 15.2174 58.6721 15.3254 59.1281 15.5414C59.5841 15.7454 59.9381 16.0394 60.1901 16.4234C60.4541 16.8074 60.6281 17.2634 60.7121 17.7914C60.8081 18.3194 60.8561 18.8954 60.8561 19.5194V24.7754H59.1821V19.8794C59.1821 19.3274 59.1521 18.8534 59.0921 18.4574C59.0441 18.0614 58.9421 17.7314 58.7861 17.4674C58.6421 17.2034 58.4381 17.0114 58.1741 16.8914C57.9221 16.7594 57.5921 16.6934 57.1841 16.6934C56.6201 16.6934 56.1521 16.7714 55.7801 16.9274C55.4201 17.0714 55.1741 17.2034 55.0421 17.3234C55.1381 17.6354 55.2101 17.9774 55.2581 18.3494C55.3061 18.7214 55.3301 19.1114 55.3301 19.5194V24.7754H53.6561V19.8794C53.6561 19.3274 53.6261 18.8534 53.5661 18.4574C53.5061 18.0614 53.3981 17.7314 53.2421 17.4674C53.0981 17.2034 52.8941 17.0114 52.6301 16.8914C52.3781 16.7594 52.0541 16.6934 51.6581 16.6934C51.4901 16.6934 51.3101 16.6994 51.1181 16.7114C50.9261 16.7234 50.7401 16.7414 50.5601 16.7654C50.3921 16.7774 50.2361 16.7954 50.0921 16.8194C49.9481 16.8434 49.8521 16.8614 49.8041 16.8734V24.7754H48.1301V15.6854ZM66.802 23.5694C67.198 23.5694 67.546 23.5634 67.846 23.5514C68.158 23.5274 68.416 23.4914 68.62 23.4434V20.6534C68.5 20.5934 68.302 20.5454 68.026 20.5094C67.762 20.4614 67.438 20.4374 67.054 20.4374C66.802 20.4374 66.532 20.4554 66.244 20.4914C65.968 20.5274 65.71 20.6054 65.47 20.7254C65.242 20.8334 65.05 20.9894 64.894 21.1934C64.738 21.3854 64.66 21.6434 64.66 21.9674C64.66 22.5674 64.852 22.9874 65.236 23.2274C65.62 23.4554 66.142 23.5694 66.802 23.5694ZM66.658 15.1814C67.33 15.1814 67.894 15.2714 68.35 15.4514C68.818 15.6194 69.19 15.8654 69.466 16.1894C69.754 16.5014 69.958 16.8794 70.078 17.3234C70.198 17.7554 70.258 18.2354 70.258 18.7634V24.6134C70.114 24.6374 69.91 24.6734 69.646 24.7214C69.394 24.7574 69.106 24.7934 68.782 24.8294C68.458 24.8654 68.104 24.8954 67.72 24.9194C67.348 24.9554 66.976 24.9734 66.604 24.9734C66.076 24.9734 65.59 24.9194 65.146 24.8114C64.702 24.7034 64.318 24.5354 63.994 24.3074C63.67 24.0674 63.418 23.7554 63.238 23.3714C63.058 22.9874 62.968 22.5254 62.968 21.9854C62.968 21.4694 63.07 21.0254 63.274 20.6534C63.49 20.2814 63.778 19.9814 64.138 19.7534C64.498 19.5254 64.918 19.3574 65.398 19.2494C65.878 19.1414 66.382 19.0874 66.91 19.0874C67.078 19.0874 67.252 19.0994 67.432 19.1234C67.612 19.1354 67.78 19.1594 67.936 19.1954C68.104 19.2194 68.248 19.2434 68.368 19.2674C68.488 19.2914 68.572 19.3094 68.62 19.3214V18.8534C68.62 18.5774 68.59 18.3074 68.53 18.0434C68.47 17.7674 68.362 17.5274 68.206 17.3234C68.05 17.1074 67.834 16.9394 67.558 16.8194C67.294 16.6874 66.946 16.6214 66.514 16.6214C65.962 16.6214 65.476 16.6634 65.056 16.7474C64.648 16.8194 64.342 16.8974 64.138 16.9814L63.94 15.5954C64.156 15.4994 64.516 15.4094 65.02 15.3254C65.524 15.2294 66.07 15.1814 66.658 15.1814ZM76.4943 15.2174C76.6383 15.2174 76.8003 15.2294 76.9803 15.2534C77.1723 15.2654 77.3583 15.2894 77.5383 15.3254C77.7183 15.3494 77.8803 15.3794 78.0243 15.4154C78.1803 15.4394 78.2943 15.4634 78.3663 15.4874L78.0783 16.9454C77.9463 16.8974 77.7243 16.8434 77.4123 16.7834C77.1123 16.7114 76.7223 16.6754 76.2423 16.6754C75.9303 16.6754 75.6183 16.7114 75.3063 16.7834C75.0063 16.8434 74.8083 16.8854 74.7123 16.9094V24.7754H73.0383V15.8114C73.4343 15.6674 73.9263 15.5354 74.5143 15.4154C75.1023 15.2834 75.7623 15.2174 76.4943 15.2174Z" fill="#042F24" fill-opacity="0.5"/>
<path d="M118.626 21.7969C118.479 21.5035 118.299 21.1769 118.086 20.8169C117.873 20.4569 117.639 20.0902 117.386 19.7169C117.133 19.3302 116.873 18.9502 116.606 18.5769C116.339 18.2035 116.079 17.8502 115.826 17.5169C115.573 17.8502 115.313 18.2102 115.046 18.5969C114.779 18.9702 114.519 19.3502 114.266 19.7369C114.026 20.1102 113.799 20.4769 113.586 20.8369C113.373 21.1969 113.193 21.5169 113.046 21.7969H111.126C111.593 20.8902 112.146 19.9702 112.786 19.0369C113.439 18.0902 114.086 17.1902 114.726 16.3369L111.286 11.3969H113.386L115.866 15.0369L118.366 11.3969H120.346L116.986 16.2169C117.626 17.0835 118.279 18.0035 118.946 18.9769C119.626 19.9369 120.199 20.8769 120.666 21.7969H118.626ZM125.541 20.4369C126.727 20.4369 127.574 20.2035 128.081 19.7369C128.601 19.2702 128.861 18.6435 128.861 17.8569C128.861 17.3502 128.754 16.9235 128.541 16.5769C128.327 16.2302 128.047 15.9569 127.701 15.7569C127.354 15.5435 126.947 15.3969 126.481 15.3169C126.027 15.2235 125.561 15.1769 125.081 15.1769H124.601V13.6569H125.261C125.594 13.6569 125.934 13.6235 126.281 13.5569C126.641 13.4902 126.967 13.3702 127.261 13.1969C127.554 13.0235 127.794 12.7902 127.981 12.4969C128.167 12.1902 128.261 11.8102 128.261 11.3569C128.261 10.9835 128.194 10.6635 128.061 10.3969C127.927 10.1302 127.747 9.91021 127.521 9.73687C127.307 9.56354 127.054 9.44354 126.761 9.37687C126.481 9.29687 126.181 9.25687 125.861 9.25687C125.221 9.25687 124.674 9.35021 124.221 9.53687C123.781 9.72354 123.407 9.91687 123.101 10.1169L122.381 8.69687C122.541 8.59021 122.741 8.47687 122.981 8.35687C123.234 8.22354 123.514 8.10354 123.821 7.99687C124.127 7.89021 124.454 7.80354 124.801 7.73687C125.161 7.65687 125.534 7.61687 125.921 7.61687C126.654 7.61687 127.287 7.71021 127.821 7.89687C128.354 8.07021 128.794 8.32354 129.141 8.65687C129.487 8.97687 129.747 9.36354 129.921 9.81687C130.094 10.2569 130.181 10.7369 130.181 11.2569C130.181 11.9769 129.974 12.5969 129.561 13.1169C129.147 13.6235 128.647 14.0102 128.061 14.2769C128.421 14.3835 128.767 14.5369 129.101 14.7369C129.434 14.9369 129.721 15.1902 129.961 15.4969C130.214 15.8035 130.414 16.1569 130.561 16.5569C130.721 16.9569 130.801 17.4035 130.801 17.8969C130.801 18.4969 130.694 19.0569 130.481 19.5769C130.281 20.0835 129.961 20.5235 129.521 20.8969C129.094 21.2702 128.554 21.5635 127.901 21.7769C127.247 21.9902 126.474 22.0969 125.581 22.0969C125.234 22.0969 124.874 22.0702 124.501 22.0169C124.141 21.9635 123.801 21.8969 123.481 21.8169C123.161 21.7369 122.881 21.6569 122.641 21.5769C122.401 21.4969 122.227 21.4302 122.121 21.3769L122.481 19.7569C122.707 19.8635 123.081 20.0035 123.601 20.1769C124.134 20.3502 124.781 20.4369 125.541 20.4369Z" fill="#042F24" fill-opacity="0.5"/>
</svg>
