<svg width="142" height="56" viewBox="0 0 142 56" fill="none" xmlns="http://www.w3.org/2000/svg">
<path fill-rule="evenodd" clip-rule="evenodd" d="M10.2227 2.05664H95.2134C99.044 2.05664 102.246 4.74885 103.03 8.34434H105.067C104.255 3.63729 100.152 0.0566406 95.2134 0.0566406H10.2227C4.69981 0.0566406 0.222656 4.53379 0.222656 10.0566V25.5999C0.222656 31.1227 4.69981 35.5999 10.2227 35.5999H80.3452V33.5999H10.2227C5.80438 33.5999 2.22266 30.0182 2.22266 25.5999V10.0566C2.22266 5.63836 5.80438 2.05664 10.2227 2.05664Z" fill="#042F24" fill-opacity="0.5"/>
<path d="M89.7498 13.8912C89.3321 14.1323 89.1877 14.6713 89.4288 15.0889L92.0592 19.6448C92.3003 20.0624 92.8393 20.2068 93.2569 19.9657C93.6745 19.7246 93.8189 19.1856 93.5778 18.768L90.9475 14.2121C90.7064 13.7945 90.1712 13.6479 89.7498 13.8912ZM101.381 13.7568C101.242 13.8319 101.123 13.951 101.017 14.1086L98.3799 18.6683C98.136 19.0876 98.2835 19.6149 98.7027 19.8588C99.122 20.1027 99.6493 19.9552 99.8932 19.536L102.53 14.9762C102.774 14.557 102.627 14.0296 102.207 13.7857C101.886 13.6322 101.609 13.635 101.381 13.7568ZM83.7903 23.9279C83.568 24.0865 83.4555 24.3388 83.4334 24.6249C83.435 25.1099 83.8179 25.5014 84.3029 25.4998L89.5703 25.4959C90.0554 25.4943 90.4468 25.1113 90.4452 24.6263C90.4436 24.1413 90.0607 23.7499 89.5756 23.7515L84.3082 23.7554C84.0968 23.7661 83.9241 23.8354 83.7903 23.9279ZM94.1337 21.4844C92.4632 22.4488 91.8855 24.6047 92.85 26.2752L98.446 35.9678C97.3878 35.2221 95.9115 34.6115 94.6966 34.9535C93.0319 35.3932 91.9329 37.5667 92.302 39.1354C92.5288 40.0017 93.1505 40.7716 94.1535 41.5795C98.8655 45.1816 103.922 48.3368 108.874 50.0842C109.109 50.1663 109.376 50.1385 109.595 50.0173L119.846 44.0991C120.009 44.0048 120.135 43.8558 120.207 43.6826C120.834 42.2426 120.917 40.3521 120.699 38.2912C120.481 36.2302 119.94 33.9961 119.155 31.9692C118.369 29.9423 117.359 28.2019 116.065 26.889C114.812 25.6227 113.044 24.9884 111.365 25.7099C110.996 25.9225 110.623 26.1786 110.333 26.4475C109.869 26.0923 109.368 25.8552 108.89 25.8073C108.088 25.7337 107.436 25.9378 106.974 26.215C106.53 26.4812 106.215 26.8812 105.997 27.346C105.689 27.1897 105.373 27.028 105.067 26.9973C104.268 26.9116 103.602 27.1441 103.128 27.4181C102.733 27.646 102.417 27.9753 102.14 28.3376L98.9201 22.7605C97.7214 20.7544 95.5324 20.6717 94.1337 21.4844ZM95.0104 23.003C95.8647 22.5098 96.9127 22.7906 97.4059 23.6448L101.571 30.8583C101.766 31.206 102.217 31.3813 102.595 31.2643C102.973 31.1473 103.245 30.7519 103.21 30.3573C103.175 29.9115 103.599 29.181 104.009 28.9443C104.195 28.8369 104.581 28.7155 104.893 28.7479C105.205 28.7802 105.485 28.8714 105.806 29.4257C106.001 29.7636 106.439 29.9356 106.812 29.8268C107.184 29.7181 107.461 29.3302 107.44 28.9426C107.39 28.1462 107.5 27.9511 107.876 27.7243C107.98 27.6591 108.39 27.5186 108.722 27.5498C109.053 27.5809 109.346 27.6753 109.657 28.2144C109.824 28.5127 110.171 28.6923 110.512 28.6522C110.85 28.6142 111.162 28.3578 111.26 28.0279C111.468 27.7208 111.722 27.513 112.095 27.308C113.064 26.9002 113.864 27.1979 114.84 28.143C115.822 29.0994 116.782 30.7269 117.507 32.5964C118.234 34.4697 118.752 36.5756 118.954 38.4686C119.143 40.2426 119.008 41.7886 118.657 42.7504L109.082 48.2785C104.602 46.6737 99.2699 43.3131 95.261 40.201C94.4026 39.5121 94.0763 39.0171 93.9917 38.6863C93.8496 37.7914 94.3943 36.92 95.1315 36.6362C96.1155 36.473 96.6242 36.8981 97.3248 37.3137L100.579 39.4694C100.904 39.6816 101.379 39.6355 101.659 39.3672C101.939 39.099 102.01 38.6332 101.815 38.2953L94.362 25.387C93.8754 24.5442 94.1562 23.4962 95.0104 23.003Z" fill="#042F24" fill-opacity="0.5"/>
<path d="M39.0423 23.5334C40.8663 23.5334 41.7783 22.9094 41.7783 21.6614C41.7783 21.2774 41.6943 20.9534 41.5263 20.6894C41.3703 20.4134 41.1543 20.1794 40.8783 19.9874C40.6023 19.7834 40.2843 19.6094 39.9243 19.4654C39.5763 19.3214 39.2043 19.1774 38.8083 19.0334C38.3523 18.8774 37.9203 18.7034 37.5123 18.5114C37.1043 18.3074 36.7503 18.0734 36.4503 17.8094C36.1503 17.5334 35.9103 17.2094 35.7303 16.8374C35.5623 16.4654 35.4783 16.0154 35.4783 15.4874C35.4783 14.3954 35.8503 13.5434 36.5943 12.9314C37.3383 12.3194 38.3643 12.0134 39.6723 12.0134C40.4283 12.0134 41.1123 12.0974 41.7243 12.2654C42.3483 12.4214 42.8043 12.5954 43.0923 12.7874L42.5343 14.2094C42.2823 14.0534 41.9043 13.9034 41.4003 13.7594C40.9083 13.6034 40.3323 13.5254 39.6723 13.5254C39.3363 13.5254 39.0243 13.5614 38.7363 13.6334C38.4483 13.7054 38.1963 13.8134 37.9803 13.9574C37.7643 14.1014 37.5903 14.2874 37.4583 14.5154C37.3383 14.7314 37.2783 14.9894 37.2783 15.2894C37.2783 15.6254 37.3443 15.9074 37.4763 16.1354C37.6083 16.3634 37.7943 16.5674 38.0343 16.7474C38.2743 16.9154 38.5503 17.0714 38.8623 17.2154C39.1863 17.3594 39.5403 17.5034 39.9243 17.6474C40.4643 17.8634 40.9563 18.0794 41.4003 18.2954C41.8563 18.5114 42.2463 18.7694 42.5703 19.0694C42.9063 19.3694 43.1643 19.7294 43.3443 20.1494C43.5243 20.5574 43.6143 21.0554 43.6143 21.6434C43.6143 22.7354 43.2123 23.5754 42.4083 24.1634C41.6163 24.7514 40.4943 25.0454 39.0423 25.0454C38.5503 25.0454 38.0943 25.0094 37.6743 24.9374C37.2663 24.8774 36.9003 24.8054 36.5763 24.7214C36.2523 24.6254 35.9703 24.5294 35.7303 24.4334C35.5023 24.3254 35.3223 24.2354 35.1903 24.1634L35.7123 22.7234C35.9883 22.8794 36.4083 23.0534 36.9723 23.2454C37.5363 23.4374 38.2263 23.5334 39.0423 23.5334ZM47.2904 24.7754H45.6164V15.4154H47.2904V24.7754ZM46.4444 13.7234C46.1444 13.7234 45.8864 13.6274 45.6704 13.4354C45.4664 13.2314 45.3644 12.9614 45.3644 12.6254C45.3644 12.2894 45.4664 12.0254 45.6704 11.8334C45.8864 11.6294 46.1444 11.5274 46.4444 11.5274C46.7444 11.5274 46.9964 11.6294 47.2004 11.8334C47.4164 12.0254 47.5244 12.2894 47.5244 12.6254C47.5244 12.9614 47.4164 13.2314 47.2004 13.4354C46.9964 13.6274 46.7444 13.7234 46.4444 13.7234ZM56.0371 23.8394C55.8931 23.9354 55.6111 24.0614 55.1911 24.2174C54.7831 24.3614 54.3031 24.4334 53.7511 24.4334C53.1871 24.4334 52.6531 24.3434 52.1491 24.1634C51.6571 23.9834 51.2251 23.7074 50.8531 23.3354C50.4811 22.9514 50.1871 22.4774 49.9711 21.9134C49.7551 21.3494 49.6471 20.6774 49.6471 19.8974C49.6471 19.2134 49.7491 18.5894 49.9531 18.0254C50.1571 17.4494 50.4511 16.9574 50.8351 16.5494C51.2311 16.1294 51.7111 15.8054 52.2751 15.5774C52.8391 15.3374 53.4751 15.2174 54.1831 15.2174C54.9631 15.2174 55.6411 15.2774 56.2171 15.3974C56.8051 15.5054 57.2971 15.6074 57.6931 15.7034V24.0554C57.6931 25.4954 57.3211 26.5394 56.5771 27.1874C55.8331 27.8354 54.7051 28.1594 53.1931 28.1594C52.6051 28.1594 52.0471 28.1114 51.5191 28.0154C51.0031 27.9194 50.5531 27.8054 50.1691 27.6734L50.4751 26.2154C50.8111 26.3474 51.2191 26.4614 51.6991 26.5574C52.1911 26.6654 52.7011 26.7194 53.2291 26.7194C54.2251 26.7194 54.9391 26.5214 55.3711 26.1254C55.8151 25.7294 56.0371 25.0994 56.0371 24.2354V23.8394ZM56.0191 16.8914C55.8511 16.8434 55.6231 16.8014 55.3351 16.7654C55.0591 16.7174 54.6811 16.6934 54.2011 16.6934C53.3011 16.6934 52.6051 16.9874 52.1131 17.5754C51.6331 18.1634 51.3931 18.9434 51.3931 19.9154C51.3931 20.4554 51.4591 20.9174 51.5911 21.3014C51.7351 21.6854 51.9211 22.0034 52.1491 22.2554C52.3891 22.5074 52.6591 22.6934 52.9591 22.8134C53.2711 22.9334 53.5891 22.9934 53.9131 22.9934C54.3571 22.9934 54.7651 22.9334 55.1371 22.8134C55.5091 22.6814 55.8031 22.5314 56.0191 22.3634V16.8914ZM60.5754 15.6854C60.9594 15.5894 61.4694 15.4874 62.1054 15.3794C62.7414 15.2714 63.4734 15.2174 64.3014 15.2174C65.0454 15.2174 65.6634 15.3254 66.1554 15.5414C66.6474 15.7454 67.0374 16.0394 67.3254 16.4234C67.6254 16.7954 67.8354 17.2454 67.9554 17.7734C68.0754 18.3014 68.1354 18.8834 68.1354 19.5194V24.7754H66.4614V19.8794C66.4614 19.3034 66.4194 18.8114 66.3354 18.4034C66.2634 17.9954 66.1374 17.6654 65.9574 17.4134C65.7774 17.1614 65.5374 16.9814 65.2374 16.8734C64.9374 16.7534 64.5654 16.6934 64.1214 16.6934C63.9414 16.6934 63.7554 16.6994 63.5634 16.7114C63.3714 16.7234 63.1854 16.7414 63.0054 16.7654C62.8374 16.7774 62.6814 16.7954 62.5374 16.8194C62.4054 16.8434 62.3094 16.8614 62.2494 16.8734V24.7754H60.5754V15.6854Z" fill="#042F24" fill-opacity="0.5"/>
<path d="M118.626 21.7969C118.479 21.5035 118.299 21.1769 118.086 20.8169C117.873 20.4569 117.639 20.0902 117.386 19.7169C117.133 19.3302 116.873 18.9502 116.606 18.5769C116.339 18.2035 116.079 17.8502 115.826 17.5169C115.573 17.8502 115.313 18.2102 115.046 18.5969C114.779 18.9702 114.519 19.3502 114.266 19.7369C114.026 20.1102 113.799 20.4769 113.586 20.8369C113.373 21.1969 113.193 21.5169 113.046 21.7969H111.126C111.593 20.8902 112.146 19.9702 112.786 19.0369C113.439 18.0902 114.086 17.1902 114.726 16.3369L111.286 11.3969H113.386L115.866 15.0369L118.366 11.3969H120.346L116.986 16.2169C117.626 17.0835 118.279 18.0035 118.946 18.9769C119.626 19.9369 120.199 20.8769 120.666 21.7969H118.626ZM125.541 20.4369C126.727 20.4369 127.574 20.2035 128.081 19.7369C128.601 19.2702 128.861 18.6435 128.861 17.8569C128.861 17.3502 128.754 16.9235 128.541 16.5769C128.327 16.2302 128.047 15.9569 127.701 15.7569C127.354 15.5435 126.947 15.3969 126.481 15.3169C126.027 15.2235 125.561 15.1769 125.081 15.1769H124.601V13.6569H125.261C125.594 13.6569 125.934 13.6235 126.281 13.5569C126.641 13.4902 126.967 13.3702 127.261 13.1969C127.554 13.0235 127.794 12.7902 127.981 12.4969C128.167 12.1902 128.261 11.8102 128.261 11.3569C128.261 10.9835 128.194 10.6635 128.061 10.3969C127.927 10.1302 127.747 9.91021 127.521 9.73687C127.307 9.56354 127.054 9.44354 126.761 9.37687C126.481 9.29687 126.181 9.25687 125.861 9.25687C125.221 9.25687 124.674 9.35021 124.221 9.53687C123.781 9.72354 123.407 9.91687 123.101 10.1169L122.381 8.69687C122.541 8.59021 122.741 8.47687 122.981 8.35687C123.234 8.22354 123.514 8.10354 123.821 7.99687C124.127 7.89021 124.454 7.80354 124.801 7.73687C125.161 7.65687 125.534 7.61687 125.921 7.61687C126.654 7.61687 127.287 7.71021 127.821 7.89687C128.354 8.07021 128.794 8.32354 129.141 8.65687C129.487 8.97687 129.747 9.36354 129.921 9.81687C130.094 10.2569 130.181 10.7369 130.181 11.2569C130.181 11.9769 129.974 12.5969 129.561 13.1169C129.147 13.6235 128.647 14.0102 128.061 14.2769C128.421 14.3835 128.767 14.5369 129.101 14.7369C129.434 14.9369 129.721 15.1902 129.961 15.4969C130.214 15.8035 130.414 16.1569 130.561 16.5569C130.721 16.9569 130.801 17.4035 130.801 17.8969C130.801 18.4969 130.694 19.0569 130.481 19.5769C130.281 20.0835 129.961 20.5235 129.521 20.8969C129.094 21.2702 128.554 21.5635 127.901 21.7769C127.247 21.9902 126.474 22.0969 125.581 22.0969C125.234 22.0969 124.874 22.0702 124.501 22.0169C124.141 21.9635 123.801 21.8969 123.481 21.8169C123.161 21.7369 122.881 21.6569 122.641 21.5769C122.401 21.4969 122.227 21.4302 122.121 21.3769L122.481 19.7569C122.707 19.8635 123.081 20.0035 123.601 20.1769C124.134 20.3502 124.781 20.4369 125.541 20.4369Z" fill="#042F24" fill-opacity="0.5"/>
</svg>
