<svg width="177" height="90" viewBox="0 0 177 90" fill="none" xmlns="http://www.w3.org/2000/svg">
<rect x="1" y="1" width="150" height="49.4576" rx="9" stroke="white" stroke-opacity="0.5" stroke-width="2"/>
<path d="M68.6574 21.3676C68.5974 21.4676 68.534 21.5443 68.4674 21.5976C68.4007 21.6443 68.314 21.6676 68.2074 21.6676C68.094 21.6676 67.9607 21.611 67.8074 21.4976C67.6607 21.3843 67.4707 21.261 67.2374 21.1276C67.0107 20.9876 66.734 20.861 66.4074 20.7476C66.0874 20.6343 65.6974 20.5776 65.2374 20.5776C64.804 20.5776 64.4207 20.6376 64.0874 20.7576C63.754 20.871 63.474 21.0276 63.2474 21.2276C63.0274 21.4276 62.8607 21.6643 62.7474 21.9376C62.634 22.2043 62.5774 22.4943 62.5774 22.8076C62.5774 23.2076 62.674 23.541 62.8674 23.8076C63.0674 24.0676 63.3274 24.291 63.6474 24.4776C63.974 24.6643 64.3407 24.8276 64.7474 24.9676C65.1607 25.101 65.5807 25.241 66.0074 25.3876C66.4407 25.5343 66.8607 25.701 67.2674 25.8876C67.6807 26.0676 68.0474 26.2976 68.3674 26.5776C68.694 26.8576 68.954 27.201 69.1474 27.6076C69.3474 28.0143 69.4474 28.5143 69.4474 29.1076C69.4474 29.7343 69.3407 30.3243 69.1274 30.8776C68.914 31.4243 68.6007 31.901 68.1874 32.3076C67.7807 32.7143 67.2774 33.0343 66.6774 33.2676C66.084 33.501 65.4074 33.6176 64.6474 33.6176C63.7207 33.6176 62.874 33.451 62.1074 33.1176C61.3474 32.7776 60.6974 32.321 60.1574 31.7476L60.7174 30.8276C60.7707 30.7543 60.834 30.6943 60.9074 30.6476C60.9874 30.5943 61.074 30.5676 61.1674 30.5676C61.3074 30.5676 61.4674 30.6443 61.6474 30.7976C61.8274 30.9443 62.0507 31.1076 62.3174 31.2876C62.5907 31.4676 62.9174 31.6343 63.2974 31.7876C63.684 31.9343 64.154 32.0076 64.7074 32.0076C65.1674 32.0076 65.5774 31.9443 65.9374 31.8176C66.2974 31.691 66.6007 31.5143 66.8474 31.2876C67.1007 31.0543 67.294 30.7776 67.4274 30.4576C67.5607 30.1376 67.6274 29.781 67.6274 29.3876C67.6274 28.9543 67.5274 28.601 67.3274 28.3276C67.134 28.0476 66.8774 27.8143 66.5574 27.6276C66.2374 27.441 65.8707 27.2843 65.4574 27.1576C65.0507 27.0243 64.6307 26.891 64.1974 26.7576C63.7707 26.6176 63.3507 26.4576 62.9374 26.2776C62.5307 26.0976 62.1674 25.8643 61.8474 25.5776C61.5274 25.291 61.2674 24.9343 61.0674 24.5076C60.874 24.0743 60.7774 23.541 60.7774 22.9076C60.7774 22.401 60.874 21.911 61.0674 21.4376C61.2674 20.9643 61.554 20.5443 61.9274 20.1776C62.3007 19.811 62.7607 19.5176 63.3074 19.2976C63.8607 19.0776 64.494 18.9676 65.2074 18.9676C66.0074 18.9676 66.7374 19.0943 67.3974 19.3476C68.0574 19.601 68.634 19.9676 69.1274 20.4476L68.6574 21.3676ZM73.6228 23.3276V33.4576H71.8428V23.3276H73.6228ZM74.0228 20.1476C74.0228 20.321 73.9862 20.4843 73.9128 20.6376C73.8462 20.7843 73.7528 20.9176 73.6328 21.0376C73.5195 21.151 73.3862 21.241 73.2328 21.3076C73.0795 21.3743 72.9162 21.4076 72.7428 21.4076C72.5695 21.4076 72.4062 21.3743 72.2528 21.3076C72.1062 21.241 71.9728 21.151 71.8528 21.0376C71.7395 20.9176 71.6495 20.7843 71.5828 20.6376C71.5162 20.4843 71.4828 20.321 71.4828 20.1476C71.4828 19.9743 71.5162 19.811 71.5828 19.6576C71.6495 19.4976 71.7395 19.361 71.8528 19.2476C71.9728 19.1276 72.1062 19.0343 72.2528 18.9676C72.4062 18.901 72.5695 18.8676 72.7428 18.8676C72.9162 18.8676 73.0795 18.901 73.2328 18.9676C73.3862 19.0343 73.5195 19.1276 73.6328 19.2476C73.7528 19.361 73.8462 19.4976 73.9128 19.6576C73.9862 19.811 74.0228 19.9743 74.0228 20.1476ZM80.17 23.1576C80.61 23.1576 81.02 23.2076 81.4 23.3076C81.7867 23.401 82.1367 23.541 82.45 23.7276H85.2V24.3876C85.2 24.6076 85.06 24.7476 84.78 24.8076L83.63 24.9676C83.8567 25.401 83.97 25.8843 83.97 26.4176C83.97 26.911 83.8734 27.361 83.68 27.7676C83.4934 28.1676 83.23 28.511 82.89 28.7976C82.5567 29.0843 82.1567 29.3043 81.69 29.4576C81.23 29.611 80.7234 29.6876 80.17 29.6876C79.6967 29.6876 79.25 29.631 78.83 29.5176C78.6167 29.651 78.4534 29.7943 78.34 29.9476C78.2334 30.101 78.18 30.251 78.18 30.3976C78.18 30.6376 78.2767 30.821 78.47 30.9476C78.6634 31.0676 78.92 31.1543 79.24 31.2076C79.56 31.261 79.9234 31.2943 80.33 31.3076C80.7367 31.321 81.15 31.3443 81.57 31.3776C81.9967 31.4043 82.4134 31.4543 82.82 31.5276C83.2267 31.601 83.59 31.721 83.91 31.8876C84.23 32.0543 84.4867 32.2843 84.68 32.5776C84.8734 32.871 84.97 33.251 84.97 33.7176C84.97 34.151 84.86 34.571 84.64 34.9776C84.4267 35.3843 84.1167 35.7443 83.71 36.0576C83.3034 36.3776 82.8067 36.631 82.22 36.8176C81.6334 37.011 80.97 37.1076 80.23 37.1076C79.49 37.1076 78.84 37.0343 78.28 36.8876C77.7267 36.741 77.2667 36.5443 76.9 36.2976C76.5334 36.051 76.2567 35.7643 76.07 35.4376C75.89 35.1176 75.8 34.781 75.8 34.4276C75.8 33.9276 75.9567 33.5043 76.27 33.1576C76.59 32.8043 77.0267 32.5243 77.58 32.3176C77.2934 32.1843 77.0634 32.0076 76.89 31.7876C76.7234 31.561 76.64 31.261 76.64 30.8876C76.64 30.741 76.6667 30.591 76.72 30.4376C76.7734 30.2776 76.8534 30.121 76.96 29.9676C77.0734 29.8143 77.21 29.6676 77.37 29.5276C77.53 29.3876 77.7167 29.2643 77.93 29.1576C77.43 28.8776 77.0367 28.5076 76.75 28.0476C76.47 27.581 76.33 27.0376 76.33 26.4176C76.33 25.9243 76.4234 25.4776 76.61 25.0776C76.8034 24.671 77.07 24.3276 77.41 24.0476C77.75 23.761 78.1534 23.541 78.62 23.3876C79.0934 23.2343 79.61 23.1576 80.17 23.1576ZM83.33 34.0076C83.33 33.7543 83.26 33.551 83.12 33.3976C82.98 33.2443 82.79 33.1276 82.55 33.0476C82.31 32.961 82.0334 32.8976 81.72 32.8576C81.4067 32.8176 81.0767 32.791 80.73 32.7776C80.3834 32.7576 80.03 32.7376 79.67 32.7176C79.31 32.6976 78.9667 32.661 78.64 32.6076C78.26 32.7876 77.95 33.0076 77.71 33.2676C77.4767 33.5276 77.36 33.8376 77.36 34.1976C77.36 34.4243 77.4167 34.6343 77.53 34.8276C77.65 35.0276 77.83 35.1976 78.07 35.3376C78.31 35.4843 78.61 35.5976 78.97 35.6776C79.3367 35.7643 79.7667 35.8076 80.26 35.8076C80.74 35.8076 81.17 35.7643 81.55 35.6776C81.93 35.591 82.25 35.4676 82.51 35.3076C82.7767 35.1476 82.98 34.9576 83.12 34.7376C83.26 34.5176 83.33 34.2743 83.33 34.0076ZM80.17 28.5076C80.53 28.5076 80.8467 28.4576 81.12 28.3576C81.4 28.2576 81.6334 28.1176 81.82 27.9376C82.0067 27.7576 82.1467 27.5443 82.24 27.2976C82.3334 27.0443 82.38 26.7676 82.38 26.4676C82.38 25.8476 82.19 25.3543 81.81 24.9876C81.4367 24.621 80.89 24.4376 80.17 24.4376C79.4567 24.4376 78.91 24.621 78.53 24.9876C78.1567 25.3543 77.97 25.8476 77.97 26.4676C77.97 26.7676 78.0167 27.0443 78.11 27.2976C78.21 27.5443 78.3534 27.7576 78.54 27.9376C78.7267 28.1176 78.9567 28.2576 79.23 28.3576C79.5034 28.4576 79.8167 28.5076 80.17 28.5076ZM86.9749 33.4576V23.3276H88.0349C88.2882 23.3276 88.4482 23.451 88.5149 23.6976L88.6549 24.7976C89.0949 24.311 89.5849 23.9176 90.1249 23.6176C90.6715 23.3176 91.3015 23.1676 92.0149 23.1676C92.5682 23.1676 93.0549 23.261 93.4749 23.4476C93.9015 23.6276 94.2549 23.8876 94.5349 24.2276C94.8215 24.561 95.0382 24.9643 95.1849 25.4376C95.3315 25.911 95.4049 26.4343 95.4049 27.0076V33.4576H93.6249V27.0076C93.6249 26.241 93.4482 25.6476 93.0949 25.2276C92.7482 24.801 92.2149 24.5876 91.4949 24.5876C90.9682 24.5876 90.4749 24.7143 90.0149 24.9676C89.5615 25.221 89.1415 25.5643 88.7549 25.9976V33.4576H86.9749Z" fill="white" fill-opacity="0.5"/>
<path d="M115.578 17.5542C114.848 17.9755 114.596 18.9171 115.017 19.6468L119.613 27.6069C120.034 28.3366 120.976 28.5889 121.705 28.1676C122.435 27.7463 122.687 26.8046 122.266 26.075L117.67 18.1149C117.249 17.3852 116.314 17.1291 115.578 17.5542ZM135.899 17.3193C135.657 17.4505 135.45 17.6586 135.264 17.934L130.656 25.9008C130.23 26.6333 130.488 27.5547 131.22 27.9808C131.953 28.407 132.874 28.1492 133.3 27.4167L137.908 19.4499C138.334 18.7174 138.076 17.796 137.344 17.3699C136.782 17.1016 136.298 17.1066 135.899 17.3193ZM105.165 35.0903C104.777 35.3675 104.58 35.8083 104.542 36.3082C104.544 37.1556 105.213 37.8395 106.061 37.8367L115.264 37.8299C116.112 37.8271 116.795 37.1581 116.793 36.3106C116.79 35.4632 116.121 34.7793 115.273 34.7821L106.07 34.7889C105.701 34.8076 105.399 34.9287 105.165 35.0903ZM123.237 30.821C120.318 32.5061 119.309 36.2728 120.994 39.1915L130.772 56.1265C128.923 54.8237 126.343 53.7568 124.221 54.3544C121.312 55.1226 119.392 58.92 120.037 61.661C120.433 63.1745 121.519 64.5197 123.272 65.9313C131.505 72.2249 140.339 77.7378 148.992 80.7908C149.402 80.9343 149.869 80.8856 150.251 80.674L168.161 70.3335C168.446 70.1689 168.667 69.9085 168.793 69.6058C169.888 67.0899 170.033 63.7869 169.652 60.1859C169.271 56.585 168.327 52.6816 166.954 49.1402C165.582 45.5987 163.817 42.5579 161.555 40.264C159.367 38.0516 156.277 36.9433 153.343 38.2038C152.7 38.5753 152.047 39.0228 151.54 39.4925C150.731 38.8719 149.855 38.4578 149.019 38.3741C147.618 38.2454 146.48 38.602 145.672 39.0864C144.897 39.5515 144.345 40.2504 143.965 41.0625C143.427 40.7894 142.874 40.5068 142.339 40.4531C140.944 40.3035 139.781 40.7097 138.952 41.1884C138.262 41.5867 137.71 42.162 137.226 42.795L131.6 33.0506C129.506 29.5456 125.681 29.4011 123.237 30.821ZM124.769 33.4743C126.262 32.6126 128.093 33.1032 128.954 34.5957L136.231 47.1992C136.573 47.8066 137.36 48.1129 138.02 47.9085C138.681 47.7042 139.157 47.0132 139.095 46.3238C139.035 45.545 139.775 44.2686 140.491 43.855C140.816 43.6673 141.49 43.4553 142.036 43.5118C142.581 43.5683 143.071 43.7276 143.63 44.6961C143.971 45.2864 144.737 45.5871 145.388 45.397C146.039 45.2069 146.523 44.5293 146.486 43.8521C146.399 42.4606 146.592 42.1196 147.247 41.7234C147.429 41.6095 148.145 41.364 148.725 41.4185C149.305 41.4729 149.816 41.6378 150.36 42.5798C150.652 43.101 151.257 43.4147 151.854 43.3446C152.443 43.2783 152.99 42.8303 153.161 42.2538C153.523 41.7173 153.968 41.3543 154.619 40.996C156.313 40.2836 157.71 40.8037 159.415 42.4549C161.132 44.126 162.809 46.9697 164.076 50.236C165.346 53.5091 166.25 57.1884 166.603 60.4959C166.933 63.5955 166.697 66.2966 166.084 67.9771L149.355 77.6358C141.527 74.8319 132.211 68.9602 125.207 63.5228C123.707 62.3191 123.137 61.4543 122.989 60.8763C122.741 59.3127 123.693 57.7903 124.981 57.2943C126.7 57.0092 127.589 57.752 128.813 58.4781L134.498 62.2445C135.066 62.6153 135.895 62.5347 136.385 62.066C136.876 61.5974 136.998 60.7836 136.657 60.1932L123.636 37.6397C122.786 36.1671 123.277 34.336 124.769 33.4743Z" fill="white" fill-opacity="0.5"/>
</svg>
