<svg width="180" height="180" viewBox="0 0 180 180" fill="none" xmlns="http://www.w3.org/2000/svg">
<path d="M136.35 56.5071C138.857 59.0143 138.857 63.0643 136.414 65.5714C136.414 65.5714 136.414 65.5714 136.35 65.6357L78.4929 123.493C77.2714 124.714 75.6643 125.357 73.9286 125.357H73.5429C71.7429 125.229 70.0714 124.329 68.9143 122.914L43.2 90.7714C40.7571 88.2 40.8857 84.15 43.4571 81.7071C46.0286 79.2643 50.0786 79.3929 52.5214 81.9643C52.7786 82.2214 52.9714 82.5429 53.2286 82.8L74.4429 109.286L127.221 56.5071C129.729 54 133.779 54 136.35 56.5071ZM180 90C180 139.693 139.693 180 90 180C40.3071 180 0 139.693 0 90C0 40.3071 40.3071 0 90 0C139.693 0 180 40.3071 180 90ZM167.143 90C167.143 47.3786 132.621 12.8571 90 12.8571C47.3786 12.8571 12.8571 47.3786 12.8571 90C12.8571 132.621 47.3786 167.143 90 167.143C132.621 167.143 167.143 132.621 167.143 90Z" fill="#A3C5AB"/>
</svg>
