<svg width="80" height="80" viewBox="0 0 80 80" fill="none" xmlns="http://www.w3.org/2000/svg">
<path d="M42.1349 3C32.5195 3 24.6946 10.8249 24.6946 20.4403C24.6946 30.0557 32.5195 37.8806 42.1349 37.8806C51.7503 37.8806 59.5752 30.0557 59.5752 20.4403C59.5752 10.8249 51.7503 3 42.1349 3ZM42.1349 35.5281C33.8139 35.5281 27.0471 28.7574 27.0471 20.4403C27.0471 12.1232 33.8139 5.3525 42.1349 5.3525C50.4558 5.3525 57.2227 12.1193 57.2227 20.4403C57.2227 28.7613 50.4558 35.5281 42.1349 35.5281Z" fill="white"/>
<path d="M42.5552 19.502C39.8074 18.9633 38.513 18.5564 38.513 17.1805C38.513 16.1845 38.9432 15.4946 39.8307 15.0644C41.3693 14.3203 43.9233 14.611 45.2953 15.6884C45.8069 16.0915 46.5471 16.0023 46.9463 15.4908C47.3494 14.983 47.2602 14.2428 46.7487 13.8436C45.8108 13.1034 44.5861 12.6344 43.3149 12.4251V10.3362C43.3149 9.68507 42.7878 9.16187 42.1405 9.16187C41.4933 9.16187 40.9662 9.68895 40.9662 10.3362V12.3593C40.195 12.4484 39.4586 12.6344 38.8075 12.9522C37.1061 13.7777 36.1682 15.2815 36.1682 17.1805C36.1682 20.6415 39.602 21.3158 42.1057 21.808C44.8108 22.339 45.7681 22.7033 45.7681 23.6916C45.7681 24.6566 45.3612 25.3387 44.5241 25.7728C43.0474 26.5402 40.5787 26.3115 39.1253 25.2845C38.5944 24.9124 37.8619 25.0325 37.4859 25.5635C37.11 26.0945 37.234 26.8269 37.765 27.2029C38.668 27.8424 39.7958 28.2532 40.9662 28.4431V31.2529C40.9662 31.904 41.4933 32.4272 42.1405 32.4272C42.7878 32.4272 43.3149 31.9001 43.3149 31.2529V28.4741C44.1365 28.3811 44.9271 28.2105 45.6015 27.8617C47.2254 27.0246 48.1168 25.5402 48.1168 23.6916C48.1129 20.5988 45.0318 19.9904 42.5552 19.502Z" fill="white"/>
<path d="M41.8912 48.5924C42.0279 48.7291 42.2495 48.7291 42.3862 48.5924L44.6135 46.365C44.7502 46.2283 44.7502 46.0067 44.6135 45.87C44.4769 45.7333 44.2553 45.7333 44.1186 45.87L42.1387 47.8499L40.1588 45.87C40.0221 45.7333 39.8005 45.7333 39.6638 45.87C39.5271 46.0067 39.5271 46.2283 39.6638 46.365L41.8912 48.5924ZM41.7887 39.6248L41.7887 48.3449L42.4887 48.3449L42.4887 39.6248L41.7887 39.6248Z" fill="white"/>
<g clip-path="url(#clip0)">
<path d="M73.6512 55.2031C72.6222 52.829 70.3375 51.7177 67.6866 52.4586C64.1985 53.4351 60.7454 54.5296 57.2747 55.5735C55.1645 56.2133 53.0542 56.8194 50.8916 57.4593C50.7695 57.1057 50.6649 56.9205 50.6474 56.7353C50.2289 53.8224 48.3802 52.1892 45.3107 52.1555C43.1655 52.1387 41.0029 52.0208 38.8752 52.1892C35.5092 52.4586 32.4572 51.6167 29.4226 50.3876C24.487 48.3671 19.377 47.1548 13.953 47.4242C11.7904 47.5421 10.0987 47.3905 9 47.4916V70.6597C10.6219 70.2051 12.2788 70.0199 12.5404 70.0199C14.1449 70.1209 15.8366 70.0536 17.3365 70.5418C23.458 72.5118 29.5621 74.566 35.579 76.8053C38.7008 77.9671 41.3692 77.6809 44.212 76.0476C50.5951 72.3771 57.1178 68.8918 63.5881 65.3391C66.1518 63.9248 68.7156 62.5273 71.2793 61.113C73.5989 59.8333 74.5755 57.3582 73.6512 55.2031ZM69.8666 58.7894C66.2914 60.8267 62.6812 62.7798 59.0711 64.7666C53.3855 67.8816 47.6651 70.9628 41.997 74.1282C40.4274 75.0037 38.9624 75.1553 37.2533 74.5491C30.8701 72.2929 24.4695 70.0704 18.0341 67.9826C16.4121 67.4606 14.5983 67.3933 12.8717 67.2586C11.9997 67.1912 11.6684 67.006 11.6858 66.1305C11.7381 63.6554 11.7032 61.1635 11.7032 58.6884C11.7032 56.2133 11.6858 53.7214 11.7381 51.2463C11.7381 50.8927 12.1567 50.2192 12.3834 50.2361C15.8017 50.2697 19.2723 49.8151 22.6034 50.8759C25.2369 51.7177 27.8878 52.5428 30.4341 53.5867C33.0153 54.6474 35.6488 55.0515 38.4392 54.9168C40.6716 54.8158 42.9039 54.9 45.1188 54.9C46.8629 54.9 47.9965 55.6913 47.9791 56.9036C47.9616 58.1327 46.8803 58.9073 45.1014 58.9241C41.5436 58.9409 37.9858 58.9409 34.428 58.9241C31.5329 58.9241 29.1959 59.8838 28.0099 62.561C27.6088 63.4702 27.5739 64.5646 27.4867 65.5748C27.417 66.383 27.9053 66.9723 28.7599 66.9892C29.6144 67.006 30.033 66.4504 30.0853 65.6254C30.1725 63.8574 30.748 62.3589 32.6839 61.7528C33.1548 61.6012 33.6955 61.5676 34.2012 61.5676C37.637 61.5507 41.0727 61.7023 44.491 61.5002C46.6362 61.3655 48.7813 60.8772 50.8567 60.2711C56.6294 58.6042 62.3673 56.7858 68.1052 55.0178C69.4655 54.5969 70.477 54.9337 70.9654 55.9439C71.4886 57.1057 71.2095 58.0317 69.8666 58.7894Z" fill="white"/>
</g>
<defs>
<clipPath id="clip0">
<rect width="65" height="30.122" fill="white" transform="translate(9 47.3901)"/>
</clipPath>
</defs>
</svg>
