<svg width="32" height="32" viewBox="0 0 32 32" fill="none" xmlns="http://www.w3.org/2000/svg">
<path d="M31.0428 22.9731C31.0428 23.1956 30.8759 23.4182 30.6533 23.4738L15.9655 28.5923C15.4648 28.7592 15.0197 28.8148 14.519 28.8148C14.0739 28.8148 13.6845 28.7592 13.2394 28.6479L1 25.6992V17.187L2.40365 16.6765C3.49913 16.2781 4.66261 16.0319 5.81456 16.2102C7.69443 16.5012 9.49583 17.2494 11.0696 18.3553C12.4049 18.6892 19.1368 16.9644 18.6917 21.1371C18.636 21.6378 18.4691 22.0829 18.191 22.4724L19.86 22.5836L27.2596 20.2469C29.0955 19.5793 31.0428 20.9702 31.0428 22.9731Z" fill="white"/>
<path fill-rule="evenodd" clip-rule="evenodd" d="M20.7424 3C17.2055 3 14.3526 5.85287 14.3526 9.38975C14.3526 12.9266 17.2055 15.7962 20.7424 15.7962C24.2793 15.7962 27.1488 12.9266 27.1488 9.38975C27.1488 5.85287 24.2793 3 20.7424 3ZM22.3774 12.2092C22.0771 12.4595 21.71 12.643 21.3096 12.7264V13.1769C21.3096 13.8109 20.1918 13.8109 20.1918 13.1769V12.7264C19.1908 12.5096 18.4734 11.7421 18.4568 10.8412C18.4401 10.2239 19.5412 10.2072 19.5579 10.8245C19.5579 11.2082 19.8081 11.5419 20.1918 11.7087C20.1918 11.7087 20.6923 11.9757 21.3096 11.7087C21.3301 11.6999 21.3497 11.6899 21.3687 11.6789C21.4486 11.6377 21.5263 11.5923 21.5932 11.5252C22.027 11.1582 22.0771 10.5075 21.6099 10.1238C21.5424 10.0698 21.4531 10.0159 21.3685 9.97083C21.3495 9.95916 21.33 9.94881 21.3096 9.9403C20.9007 9.7688 20.6628 9.87707 20.1918 9.79449V9.79015C20.0899 9.7738 19.9911 9.75145 19.8955 9.72375C19.8563 9.71207 19.8156 9.6989 19.7734 9.68438C19.528 9.59813 19.3083 9.47484 19.1241 9.32302C18.2065 8.58895 18.2566 7.33769 19.1241 6.58694C19.4077 6.33668 19.7747 6.15317 20.1918 6.06975V5.6193C20.1918 4.98533 21.3096 4.98533 21.3096 5.6193V6.06975C22.2105 6.25327 23.028 6.97065 23.0447 7.93829C23.0614 8.57226 21.9603 8.58895 21.9436 7.95498C21.9269 7.55457 21.2262 6.60362 20.1918 7.07076C20.0852 7.11897 19.9918 7.17069 19.9199 7.2451C19.9161 7.2481 19.912 7.25127 19.9082 7.25427C19.4911 7.62131 19.4077 8.25528 19.8582 8.62231C19.9104 8.65702 19.9671 8.69172 20.0258 8.72425C20.0769 8.76329 20.1324 8.79148 20.1918 8.80583C20.5634 8.89592 21.3096 8.9393 21.3096 8.9393C21.4953 8.978 21.6738 9.0384 21.8418 9.11514C21.8613 9.12682 21.8789 9.135 21.8942 9.13967C22.0685 9.22392 22.2309 9.32585 22.3774 9.4398C23.2783 10.1906 23.2616 11.4418 22.3774 12.2092Z" fill="white"/>
</svg>
