<svg width="20" height="20" viewBox="0 0 20 20" fill="none" xmlns="http://www.w3.org/2000/svg">
<path d="M19.4369 14.939C19.4369 15.0699 19.3387 15.2008 19.2078 15.2335L10.5679 18.2444C10.2734 18.3426 10.0115 18.3753 9.71701 18.3753C9.45519 18.3753 9.22611 18.3426 8.96429 18.2771L1.76465 16.5426V11.5354L1.90849 11.4831C3.00397 11.0847 4.17937 10.8122 5.30665 11.109C6.15451 11.3322 6.96235 11.7128 7.68795 12.2227C8.47339 12.419 12.4333 11.4045 12.1715 13.859C12.1388 14.1535 12.0406 14.4154 11.877 14.6444L12.8588 14.7099L17.2114 13.3354C18.2914 12.9426 19.4369 13.7608 19.4369 14.939Z" fill="#E6F1EB"/>
<path fill-rule="evenodd" clip-rule="evenodd" d="M13.3778 3.18945C11.2973 3.18945 9.61914 4.86761 9.61914 6.94813C9.61914 9.02865 11.2973 10.7166 13.3778 10.7166C15.4583 10.7166 17.1463 9.02865 17.1463 6.94813C17.1463 4.86761 15.4583 3.18945 13.3778 3.18945ZM14.3396 8.60666C14.1629 8.75387 13.947 8.86182 13.7115 8.91089V9.17586C13.7115 9.54878 13.054 9.54878 13.054 9.17586V8.91089C12.4651 8.78331 12.0431 8.33187 12.0333 7.80193C12.0235 7.43882 12.6712 7.42901 12.681 7.79212C12.681 8.01783 12.8282 8.21411 13.054 8.31225C13.054 8.31225 13.3484 8.46927 13.7115 8.31225C13.7236 8.30704 13.735 8.30116 13.7462 8.29468C13.7932 8.27044 13.839 8.24375 13.8783 8.20429C14.1335 7.98839 14.1629 7.60565 13.8881 7.37994C13.8484 7.34814 13.7959 7.31644 13.7461 7.28994C13.7349 7.28307 13.7235 7.27699 13.7115 7.27199C13.471 7.1711 13.331 7.23479 13.054 7.18621V7.18366C12.994 7.17404 12.9359 7.16089 12.8797 7.1446C12.8566 7.13773 12.8327 7.12998 12.8078 7.12144C12.6635 7.0707 12.5342 6.99818 12.4259 6.90887C11.8861 6.47707 11.9156 5.74104 12.4259 5.29942C12.5927 5.15221 12.8086 5.04426 13.054 4.99519V4.73022C13.054 4.35729 13.7115 4.35729 13.7115 4.73022V4.99519C14.2414 5.10314 14.7223 5.52513 14.7321 6.09433C14.7419 6.46726 14.0942 6.47707 14.0844 6.10415C14.0746 5.86861 13.6624 5.30923 13.054 5.58401C12.9913 5.61238 12.9363 5.6428 12.894 5.68657C12.8917 5.68834 12.8894 5.6902 12.8871 5.69197C12.6418 5.90787 12.5927 6.28079 12.8577 6.4967C12.8884 6.51711 12.9218 6.53752 12.9563 6.55666C12.9863 6.57962 13.019 6.59621 13.054 6.60465C13.2725 6.65764 13.7115 6.68316 13.7115 6.68316C13.8207 6.70593 13.9257 6.74145 14.0245 6.7866C14.036 6.79347 14.0463 6.79827 14.0554 6.80102C14.1579 6.85058 14.2534 6.91054 14.3396 6.97757C14.8695 7.41919 14.8597 8.15522 14.3396 8.60666Z" fill="#E6F1EB"/>
</svg>
