<svg width="38" height="38" viewBox="0 0 38 38" fill="none" xmlns="http://www.w3.org/2000/svg">
<path d="M36.9317 28.3794C36.9317 28.6281 36.7452 28.8768 36.4965 28.939L20.0807 34.6597C19.5211 34.8462 19.0236 34.9084 18.464 34.9084C17.9665 34.9084 17.5313 34.8462 17.0338 34.7218L3.35449 31.4262V21.9126L5.11808 21.2712C6.21356 20.8728 7.37573 20.6307 8.53037 20.7908C10.7054 21.0922 12.7927 21.9422 14.6088 23.2184C16.1011 23.5914 23.625 21.6638 23.1275 26.3274C23.0654 26.887 22.8788 27.3845 22.5679 27.8198L24.4333 27.9441L32.7034 25.3325C34.7554 24.5863 36.9317 26.1409 36.9317 28.3794Z" fill="#ABD1B4"/>
<path fill-rule="evenodd" clip-rule="evenodd" d="M25.4198 6.05664C21.4668 6.05664 18.2783 9.24514 18.2783 13.1981C18.2783 17.1511 21.4668 20.3583 25.4198 20.3583C29.3728 20.3583 32.5799 17.1511 32.5799 13.1981C32.5799 9.24514 29.3728 6.05664 25.4198 6.05664ZM27.2471 16.3493C26.9115 16.629 26.5013 16.8341 26.0538 16.9274V17.4308C26.0538 18.1394 24.8045 18.1394 24.8045 17.4308V16.9274C23.6857 16.685 22.8839 15.8272 22.8653 14.8203C22.8466 14.1304 24.0773 14.1118 24.0959 14.8017C24.0959 15.2306 24.3756 15.6035 24.8045 15.7899C24.8045 15.7899 25.3639 16.0883 26.0538 15.7899C26.0767 15.7801 26.0985 15.7689 26.1198 15.7566C26.2091 15.7105 26.296 15.6598 26.3708 15.5848C26.8556 15.1746 26.9115 14.4474 26.3894 14.0186C26.3139 13.9581 26.2141 13.8979 26.1196 13.8476C26.0983 13.8345 26.0765 13.823 26.0538 13.8135C25.5968 13.6218 25.3309 13.7428 24.8045 13.6505V13.6456C24.6906 13.6274 24.5802 13.6024 24.4733 13.5714C24.4295 13.5584 24.384 13.5436 24.3368 13.5274C24.0626 13.431 23.817 13.2932 23.6111 13.1235C22.5856 12.3031 22.6415 10.9046 23.6111 10.0656C23.9281 9.78588 24.3383 9.58077 24.8045 9.48754V8.98409C24.8045 8.27554 26.0538 8.27554 26.0538 8.98409V9.48754C27.0607 9.69265 27.9743 10.4944 27.993 11.5759C28.0116 12.2845 26.781 12.3031 26.7623 11.5946C26.7437 11.147 25.9605 10.0842 24.8045 10.6063C24.6853 10.6602 24.5809 10.718 24.5006 10.8012C24.4963 10.8045 24.4918 10.8081 24.4875 10.8114C24.0213 11.2216 23.9281 11.9302 24.4316 12.3404C24.4899 12.3792 24.5533 12.418 24.619 12.4543C24.676 12.498 24.7381 12.5295 24.8045 12.5455C25.2197 12.6462 26.0538 12.6947 26.0538 12.6947C26.2613 12.7379 26.4608 12.8054 26.6486 12.8912C26.6704 12.9043 26.69 12.9134 26.7071 12.9186C26.902 13.0128 27.0834 13.1267 27.2471 13.2541C28.254 14.0931 28.2354 15.4916 27.2471 16.3493Z" fill="#ABD1B4"/>
</svg>
