<svg width="64" height="64" viewBox="0 0 64 64" fill="none" xmlns="http://www.w3.org/2000/svg">
<path d="M51.9982 41.5917C51.9982 41.888 51.7759 42.1842 51.4797 42.2583L31.9247 49.0729C31.2581 49.2951 30.6655 49.3692 29.9989 49.3692C29.4063 49.3692 28.8878 49.2951 28.2952 49.147L12 45.2212V33.8882L14.4175 33.009C15.513 32.6106 16.6736 32.3744 17.8314 32.5093C20.5425 32.825 23.1502 33.8582 25.4064 35.4437C27.1841 35.8881 36.1468 33.5919 35.5542 39.1473C35.4802 39.8139 35.2579 40.4065 34.8876 40.925L37.1097 41.0732L46.9613 37.9621C49.4056 37.0733 51.9982 38.9251 51.9982 41.5917Z" fill="white"/>
<path fill-rule="evenodd" clip-rule="evenodd" d="M38.2841 15C33.5752 15 29.777 18.7982 29.777 23.5071C29.777 28.2161 33.5752 32.0365 38.2841 32.0365C42.993 32.0365 46.8135 28.2161 46.8135 23.5071C46.8135 18.7982 42.993 15 38.2841 15ZM40.4609 27.261C40.0611 27.5941 39.5724 27.8385 39.0393 27.9495V28.5492C39.0393 29.3933 37.5511 29.3933 37.5511 28.5492V27.9495C36.2184 27.6608 35.2633 26.639 35.2411 25.4396C35.2189 24.6177 36.6849 24.5955 36.7071 25.4174C36.7071 25.9282 37.0403 26.3725 37.5511 26.5946C37.5511 26.5946 38.2175 26.95 39.0393 26.5946C39.0666 26.5828 39.0926 26.5695 39.118 26.5548C39.2244 26.5 39.3279 26.4396 39.4169 26.3503C39.9944 25.8616 40.0611 24.9953 39.4391 24.4845C39.3492 24.4125 39.2303 24.3408 39.1177 24.2808C39.0924 24.2652 39.0664 24.2515 39.0393 24.2401C38.4949 24.0118 38.1782 24.156 37.5511 24.046V24.0402C37.4154 24.0185 37.2839 23.9887 37.1566 23.9518C37.1044 23.9363 37.0503 23.9187 36.9941 23.8994C36.6673 23.7846 36.3748 23.6204 36.1296 23.4183C34.9079 22.441 34.9746 20.7751 36.1296 19.7756C36.5072 19.4424 36.9958 19.198 37.5511 19.087V18.4873C37.5511 17.6432 39.0393 17.6432 39.0393 18.4873V19.087C40.2388 19.3313 41.3271 20.2864 41.3494 21.5747C41.3716 22.4188 39.9056 22.441 39.8834 21.5969C39.8612 21.0638 38.9283 19.7978 37.5511 20.4197C37.4092 20.4839 37.2848 20.5527 37.1891 20.6518C37.184 20.6558 37.1786 20.66 37.1735 20.664C36.6182 21.1527 36.5072 21.9967 37.1069 22.4854C37.1764 22.5316 37.2519 22.5778 37.3301 22.6211C37.3981 22.6731 37.4721 22.7106 37.5511 22.7297C38.0458 22.8497 39.0393 22.9074 39.0393 22.9074C39.2865 22.959 39.5242 23.0394 39.7479 23.1415C39.7739 23.1571 39.7972 23.168 39.8176 23.1742C40.0497 23.2864 40.2659 23.4221 40.4609 23.5738C41.6603 24.5733 41.6381 26.2392 40.4609 27.261Z" fill="white"/>
</svg>
