<svg width="73" height="73" viewBox="0 0 73 73" fill="none" xmlns="http://www.w3.org/2000/svg">
<path fill-rule="evenodd" clip-rule="evenodd" d="M36.4524 0C16.2751 0 0 16.2751 0 36.4524C0 56.6297 16.2751 73 36.4524 73C56.6297 73 73 56.6297 73 36.4524C73 16.2751 56.6297 0 36.4524 0ZM45.7797 52.5372C44.0665 53.9648 41.9726 55.0117 39.6884 55.4876V58.0574C39.6884 61.6741 33.3116 61.6741 33.3116 58.0574V55.4876C27.601 54.2503 23.5085 49.8722 23.4133 44.7327C23.3181 41.2112 29.5997 41.116 29.6949 44.6376C29.6949 46.8266 31.1226 48.7301 33.3116 49.6819C33.3116 49.6819 36.1669 51.2047 39.6884 49.6819C39.8055 49.6314 39.9168 49.5743 40.0253 49.5115C40.4812 49.2764 40.9247 49.0175 41.3064 48.6349C43.781 46.5411 44.0665 42.8292 41.4016 40.6402C41.0161 40.3318 40.5069 40.0244 40.0244 39.7674C39.9159 39.7008 39.8045 39.6418 39.6884 39.5932C37.3556 38.6148 35.9984 39.2325 33.3116 38.7614V38.7366C32.7301 38.6434 32.1666 38.5158 31.6213 38.3578C31.3976 38.2912 31.1654 38.216 30.9246 38.1332C29.5246 37.6412 28.2711 36.9378 27.2203 36.0717C21.9857 31.884 22.2712 24.7458 27.2203 20.4628C28.8383 19.0352 30.9322 17.9883 33.3116 17.5124V14.9426C33.3116 11.3259 39.6884 11.3259 39.6884 14.9426V17.5124C44.8279 18.5593 49.4915 22.6519 49.5867 28.1721C49.6819 31.7888 43.4003 31.884 43.3051 28.2673C43.2099 25.9831 39.2125 20.558 33.3116 23.2229C32.7034 23.498 32.1704 23.7931 31.7602 24.2175C31.7383 24.2347 31.7155 24.2528 31.6936 24.2699C29.3142 26.3638 28.8383 29.9804 31.4081 32.0743C31.706 32.2723 32.0296 32.4702 32.3646 32.6558C32.6558 32.8786 32.9728 33.0394 33.3116 33.1213C35.4312 33.6352 39.6884 33.8827 39.6884 33.8827C40.7477 34.1035 41.7661 34.448 42.7245 34.8858C42.8359 34.9524 42.9358 34.9991 43.0234 35.0257C44.018 35.5064 44.944 36.0879 45.7797 36.7379C50.9192 41.0209 50.824 48.1591 45.7797 52.5372Z" fill="#A3B8A7"/>
</svg>
