<svg width="67" height="68" viewBox="0 0 67 68" fill="none" xmlns="http://www.w3.org/2000/svg">
<g clip-path="url(#clip0)">
<path d="M33.4787 0C15.0208 0 0 15.2547 0 34C0 52.7453 15.0208 68 33.4787 68C51.9366 68 66.9574 52.7453 66.9574 34C66.9574 15.2547 51.9366 0 33.4787 0ZM33.4787 63.4138C17.5056 63.4138 4.51591 50.2142 4.51591 34C4.51591 17.7858 17.5056 4.58622 33.4787 4.58622C49.4518 4.58622 62.4415 17.7782 62.4415 34C62.4415 50.2218 49.4518 63.4138 33.4787 63.4138Z" fill="white"/>
<path d="M34.2821 32.1712C29.0074 31.1209 26.5225 30.3276 26.5225 27.6454C26.5225 25.7036 27.3483 24.3587 29.052 23.52C32.0056 22.0694 36.9083 22.6361 39.542 24.7365C40.524 25.5223 41.945 25.3485 42.7113 24.3512C43.485 23.3614 43.3139 21.9183 42.3319 21.14C40.5315 19.6969 38.1805 18.7827 35.7403 18.3747V14.3023C35.7403 13.0329 34.7285 12.0129 33.4861 12.0129C32.2436 12.0129 31.2318 13.0405 31.2318 14.3023V18.2463C29.7513 18.4201 28.3378 18.7827 27.0879 19.4023C23.8219 21.0116 22.0215 23.9432 22.0215 27.6454C22.0215 34.3925 28.6131 35.7072 33.4191 36.6667C38.612 37.7018 40.4496 38.412 40.4496 40.3387C40.4496 42.22 39.6685 43.5498 38.0615 44.396C35.227 45.892 30.4879 45.4463 27.698 43.444C26.6787 42.7187 25.2726 42.9529 24.551 43.988C23.8293 45.0232 24.0674 46.4512 25.0866 47.1841C26.8201 48.4307 28.9851 49.2316 31.2318 49.6018V55.0796C31.2318 56.3489 32.2436 57.3689 33.4861 57.3689C34.7285 57.3689 35.7403 56.3414 35.7403 55.0796V49.6623C37.3175 49.4809 38.8352 49.1485 40.1297 48.4685C43.247 46.8365 44.9581 43.9427 44.9581 40.3387C44.9507 34.3094 39.0361 33.1232 34.2821 32.1712Z" fill="white"/>
</g>
<defs>
<clipPath id="clip0">
<rect width="66.9574" height="68" fill="white"/>
</clipPath>
</defs>
</svg>
