<svg width="20" height="20" viewBox="0 0 20 20" fill="none" xmlns="http://www.w3.org/2000/svg">
<path fill-rule="evenodd" clip-rule="evenodd" d="M9.98827 1C5.01304 1 1 5.01304 1 9.98827C1 14.9635 5.01304 19 9.98827 19C14.9635 19 19 14.9635 19 9.98827C19 5.01304 14.9635 1 9.98827 1ZM12.2881 13.9544C11.8657 14.3064 11.3494 14.5645 10.7862 14.6819V15.3155C10.7862 16.2073 9.21382 16.2073 9.21382 15.3155V14.6819C7.80574 14.3768 6.79661 13.2973 6.77314 12.03C6.74967 11.1617 8.29857 11.1382 8.32203 12.0065C8.32203 12.5463 8.67406 13.0156 9.21382 13.2503C9.21382 13.2503 9.91786 13.6258 10.7862 13.2503C10.815 13.2379 10.8425 13.2238 10.8693 13.2083C10.9817 13.1504 11.091 13.0865 11.1851 12.9922C11.7953 12.4759 11.8657 11.5606 11.2086 11.0209C11.1136 10.9448 10.988 10.869 10.869 10.8057C10.8423 10.7892 10.8148 10.7747 10.7862 10.7627C10.211 10.5215 9.87632 10.6738 9.21382 10.5576V10.5515C9.07043 10.5285 8.9315 10.4971 8.79703 10.4581C8.74188 10.4417 8.68462 10.4231 8.62524 10.4027C8.28003 10.2814 7.97095 10.108 7.71187 9.89439C6.42112 8.8618 6.49153 7.10169 7.71187 6.04563C8.11082 5.69361 8.62712 5.43546 9.21382 5.31812V4.68448C9.21382 3.7927 10.7862 3.7927 10.7862 4.68448V5.31812C12.0535 5.57627 13.2034 6.5854 13.2269 7.94654C13.2503 8.83833 11.7014 8.8618 11.678 7.97001C11.6545 7.40678 10.6688 6.0691 9.21382 6.72621C9.06386 6.79403 8.93244 6.86678 8.83129 6.97145C8.82589 6.97567 8.82026 6.98013 8.81486 6.98435C8.22816 7.50065 8.11082 8.39244 8.74446 8.90874C8.81791 8.95755 8.89771 9.00636 8.98031 9.05212C9.05213 9.10704 9.13027 9.1467 9.21382 9.16688C9.73645 9.29361 10.7862 9.35463 10.7862 9.35463C11.0474 9.40907 11.2985 9.49403 11.5348 9.60198C11.5623 9.61841 11.5869 9.62991 11.6085 9.63648C11.8537 9.75499 12.0821 9.89838 12.2881 10.0587C13.5554 11.1147 13.5319 12.8748 12.2881 13.9544Z" fill="#E6F1EB"/>
</svg>
