<svg width="41" height="41" viewBox="0 0 41 41" fill="none" xmlns="http://www.w3.org/2000/svg">
<path fill-rule="evenodd" clip-rule="evenodd" d="M20.4733 0C9.14081 0 0 9.14081 0 20.4733C0 31.8057 9.14081 41 20.4733 41C31.8057 41 41 31.8057 41 20.4733C41 9.14081 31.8057 0 20.4733 0ZM25.7119 29.5072C24.7497 30.309 23.5737 30.897 22.2907 31.1643V32.6076C22.2907 34.6389 18.7093 34.6389 18.7093 32.6076V31.1643C15.502 30.4694 13.2034 28.0104 13.1499 25.1239C13.0965 23.146 16.6245 23.0926 16.678 25.0704C16.678 26.2999 17.4798 27.369 18.7093 27.9035C18.7093 27.9035 20.3129 28.7588 22.2907 27.9035C22.3565 27.8752 22.419 27.8431 22.48 27.8078C22.736 27.6758 22.9851 27.5304 23.1995 27.3155C24.5893 26.1395 24.7497 24.0548 23.2529 22.8253C23.0364 22.6521 22.7505 22.4794 22.4794 22.3351C22.4185 22.2977 22.356 22.2646 22.2907 22.2373C20.9806 21.6878 20.2183 22.0347 18.7093 21.7701V21.7562C18.3826 21.7038 18.0662 21.6322 17.7599 21.5434C17.6343 21.506 17.5038 21.4638 17.3686 21.4173C16.5823 21.1409 15.8783 20.7459 15.2881 20.2595C12.3481 17.9074 12.5085 13.8983 15.2881 11.4928C16.1969 10.691 17.3729 10.103 18.7093 9.83572V8.39244C18.7093 6.36115 22.2907 6.36115 22.2907 8.39244V9.83572C25.1773 10.4237 27.7966 12.7223 27.8501 15.8227C27.9035 17.854 24.3755 17.9074 24.322 15.8761C24.2686 14.5932 22.0235 11.5463 18.7093 13.043C18.3677 13.1975 18.0683 13.3632 17.8379 13.6016C17.8256 13.6113 17.8128 13.6214 17.8005 13.631C16.4641 14.807 16.1969 16.8383 17.6402 18.0143C17.8075 18.1255 17.9892 18.2367 18.1774 18.341C18.341 18.466 18.519 18.5564 18.7093 18.6023C19.8997 18.891 22.2907 19.03 22.2907 19.03C22.8857 19.154 23.4577 19.3475 23.996 19.5934C24.0585 19.6308 24.1146 19.657 24.1638 19.672C24.7224 19.9419 25.2425 20.2685 25.7119 20.6336C28.5984 23.0391 28.545 27.0482 25.7119 29.5072Z" fill="#ABD1B4"/>
</svg>
