<svg width="35" height="35" viewBox="0 0 35 35" fill="none" xmlns="http://www.w3.org/2000/svg">
<path d="M24.0703 9.92969C26.0234 11.8828 27 14.4609 27 17C27 19.5781 26.0234 22.1172 24.0703 24.0703C22.1172 26.0234 19.5391 27 17 27C14.4219 27 11.8828 26.0234 9.92969 24.0703C7.97656 22.1172 7 19.5781 7 17C7 14.4219 7.97656 11.8828 9.92969 9.92969C11.8828 7.97656 14.4219 7 17 7C19.5781 7 22.1172 7.97656 24.0703 9.92969ZM25.3203 17C25.3203 14.8516 24.5 12.7422 22.8984 11.1016C21.2578 9.46094 19.1484 8.67969 17 8.67969C14.8516 8.67969 12.7422 9.5 11.1016 11.1016C9.46094 12.7422 8.67969 14.8516 8.67969 17C8.67969 19.1484 9.5 21.2578 11.1016 22.8984C12.7422 24.5391 14.8516 25.3203 17 25.3203C19.1484 25.3203 21.2578 24.5 22.8984 22.8984C24.5391 21.2578 25.3203 19.1484 25.3203 17Z" fill="#196635"/>
<path d="M24.0703 11.1016L11.1016 24.0703L9.92969 22.8984L22.8984 9.92969L24.0703 11.1016Z" fill="#196635"/>
</svg>
