<svg width="32" height="32" viewBox="0 0 32 32" fill="none" xmlns="http://www.w3.org/2000/svg">
<path d="M16 2C8.27789 2 2 8.27789 2 16C2 23.7221 8.27789 30 16 30C23.7221 30 30 23.7221 30 16C30 8.27789 23.7221 2 16 2ZM7.48211 12.6695C7.48211 12.3747 7.74737 12.1095 8.04211 12.1095H17.1495V8.77895C17.1495 8.30737 17.7095 8.04211 18.0632 8.36632L24.2821 13.7895C24.6653 14.1432 24.4295 14.7621 23.9284 14.7621H8.04211C7.74737 14.7621 7.48211 14.4968 7.48211 14.2021V12.6695ZM24.5179 19.3305C24.5179 19.6253 24.2526 19.8905 23.9579 19.8905H14.8505V23.2211C14.8505 23.6926 14.2905 23.9579 13.9368 23.6337L7.68842 18.24C7.30526 17.8863 7.54105 17.2674 8.04211 17.2674H23.9579C24.2526 17.2674 24.5179 17.5032 24.5179 17.8274V19.3305Z" fill="white"/>
</svg>
