<svg width="20" height="20" viewBox="0 0 20 20" fill="none" xmlns="http://www.w3.org/2000/svg">
<path d="M10 1.25C5.17368 1.25 1.25 5.17368 1.25 10C1.25 14.8263 5.17368 18.75 10 18.75C14.8263 18.75 18.75 14.8263 18.75 10C18.75 5.17368 14.8263 1.25 10 1.25ZM4.67632 7.91842C4.67632 7.73421 4.84211 7.56842 5.02632 7.56842H10.7184V5.48684C10.7184 5.19211 11.0684 5.02632 11.2895 5.22895L15.1763 8.61842C15.4158 8.83947 15.2684 9.22632 14.9553 9.22632H5.02632C4.84211 9.22632 4.67632 9.06053 4.67632 8.87632V7.91842ZM15.3237 12.0816C15.3237 12.2658 15.1579 12.4316 14.9737 12.4316H9.28158V14.5132C9.28158 14.8079 8.93158 14.9737 8.71053 14.7711L4.80526 11.4C4.56579 11.1789 4.71316 10.7921 5.02632 10.7921H14.9737C15.1579 10.7921 15.3237 10.9395 15.3237 11.1421V12.0816Z" fill="#E6F1EB"/>
</svg>
