<svg width="64" height="64" viewBox="0 0 64 64" fill="none" xmlns="http://www.w3.org/2000/svg">
<path d="M36.9995 50.5909V43.9136C36.9146 43.0892 36.541 41.4405 35.726 41.4405C35.6988 41.4405 35.6784 41.4407 35.6647 41.4409C35.6361 41.4418 35.635 41.4413 35.6647 41.4409C36.1177 41.4258 43.4745 41.0401 44.6404 34.0212C45.6592 27.888 44.0921 28.0858 42.8575 26.602C43.1971 25.283 43.328 22.3977 42.3481 21.4084C40.5263 20.6666 38.273 22.3152 36.9995 23.3869C34.9619 22.8098 30.1226 22.0019 27.0662 23.3869C24.5192 20.6666 22.9521 21.1612 21.4628 21.4084C20.9145 22.645 20.0365 25.2171 21.4628 26.602C19.6799 28.5804 18.4064 30.3116 19.4252 34.0212C20.444 37.7309 21.9722 41.4405 28.085 41.4405C27.0662 42.6276 26.9813 43.5838 27.0662 43.9136C25.8776 44.5731 23.0929 45.2491 21.4628 42.677C19.8328 40.105 18.0668 40.1215 17.3876 40.4513C17.1329 40.6161 16.8273 41.0448 17.6423 41.4405C18.6611 41.9351 20.1893 44.4082 20.444 44.9028C20.6987 45.3974 21.9722 48.1178 26.8115 46.8813V50.0963C26.8964 50.7558 26.5568 51.8275 24.5192 50.8382C21.9722 49.6017 11.2749 45.3974 12.039 30.8062C12.6502 19.1333 23.7162 13 31.3961 13C39.076 13 50.8041 17.1548 52.0267 30.8062C53.2493 44.4577 43.1971 50.1787 38.0183 51.3328C37.6787 51.4153 36.9995 51.3823 36.9995 50.5909Z" fill="white"/>
</svg>
