<svg width="80" height="80" viewBox="0 0 80 80" fill="none" xmlns="http://www.w3.org/2000/svg">
<path d="M41.9234 9.81011L41.9228 9.80953C41.0976 9.06349 39.8539 9.06349 39.0288 9.80953L39.0283 9.80999L5.9762 39.5295L5.97592 39.5298C5.07863 40.3341 5.00397 41.7273 5.80316 42.6377C6.59818 43.5433 7.9723 43.618 8.87119 42.8125L41.9234 9.81011ZM41.9234 9.81011L75.0239 39.5296L75.0241 39.5298C75.9214 40.3341 75.996 41.7273 75.1968 42.6377C74.4017 43.5434 73.0274 43.618 72.1285 42.8122L66.4775 37.7301L66.0603 37.3549V37.916V63.0262C66.0603 67.8507 62.1977 71.75 57.4297 71.75H23.5703C18.8023 71.75 14.9397 67.8507 14.9397 63.0262V37.916V37.3549L14.5225 37.7301L8.8715 42.8122L41.9234 9.81011ZM19.3182 33.3817L19.2352 33.4562V33.5678V63.0262C19.2352 65.4134 21.1531 67.3552 23.5219 67.3552H57.4297C59.7985 67.3552 61.7164 65.4134 61.7164 63.0262V33.5678V33.4562L61.6333 33.3817L40.6428 14.5449L40.4758 14.3951L40.3088 14.5449L19.3182 33.3817Z" fill="white" stroke="#013E2F" stroke-width="0.5"/>
</svg>
