<svg width="32" height="32" viewBox="0 0 32 32" fill="none" xmlns="http://www.w3.org/2000/svg">
<path d="M27.565 11.9405L17.065 1.44357C16.9256 1.30302 16.7597 1.19146 16.5769 1.11533C16.3941 1.0392 16.198 1 16 1C15.802 1 15.6059 1.0392 15.4231 1.11533C15.2403 1.19146 15.0744 1.30302 14.935 1.44357L4.43502 11.9405C4.296 12.0806 4.18601 12.2468 4.11137 12.4295C4.03672 12.6122 3.99888 12.8079 4.00003 13.0052V29.5004C4.00003 29.8981 4.15806 30.2796 4.43936 30.5608C4.72067 30.842 5.1022 31 5.50002 31H10C10.2905 30.9904 10.5719 30.8966 10.81 30.7301C10.9004 30.6839 10.9858 30.6286 11.065 30.5651C11.1285 30.4859 11.1838 30.4005 11.23 30.3102C11.3966 30.0721 11.4904 29.7908 11.5 29.5004V20.503C11.5 20.1053 11.658 19.7239 11.9393 19.4427C12.2207 19.1615 12.6022 19.0035 13 19.0035H19C19.3978 19.0035 19.7793 19.1615 20.0607 19.4427C20.342 19.7239 20.5 20.1053 20.5 20.503V29.5004C20.5 29.8981 20.658 30.2796 20.9393 30.5608C21.2206 30.842 21.6022 31 22 31H26.5C26.8978 31 27.2793 30.842 27.5606 30.5608C27.8419 30.2796 28 29.8981 28 29.5004V13.0052C28.0011 12.8079 27.9633 12.6122 27.8886 12.4295C27.814 12.2468 27.704 12.0806 27.565 11.9405Z" fill="white"/>
</svg>
