<svg width="64" height="64" viewBox="0 0 64 64" fill="none" xmlns="http://www.w3.org/2000/svg">
<path d="M47.42 26.5916L33.42 12.5916C33.2341 12.4041 33.0129 12.2554 32.7692 12.1538C32.5255 12.0523 32.2641 12 32 12C31.736 12 31.4746 12.0523 31.2309 12.1538C30.9872 12.2554 30.766 12.4041 30.58 12.5916L16.58 26.5916C16.3947 26.7785 16.248 27.0001 16.1485 27.2438C16.049 27.4875 15.9985 27.7484 16 28.0116V50.0116C16 50.542 16.2107 51.0507 16.5858 51.4258C16.9609 51.8009 17.4696 52.0116 18 52.0116H24C24.3873 51.9988 24.7625 51.8737 25.08 51.6516C25.2005 51.59 25.3144 51.5162 25.42 51.4316C25.5047 51.326 25.5784 51.2121 25.64 51.0916C25.8621 50.7741 25.9872 50.3989 26 50.0116V38.0116C26 37.4812 26.2107 36.9725 26.5858 36.5974C26.9609 36.2223 27.4696 36.0116 28 36.0116H36C36.5305 36.0116 37.0392 36.2223 37.4142 36.5974C37.7893 36.9725 38 37.4812 38 38.0116V50.0116C38 50.542 38.2107 51.0507 38.5858 51.4258C38.9609 51.8009 39.4696 52.0116 40 52.0116H46C46.5305 52.0116 47.0392 51.8009 47.4142 51.4258C47.7893 51.0507 48 50.542 48 50.0116V28.0116C48.0016 27.7484 47.9511 27.4875 47.8516 27.2438C47.752 27.0001 47.6054 26.7785 47.42 26.5916Z" fill="white"/>
</svg>
