<svg width="20" height="20" viewBox="0 0 20 20" fill="none" xmlns="http://www.w3.org/2000/svg">
<path d="M17.2281 7.46283L10.6656 0.902231C10.5785 0.814386 10.4748 0.744661 10.3605 0.697079C10.2463 0.649497 10.1238 0.625 10 0.625C9.87624 0.625 9.7537 0.649497 9.63946 0.697079C9.52522 0.744661 9.42153 0.814386 9.33438 0.902231L2.77189 7.46283C2.685 7.5504 2.61626 7.65426 2.5696 7.76845C2.52295 7.88264 2.4993 8.00492 2.50002 8.12826V18.4378C2.50002 18.6863 2.59879 18.9247 2.7746 19.1005C2.95042 19.2763 3.18887 19.375 3.43751 19.375H6.25001C6.43154 19.369 6.60742 19.3104 6.75626 19.2063C6.81273 19.1774 6.86613 19.1429 6.91563 19.1032C6.95531 19.0537 6.98986 19.0003 7.01876 18.9439C7.12286 18.7951 7.18148 18.6193 7.18751 18.4378V12.8144C7.18751 12.5658 7.28628 12.3274 7.46209 12.1517C7.63791 11.9759 7.87636 11.8772 8.125 11.8772H11.875C12.1236 11.8772 12.3621 11.9759 12.5379 12.1517C12.7137 12.3274 12.8125 12.5658 12.8125 12.8144V18.4378C12.8125 18.6863 12.9113 18.9247 13.0871 19.1005C13.2629 19.2763 13.5014 19.375 13.75 19.375H16.5625C16.8111 19.375 17.0496 19.2763 17.2254 19.1005C17.4012 18.9247 17.5 18.6863 17.5 18.4378V8.12826C17.5007 8.00492 17.477 7.88264 17.4304 7.76845C17.3837 7.65426 17.315 7.5504 17.2281 7.46283Z" fill="#E6F1EB"/>
</svg>
