<svg width="20" height="20" viewBox="0 0 20 20" fill="none" xmlns="http://www.w3.org/2000/svg">
<path d="M9.71309 9.63493V5.62109H6.51255C6.22925 6.83511 6.05821 8.19967 6.0332 9.63493H9.71309Z" fill="#E6F1EB"/>
<path d="M5.29688 10.3652H1.25C1.31096 11.8229 1.73351 13.1888 2.43027 14.3791H5.74677C5.47786 13.1625 5.3199 11.8064 5.29688 10.3652Z" fill="#E6F1EB"/>
<path d="M18.9115 10.3633C18.8526 11.8229 18.4289 13.1876 17.7326 14.3771H14.417C14.6859 13.162 14.8444 11.8046 14.8665 10.3633H18.9115Z" fill="#E6F1EB"/>
<path d="M5.74647 5.61914C5.47754 6.8379 5.31913 8.19529 5.29701 9.63298H1.25195C1.31091 8.17705 1.73456 6.81235 2.43085 5.61914H5.74647Z" fill="#E6F1EB"/>
<path d="M10.4492 1.25V4.89141H13.4607C13.0247 3.3644 12.404 2.13357 11.679 1.38681C11.2776 1.31385 10.8673 1.26708 10.4492 1.25Z" fill="#E6F1EB"/>
<path d="M10.4492 10.3652V14.3791H13.65C13.9333 13.165 14.1043 11.8005 14.1293 10.3652H10.4492Z" fill="#E6F1EB"/>
<path d="M7.31236 18.3185C5.52561 17.731 3.98936 16.5925 2.90625 15.1074H5.92716C6.27346 16.3846 6.74502 17.4792 7.31236 18.3185Z" fill="#E6F1EB"/>
<path d="M5.92585 4.8911C6.27125 3.61452 6.74403 2.52155 7.31062 1.68359C5.52264 2.26998 3.98636 3.40675 2.90625 4.8911H5.92585Z" fill="#E6F1EB"/>
<path d="M14.2374 15.1074C13.892 16.3842 13.4192 17.4773 12.8525 18.3153C14.6405 17.7289 16.1769 16.5922 17.2571 15.1074H14.2374Z" fill="#E6F1EB"/>
<path d="M9.71352 18.749V15.1074H6.70215C7.13808 16.6344 7.7587 17.8652 8.48352 18.612C8.88495 18.685 9.29531 18.7319 9.71352 18.749Z" fill="#E6F1EB"/>
<path d="M8.48252 1.38696C8.88409 1.31398 9.29301 1.26654 9.71299 1.25195V4.88994H6.70312C7.13784 3.36468 7.75677 2.13499 8.48252 1.38696Z" fill="#E6F1EB"/>
<path d="M6.0332 10.3633H9.71357V14.3771H6.51214C6.22847 13.1657 6.05899 11.801 6.0332 10.3633Z" fill="#E6F1EB"/>
<path d="M14.1315 9.63298H10.4512V5.61914H13.6526C13.9362 6.83424 14.1057 8.19894 14.1315 9.63298Z" fill="#E6F1EB"/>
<path d="M10.4512 15.1074H13.461C13.0263 16.6364 12.4074 17.866 11.6816 18.6141C11.2801 18.687 10.8675 18.7345 10.4512 18.7491V15.1074Z" fill="#E6F1EB"/>
<path d="M14.417 5.62109C14.6859 6.83769 14.8439 8.19377 14.867 9.63493H18.9145C18.8541 8.17749 18.4316 6.8115 17.7347 5.62109H14.417Z" fill="#E6F1EB"/>
<path d="M17.2586 4.88905H14.2377C13.8914 3.61558 13.4199 2.52089 12.8525 1.68164C14.6393 2.26912 16.1755 3.40758 17.2586 4.88905Z" fill="#E6F1EB"/>
</svg>
