<svg width="32" height="32" viewBox="0 0 32 32" fill="none" xmlns="http://www.w3.org/2000/svg">
<path d="M15.4154 15.6563V9.11917H10.3422C9.89317 11.0964 9.62205 13.3188 9.58241 15.6563H15.4154Z" fill="white"/>
<path d="M8.41465 16.8449H2C2.09662 19.219 2.7664 21.4435 3.87082 23.382H9.12777C8.70153 21.4006 8.45115 19.1921 8.41465 16.8449Z" fill="white"/>
<path d="M29.9972 16.842C29.9037 19.2192 29.2322 21.4418 28.1285 23.3792H22.873C23.2993 21.4002 23.5504 19.1895 23.5854 16.842H29.9972Z" fill="white"/>
<path d="M9.12693 9.11633C8.70066 11.1013 8.44957 13.312 8.4145 15.6535H2.00273C2.09618 13.2823 2.7677 11.0597 3.87138 9.11633H9.12693Z" fill="white"/>
<path d="M16.5833 2V7.9306H21.3567C20.6656 5.44362 19.6817 3.43903 18.5326 2.22282C17.8964 2.10399 17.246 2.02782 16.5833 2Z" fill="white"/>
<path d="M16.5833 16.8449V23.382H21.6568C22.1058 21.4047 22.3769 19.1824 22.4165 16.8449H16.5833Z" fill="white"/>
<path d="M11.6086 29.7975C8.7765 28.8407 6.3414 26.9865 4.62459 24.5678H9.41299C9.9619 26.6478 10.7094 28.4306 11.6086 29.7975Z" fill="white"/>
<path d="M9.41295 7.93058C9.96044 5.85149 10.7098 4.07143 11.6079 2.70668C8.77383 3.66169 6.33869 5.51311 4.62662 7.93058H9.41295Z" fill="white"/>
<path d="M22.586 24.5706C22.0385 26.65 21.289 28.4303 20.3908 29.7951C23.2249 28.8401 25.6602 26.9887 27.3724 24.5706H22.586Z" fill="white"/>
<path d="M15.4153 30.5014V24.5706H10.6421C11.333 27.0575 12.3168 29.062 13.4657 30.2783C14.102 30.3972 14.7525 30.4735 15.4153 30.5014Z" fill="white"/>
<path d="M13.4656 2.22264C14.1021 2.10378 14.7503 2.02652 15.416 2.00276V7.92777H10.6451C11.3342 5.44366 12.3152 3.44092 13.4656 2.22264Z" fill="white"/>
<path d="M9.58226 16.842H15.416V23.3792H10.3414C9.89177 21.4062 9.62314 19.1836 9.58226 16.842Z" fill="white"/>
<path d="M22.4175 15.6535H16.5838V9.11633H21.6583C22.1079 11.0953 22.3766 13.3179 22.4175 15.6535Z" fill="white"/>
<path d="M16.5838 24.5678H21.3547C20.6656 27.0579 19.6846 29.0605 18.5342 30.2789C17.8977 30.3977 17.2437 30.475 16.5838 30.4988V24.5678Z" fill="white"/>
<path d="M22.8711 9.11917C23.2974 11.1006 23.5478 13.3092 23.5843 15.6563H30C29.9042 13.2827 29.2346 11.0579 28.1299 9.11917H22.8711Z" fill="white"/>
<path d="M27.3753 7.92777H22.5869C22.0379 5.85372 21.2905 4.07086 20.3912 2.70401C23.2234 3.6608 25.6585 5.51497 27.3753 7.92777Z" fill="white"/>
</svg>
