<svg width="14" height="14" viewBox="0 0 14 14" fill="none" xmlns="http://www.w3.org/2000/svg">
<path fill-rule="evenodd" clip-rule="evenodd" d="M5.82885 10.418C5.82885 10.7111 5.92182 10.9502 6.10723 11.1395C6.29695 11.3249 6.53244 11.4217 6.81459 11.4217C7.10069 11.4217 7.33977 11.3249 7.52877 11.1395C7.72154 10.9502 7.81828 10.7111 7.81828 10.418C7.81828 10.1285 7.72154 9.88579 7.52877 9.70038C7.33977 9.51067 7.10069 9.41787 6.81459 9.41787C6.53244 9.41787 6.29677 9.51085 6.10723 9.70038C5.92164 9.88579 5.82885 10.1285 5.82885 10.418ZM6.16772 8.42854H7.51459C7.47851 8.15374 7.49664 8.01769 7.57903 7.79656C7.66428 7.57508 7.77503 7.36436 7.91449 7.16836C8.05018 6.97128 8.20723 6.78246 8.38241 6.6001C8.55346 6.42133 8.71787 6.23197 8.86792 6.03597C9.01797 5.83926 9.14631 5.63213 9.24646 5.41441C9.34985 5.19256 9.39992 4.9499 9.39992 4.6751C9.39992 4.32133 9.33926 4.01459 9.22151 3.75003C9.09982 3.48223 8.92841 3.26056 8.70728 3.08215C8.48544 2.8998 8.22105 2.76446 7.92131 2.67508C7.61779 2.58569 7.28933 2.53903 6.93197 2.53903C6.44251 2.53903 6.00367 2.64636 5.61418 2.8569C5.22128 3.06403 4.88187 3.33182 4.59972 3.66082L5.45336 4.41772C5.64613 4.21059 5.8572 4.04995 6.07797 3.92862C6.30341 3.81051 6.54985 3.74985 6.82464 3.74985C7.16441 3.74985 7.42862 3.84282 7.6212 4.03164C7.81056 4.22136 7.90731 4.4678 7.90731 4.77831C7.90731 4.97503 7.85723 5.15685 7.76085 5.32826C7.66051 5.50003 7.539 5.67467 7.39272 5.84985C7.24626 6.02449 7.08921 6.20703 6.92515 6.38903C6.76039 6.5748 6.61428 6.77079 6.48559 6.98528C6.35726 7.19977 6.26051 7.43579 6.19285 7.69228C6.12536 7.95003 6.12177 8.12179 6.16772 8.42854ZM0 7C0 10.8645 3.13582 14 7 14C10.8645 14 14 10.8645 14 7C14 3.13546 10.8645 0 7 0C3.13582 0 0 3.13546 0 7ZM1.28944 7C1.28944 3.84641 3.84641 1.28908 7 1.28908C10.1536 1.28908 12.7109 3.84641 12.7109 7C12.7109 10.1536 10.1536 12.7109 7 12.7109C3.84641 12.7109 1.28944 10.1536 1.28944 7Z" fill="#AAC9B8"/>
</svg>
