<svg width="64" height="64" viewBox="0 0 64 64" fill="none" xmlns="http://www.w3.org/2000/svg">
<path d="M31.5 51C35.1589 51 38.7357 49.915 41.778 47.8822C44.8204 45.8494 47.1915 42.9601 48.5918 39.5796C49.992 36.1992 50.3583 32.4795 49.6445 28.8908C48.9307 25.3022 47.1687 22.0058 44.5815 19.4185C41.9942 16.8313 38.6978 15.0693 35.1092 14.3555C31.5205 13.6416 27.8008 14.008 24.4204 15.4082C21.0399 16.8085 18.1506 19.1796 16.1178 22.222C14.085 25.2643 13 28.8411 13 32.5C13 34.9295 13.4785 37.3351 14.4082 39.5796C15.3379 41.8242 16.7006 43.8636 18.4185 45.5815C20.1364 47.2994 22.1758 48.6621 24.4204 49.5918C26.6649 50.5215 29.0705 51 31.5 51V51ZM31.5 21.4C31.8659 21.4 32.2236 21.5085 32.5278 21.7118C32.832 21.9151 33.0691 22.204 33.2092 22.542C33.3492 22.8801 33.3858 23.2521 33.3144 23.6109C33.2431 23.9698 33.0669 24.2994 32.8081 24.5582C32.5494 24.8169 32.2198 24.9931 31.8609 25.0645C31.502 25.1358 31.1301 25.0992 30.792 24.9592C30.454 24.8192 30.1651 24.582 29.9618 24.2778C29.7585 23.9736 29.65 23.6159 29.65 23.25C29.65 22.7594 29.8449 22.2888 30.1918 21.9419C30.5388 21.5949 31.0093 21.4 31.5 21.4ZM29.65 30.65C29.65 30.1594 29.8449 29.6888 30.1918 29.3419C30.5388 28.9949 31.0093 28.8 31.5 28.8C31.9906 28.8 32.4612 28.9949 32.8081 29.3419C33.1551 29.6888 33.35 30.1594 33.35 30.65V41.75C33.35 42.2407 33.1551 42.7112 32.8081 43.0581C32.4612 43.4051 31.9906 43.6 31.5 43.6C31.0093 43.6 30.5388 43.4051 30.1918 43.0581C29.8449 42.7112 29.65 42.2407 29.65 41.75L29.65 30.65Z" fill="white"/>
</svg>
