<svg width="42" height="42" viewBox="0 0 42 42" fill="none" xmlns="http://www.w3.org/2000/svg">
<path d="M23.6941 16.9932L22.1566 29.8182H19.1066L20.6441 16.9932H23.6941ZM24.4691 13.2557C24.4691 13.5224 24.4108 13.7724 24.2941 14.0057C24.1858 14.2391 24.04 14.4432 23.8566 14.6182C23.6816 14.7932 23.4775 14.9349 23.2441 15.0432C23.0108 15.1432 22.7691 15.1932 22.5191 15.1932C22.2775 15.1932 22.04 15.1432 21.8066 15.0432C21.5816 14.9349 21.3816 14.7932 21.2066 14.6182C21.0316 14.4432 20.89 14.2391 20.7816 14.0057C20.6816 13.7724 20.6316 13.5224 20.6316 13.2557C20.6316 12.9891 20.6858 12.7349 20.7941 12.4932C20.9025 12.2516 21.0441 12.0432 21.2191 11.8682C21.3941 11.6849 21.5941 11.5432 21.8191 11.4432C22.0525 11.3349 22.29 11.2807 22.5316 11.2807C22.7816 11.2807 23.0233 11.3349 23.2566 11.4432C23.49 11.5432 23.6941 11.6807 23.8691 11.8557C24.0525 12.0307 24.1983 12.2391 24.3066 12.4807C24.415 12.7224 24.4691 12.9807 24.4691 13.2557Z" fill="white"/>
<circle cx="21" cy="21" r="20" stroke="white" stroke-width="2"/>
</svg>
