<svg width="51" height="45" viewBox="0 0 51 45" fill="none" xmlns="http://www.w3.org/2000/svg">
<path d="M50.3936 20.25L39.8704 2.25C39.4735 1.56659 38.9029 0.998955 38.2157 0.604038C37.5286 0.209121 36.749 0.000809419 35.9553 0H15.0447C14.251 0.000809419 13.4714 0.209121 12.7843 0.604038C12.0971 0.998955 11.5264 1.56659 11.1296 2.25L0.606384 20.25C0.209135 20.9341 0 21.7101 0 22.5C0 23.2899 0.209135 24.0659 0.606384 24.75L11.0617 42.75C11.4586 43.4334 12.0292 44.001 12.7164 44.396C13.4035 44.7909 14.1831 44.9992 14.9768 45H35.8874C36.6811 44.9992 37.4607 44.7909 38.1479 44.396C38.835 44.001 39.4057 43.4334 39.8025 42.75L50.3936 24.75C50.7909 24.0659 51 23.2899 51 22.5C51 21.7101 50.7909 20.9341 50.3936 20.25ZM25.5 36C25.0524 36 24.6149 35.868 24.2427 35.6208C23.8706 35.3736 23.5805 35.0222 23.4092 34.611C23.2379 34.1999 23.1931 33.7475 23.2804 33.311C23.3677 32.8746 23.5833 32.4737 23.8998 32.159C24.2163 31.8443 24.6195 31.63 25.0585 31.5432C25.4975 31.4564 25.9525 31.501 26.366 31.6713C26.7796 31.8416 27.133 32.13 27.3817 32.5C27.6303 32.87 27.7631 33.305 27.7631 33.75C27.7631 34.3467 27.5246 34.919 27.1002 35.341C26.6758 35.7629 26.1002 36 25.5 36ZM27.7631 24.75C27.7631 25.3467 27.5246 25.919 27.1002 26.341C26.6758 26.7629 26.1002 27 25.5 27C24.8998 27 24.3242 26.7629 23.8998 26.341C23.4754 25.919 23.2369 25.3467 23.2369 24.75V11.25C23.2369 10.6533 23.4754 10.081 23.8998 9.65901C24.3242 9.23705 24.8998 9 25.5 9C26.1002 9 26.6758 9.23705 27.1002 9.65901C27.5246 10.081 27.7631 10.6533 27.7631 11.25V24.75Z" fill="#A3B8A7"/>
</svg>
