<svg width="12" height="12" viewBox="0 0 12 12" fill="none" xmlns="http://www.w3.org/2000/svg">
<path d="M11.0769 4.61538V10.6154C11.0769 11.6308 10.2508 12 9.69231 12H1.38462C0.369231 12 0 11.1738 0 10.6154V2.30769C0 1.29231 0.826154 0.923077 1.38462 0.923077H6.92308C7.17692 0.923077 7.38462 1.13077 7.38462 1.38462C7.38462 1.63846 7.17692 1.84615 6.92308 1.84615H1.38462C1.17692 1.85077 0.923077 1.93846 0.923077 2.30769V10.6154C0.927692 10.8231 1.01538 11.0769 1.38462 11.0769H9.69231C9.9 11.0723 10.1538 10.9892 10.1538 10.6154V4.61538C10.1538 4.36154 10.3615 4.15385 10.6154 4.15385C10.8692 4.15385 11.0769 4.36154 11.0769 4.61538ZM11.5385 0H8.76923C8.51538 0 8.30769 0.207692 8.30769 0.461538C8.30769 0.715385 8.51538 0.923077 8.76923 0.923077H10.3615L4.76308 6.12462C4.57846 6.3 4.56462 6.59077 4.74 6.77538C4.82769 6.87692 4.95231 6.92308 5.07692 6.92308C5.18769 6.92308 5.30308 6.88154 5.39077 6.79846L11.0769 1.51846V3.23077C11.0769 3.48462 11.2846 3.69231 11.5385 3.69231C11.7923 3.69231 12 3.48462 12 3.23077V0.461538C12 0.207692 11.7923 0 11.5385 0Z" fill="#AAC9B8"/>
</svg>
