<svg width="32" height="32" viewBox="0 0 32 32" fill="none" xmlns="http://www.w3.org/2000/svg">
<path d="M1.56097 27.1509L1.56097 16.0755C1.56097 15.5232 2.00869 15.0755 2.56097 15.0755H6.02439C6.57667 15.0755 7.02439 15.5232 7.02439 16.0755L7.02439 27.1509H1.56097Z" fill="white"/>
<path d="M17.1707 27.1509V13.8113C17.1707 13.259 17.6184 12.8113 18.1707 12.8113H21.6341C22.1864 12.8113 22.6341 13.259 22.6341 13.8113V27.1509H17.1707Z" fill="white"/>
<path d="M9.36586 27.1509L9.36586 8.5283C9.36586 7.97602 9.81358 7.5283 10.3659 7.5283H13.8293C14.3816 7.5283 14.8293 7.97601 14.8293 8.5283V27.1509H9.36586Z" fill="white"/>
<path d="M24.9756 27.1509V4C24.9756 3.44771 25.4233 3 25.9756 3H29.439C29.9913 3 30.439 3.44771 30.439 4V27.1509H24.9756Z" fill="white"/>
<rect y="26.3962" width="32" height="2.26415" rx="1" fill="white"/>
</svg>
