<svg width="20" height="20" viewBox="0 0 20 20" fill="none" xmlns="http://www.w3.org/2000/svg">
<path d="M1.92676 17.8301L1.92676 11.4154C1.92676 10.8632 2.37447 10.4154 2.92676 10.4154H4.17066C4.72295 10.4154 5.17066 10.8632 5.17066 11.4154V17.8301H1.92676Z" fill="#E6F1EB"/>
<path d="M11.1953 17.8301V10.0252C11.1953 9.47292 11.643 9.0252 12.1953 9.0252H13.4392C13.9915 9.0252 14.4392 9.47291 14.4392 10.0252V17.8301H11.1953Z" fill="#E6F1EB"/>
<path d="M6.56055 17.8301L6.56055 6.7813C6.56055 6.22901 7.00826 5.7813 7.56055 5.7813H8.80445C9.35673 5.7813 9.80445 6.22901 9.80445 6.7813V17.8301H6.56055Z" fill="#E6F1EB"/>
<path d="M15.8291 17.8301V4.00081C15.8291 3.44853 16.2768 3.00081 16.8291 3.00081H18.073C18.6253 3.00081 19.073 3.44852 19.073 4.00081V17.8301H15.8291Z" fill="#E6F1EB"/>
<rect x="1" y="17.3672" width="19" height="1.39024" rx="0.695122" fill="#E6F1EB"/>
</svg>
