<svg width="80" height="80" viewBox="0 0 80 80" fill="none" xmlns="http://www.w3.org/2000/svg">
<path d="M64.6754 64.0203C64.5489 64.1131 64.1103 64.2565 63.8826 64.2565H63.0392C62.9549 64.2565 62.8705 64.248 62.7778 64.2227L61.3693 63.8854C61.2934 63.8685 61.2175 63.8432 61.15 63.801L59.1681 62.8058C58.215 62.3336 57.1524 62.0805 56.0982 62.0637L54.3692 62.0468C54.3355 62.0468 54.3102 62.0468 54.2849 62.0468L54.1078 62.0552C54.074 62.0552 54.0487 62.0552 54.0234 62.0637L52.5559 62.2492C52.0837 62.3167 51.6282 62.3167 51.1559 62.2576C50.5571 62.1902 49.9752 62.0131 49.4354 61.76L42.3426 57.7034L29.2786 50.9479L22.7676 46.8912C21.9074 46.3514 21.0724 45.7442 20.2965 45.0863L13.7772 39.5453L11.9386 38.1537C10.4036 36.9983 8.58191 36.1887 6.67587 35.8091L4.50837 35.3874C3.82523 35.2525 3.15896 35.6995 3.02401 36.3911C2.88907 37.0742 3.33607 37.7405 4.02764 37.8754L6.1867 38.2971C7.71323 38.6007 9.17228 39.2501 10.4036 40.1779L12.1832 41.5188L18.6435 47.0177C19.5122 47.7599 20.4483 48.443 21.4182 49.0418L27.9713 53.1238C27.9966 53.1407 28.0303 53.1575 28.0556 53.1744L41.1112 59.9299L48.1957 63.9866C48.221 64.0035 48.2463 64.0119 48.2716 64.0288C48.7438 64.2565 49.2414 64.4336 49.7475 64.5685C50.1607 71.4927 55.9042 77 62.9296 77C70.2164 77 76.1454 71.071 76.1454 63.7842C76.1454 61.4902 75.5635 59.2636 74.4502 57.2901L75.8418 55.8648C76.8707 54.8106 77.5201 53.4274 77.6804 51.9768L78.8611 41.4176C79.0888 38.8959 78.1105 36.3658 76.2129 34.6284L58.9319 19.5656C58.4428 19.1186 57.8355 18.8318 57.1777 18.7306L4.45777 11.0136C3.76619 10.9124 3.12522 11.3847 3.02401 12.0763C2.92281 12.7679 3.3951 13.4089 4.08668 13.5101L56.7982 21.2355C56.9584 21.2608 57.1102 21.3282 57.2452 21.4547L74.5514 36.5007C75.8418 37.6814 76.5165 39.4272 76.3647 41.1478L75.1839 51.6816C75.0827 52.5756 74.6779 53.4359 74.0454 54.0853L72.9743 55.1817C71.7008 53.6973 70.1236 52.5166 68.3525 51.7238C68.6308 51.2346 68.7658 50.678 68.7405 50.1214L68.5634 45.1117C68.5296 44.108 68.0067 43.1887 67.1634 42.6658L60.8548 38.6513C60.3741 38.3393 59.8428 38.1453 59.2862 38.0694L54.909 37.4031C53.315 37.167 51.6957 37.6477 50.4728 38.7272L45.7245 42.961C45.1679 43.4502 44.839 44.1671 44.8306 44.9092C44.8137 45.6514 45.1173 46.3767 45.6571 46.8912L48.4993 49.6069C49.3005 50.3744 50.2113 51.0491 51.215 51.5973L54.4198 53.3431C54.7825 53.5371 55.162 53.7226 55.5837 53.8997L57.7343 54.8106C58.7295 55.2323 59.6404 55.7973 60.45 56.4889C60.4922 56.5226 60.5344 56.5564 60.5765 56.5817L62.044 57.5516C62.6175 57.9311 63.1151 58.4034 63.5368 58.9431L63.6717 59.1203C64.4477 60.1323 64.9031 61.3468 64.9959 62.6203L65.0549 63.489L64.9115 63.7504C64.8693 63.8432 64.785 63.936 64.6754 64.0203ZM52.4379 49.3623C51.6282 48.9153 50.8945 48.3756 50.2535 47.7599L47.4029 45.0442C47.3691 45.0104 47.3607 44.9683 47.3607 44.9345C47.3607 44.8924 47.3776 44.8586 47.4113 44.8333L52.1596 40.5995C52.8174 40.0176 53.6861 39.7646 54.5379 39.8827L58.9235 40.5489C59.1259 40.5742 59.3199 40.6502 59.497 40.7682L65.8139 44.7827C65.9489 44.8671 66.0332 45.0189 66.0416 45.1876L66.2188 50.2057C66.2188 50.29 66.2019 50.3828 66.1597 50.4671L65.9236 50.8888C63.0561 50.231 59.944 50.5683 57.2705 51.8419L56.5873 51.5551C56.2668 51.4202 55.9463 51.2684 55.6427 51.1081L52.4379 49.3623ZM67.526 62.4432C67.4079 60.6721 66.767 58.9853 65.6874 57.5769L65.5525 57.3998C64.9621 56.6323 64.2537 55.9744 63.4525 55.4347L62.0524 54.507C61.5633 54.0937 61.0404 53.7142 60.4922 53.3768C62.3645 52.9383 64.3464 52.9889 66.1597 53.5624C68.4537 54.2792 70.4694 55.7889 71.8188 57.8046C72.9996 59.5588 73.6321 61.6251 73.6321 63.7673C73.6321 69.6626 68.8417 74.453 62.9464 74.453C57.397 74.453 52.8258 70.2023 52.3114 64.7878C52.5053 64.7794 52.6993 64.7709 52.8849 64.7456L54.3018 64.5685L54.3945 64.5601L56.0813 64.577C56.756 64.5854 57.4476 64.7541 58.0548 65.0577L60.0283 66.0529C60.2729 66.1709 60.5259 66.2722 60.7958 66.3312L62.1705 66.6601C62.4488 66.736 62.744 66.7697 63.0561 66.7697H63.8995C64.5742 66.7697 65.5947 66.5083 66.2441 66.0107C66.6405 65.7071 66.9525 65.3276 67.1634 64.9312L67.4754 64.3661C67.5935 64.1553 67.6441 63.9107 67.6272 63.6745L67.526 62.4432Z" fill="white"/>
</svg>
