<svg width="76" height="69" viewBox="0 0 76 69" fill="none" xmlns="http://www.w3.org/2000/svg">
<path fill-rule="evenodd" clip-rule="evenodd" d="M71.3534 30.6054C71.1234 30.5689 67.9146 30.0953 63.4829 29.4395C64.8875 33.8238 63.9067 38.5847 58.9059 40.9651C56.9443 41.9003 54.8374 42.216 52.7063 42.2889C53.0091 42.3132 53.2028 42.3253 53.2028 42.3253C53.893 42.4711 54.5589 42.7018 55.1886 42.9812C55.2612 43.0297 55.3218 43.054 55.3823 43.0783C56.0362 43.3941 56.6416 43.7706 57.1865 44.2078C60.5526 47.0255 60.4921 51.7013 57.1865 54.5797C56.0604 55.5148 54.6921 56.2071 53.2028 56.5107V58.1989C53.2028 60.5793 49.0254 60.5793 49.0254 58.1989V56.5107C45.2838 55.697 42.6079 52.8186 42.5473 49.4545C42.4868 47.1469 46.5916 47.074 46.6642 49.3937C46.6642 50.8268 47.5966 52.0778 49.0375 52.7093C49.0375 52.7093 50.9022 53.7052 53.2149 52.7093C53.2876 52.6729 53.3602 52.6365 53.4329 52.6C53.7356 52.4421 54.0262 52.2721 54.2683 52.0292C55.8909 50.6568 56.0725 48.2157 54.3289 46.7826C54.0746 46.5761 53.7477 46.3818 53.4329 46.2117C53.3602 46.1632 53.2876 46.1267 53.2149 46.1024C51.6892 45.4587 50.8053 45.8595 49.0375 45.5559V45.5438C48.6621 45.483 48.2867 45.398 47.9356 45.3009C47.7903 45.2523 47.6329 45.2037 47.4755 45.1551C46.5552 44.8272 45.744 44.3657 45.0538 43.807C44.412 43.2848 43.8914 42.7018 43.5039 42.0824C40.9006 42.0703 27.3148 42.301 27.3148 42.301C27.2664 42.884 27.2422 43.467 27.2422 44.0621C27.2422 57.3123 37.8977 68.0606 51.0959 68.0606C64.2942 68.0606 75.0223 57.3123 75.0223 44.0621C74.9981 39.7384 73.315 34.0667 71.3534 30.6054Z" fill="#A3B8A7"/>
<path d="M56.2076 28.2615L38.9288 25.6746L26.4449 23.8043C25.3552 23.6464 24.5924 22.6262 24.7619 21.521C24.9314 20.4158 25.9364 19.6628 27.0383 19.8328H27.0504L57.0673 24.3265C58.4235 24.5208 67.0205 25.8689 67.0205 25.8689L52.9868 9.67959C50.1292 6.07251 45.9154 3.80139 41.3263 3.41275L6.81708 0.412931C6.81708 0.412931 3.74152 0.182175 0 0V27.2413L2.49435 30.8362C3.1361 31.7592 4.05634 32.4515 5.12189 32.7916L8.02793 33.7267L26.9535 39.7871L27.9827 40.115C28.6245 40.3215 29.3026 40.3944 29.9685 40.3458L36.4829 39.7871L56.1592 38.0989C58.8715 37.8682 60.8815 35.4635 60.6514 32.743C60.5909 31.9779 60.3487 31.2492 59.9491 30.5933C59.041 29.3788 57.7091 28.5408 56.2076 28.2615Z" fill="#A3B8A7"/>
</svg>
