<svg width="36" height="32" viewBox="0 0 36 32" fill="none" xmlns="http://www.w3.org/2000/svg">
<path fill-rule="evenodd" clip-rule="evenodd" d="M33.793 14.4269C33.684 14.4102 32.1644 14.194 30.0656 13.8945C30.7308 15.8964 30.2663 18.0701 27.898 19.157C26.969 19.584 25.9712 19.7282 24.9619 19.7614C25.1053 19.7725 25.197 19.7781 25.197 19.7781C25.5239 19.8446 25.8393 19.95 26.1375 20.0775C26.1719 20.0997 26.2006 20.1108 26.2292 20.1219C26.5389 20.2661 26.8256 20.438 27.0837 20.6376C28.6778 21.9241 28.6492 24.059 27.0837 25.3733C26.5504 25.8003 25.9024 26.1163 25.197 26.255V27.0258C25.197 28.1126 23.2186 28.1126 23.2186 27.0258V26.255C21.4467 25.8834 20.1794 24.5692 20.1507 23.0332C20.122 21.9796 22.066 21.9463 22.1004 23.0054C22.1004 23.6598 22.542 24.2309 23.2244 24.5193C23.2244 24.5193 24.1075 24.974 25.2028 24.5193C25.2372 24.5027 25.2716 24.486 25.306 24.4694C25.4493 24.3973 25.587 24.3197 25.7017 24.2088C26.4701 23.5821 26.5561 22.4675 25.7303 21.8132C25.6099 21.7189 25.4551 21.6302 25.306 21.5526C25.2716 21.5304 25.2372 21.5138 25.2028 21.5027C24.4802 21.2088 24.0616 21.3918 23.2244 21.2531V21.2476C23.0466 21.2199 22.8688 21.181 22.7025 21.1367C22.6337 21.1145 22.5592 21.0923 22.4846 21.0701C22.0488 20.9204 21.6646 20.7097 21.3377 20.4546C21.0338 20.2162 20.7872 19.95 20.6037 19.6672C19.3708 19.6616 12.9368 19.767 12.9368 19.767C12.9138 20.0332 12.9023 20.2993 12.9023 20.5711C12.9023 26.621 17.9487 31.5285 24.1992 31.5285C30.4498 31.5285 35.5305 26.621 35.5305 20.5711C35.519 18.5969 34.722 16.0073 33.793 14.4269Z" fill="#ABD1B4"/>
<path d="M26.6194 13.357L18.4363 12.1759L12.5241 11.3219C12.008 11.2498 11.6467 10.784 11.727 10.2794C11.8073 9.77475 12.2832 9.43094 12.805 9.50858H12.8108L27.0265 11.5603C27.6688 11.6491 31.7402 12.2646 31.7402 12.2646L25.094 4.87272C23.7407 3.22577 21.7451 2.1888 19.5717 2.01135L3.2285 0.641665C3.2285 0.641665 1.77195 0.536304 0 0.453125V12.8912L1.1813 14.5326C1.48522 14.9541 1.92104 15.2701 2.42568 15.4254L3.80195 15.8524L12.7649 18.6195L13.2523 18.7692C13.5563 18.8635 13.8774 18.8968 14.1928 18.8746L17.2779 18.6195L26.5964 17.8487C27.8809 17.7433 28.8329 16.6454 28.7239 15.4032C28.6952 15.0539 28.5805 14.7211 28.3913 14.4217C27.9612 13.8672 27.3304 13.4846 26.6194 13.357Z" fill="#ABD1B4"/>
</svg>
