<svg width="80" height="80" viewBox="0 0 80 80" fill="none" xmlns="http://www.w3.org/2000/svg">
<path d="M55.4809 60.2821C56.1484 63.1302 56.816 65.9869 57.4835 68.8351C57.5789 69.2359 57.6742 69.6452 57.7696 70.046C58.1857 69.5088 58.6018 68.963 59.0266 68.4258C56.2612 68.4258 53.4957 68.4258 50.7302 68.4258C50.3401 68.4258 49.95 68.4258 49.5599 68.4258C49.976 68.7413 50.3921 69.0483 50.8169 69.3638C49.9673 67.1978 49.1264 65.0319 48.2768 62.8744C48.0081 62.1922 47.4273 61.8341 46.673 61.979C41.827 62.9 36.6168 62.9 31.7707 61.979C31.0599 61.8426 30.3923 62.1666 30.1669 62.8744C29.8202 63.9659 29.326 65.0233 28.9099 66.0893C28.4851 67.1808 28.0517 68.2723 27.6269 69.3638C28.043 69.0483 28.4591 68.7413 28.8839 68.4258C26.1184 68.4258 23.353 68.4258 20.5875 68.4258C20.1974 68.4258 19.8073 68.4258 19.4172 68.4258C19.8333 68.963 20.2494 69.5088 20.6742 70.046C21.3417 67.2149 22.0006 64.3752 22.6681 61.5441C22.7635 61.1348 22.8588 60.734 22.9542 60.3247C23.0756 59.796 22.8762 59.1479 22.356 58.8836C21.203 58.3037 20.0847 57.6641 19.0184 56.9563C18.5069 56.6152 18.0041 56.2656 17.51 55.8904C17.6313 55.9842 17.3799 55.7881 17.3452 55.7625C17.2239 55.6687 17.1025 55.5664 16.9725 55.4726C16.7297 55.2764 16.487 55.0803 16.2529 54.8756C15.3427 54.0911 14.4844 53.2469 13.6955 52.343C13.5135 52.1383 13.3314 51.9251 13.158 51.7034C13.1147 51.6523 12.9413 51.4391 12.976 51.4817C13.054 51.5755 12.924 51.4135 12.924 51.4135C12.8633 51.3282 12.7939 51.2429 12.7332 51.1577C12.3951 50.7057 12.0657 50.2367 11.7623 49.7592C11.4242 49.239 11.1121 48.6932 10.826 48.1475C10.67 47.8575 10.5313 47.5591 10.3926 47.2606C10.3319 47.1327 10.2712 46.9963 10.2192 46.8684C10.1325 46.6808 10.2885 47.0304 10.2018 46.8342C10.1672 46.7404 10.1238 46.6466 10.0891 46.5528C9.87241 46.0241 9.45629 45.6148 8.83211 45.6148C7.44505 45.6148 6.04931 45.6404 4.65357 45.6148C4.56688 45.6148 4.48019 45.6148 4.40217 45.6063C4.67091 45.6404 4.25479 45.5466 4.18544 45.521C4.41951 45.6148 4.07274 45.4357 3.99472 45.3931C4.25479 45.5722 3.73464 45.0605 3.90803 45.3078C3.86468 45.2481 3.83 45.1799 3.78666 45.1202C3.59593 44.8559 3.81266 45.2481 3.75198 45.0691C3.72597 45.0008 3.70863 44.9241 3.6913 44.8559C3.63061 44.6768 3.68263 45.052 3.68263 44.8559C3.68263 44.7791 3.67396 44.6939 3.67396 44.6171C3.66529 44.114 3.67396 43.6109 3.67396 43.1077C3.67396 41.2402 3.67396 39.3812 3.67396 37.5137C3.67396 36.8571 3.67396 36.192 3.67396 35.5354C3.67396 35.4416 3.67396 35.3392 3.67396 35.2454C3.67396 35.1687 3.67396 35.0919 3.68263 35.0067C3.64795 35.2625 3.68263 35.0493 3.69996 35.0067C3.69996 35.0152 3.83 34.6741 3.75198 34.8446C3.68263 34.9896 3.79533 34.7764 3.81266 34.7508C3.84734 34.6911 4.00339 34.5121 3.83867 34.6997C3.89069 34.6485 3.9427 34.5973 3.99472 34.5376C4.02939 34.495 4.18544 34.3927 3.99472 34.5291C4.09008 34.4694 4.18544 34.4097 4.2808 34.3586C4.00339 34.5035 4.60156 34.2733 4.45418 34.3074C4.28947 34.3415 4.6189 34.2989 4.65357 34.2989C4.7576 34.2989 4.86163 34.2989 4.96566 34.2989C5.4338 34.2989 5.89327 34.2989 6.3614 34.2989C7.16763 34.2989 7.97387 34.2989 8.77143 34.2989C9.39561 34.2989 9.81173 33.8896 10.0285 33.3609C10.5139 32.1329 11.2682 30.7429 12.0744 29.5491C12.4905 28.9266 12.8806 28.4149 13.3314 27.8692C13.6435 27.494 13.8689 27.1358 13.8516 26.6497C13.7909 25.3109 13.6608 23.9806 13.5655 22.6418C13.4788 21.465 13.4528 20.2797 13.3141 19.1029C13.3141 19.0944 13.3141 19.0944 13.3141 19.0859C13.2794 18.8301 13.2361 19.2223 13.3054 19.0006C13.3834 18.7618 13.3141 19.0006 13.2881 19.0262C13.3488 18.958 13.4268 18.8983 13.2621 19.0432C13.3314 18.9836 13.4181 18.9494 13.2274 19.0518C13.2881 19.0177 13.3401 18.9836 13.4008 18.958C13.132 19.1029 13.3314 19.0177 13.3661 18.9921C13.3141 19.0262 13.0887 18.9836 13.3141 19.0091C13.2534 19.0006 13.132 19.0262 13.2187 18.9921C13.2621 18.975 13.4615 19.0944 13.3141 19.0177C13.1927 18.9494 13.3574 19.0603 13.4008 19.0859C13.8429 19.3929 14.2937 19.6828 14.7445 19.9898C15.9495 20.7914 17.1458 21.6015 18.3509 22.4031C18.715 22.6504 19.2958 22.6333 19.6599 22.4031C22.0439 20.9193 24.5146 19.7937 27.1587 18.9409C26.6126 18.5316 26.0578 18.1223 25.5116 17.7044C25.2689 20.834 26.1444 24.0318 27.9823 26.5986C28.3117 27.0591 28.8666 27.349 29.4474 27.187C35.9753 25.328 42.902 25.328 49.4298 27.187C50.0193 27.3575 50.5655 27.0676 50.8949 26.5986C52.6894 24.0915 53.565 21.0046 53.3917 17.9432C52.8455 18.3525 52.2907 18.7618 51.7445 19.1797C53.591 19.8192 55.2469 20.5441 57.0067 21.5162C58.6452 22.4201 60.2056 23.4775 61.5233 24.5605C64.3321 26.897 66.7508 29.8475 68.0859 33.0539C68.8054 34.7849 69.2996 36.7121 69.4383 38.4006C69.5163 39.296 69.525 40.1999 69.473 41.0953C69.447 41.4705 69.4123 41.8457 69.3689 42.2209C69.3256 42.6132 69.4123 41.9651 69.3516 42.3488C69.3429 42.4255 69.3256 42.5023 69.3169 42.579C69.2822 42.8093 69.2389 43.0395 69.1869 43.2783C69.0308 44.0458 68.8314 44.8047 68.58 45.5466C68.4587 45.9218 68.32 46.2885 68.1726 46.6552C68.1292 46.766 68.0859 46.8769 68.0339 46.9792C68.0512 46.928 68.1292 46.7746 68.0252 46.9963C67.9299 47.2095 67.8258 47.4312 67.7218 47.6444C67.375 48.3607 66.9849 49.0514 66.5515 49.7251C66.3347 50.0662 66.1093 50.3987 65.8753 50.7313C65.7539 50.8933 65.6412 51.0639 65.5112 51.2259C65.4505 51.3112 65.3898 51.3879 65.3291 51.4647C65.2771 51.5329 65.2771 51.5329 65.3464 51.4476C65.2944 51.5158 65.2424 51.5755 65.1904 51.6352C63.968 53.136 62.5723 54.4919 61.0465 55.6943C60.7431 55.933 60.483 56.1292 60.0496 56.4362C59.6335 56.7261 59.2087 57.016 58.7839 57.2889C57.891 57.8603 56.9634 58.3804 56.0184 58.858C55.3942 59.1735 55.2122 60.0348 55.5503 60.6061C55.923 61.2286 56.7033 61.3821 57.3275 61.0666C63.864 57.7494 69.5683 52.1639 71.4409 45.0008C72.4118 41.2743 72.2818 37.2835 71.0508 33.6337C69.7504 29.8049 67.349 26.3939 64.3495 23.6481C60.9338 20.5185 56.8073 18.2502 52.4207 16.7323C51.6492 16.468 50.7302 17.1757 50.7736 17.9688C50.9296 20.672 50.2274 23.1023 48.6323 25.328C49.1178 25.1319 49.6119 24.9357 50.0974 24.7396C44.6531 23.1876 38.9055 22.8721 33.3052 23.7334C31.7621 23.9721 30.2363 24.3132 28.7279 24.7396C29.2133 24.9357 29.7075 25.1319 30.193 25.328C28.5545 23.0341 27.8523 20.51 28.069 17.7215C28.1297 16.9114 27.1847 16.2462 26.4219 16.485C23.5784 17.406 20.8302 18.6339 18.2988 20.203C18.7323 20.203 19.1744 20.203 19.6079 20.203C18.741 19.6231 17.8741 19.0432 17.0071 18.4549C16.435 18.0711 15.8541 17.6874 15.282 17.2951C14.9005 17.0393 14.5451 16.7749 14.1116 16.6129C12.7506 16.1013 11.2248 16.8943 10.774 18.2246C10.618 18.6766 10.6613 19.12 10.6873 19.5805C10.7827 20.8937 10.8694 22.2155 10.9647 23.5287C11.0428 24.6117 11.1208 25.7032 11.1988 26.7862C11.3288 26.4877 11.4502 26.1807 11.5802 25.8823C9.83774 27.9374 8.442 30.1801 7.45372 32.6787C7.86984 32.3631 8.28596 32.0562 8.71075 31.7406C7.9652 31.7406 7.21965 31.7406 6.46543 31.7406C5.71988 31.7406 4.95699 31.6809 4.21145 31.7662C2.38225 31.9709 1.03853 33.4461 1.00385 35.2625C0.995184 35.74 1.00385 36.209 1.00385 36.6866C1.00385 38.6735 1.00385 40.6689 1.00385 42.6558C1.00385 43.2783 1.00385 43.9093 1.00385 44.5318C1.01252 45.8536 1.64537 47.0901 2.85039 47.7467C3.86468 48.2924 5.03502 48.1816 6.14467 48.1816C7.01159 48.1816 7.88718 48.1816 8.75409 48.1816C8.33797 47.8661 7.92185 47.5591 7.49706 47.2436C9.40428 51.9848 12.8373 55.8648 17.0505 58.7812C18.2988 59.6425 19.6079 60.41 20.9603 61.1007C20.7609 60.6232 20.5615 60.1371 20.3621 59.6595C19.6946 62.4907 19.0357 65.3303 18.3682 68.1614C18.2728 68.5708 18.1775 68.9715 18.0821 69.3809C17.8914 70.1824 18.4636 71.0011 19.3391 71.0011C22.1046 71.0011 24.8701 71.0011 27.6355 71.0011C28.0257 71.0011 28.4158 71.0011 28.8059 71.0011C29.4214 71.0011 29.8549 70.5918 30.0629 70.0631C30.4877 68.9715 30.9212 67.88 31.346 66.7885C31.7621 65.7226 32.2562 64.6652 32.603 63.5737C32.0655 63.8721 31.5367 64.1706 30.9992 64.469C36.3741 65.4923 41.905 65.4923 47.2799 64.469C46.7424 64.1706 46.2136 63.8721 45.6761 63.5737C46.5257 65.7396 47.3666 67.9056 48.2162 70.0631C48.4242 70.6003 48.8577 71.0011 49.4732 71.0011C52.2387 71.0011 55.0041 71.0011 57.7696 71.0011C58.1597 71.0011 58.5498 71.0011 58.9399 71.0011C59.8155 71.0011 60.379 70.1824 60.197 69.3809C59.5294 66.5327 58.8619 63.676 58.1944 60.8278C58.099 60.427 58.0037 60.0177 57.9083 59.6169C57.7522 58.9432 56.9634 58.5425 56.3045 58.7215C55.689 58.9006 55.3249 59.6084 55.4809 60.2821Z" fill="white"/>
<path d="M70.8604 41.2308C71.7447 41.2308 72.6289 41.1881 73.4785 40.9579C74.5622 40.6594 75.5505 40.1137 76.4087 39.3974C78.0472 38.0244 79.0008 35.9011 79.0008 33.7948C79.0008 33.1297 78.4026 32.4816 77.7004 32.5157C76.9982 32.5498 76.4 33.0785 76.4 33.7948C76.4 33.9909 76.3827 34.1871 76.374 34.3917C76.3567 34.639 76.3914 34.3065 76.3654 34.46C76.348 34.5708 76.322 34.6902 76.296 34.8011C76.2527 35.0057 76.192 35.2104 76.1226 35.4065C76.0879 35.5174 76.0446 35.6197 76.0012 35.7305C76.0706 35.56 76.0186 35.6964 75.9752 35.7902C75.8799 35.9778 75.7845 36.1569 75.6805 36.336C75.6198 36.4298 75.5591 36.5236 75.4984 36.6174C75.4638 36.6686 75.2644 36.9329 75.4378 36.7197C75.1863 37.0438 74.8916 37.3337 74.5708 37.5981C74.5448 37.6151 74.3021 37.8027 74.4408 37.7089C74.5622 37.6236 74.2847 37.8113 74.2501 37.8368C74.0767 37.9477 73.8946 38.0585 73.7126 38.1523C73.6085 38.2035 73.5045 38.2547 73.4092 38.3058C73.1924 38.4082 73.4872 38.2803 73.3485 38.3314C73.1491 38.3996 72.9497 38.4679 72.7416 38.5276C72.5162 38.5873 72.2822 38.6384 72.0568 38.6725C72.2475 38.6384 72.0914 38.664 71.9874 38.6725C71.8834 38.6811 71.788 38.6896 71.684 38.6896C71.4152 38.6981 71.1378 38.6981 70.8691 38.6981C70.1929 38.6981 69.534 39.2865 69.5687 39.9772C69.586 40.6424 70.1322 41.2308 70.8604 41.2308Z" fill="white"/>
<path d="M50.8693 18.7273C50.8519 21.1065 50.141 23.298 48.702 25.302C49.1874 25.1058 49.6816 24.9097 50.1671 24.7136C44.7228 23.1616 38.9752 22.8461 33.3749 23.7073C31.8318 23.9461 30.306 24.2872 28.7976 24.7136C29.283 24.9097 29.7772 25.1058 30.2626 25.302C29.7512 24.5771 29.283 23.8097 28.9449 22.991C28.9709 23.0507 29.0056 23.1445 28.9103 22.9058C28.8756 22.8205 28.8409 22.7267 28.8062 22.6414C28.7282 22.4453 28.6675 22.2406 28.5982 22.036C28.4595 21.6011 28.3554 21.1661 28.2687 20.7142C28.1214 19.9553 28.0693 19.1025 28.104 18.2071C28.1127 17.9939 28.13 17.7893 28.1474 17.5761C28.156 17.5164 28.2081 17.0644 28.1734 17.3288C28.2254 16.9451 28.3034 16.5613 28.3901 16.1776C28.4681 15.8365 28.5635 15.5039 28.6762 15.1799C28.7282 15.0349 28.7716 14.8899 28.8322 14.745C28.8669 14.6597 28.9016 14.5659 28.9363 14.4806C28.9709 14.3868 29.0316 14.2504 28.9623 14.4209C29.257 13.7643 29.6038 13.1333 30.0026 12.5278C30.0893 12.3999 30.176 12.2805 30.2626 12.1526C30.3147 12.0759 30.3753 11.9991 30.4274 11.9224C30.5487 11.7604 30.306 12.0673 30.436 11.9139C30.6614 11.6324 30.8955 11.3681 31.1382 11.1037C31.3723 10.8564 31.615 10.6177 31.8664 10.396C31.9965 10.2851 32.1265 10.1743 32.2566 10.0634C32.3259 10.0037 32.4039 9.94401 32.4733 9.88432C32.6553 9.73082 32.4039 9.92696 32.5253 9.84168C33.0975 9.43236 33.687 9.05716 34.3198 8.73311C34.4759 8.65636 34.6319 8.57962 34.7879 8.5114C34.8746 8.46876 34.9613 8.43465 35.048 8.39201C35.0047 8.40907 34.8226 8.47729 35.0567 8.39201C35.4035 8.25557 35.7502 8.13619 36.097 8.02533C36.4178 7.93153 36.7385 7.84626 37.0593 7.77804C37.25 7.7354 37.4494 7.70129 37.6401 7.66718C37.7181 7.65012 37.7961 7.6416 37.8742 7.63307C38.2643 7.57338 37.6141 7.65865 38.0042 7.61601C38.7324 7.53927 39.4606 7.51368 40.1975 7.55632C40.3969 7.56485 40.5963 7.5819 40.8044 7.60749C40.8824 7.61601 40.9604 7.62454 41.0471 7.63307C40.8044 7.60749 41.0124 7.62454 41.0558 7.63307C41.4459 7.69276 41.836 7.76951 42.2174 7.86331C42.5382 7.94006 42.8589 8.03386 43.171 8.13619C43.3357 8.18735 43.5005 8.24705 43.6652 8.30674C43.7345 8.33232 43.8126 8.36643 43.8819 8.39201C44.168 8.50287 43.7432 8.32379 43.9946 8.44318C44.6361 8.74164 45.2603 9.06568 45.8498 9.45795C45.9885 9.55175 46.1359 9.64555 46.2746 9.74788C46.3353 9.79052 46.396 9.83315 46.4566 9.88432C46.2573 9.73935 46.4566 9.88432 46.5087 9.92696C46.7861 10.1572 47.0635 10.3874 47.3236 10.6347C47.601 10.8906 47.8611 11.1634 48.1125 11.4448C48.2512 11.5983 48.3812 11.7604 48.5112 11.9224C48.6499 12.0929 48.3379 11.6836 48.5546 11.9735C48.6066 12.0503 48.6673 12.127 48.7193 12.2038C49.1701 12.8348 49.5602 13.5085 49.8896 14.2163C49.881 14.2077 50.037 14.5488 49.959 14.3783C49.8983 14.2419 50.0283 14.5574 50.0457 14.6C50.115 14.7791 50.1844 14.9582 50.2451 15.1372C50.3751 15.521 50.4878 15.9132 50.5745 16.3055C50.6178 16.4931 50.6612 16.6892 50.6959 16.8768C50.7132 16.9536 50.7219 17.0303 50.7392 17.1071C50.7912 17.4141 50.7305 16.9536 50.7566 17.235C50.8346 17.7211 50.8606 18.2242 50.8693 18.7273C50.8779 19.3924 51.4674 20.0405 52.1696 20.0064C52.8718 19.9723 53.4787 19.4436 53.47 18.7273C53.444 15.3589 52.1956 12.127 49.9416 9.59439C47.8437 7.24933 44.8529 5.61206 41.7146 5.16011C38.3596 4.67404 34.9093 5.29654 32.0398 7.09584C29.2917 8.81839 27.2111 11.4534 26.1968 14.4977C24.8531 18.5312 25.564 23.1189 28.0433 26.5896C28.3728 27.0501 28.9276 27.34 29.5084 27.178C36.0363 25.319 42.963 25.319 49.4909 27.178C50.0804 27.3486 50.6265 27.0586 50.9559 26.5896C52.5944 24.2957 53.4613 21.5243 53.47 18.7188C53.47 18.0536 52.8718 17.4055 52.1696 17.4396C51.4588 17.4738 50.8693 18.011 50.8693 18.7273Z" fill="white"/>
<path d="M27.7224 27.7408C33.6261 25.7368 40.0066 25.2423 46.0924 26.3849C47.8522 26.7175 49.5774 27.1695 51.2679 27.7408C51.9094 27.9625 52.7156 27.4935 52.8717 26.8454C53.0364 26.1376 52.6549 25.5066 51.9614 25.2678C45.6849 23.136 38.8883 22.684 32.369 23.8779C30.5572 24.2104 28.78 24.6794 27.0375 25.2678C26.37 25.4896 25.9365 26.1462 26.1272 26.8454C26.3006 27.4764 27.0548 27.9625 27.7224 27.7408Z" fill="white"/>
</svg>
