<svg width="64" height="64" viewBox="0 0 64 64" fill="none" xmlns="http://www.w3.org/2000/svg">
<path fill-rule="evenodd" clip-rule="evenodd" d="M48.3734 28.4444V32H46.5002C46.5184 31.6978 46.5547 31.4133 46.5547 31.1111C46.5547 23.7511 39.6256 17.7778 31.096 17.7778C29.5138 17.7778 27.9861 17.9911 26.5494 18.3644C26.513 18.3822 26.4766 18.3644 26.4584 18.3467C25.149 16.9422 23.2939 16.0356 21.2025 16C21.1479 16 21.0934 16.0533 21.0934 16.1067V20.9067C21.0934 20.9422 21.0752 20.96 21.057 20.9778C19.0383 22.4711 17.4742 24.4089 16.5649 26.6133C16.5467 26.6489 16.5103 26.6667 16.4739 26.6667C15.9647 26.6667 12.6911 26.6667 12.0909 26.6667C12.0364 26.6667 12 26.7022 12 26.7733V31.9111C12 32.9422 12.8548 33.7778 13.9278 33.7778H15.8738C15.9101 33.7778 15.9647 33.8133 15.9647 33.8489C16.674 36.7822 18.5108 39.36 21.057 41.2444C21.0752 41.2622 21.0934 41.28 21.0934 41.3156V46.9156C21.0934 47.5022 21.5844 48 22.2027 48H25.4218C26.0583 48 26.5494 47.5022 26.5494 46.9156V43.9822C26.5494 43.9111 26.6039 43.8756 26.6767 43.8933C28.077 44.2489 29.5502 44.4444 31.096 44.4444C32.6419 44.4444 34.115 44.2489 35.5154 43.8933C35.5882 43.8756 35.6427 43.9111 35.6427 43.9822V47.0222C35.6427 47.5556 36.0974 48 36.643 48H40.0985C40.6441 48 41.0987 47.5556 41.0987 47.0222V41.3156C41.0987 41.28 41.1169 41.2622 41.1351 41.2444C43.1538 39.7511 44.7179 37.8133 45.6272 35.6267C45.6454 35.5733 45.6818 35.5556 45.7182 35.5556C45.991 35.5556 47.064 35.5556 48.0824 35.5556C49.9375 35.5556 51.7016 34.3289 51.9562 32.5156C52.3017 30.3289 50.5558 28.4444 48.3734 28.4444ZM35.9519 22.24C35.861 22.3822 35.7155 22.4533 35.57 22.4533C35.4972 22.4533 35.4063 22.4356 35.3335 22.3822C32.9511 20.96 29.3319 21.7956 29.2956 21.7956C29.0409 21.8667 28.7863 21.7244 28.7318 21.4933C28.6772 21.2622 28.8227 21.0133 29.0591 20.96C29.2228 20.9244 33.0784 20.0356 35.7882 21.6356C36.0065 21.76 36.0792 22.0267 35.9519 22.24Z" fill="white"/>
</svg>
