<svg width="32" height="32" viewBox="0 0 32 32" fill="none" xmlns="http://www.w3.org/2000/svg">
<path fill-rule="evenodd" clip-rule="evenodd" d="M28.2801 13.3333V16H26.8751C26.8888 15.7733 26.9161 15.56 26.9161 15.3333C26.9161 9.81333 21.7192 5.33333 15.322 5.33333C14.1354 5.33333 12.9896 5.49333 11.912 5.77333C11.8847 5.78667 11.8575 5.77333 11.8438 5.76C10.8617 4.70667 9.47046 4.02667 7.90186 4C7.86094 4 7.82002 4.04 7.82002 4.08V7.68C7.82002 7.70667 7.80638 7.72 7.79274 7.73333C6.27869 8.85333 5.10565 10.3067 4.42365 11.96C4.41001 11.9867 4.38273 12 4.35545 12C3.97353 12 1.51832 12 1.0682 12C1.02728 12 1 12.0267 1 12.08V15.9333C1 16.7067 1.64108 17.3333 2.44584 17.3333H3.90533C3.93261 17.3333 3.97353 17.36 3.97353 17.3867C4.50549 19.5867 5.88313 21.52 7.79274 22.9333C7.80638 22.9467 7.82002 22.96 7.82002 22.9867V27.1867C7.82002 27.6267 8.1883 28 8.65206 28H11.0663C11.5437 28 11.912 27.6267 11.912 27.1867V24.9867C11.912 24.9333 11.9529 24.9067 12.0075 24.92C13.0578 25.1867 14.1626 25.3333 15.322 25.3333C16.4814 25.3333 17.5863 25.1867 18.6366 24.92C18.6911 24.9067 18.732 24.9333 18.732 24.9867V27.2667C18.732 27.6667 19.073 28 19.4822 28H22.0738C22.483 28 22.8241 27.6667 22.8241 27.2667V22.9867C22.8241 22.96 22.8377 22.9467 22.8513 22.9333C24.3654 21.8133 25.5384 20.36 26.2204 18.72C26.2341 18.68 26.2613 18.6667 26.2886 18.6667C26.4932 18.6667 27.298 18.6667 28.0618 18.6667C29.4531 18.6667 30.7762 17.7467 30.9671 16.3867C31.2263 14.7467 29.9169 13.3333 28.2801 13.3333ZM18.9639 8.68C18.8957 8.78667 18.7866 8.84 18.6775 8.84C18.6229 8.84 18.5547 8.82667 18.5002 8.78667C16.7133 7.72 13.999 8.34667 13.9717 8.34667C13.7807 8.4 13.5897 8.29333 13.5488 8.12C13.5079 7.94667 13.617 7.76 13.7943 7.72C13.9171 7.69333 16.8088 7.02667 18.8412 8.22667C19.0048 8.32 19.0594 8.52 18.9639 8.68Z" fill="white"/>
</svg>
