<svg width="43" height="36" viewBox="0 0 43 36" fill="none" xmlns="http://www.w3.org/2000/svg">
<path fill-rule="evenodd" clip-rule="evenodd" d="M39.1014 14V18H37.0877C37.1073 17.66 37.1464 17.34 37.1464 17C37.1464 8.72 29.6975 2 20.5282 2C18.8273 2 17.1851 2.24 15.6406 2.66C15.6015 2.68 15.5624 2.66 15.5428 2.64C14.1352 1.06 12.141 0.04 9.89266 0C9.83401 0 9.77536 0.06 9.77536 0.12V5.52C9.77536 5.56 9.75581 5.58 9.73625 5.6C7.56613 7.28 5.88476 9.46 4.90723 11.94C4.88768 11.98 4.84858 12 4.80948 12C4.26206 12 0.742927 12 0.0977536 12C0.0391014 12 0 12.04 0 12.12V17.9C0 19.06 0.918883 20 2.07238 20H4.1643C4.2034 20 4.26206 20.04 4.26206 20.08C5.02453 23.38 6.99916 26.28 9.73625 28.4C9.75581 28.42 9.77536 28.44 9.77536 28.48V34.78C9.77536 35.44 10.3032 36 10.9679 36H14.4284C15.1127 36 15.6406 35.44 15.6406 34.78V31.48C15.6406 31.4 15.6992 31.36 15.7774 31.38C17.2828 31.78 18.8664 32 20.5282 32C22.1901 32 23.7737 31.78 25.2791 31.38C25.3573 31.36 25.4159 31.4 25.4159 31.48V34.9C25.4159 35.5 25.9047 36 26.4912 36H30.2059C30.7924 36 31.2811 35.5 31.2811 34.9V28.48C31.2811 28.44 31.3007 28.42 31.3202 28.4C33.4904 26.72 35.1717 24.54 36.1493 22.08C36.1688 22.02 36.2079 22 36.247 22C36.5403 22 37.6938 22 38.7886 22C40.7828 22 42.6792 20.62 42.9529 18.58C43.3244 16.12 41.4475 14 39.1014 14ZM25.7483 7.02C25.6505 7.18 25.4941 7.26 25.3377 7.26C25.2595 7.26 25.1618 7.24 25.0836 7.18C22.5224 5.58 18.6318 6.52 18.5927 6.52C18.319 6.6 18.0453 6.44 17.9867 6.18C17.928 5.92 18.0844 5.64 18.3386 5.58C18.5145 5.54 22.6593 4.54 25.5723 6.34C25.8069 6.48 25.8851 6.78 25.7483 7.02Z" fill="#ABD1B4"/>
</svg>
