<svg width="89" height="72" viewBox="0 0 89 72" fill="none" xmlns="http://www.w3.org/2000/svg">
<path fill-rule="evenodd" clip-rule="evenodd" d="M80.9309 28V36H76.7629C76.8034 35.32 76.8843 34.68 76.8843 34C76.8843 17.44 61.467 4 42.4887 4C38.9682 4 35.5691 4.48 32.3723 5.32C32.2914 5.36 32.2105 5.32 32.17 5.28C29.2565 2.12 25.129 0.08 20.4755 0C20.3541 0 20.2327 0.12 20.2327 0.24V11.04C20.2327 11.12 20.1922 11.16 20.1518 11.2C15.6601 14.56 12.1801 18.92 10.1568 23.88C10.1164 23.96 10.0354 24 9.9545 24C8.82146 24 1.53769 24 0.202327 24C0.0809309 24 0 24.08 0 24.24V35.8C0 38.12 1.90187 40 4.28933 40H8.61914C8.70007 40 8.82146 40.08 8.82146 40.16C10.3996 46.76 14.4866 52.56 20.1518 56.8C20.1922 56.84 20.2327 56.88 20.2327 56.96V69.56C20.2327 70.88 21.3253 72 22.7011 72H29.8635C31.2798 72 32.3723 70.88 32.3723 69.56V62.96C32.3723 62.8 32.4937 62.72 32.6556 62.76C35.7714 63.56 39.0491 64 42.4887 64C45.9283 64 49.206 63.56 52.3218 62.76C52.4837 62.72 52.6051 62.8 52.6051 62.96V69.8C52.6051 71 53.6167 72 54.8307 72H62.5191C63.733 72 64.7447 71 64.7447 69.8V56.96C64.7447 56.88 64.7851 56.84 64.8256 56.8C69.3173 53.44 72.7973 49.08 74.8206 44.16C74.861 44.04 74.942 44 75.0229 44C75.6299 44 78.0173 44 80.2834 44C84.4109 44 88.336 41.24 88.9025 37.16C89.6714 32.24 85.7867 28 80.9309 28ZM53.293 14.04C53.0906 14.36 52.7669 14.52 52.4432 14.52C52.2813 14.52 52.079 14.48 51.9171 14.36C46.6162 11.16 38.5636 13.04 38.4826 13.04C37.9161 13.2 37.3496 12.88 37.2282 12.36C37.1068 11.84 37.4305 11.28 37.9566 11.16C38.3208 11.08 46.8994 9.08 52.9288 12.68C53.4144 12.96 53.5762 13.56 53.293 14.04Z" fill="#A3B8A7"/>
</svg>
