<svg width="20" height="20" viewBox="0 0 20 20" fill="none" xmlns="http://www.w3.org/2000/svg">
<path d="M10 18.75C11.7306 18.75 13.4223 18.2368 14.8612 17.2754C16.3002 16.3139 17.4217 14.9473 18.0839 13.3485C18.7462 11.7496 18.9195 9.9903 18.5819 8.29296C18.2442 6.59563 17.4109 5.03653 16.1872 3.81282C14.9635 2.58911 13.4044 1.75575 11.707 1.41813C10.0097 1.08051 8.25037 1.25379 6.65152 1.91606C5.05266 2.57833 3.6861 3.69983 2.72464 5.13876C1.76318 6.57769 1.25 8.26942 1.25 10C1.25 11.1491 1.47632 12.2869 1.91605 13.3485C2.35578 14.4101 3.0003 15.3747 3.81281 16.1872C4.62533 16.9997 5.58992 17.6442 6.65152 18.0839C7.71311 18.5237 8.85093 18.75 10 18.75ZM10 4.75C10.1731 4.75 10.3422 4.80132 10.4861 4.89747C10.63 4.99361 10.7422 5.13027 10.8084 5.29016C10.8746 5.45004 10.8919 5.62597 10.8582 5.79571C10.8244 5.96544 10.7411 6.12135 10.6187 6.24372C10.4963 6.36609 10.3404 6.44943 10.1707 6.48319C10.001 6.51695 9.82503 6.49963 9.66515 6.4334C9.50526 6.36717 9.36861 6.25502 9.27246 6.11113C9.17631 5.96723 9.125 5.79806 9.125 5.625C9.125 5.39294 9.21718 5.17038 9.38128 5.00628C9.54537 4.84219 9.76793 4.75 10 4.75ZM9.125 9.125C9.125 8.89294 9.21718 8.67038 9.38128 8.50628C9.54537 8.34219 9.76793 8.25 10 8.25C10.2321 8.25 10.4546 8.34219 10.6187 8.50628C10.7828 8.67038 10.875 8.89294 10.875 9.125V14.375C10.875 14.6071 10.7828 14.8296 10.6187 14.9937C10.4546 15.1578 10.2321 15.25 10 15.25C9.76793 15.25 9.54537 15.1578 9.38128 14.9937C9.21718 14.8296 9.125 14.6071 9.125 14.375L9.125 9.125Z" fill="#E6F1EB"/>
</svg>
