<svg width="32" height="32" viewBox="0 0 32 32" fill="none" xmlns="http://www.w3.org/2000/svg">
<path d="M16 30C18.7689 30 21.4757 29.1789 23.778 27.6406C26.0803 26.1022 27.8747 23.9157 28.9343 21.3576C29.9939 18.7994 30.2712 15.9845 29.731 13.2687C29.1908 10.553 27.8574 8.05845 25.8995 6.10051C23.9416 4.14258 21.447 2.80921 18.7313 2.26901C16.0155 1.72882 13.2006 2.00607 10.6424 3.06569C8.08426 4.12532 5.89776 5.91974 4.35942 8.22202C2.82108 10.5243 2 13.2311 2 16C2 17.8385 2.36212 19.659 3.06568 21.3576C3.76925 23.0561 4.80048 24.5995 6.1005 25.8995C7.40052 27.1995 8.94387 28.2307 10.6424 28.9343C12.341 29.6379 14.1615 30 16 30ZM16 7.60001C16.2769 7.60001 16.5476 7.68211 16.7778 7.83595C17.008 7.98978 17.1875 8.20843 17.2934 8.46425C17.3994 8.72007 17.4271 9.00156 17.3731 9.27313C17.3191 9.54471 17.1857 9.79416 16.9899 9.98996C16.7942 10.1857 16.5447 10.3191 16.2731 10.3731C16.0015 10.4271 15.7201 10.3994 15.4642 10.2934C15.2084 10.1875 14.9898 10.008 14.8359 9.77781C14.6821 9.54758 14.6 9.2769 14.6 9.00001C14.6 8.6287 14.7475 8.27261 15.01 8.01006C15.2726 7.74751 15.6287 7.60001 16 7.60001ZM14.6 14.6C14.6 14.2287 14.7475 13.8726 15.01 13.6101C15.2726 13.3475 15.6287 13.2 16 13.2C16.3713 13.2 16.7274 13.3475 16.9899 13.6101C17.2525 13.8726 17.4 14.2287 17.4 14.6V23C17.4 23.3713 17.2525 23.7274 16.9899 23.99C16.7274 24.2525 16.3713 24.4 16 24.4C15.6287 24.4 15.2726 24.2525 15.01 23.99C14.7475 23.7274 14.6 23.3713 14.6 23L14.6 14.6Z" fill="white"/>
</svg>
