<svg width="21" height="18" viewBox="0 0 21 18" fill="none" xmlns="http://www.w3.org/2000/svg">
<path d="M15.5147 15.3678C15.7295 15.1551 15.7295 14.8079 15.5147 14.5952C15.3 14.3825 14.9495 14.3825 14.7347 14.5952C11.6211 17.6794 6.55895 17.6794 3.44526 14.5952C0.334737 11.511 0.334737 6.4937 3.44526 3.41263C4.95158 1.92058 6.95684 1.09792 9.09158 1.09792C11.2232 1.09792 13.2284 1.92058 14.7347 3.41263C16.5916 5.25189 17.4 7.85125 16.9484 10.3755L14.46 7.91068C14.2453 7.69798 13.8947 7.69798 13.68 7.91068C13.5726 8.01703 13.5189 8.15779 13.5189 8.29855C13.5189 8.43931 13.5726 8.58007 13.68 8.68642L16.8695 11.8457C16.8695 11.8457 16.8695 11.8457 16.8726 11.8426C16.9358 11.9051 17.0116 11.9552 17.1 11.9802C17.3021 12.0396 17.5105 11.9802 17.6495 11.8426C17.6495 11.8426 17.6495 11.8426 17.6495 11.8457L20.8389 8.68642C21.0537 8.47372 21.0537 8.12651 20.8389 7.91381C20.6242 7.7011 20.2737 7.7011 20.0589 7.91381L18.1453 9.80937C18.3853 7.18186 17.4474 4.55122 15.5179 2.64002C13.7968 0.935268 11.5168 0 9.08842 0C6.66 0 4.38 0.935268 2.66211 2.63689C0.944211 4.33852 0 6.59692 0 9.00235C0 11.4078 0.944211 13.6693 2.66211 15.3678C6.20526 18.8774 11.9716 18.8774 15.5147 15.3678Z" fill="white"/>
</svg>
