<svg width="64" height="64" viewBox="0 0 64 64" fill="none" xmlns="http://www.w3.org/2000/svg">
<path d="M27.0936 33.8563C26.6031 34.1124 26.1466 34.4189 25.7015 34.7327C24.9431 35.2665 24.083 35.3927 23.1776 35.3819C22.2608 35.3675 21.3931 35.1258 20.5329 34.859C19.0012 34.3829 17.4696 33.9104 15.9379 33.4307C15.7945 33.3874 15.6474 33.3405 15.5266 33.2612C14.9004 32.8645 14.8249 32.2369 15.3418 31.7139C15.6776 31.3713 16.1001 31.1441 16.5453 30.9637C17.5148 30.567 18.4919 30.1919 19.4653 29.8024C20.4801 29.3984 21.4912 28.9909 22.506 28.5833C23.4454 28.2768 24.3508 27.8836 25.2714 27.5194C30.4172 25.4924 35.5669 23.451 40.7166 21.4096C41.7276 21.0093 42.7274 20.5729 43.7498 20.1906C44.5609 19.8876 45.3607 19.5558 46.1756 19.2564C46.6283 19.0905 47.0999 18.9932 47.5865 19.0004C48.5033 19.0148 49.0428 19.5089 49.1069 20.3853C49.1371 20.7785 49.0729 21.1644 49.0164 21.5467C48.839 22.8307 48.6391 24.111 48.4354 25.395C48.1826 27.0036 47.9261 28.6122 47.662 30.2172C47.379 31.9375 47.081 33.6543 46.8056 35.3783C46.666 36.2583 46.466 37.1348 46.3981 38.0256C46.2246 38.6676 46.1605 39.3276 46.0473 39.9804C45.8209 41.2861 45.6172 42.5953 45.3908 43.9045C45.3116 44.3626 45.1419 44.7954 44.8589 45.1777C44.4062 45.7908 43.7837 46.0397 43.0141 45.9459C41.837 45.798 40.7995 45.2967 39.8262 44.6836C37.7739 43.3924 35.7329 42.0831 33.6957 40.7703C32.745 40.1572 31.8169 39.5152 30.9228 38.8299C30.8285 38.7578 30.7341 38.6856 30.6436 38.6099C29.674 37.8236 29.625 36.9617 30.4927 36.0816C30.5455 36.0275 30.5946 35.977 30.6436 35.9229C30.6927 35.8905 30.7492 35.8652 30.7907 35.8255C33.8466 33.1241 36.876 30.4011 39.8224 27.5915C40.1016 27.3246 40.3431 27.0288 40.5279 26.697C40.6185 26.5311 40.6977 26.358 40.7467 26.1777C40.8222 25.8891 40.6864 25.7377 40.377 25.7304C40.1771 25.7268 39.9922 25.7882 39.8073 25.8567C39.0717 26.1344 38.4115 26.5383 37.7626 26.9567C34.3332 29.1604 30.9115 31.3641 27.4859 33.5714C27.3501 33.6579 27.1954 33.7265 27.0936 33.8563Z" fill="white"/>
</svg>
