<svg width="134" height="39" viewBox="0 0 134 39" fill="none" xmlns="http://www.w3.org/2000/svg">
<path d="M31.6919 16.2991C31.6558 7.54731 24.5977 0.453125 15.8459 0.453125C7.09419 0.453125 0 7.54731 0 16.2991C0 24.3283 5.97131 30.9615 13.7158 32.002L14.4442 18.0592C13.9817 17.7803 13.6103 17.3685 13.382 16.8742L5.77044 24.4858C5.1895 21.8614 5.8268 18.9133 7.86878 16.8728C9.05813 15.6834 10.5235 14.9421 12.0582 14.6429H1.72116C3.1663 12.377 5.70108 10.7425 8.58846 10.7425C10.3299 10.7425 11.9426 11.2888 13.2649 12.2194L5.89183 4.84634C8.51621 4.2654 11.4643 4.90271 13.5048 6.94469C14.8951 8.33491 15.674 10.1052 15.8474 11.9203C16.0208 10.1038 16.7997 8.33491 18.19 6.94469C20.2305 4.90415 23.18 4.2654 25.803 4.84634L18.4299 12.2194C19.7536 11.2888 21.3664 10.7425 23.1063 10.7425C25.9937 10.7425 28.5285 12.377 29.9736 14.6429H19.6366C21.1713 14.9421 22.6367 15.6849 23.826 16.8728C25.8665 18.9133 26.5053 21.8629 25.9243 24.4858L18.3128 16.8742C18.0845 17.367 17.7116 17.7789 17.2506 18.0592L17.979 32.002C25.7206 30.9615 31.7222 23.4019 31.6919 16.2991Z" fill="white"/>
<path d="M44.3959 7.57588L44.4253 9.76544V25.3321C44.0196 25.4109 43.5308 25.4509 42.96 25.4509C42.3892 25.4509 41.911 25.4109 41.5241 25.3321V7.57588L39.8706 7.60531H36.3598C36.282 7.23109 36.2441 6.82114 36.2441 6.37755C36.2441 5.93396 36.283 5.51455 36.3598 5.12036H49.5602C49.6759 5.45568 49.7347 5.85092 49.7347 6.30397C49.7347 7.17223 49.1934 7.60636 48.1096 7.60636H46.0788L44.4253 7.57692H44.3959V7.57588Z" fill="white"/>
<path d="M47.3347 12.0741C47.4892 11.4034 47.8371 10.8904 48.3795 10.5352C49.6556 10.8505 50.4976 11.7293 50.9034 13.1683C51.6959 11.4129 52.9636 10.5352 54.7044 10.5352C55.169 10.5352 55.6714 10.594 56.2128 10.7128C56.2128 11.7776 55.9899 12.6764 55.5453 13.4059C55.4297 13.387 55.0418 13.347 54.3848 13.2871C53.0309 13.2871 51.9671 14.0565 51.1935 15.5954V25.3313C50.8645 25.4101 50.3956 25.4501 49.786 25.4501C49.1763 25.4501 48.7075 25.4101 48.3785 25.3313V15.0919C48.3795 13.7517 48.0305 12.7457 47.3347 12.0741Z" fill="white"/>
<path d="M66.321 11.9827C67.6749 13.3839 68.3519 15.401 68.3519 18.0342C68.3519 20.6674 67.6749 22.6856 66.321 24.0857C65.2573 25.1705 63.8645 25.7129 62.1437 25.7129C60.4219 25.7129 59.0291 25.1705 57.9664 24.0857C56.6125 22.6856 55.9355 20.6674 55.9355 18.0342C55.9355 15.4 56.6125 13.3839 57.9664 11.9827C59.0302 10.8979 60.423 10.3555 62.1437 10.3555C63.8645 10.3555 65.2573 10.8979 66.321 11.9827ZM58.8357 18.0489C58.8357 21.6786 59.9384 23.4939 62.1427 23.4939C64.348 23.4939 65.4496 21.6786 65.4496 18.0489C65.4496 17.023 65.3571 16.1253 65.1742 15.3558C64.9903 14.5864 64.6423 13.9252 64.1294 13.3734C63.6164 12.8215 62.9542 12.545 62.1416 12.545C61.3291 12.545 60.6668 12.8215 60.1539 13.3734C59.6409 13.9263 59.293 14.5864 59.109 15.3558C58.9282 16.1253 58.8357 17.024 58.8357 18.0489Z" fill="white"/>
<path d="M77.4184 10.3555C78.9941 10.3555 80.2082 11.0356 81.0596 12.3968C81.91 13.7581 82.3357 15.6323 82.3357 18.0195C82.3357 20.4067 81.7891 22.2662 80.6969 23.598C79.6037 24.9298 78.3129 25.5952 76.8234 25.5952C75.6629 25.5952 74.5214 25.2504 73.3998 24.5598V29.8566C73.3998 30.5073 73.2936 30.9761 73.0802 31.262C72.8668 31.5479 72.4705 31.6909 71.8903 31.6909H70.8455L70.6426 31.5132V10.7991L70.8455 10.6214H71.7158C72.644 10.6214 73.1853 11.1344 73.3409 12.1603C74.4835 10.9567 75.8416 10.3555 77.4184 10.3555ZM76.7656 12.7816C75.4117 12.7816 74.2901 13.4616 73.3998 14.8229V22.1022C74.4636 22.8716 75.4601 23.2564 76.3882 23.2564C77.3164 23.2564 78.0659 22.7981 78.6367 21.8804C79.2064 20.9627 79.4923 19.6362 79.4923 17.8997C79.4923 16.1642 79.2358 14.8765 78.7239 14.0377C78.2109 13.201 77.5582 12.7816 76.7656 12.7816Z" fill="white"/>
<path d="M95.4207 10.9798L91.5336 24.8583C90.8377 27.3243 90.0441 29.0945 89.1548 30.1698C88.2645 31.2451 86.9305 31.7823 85.1509 31.7823C84.2028 31.7823 83.3135 31.6341 82.482 31.3387C82.482 31.2599 82.482 31.1705 82.482 31.0727C82.482 30.4021 82.6849 29.7998 83.0917 29.2679C83.7108 29.5044 84.4498 29.6232 85.3107 29.6232C86.1716 29.6232 86.8633 29.3078 87.3846 28.6761C87.9071 28.0444 88.3612 27.0878 88.748 25.8054L88.8352 25.4795C88.235 25.4396 87.7715 25.3124 87.4424 25.0948C87.1134 24.8783 86.8622 24.483 86.6877 23.9112L82.8289 10.9493C83.4281 10.6729 83.9894 10.5352 84.5118 10.5352C85.2276 10.5352 85.7112 10.9598 85.9624 11.8071L87.9932 18.7615C88.1089 19.1368 88.4862 20.6063 89.1243 23.1712C89.1632 23.3089 89.2494 23.3782 89.385 23.3782L92.6636 10.7422C92.9726 10.6634 93.3889 10.6235 93.9113 10.6235C94.4337 10.6235 94.8973 10.6928 95.3041 10.8305L95.4207 10.9798Z" fill="white"/>
<path d="M105.952 19.8572L106.967 22.3432C107.432 23.5268 107.895 24.2962 108.36 24.6515C107.895 25.2433 107.267 25.5397 106.474 25.5397C105.991 25.5397 105.628 25.4115 105.386 25.155C105.145 24.8985 104.898 24.4644 104.646 23.8526L103.428 20.923C103.099 20.1347 102.766 19.6017 102.427 19.3253C102.089 19.0488 101.634 18.9111 101.064 18.9111C100.493 18.9111 99.9666 18.9405 99.483 18.9994V25.3327C99.154 25.4115 98.7041 25.4514 98.1344 25.4514C97.5636 25.4514 97.0948 25.4115 96.7269 25.3327V3.75967L96.9298 3.58203H97.9746C98.5549 3.58203 98.9512 3.72498 99.1645 4.0109C99.3769 4.29682 99.4841 4.76563 99.4841 5.4163V16.6017L100.529 16.5429C100.78 16.5429 101.012 16.3946 101.225 16.0993L103.894 11.8967C104.145 11.4626 104.406 11.1472 104.677 10.9496C104.947 10.7531 105.359 10.6542 105.91 10.6542C106.461 10.6542 106.911 10.6648 107.258 10.6837L107.433 10.9202L104.154 16.1287C103.903 16.5429 103.604 16.8981 103.255 17.1935C104.433 17.5099 105.333 18.3981 105.952 19.8572Z" fill="white"/>
<path d="M109.229 20.8026V13.7892C109.229 12.6456 109.075 11.7668 108.765 11.155C109.21 10.7609 109.751 10.5632 110.39 10.5632C111.028 10.5632 111.459 10.7114 111.681 11.0068C111.903 11.3032 112.014 11.7668 112.014 12.3975V20.0615C112.014 21.1264 112.15 21.8863 112.42 22.3404C112.69 22.7945 113.16 23.0205 113.827 23.0205C114.495 23.0205 115.176 22.8429 115.873 22.4876C116.569 22.1323 117.188 21.6593 117.729 21.0675V10.7398C118.232 10.661 118.696 10.621 119.122 10.621C119.547 10.621 120.011 10.661 120.515 10.7398V21.2157C120.515 22.6358 120.786 23.5934 121.327 24.0864C121.153 24.7371 120.795 25.2206 120.254 25.536C119.074 25.2795 118.31 24.5594 117.963 23.3758C116.512 24.8559 114.868 25.5948 113.03 25.5948C111.754 25.5948 110.801 25.1512 110.172 24.263C109.544 23.3779 109.229 22.2238 109.229 20.8026Z" fill="white"/>
<path d="M122.459 24.234C122.478 23.8986 122.58 23.5339 122.764 23.1386C122.948 22.7445 123.165 22.4386 123.417 22.221C125.002 23.1092 126.284 23.5528 127.261 23.5528C128.237 23.5528 128.968 23.3709 129.451 23.0051C129.935 22.6404 130.186 22.1716 130.206 21.5997C130.206 20.6926 129.577 19.9925 128.32 19.4985L126.695 18.8478C124.22 17.9007 122.981 16.51 122.981 14.6757C122.981 13.3544 123.46 12.3033 124.417 11.5244C125.375 10.7454 126.632 10.3555 128.189 10.3555C129.746 10.3555 131.259 10.7013 132.729 11.3909C132.748 11.7661 132.675 12.1603 132.511 12.5745C132.346 12.9886 132.139 13.305 131.888 13.5216C130.476 12.8909 129.19 12.5745 128.029 12.5745C127.371 12.5745 126.839 12.7374 126.433 13.0622C126.028 13.3881 125.824 13.797 125.824 14.29C125.824 14.783 125.973 15.1729 126.274 15.4589C126.573 15.7448 127.052 16.016 127.71 16.2725L129.45 16.9231C131.887 17.8902 133.106 19.3692 133.106 21.3622C133.106 22.6845 132.599 23.7399 131.583 24.5283C130.568 25.3177 129.194 25.7119 127.464 25.7119C125.732 25.714 124.064 25.221 122.459 24.234Z" fill="white"/>
<path d="M104.522 34.3861C104.522 33.9301 104.622 33.5561 104.822 33.2641C105.026 32.9721 105.3 32.7561 105.644 32.6161C105.992 32.4721 106.382 32.4001 106.814 32.4001C106.982 32.4001 107.166 32.4061 107.366 32.4181C107.57 32.4261 107.772 32.4441 107.972 32.4721V32.0101C107.972 31.6341 107.886 31.3641 107.714 31.2001C107.542 31.0361 107.302 30.9541 106.994 30.9541C106.69 30.9541 106.376 31.0001 106.052 31.0921C105.732 31.1801 105.416 31.2861 105.104 31.4101C105.004 31.3101 104.92 31.1741 104.852 31.0021C104.784 30.8261 104.746 30.6581 104.738 30.4981C105.078 30.3541 105.476 30.2261 105.932 30.1141C106.392 30.0021 106.826 29.9461 107.234 29.9461C107.822 29.9461 108.296 30.1101 108.656 30.4381C109.016 30.7661 109.196 31.2741 109.196 31.9621V34.4221C109.196 34.6461 109.216 34.8441 109.256 35.0161C109.3 35.1841 109.392 35.3281 109.532 35.4481C109.496 35.5601 109.434 35.6801 109.346 35.8081C109.258 35.9321 109.164 36.0261 109.064 36.0901C108.816 36.0421 108.614 35.9501 108.458 35.8141C108.306 35.6781 108.19 35.5181 108.11 35.3341C107.894 35.5421 107.634 35.7321 107.33 35.9041C107.026 36.0721 106.678 36.1561 106.286 36.1561C105.89 36.1561 105.56 36.0681 105.296 35.8921C105.036 35.7161 104.842 35.4921 104.714 35.2201C104.586 34.9481 104.522 34.6701 104.522 34.3861ZM105.752 34.3021C105.752 34.5461 105.822 34.7541 105.962 34.9261C106.102 35.0941 106.302 35.1781 106.562 35.1781C106.786 35.1781 107.024 35.1161 107.276 34.9921C107.528 34.8681 107.76 34.6861 107.972 34.4461V33.3121C107.792 33.2921 107.608 33.2781 107.42 33.2701C107.236 33.2621 107.06 33.2581 106.892 33.2581C106.528 33.2581 106.246 33.3501 106.046 33.5341C105.85 33.7181 105.752 33.9741 105.752 34.3021Z" fill="white"/>
<path d="M113.13 35.0701C113.198 35.2541 113.232 35.4621 113.232 35.6941C113.232 35.7421 113.23 35.7901 113.226 35.8381C113.222 35.8821 113.216 35.9241 113.208 35.9641C113.068 35.9841 112.902 36.0041 112.71 36.0241C112.522 36.0441 112.346 36.0541 112.182 36.0541C111.394 36.0541 111 35.6421 111 34.8181V27.2521L111.078 27.1741H111.546C111.806 27.1741 111.982 27.2381 112.074 27.3661C112.166 27.4901 112.212 27.6901 112.212 27.9661V34.5421C112.212 34.8941 112.37 35.0701 112.686 35.0701H113.13Z" fill="white"/>
<path d="M115.001 30.0241C115.401 30.0241 115.645 30.2261 115.733 30.6301C115.933 30.4261 116.173 30.2581 116.453 30.1261C116.737 29.9901 117.045 29.9221 117.377 29.9221C117.833 29.9221 118.213 30.0501 118.517 30.3061C118.825 30.5621 119.055 30.9201 119.207 31.3801C119.363 31.8361 119.441 32.3641 119.441 32.9641C119.441 33.6801 119.329 34.2701 119.105 34.7341C118.881 35.1981 118.593 35.5421 118.241 35.7661C117.889 35.9901 117.521 36.1021 117.137 36.1021C116.881 36.1021 116.639 36.0661 116.411 35.9941C116.187 35.9181 115.971 35.8221 115.763 35.7061V37.7941C115.763 38.0701 115.715 38.2701 115.619 38.3941C115.527 38.5221 115.351 38.5861 115.091 38.5861H114.623L114.545 38.5081V30.1021L114.623 30.0241H115.001ZM117.089 30.9541C116.873 30.9541 116.645 31.0181 116.405 31.1461C116.165 31.2701 115.951 31.4681 115.763 31.7401V34.6681C115.947 34.7881 116.141 34.8921 116.345 34.9801C116.549 35.0681 116.757 35.1121 116.969 35.1121C117.305 35.1121 117.589 34.9381 117.821 34.5901C118.057 34.2381 118.175 33.6961 118.175 32.9641C118.175 32.2481 118.067 31.7341 117.851 31.4221C117.635 31.1101 117.381 30.9541 117.089 30.9541Z" fill="white"/>
<path d="M122.121 36.0001C121.953 36.0321 121.751 36.0481 121.515 36.0481C121.291 36.0481 121.089 36.0321 120.909 36.0001V27.2521L120.987 27.1741H121.455C121.715 27.1741 121.891 27.2381 121.983 27.3661C122.075 27.4901 122.121 27.6901 122.121 27.9661V30.7621C122.381 30.5341 122.673 30.3461 122.997 30.1981C123.325 30.0501 123.667 29.9761 124.023 29.9761C124.395 29.9761 124.697 30.0641 124.929 30.2401C125.165 30.4121 125.337 30.6481 125.445 30.9481C125.557 31.2441 125.613 31.5761 125.613 31.9441V34.7341C125.613 34.9421 125.627 35.1401 125.655 35.3281C125.683 35.5121 125.735 35.6741 125.811 35.8141C125.719 35.8901 125.603 35.9521 125.463 36.0001C125.327 36.0521 125.183 36.0781 125.031 36.0781C124.791 36.0781 124.621 36.0121 124.521 35.8801C124.425 35.7481 124.377 35.5521 124.377 35.2921V32.2441C124.377 31.8441 124.325 31.5541 124.221 31.3741C124.117 31.1901 123.919 31.0981 123.627 31.0981C123.391 31.0981 123.135 31.1641 122.859 31.2961C122.583 31.4241 122.337 31.6041 122.121 31.8361V36.0001Z" fill="white"/>
<path d="M127.022 34.3861C127.022 33.9301 127.122 33.5561 127.322 33.2641C127.526 32.9721 127.8 32.7561 128.144 32.6161C128.492 32.4721 128.882 32.4001 129.314 32.4001C129.482 32.4001 129.666 32.4061 129.866 32.4181C130.07 32.4261 130.272 32.4441 130.472 32.4721V32.0101C130.472 31.6341 130.386 31.3641 130.214 31.2001C130.042 31.0361 129.802 30.9541 129.494 30.9541C129.19 30.9541 128.876 31.0001 128.552 31.0921C128.232 31.1801 127.916 31.2861 127.604 31.4101C127.504 31.3101 127.42 31.1741 127.352 31.0021C127.284 30.8261 127.246 30.6581 127.238 30.4981C127.578 30.3541 127.976 30.2261 128.432 30.1141C128.892 30.0021 129.326 29.9461 129.734 29.9461C130.322 29.9461 130.796 30.1101 131.156 30.4381C131.516 30.7661 131.696 31.2741 131.696 31.9621V34.4221C131.696 34.6461 131.716 34.8441 131.756 35.0161C131.8 35.1841 131.892 35.3281 132.032 35.4481C131.996 35.5601 131.934 35.6801 131.846 35.8081C131.758 35.9321 131.664 36.0261 131.564 36.0901C131.316 36.0421 131.114 35.9501 130.958 35.8141C130.806 35.6781 130.69 35.5181 130.61 35.3341C130.394 35.5421 130.134 35.7321 129.83 35.9041C129.526 36.0721 129.178 36.1561 128.786 36.1561C128.39 36.1561 128.06 36.0681 127.796 35.8921C127.536 35.7161 127.342 35.4921 127.214 35.2201C127.086 34.9481 127.022 34.6701 127.022 34.3861ZM128.252 34.3021C128.252 34.5461 128.322 34.7541 128.462 34.9261C128.602 35.0941 128.802 35.1781 129.062 35.1781C129.286 35.1781 129.524 35.1161 129.776 34.9921C130.028 34.8681 130.26 34.6861 130.472 34.4461V33.3121C130.292 33.2921 130.108 33.2781 129.92 33.2701C129.736 33.2621 129.56 33.2581 129.392 33.2581C129.028 33.2581 128.746 33.3501 128.546 33.5341C128.35 33.7181 128.252 33.9741 128.252 34.3021Z" fill="white"/>
</svg>
