<svg width="134" height="32" viewBox="0 0 134 32" fill="none" xmlns="http://www.w3.org/2000/svg">
<path d="M31.6919 16.2971C31.6558 7.54535 24.5977 0.451172 15.8459 0.451172C7.09419 0.451172 0 7.54535 0 16.2971C0 24.3263 5.97131 30.9595 13.7158 32L14.4442 18.0573C13.9817 17.7784 13.6103 17.3665 13.382 16.8723L5.77044 24.4838C5.1895 21.8595 5.8268 18.9114 7.86878 16.8708C9.05813 15.6815 10.5235 14.9401 12.0582 14.641H1.72116C3.1663 12.375 5.70108 10.7406 8.58846 10.7406C10.3299 10.7406 11.9426 11.2868 13.2649 12.2175L5.89183 4.84439C8.51621 4.26344 11.4643 4.90075 13.5048 6.94273C14.8951 8.33296 15.674 10.1033 15.8474 11.9183C16.0208 10.1018 16.7997 8.33296 18.19 6.94273C20.2305 4.9022 23.18 4.26344 25.803 4.84439L18.4299 12.2175C19.7536 11.2868 21.3664 10.7406 23.1063 10.7406C25.9937 10.7406 28.5285 12.375 29.9736 14.641H19.6366C21.1713 14.9401 22.6367 15.6829 23.826 16.8708C25.8665 18.9114 26.5053 21.8609 25.9243 24.4838L18.3128 16.8723C18.0845 17.3651 17.7116 17.7769 17.2506 18.0573L17.979 32C25.7206 30.9595 31.7222 23.4 31.6919 16.2971Z" fill="white"/>
<path d="M44.3959 7.5727L44.4253 9.76227V25.3289C44.0196 25.4078 43.5308 25.4477 42.96 25.4477C42.3892 25.4477 41.911 25.4078 41.5241 25.3289V7.5727L39.8706 7.60213H36.3598C36.282 7.22792 36.2441 6.81797 36.2441 6.37438C36.2441 5.93079 36.283 5.51137 36.3598 5.11719H49.5602C49.6759 5.45251 49.7347 5.84775 49.7347 6.3008C49.7347 7.16905 49.1934 7.60319 48.1096 7.60319H46.0788L44.4253 7.57375H44.3959V7.5727Z" fill="white"/>
<path d="M47.335 12.0702C47.4895 11.3995 47.8374 10.8865 48.3798 10.5312C49.6559 10.8466 50.4979 11.7254 50.9037 13.1644C51.6962 11.409 52.9639 10.5312 54.7047 10.5312C55.1693 10.5312 55.6717 10.5901 56.2131 10.7089C56.2131 11.7737 55.9902 12.6725 55.5456 13.402C55.43 13.383 55.0421 13.3431 54.3851 13.2832C53.0312 13.2832 51.9674 14.0526 51.1938 15.5915V25.3274C50.8648 25.4062 50.3959 25.4462 49.7863 25.4462C49.1766 25.4462 48.7078 25.4062 48.3788 25.3274V15.088C48.3798 13.7478 48.0308 12.7418 47.335 12.0702Z" fill="white"/>
<path d="M66.321 11.9807C67.6749 13.3819 68.3519 15.3991 68.3519 18.0322C68.3519 20.6654 67.6749 22.6836 66.321 24.0838C65.2573 25.1686 63.8645 25.711 62.1437 25.711C60.4219 25.711 59.0291 25.1686 57.9664 24.0838C56.6125 22.6836 55.9355 20.6654 55.9355 18.0322C55.9355 15.398 56.6125 13.3819 57.9664 11.9807C59.0302 10.8959 60.423 10.3535 62.1437 10.3535C63.8645 10.3535 65.2573 10.8959 66.321 11.9807ZM58.8357 18.047C58.8357 21.6766 59.9384 23.492 62.1427 23.492C64.348 23.492 65.4496 21.6766 65.4496 18.047C65.4496 17.021 65.3571 16.1233 65.1742 15.3539C64.9903 14.5844 64.6423 13.9233 64.1294 13.3714C63.6164 12.8195 62.9542 12.5431 62.1416 12.5431C61.3291 12.5431 60.6668 12.8195 60.1539 13.3714C59.6409 13.9243 59.293 14.5844 59.109 15.3539C58.9282 16.1233 58.8357 17.0221 58.8357 18.047Z" fill="white"/>
<path d="M77.4184 10.3535C78.9941 10.3535 80.2082 11.0336 81.0596 12.3949C81.91 13.7561 82.3357 15.6303 82.3357 18.0175C82.3357 20.4047 81.7891 22.2642 80.6969 23.596C79.6037 24.9279 78.3129 25.5932 76.8234 25.5932C75.6629 25.5932 74.5214 25.2485 73.3998 24.5579V29.8547C73.3998 30.5053 73.2936 30.9741 73.0802 31.2601C72.8668 31.546 72.4705 31.6889 71.8903 31.6889H70.8455L70.6426 31.5113V10.7971L70.8455 10.6195H71.7158C72.644 10.6195 73.1853 11.1324 73.3409 12.1584C74.4835 10.9548 75.8416 10.3535 77.4184 10.3535ZM76.7656 12.7796C75.4117 12.7796 74.2901 13.4597 73.3998 14.821V22.1002C74.4636 22.8697 75.4601 23.2544 76.3882 23.2544C77.3164 23.2544 78.0659 22.7961 78.6367 21.8784C79.2064 20.9608 79.4923 19.6342 79.4923 17.8977C79.4923 16.1622 79.2358 14.8746 78.7239 14.0357C78.2109 13.199 77.5582 12.7796 76.7656 12.7796Z" fill="white"/>
<path d="M95.4211 10.9759L91.534 24.8544C90.8381 27.3204 90.0445 29.0906 89.1552 30.1659C88.2649 31.2412 86.9309 31.7784 85.1513 31.7784C84.2032 31.7784 83.3139 31.6302 82.4824 31.3348C82.4824 31.2559 82.4824 31.1666 82.4824 31.0688C82.4824 30.3982 82.6853 29.7959 83.0921 29.264C83.7112 29.5005 84.4502 29.6193 85.3111 29.6193C86.172 29.6193 86.8637 29.3039 87.385 28.6722C87.9075 28.0404 88.3616 27.0839 88.7484 25.8015L88.8356 25.4756C88.2354 25.4357 87.7719 25.3085 87.4428 25.0909C87.1138 24.8743 86.8626 24.4791 86.6881 23.9073L82.8293 10.9454C83.4285 10.669 83.9898 10.5312 84.5122 10.5312C85.228 10.5312 85.7116 10.9559 85.9628 11.8032L87.9936 18.7576C88.1093 19.1329 88.4866 20.6024 89.1247 23.1673C89.1636 23.305 89.2498 23.3743 89.3854 23.3743L92.664 10.7383C92.973 10.6595 93.3893 10.6196 93.9117 10.6196C94.4341 10.6196 94.8977 10.6889 95.3045 10.8266L95.4211 10.9759Z" fill="white"/>
<path d="M105.952 19.8533L106.967 22.3393C107.432 23.5229 107.895 24.2923 108.36 24.6476C107.895 25.2394 107.267 25.5358 106.474 25.5358C105.99 25.5358 105.628 25.4076 105.386 25.1511C105.144 24.8946 104.897 24.4605 104.646 23.8487L103.428 20.9191C103.099 20.1308 102.765 19.5978 102.427 19.3214C102.089 19.0449 101.633 18.9072 101.064 18.9072C100.493 18.9072 99.9662 18.9366 99.4827 18.9955V25.3288C99.1537 25.4076 98.7038 25.4475 98.1341 25.4475C97.5633 25.4475 97.0945 25.4076 96.7266 25.3288V3.75577L96.9294 3.57812H97.9743C98.5545 3.57812 98.9508 3.72108 99.1642 4.00699C99.3765 4.29291 99.4838 4.76173 99.4838 5.4124V16.5978L100.529 16.5389C100.78 16.5389 101.012 16.3907 101.224 16.0954L103.893 11.8928C104.145 11.4587 104.405 11.1433 104.677 10.9457C104.947 10.7491 105.359 10.6503 105.91 10.6503C106.46 10.6503 106.91 10.6609 107.258 10.6798L107.433 10.9163L104.154 16.1248C103.903 16.5389 103.603 16.8942 103.254 17.1896C104.433 17.506 105.332 18.3942 105.952 19.8533Z" fill="white"/>
<path d="M109.229 20.798V13.7846C109.229 12.6409 109.075 11.7622 108.765 11.1504C109.209 10.7562 109.751 10.5586 110.39 10.5586C111.028 10.5586 111.459 10.7068 111.681 11.0022C111.902 11.2986 112.014 11.7622 112.014 12.3929V20.0569C112.014 21.1217 112.149 21.8817 112.42 22.3358C112.69 22.7899 113.16 23.0159 113.827 23.0159C114.495 23.0159 115.176 22.8383 115.873 22.483C116.568 22.1277 117.188 21.6547 117.729 21.0628V10.7352C118.231 10.6564 118.696 10.6164 119.122 10.6164C119.546 10.6164 120.011 10.6564 120.515 10.7352V21.2111C120.515 22.6312 120.786 23.5888 121.327 24.0818C121.153 24.7324 120.795 25.216 120.254 25.5313C119.073 25.2749 118.31 24.5548 117.962 23.3712C116.512 24.8512 114.868 25.5902 113.03 25.5902C111.754 25.5902 110.801 25.1466 110.172 24.2584C109.544 23.3733 109.229 22.2191 109.229 20.798Z" fill="white"/>
<path d="M122.46 24.232C122.479 23.8967 122.581 23.5319 122.765 23.1367C122.949 22.7425 123.166 22.4366 123.418 22.219C125.003 23.1073 126.285 23.5508 127.262 23.5508C128.238 23.5508 128.969 23.369 129.452 23.0032C129.936 22.6384 130.187 22.1696 130.207 21.5978C130.207 20.6906 129.578 19.9906 128.321 19.4965L126.696 18.8458C124.221 17.8987 122.982 16.5081 122.982 14.6738C122.982 13.3525 123.461 12.3013 124.418 11.5224C125.376 10.7435 126.633 10.3535 128.19 10.3535C129.747 10.3535 131.26 10.6993 132.73 11.3889C132.749 11.7642 132.676 12.1584 132.512 12.5725C132.347 12.9867 132.14 13.3031 131.889 13.5196C130.477 12.8889 129.191 12.5725 128.03 12.5725C127.372 12.5725 126.84 12.7354 126.434 13.0603C126.029 13.3861 125.825 13.795 125.825 14.288C125.825 14.781 125.974 15.171 126.275 15.4569C126.574 15.7428 127.052 16.014 127.711 16.2705L129.451 16.9212C131.888 17.8882 133.107 19.3672 133.107 21.3602C133.107 22.6826 132.599 23.738 131.584 24.5263C130.569 25.3157 129.195 25.7099 127.465 25.7099C125.733 25.712 124.065 25.219 122.46 24.232Z" fill="white"/>
</svg>
