<svg width="165" height="39" viewBox="0 0 165 39" fill="none" xmlns="http://www.w3.org/2000/svg">
<path d="M39.1769 19.5884C39.1322 8.76968 30.4072 0 19.5884 0C8.76968 0 0 8.76968 0 19.5884C0 29.5139 7.38161 37.7138 16.9552 39L17.8556 21.7643C17.2839 21.4195 16.8248 20.9104 16.5425 20.2994L7.1333 29.7087C6.41515 26.4645 7.20297 22.8201 9.72723 20.2976C11.1975 18.8274 13.0089 17.9109 14.9061 17.5411H2.12766C3.91411 14.74 7.04755 12.7195 10.6169 12.7195C12.7696 12.7195 14.7632 13.3948 16.3978 14.5453L7.28336 5.4308C10.5276 4.71265 14.1719 5.50048 16.6944 8.02473C18.4129 9.7433 19.3758 11.9317 19.5902 14.1755C19.8046 11.9299 20.7675 9.7433 22.4861 8.02473C25.0085 5.50226 28.6547 4.71265 31.8971 5.4308L22.7826 14.5453C24.419 13.3948 26.4127 12.7195 28.5636 12.7195C32.1329 12.7195 35.2663 14.74 37.0528 17.5411H24.2743C26.1715 17.9109 27.983 18.8292 29.4532 20.2976C31.9757 22.8201 32.7653 26.4663 32.0471 29.7087L22.6379 20.2994C22.3556 20.9086 21.8947 21.4177 21.3249 21.7643L22.2252 39C31.7952 37.7138 39.2144 28.3688 39.1769 19.5884Z" fill="white"/>
<path d="M54.8831 8.80035L54.9195 11.507V30.7502C54.4179 30.8477 53.8137 30.897 53.1081 30.897C52.4025 30.897 51.8113 30.8477 51.3331 30.7502V8.80035L49.2891 8.83673H44.949C44.8529 8.37414 44.8061 7.86736 44.8061 7.31901C44.8061 6.77065 44.8542 6.25218 44.949 5.76489H61.2672C61.4101 6.17941 61.4829 6.66799 61.4829 7.22804C61.4829 8.30137 60.8137 8.83803 59.474 8.83803H56.9635L54.9195 8.80164H54.8831V8.80035Z" fill="white"/>
<path d="M58.5152 14.3604C58.7062 13.5313 59.1363 12.8972 59.8068 12.458C61.3843 12.8478 62.4252 13.9342 62.9267 15.7131C63.9065 13.543 65.4736 12.458 67.6255 12.458C68.1998 12.458 68.8209 12.5308 69.4901 12.6776C69.4901 13.9939 69.2147 15.1049 68.665 16.0067C68.5221 15.9833 68.0426 15.934 67.2304 15.8599C65.5568 15.8599 64.2418 16.8111 63.2854 18.7134V30.7487C62.8787 30.8461 62.2991 30.8955 61.5455 30.8955C60.7918 30.8955 60.2122 30.8461 59.8055 30.7487V18.091C59.8068 16.4342 59.3754 15.1907 58.5152 14.3604Z" fill="white"/>
<path d="M81.9876 14.2511C83.6613 15.9832 84.4981 18.4768 84.4981 21.7318C84.4981 24.9869 83.6613 27.4818 81.9876 29.2126C80.6726 30.5536 78.9509 31.2241 76.8237 31.2241C74.6953 31.2241 72.9735 30.5536 71.6598 29.2126C69.9862 27.4818 69.1493 24.9869 69.1493 21.7318C69.1493 18.4755 69.9862 15.9832 71.6598 14.2511C72.9748 12.9101 74.6966 12.2396 76.8237 12.2396C78.9509 12.2396 80.6726 12.9101 81.9876 14.2511ZM72.7344 21.75C72.7344 26.237 74.0975 28.4811 76.8224 28.4811C79.5486 28.4811 80.9104 26.237 80.9104 21.75C80.9104 20.4818 80.7961 19.3721 80.57 18.4209C80.3426 17.4697 79.9124 16.6524 79.2783 15.9702C78.6442 15.288 77.8256 14.9463 76.8211 14.9463C75.8167 14.9463 74.998 15.288 74.3639 15.9702C73.7298 16.6537 73.2997 17.4697 73.0723 18.4209C72.8488 19.3721 72.7344 20.4831 72.7344 21.75Z" fill="white"/>
<path d="M95.7051 12.2396C97.653 12.2396 99.1538 13.0803 100.206 14.763C101.258 16.4458 101.784 18.7627 101.784 21.7137C101.784 24.6646 101.108 26.9633 99.758 28.6097C98.4066 30.2561 96.8109 31.0786 94.9697 31.0786C93.5351 31.0786 92.1239 30.6524 90.7374 29.7987V36.3465C90.7374 37.1508 90.6062 37.7304 90.3424 38.0838C90.0786 38.4372 89.5887 38.614 88.8715 38.614H87.5798L87.329 38.3944V12.7879L87.5798 12.5683H88.6558C89.8031 12.5683 90.4724 13.2024 90.6647 14.4707C92.0771 12.9828 93.756 12.2396 95.7051 12.2396ZM94.8982 15.2386C93.2245 15.2386 91.838 16.0794 90.7374 17.7621V26.7606C92.0525 27.7118 93.2843 28.1874 94.4317 28.1874C95.5791 28.1874 96.5056 27.6208 97.2112 26.4864C97.9155 25.352 98.2689 23.7122 98.2689 21.5655C98.2689 19.4202 97.9518 17.8284 97.319 16.7914C96.6849 15.7571 95.8779 15.2386 94.8982 15.2386Z" fill="white"/>
<path d="M117.959 13.0077L113.154 30.164C112.294 33.2124 111.313 35.4006 110.213 36.7299C109.113 38.0592 107.464 38.7233 105.264 38.7233C104.092 38.7233 102.992 38.54 101.965 38.1749C101.965 38.0774 101.965 37.967 101.965 37.8461C101.965 37.0171 102.215 36.2725 102.718 35.615C103.484 35.9074 104.397 36.0542 105.461 36.0542C106.526 36.0542 107.381 35.6644 108.025 34.8835C108.671 34.1025 109.232 32.92 109.71 31.3347L109.818 30.9319C109.076 30.8825 108.503 30.7253 108.097 30.4563C107.69 30.1886 107.379 29.7001 107.164 28.9932L102.393 12.97C103.134 12.6282 103.828 12.458 104.474 12.458C105.359 12.458 105.956 12.983 106.267 14.0303L108.777 22.6273C108.92 23.0912 109.387 24.9078 110.176 28.0784C110.224 28.2486 110.33 28.3344 110.498 28.3344L114.551 12.714C114.933 12.6165 115.447 12.5672 116.093 12.5672C116.739 12.5672 117.312 12.6529 117.815 12.8231L117.959 13.0077Z" fill="white"/>
<path d="M130.976 23.9815L132.231 27.0547C132.806 28.5178 133.379 29.469 133.953 29.9082C133.379 30.6398 132.602 31.0062 131.622 31.0062C131.024 31.0062 130.576 30.8477 130.277 30.5306C129.978 30.2136 129.673 29.6769 129.362 28.9206L127.856 25.2991C127.45 24.3246 127.038 23.6658 126.619 23.324C126.201 22.9823 125.638 22.812 124.934 22.812C124.228 22.812 123.577 22.8484 122.98 22.9212V30.7502C122.573 30.8477 122.017 30.8971 121.312 30.8971C120.607 30.8971 120.027 30.8477 119.572 30.7502V4.08214L119.823 3.86255H121.115C121.832 3.86255 122.322 4.03926 122.586 4.39271C122.848 4.74615 122.981 5.32569 122.981 6.13004V19.9572L124.272 19.8844C124.583 19.8844 124.87 19.7012 125.133 19.3361L128.432 14.141C128.742 13.6043 129.065 13.2145 129.4 12.9702C129.734 12.7272 130.243 12.6051 130.924 12.6051C131.605 12.6051 132.161 12.6181 132.591 12.6415L132.807 12.9338L128.754 19.3725C128.444 19.8844 128.073 20.3236 127.642 20.6888C129.099 21.0799 130.211 22.1779 130.976 23.9815Z" fill="white"/>
<path d="M135.028 25.1523V16.4826C135.028 15.0688 134.837 13.9825 134.454 13.2262C135.004 12.7389 135.673 12.4946 136.463 12.4946C137.252 12.4946 137.784 12.6778 138.059 13.043C138.333 13.4094 138.47 13.9825 138.47 14.7621V24.2362C138.47 25.5525 138.638 26.492 138.972 27.0534C139.306 27.6147 139.887 27.8941 140.712 27.8941C141.537 27.8941 142.379 27.6745 143.241 27.2353C144.101 26.7961 144.866 26.2113 145.535 25.4798V12.7129C146.157 12.6155 146.731 12.5661 147.257 12.5661C147.782 12.5661 148.356 12.6155 148.979 12.7129V25.663C148.979 27.4185 149.314 28.6023 149.983 29.2117C149.768 30.0161 149.326 30.6138 148.657 31.0036C147.197 30.6866 146.254 29.7964 145.824 28.3333C144.031 30.1629 141.998 31.0764 139.727 31.0764C138.149 31.0764 136.971 30.528 136.194 29.43C135.417 28.3359 135.028 26.9091 135.028 25.1523Z" fill="white"/>
<path d="M151.384 29.3959C151.408 28.9813 151.534 28.5304 151.761 28.0419C151.989 27.5546 152.258 27.1764 152.568 26.9075C154.528 28.0055 156.113 28.5538 157.32 28.5538C158.527 28.5538 159.43 28.329 160.028 27.8768C160.626 27.4259 160.936 26.8464 160.961 26.1395C160.961 25.0181 160.184 24.1527 158.63 23.5419L156.621 22.7376C153.561 21.5668 152.03 19.8477 152.03 17.5802C152.03 15.9468 152.621 14.6474 153.805 13.6845C154.989 12.7216 156.543 12.2396 158.467 12.2396C160.392 12.2396 162.263 12.6671 164.08 13.5195C164.103 13.9834 164.013 14.4707 163.811 14.9826C163.607 15.4946 163.351 15.8857 163.04 16.1534C161.295 15.3738 159.705 14.9826 158.27 14.9826C157.457 14.9826 156.799 15.1841 156.297 15.5856C155.796 15.9884 155.544 16.4939 155.544 17.1033C155.544 17.7127 155.728 18.1948 156.1 18.5483C156.47 18.9017 157.062 19.237 157.875 19.554L160.027 20.3584C163.039 21.5538 164.546 23.3821 164.546 25.8458C164.546 27.4805 163.919 28.7851 162.663 29.7597C161.408 30.7356 159.71 31.2228 157.571 31.2228C155.431 31.2254 153.369 30.616 151.384 29.3959Z" fill="white"/>
</svg>
