<svg width="44" height="27" viewBox="0 0 44 27" fill="none" xmlns="http://www.w3.org/2000/svg">
<path d="M40.1669 0H3.81818C2.81967 0 2 0.831318 2 1.84401V23.156C2 24.1838 2.81967 25 3.81818 25H40.1669C41.1803 25 41.9851 24.1687 41.9851 23.156V1.84401C42 0.831318 41.1803 0 40.1669 0ZM22 21.1759C17.4098 21.1759 13.6841 17.3972 13.6841 12.7418C13.6841 8.08646 17.4098 4.30774 22 4.30774C26.5902 4.30774 30.3159 8.08646 30.3159 12.7418C30.3159 17.3972 26.5902 21.1759 22 21.1759Z" fill="white"/>
<path d="M22.0013 5.65295C18.1414 5.65295 15.0117 8.82708 15.0117 12.7418C15.0117 16.6566 18.1414 19.8307 22.0013 19.8307C25.8612 19.8307 28.9909 16.6566 28.9909 12.7418C28.9909 8.82708 25.8612 5.65295 22.0013 5.65295ZM25.891 13.9057L20.9134 17.0798C20.7196 17.2007 20.511 17.2612 20.2874 17.2612C20.0937 17.2612 19.8999 17.2158 19.7211 17.11C19.3485 16.8984 19.1101 16.5054 19.1101 16.0671V9.71885C19.1101 9.28052 19.3336 8.88754 19.7062 8.67593C20.0788 8.46432 20.5259 8.47944 20.8985 8.70616L25.8761 11.8803C26.2189 12.0919 26.4275 12.4698 26.4275 12.8779C26.4275 13.3162 26.2189 13.6941 25.891 13.9057Z" fill="white"/>
<rect y="24" width="44" height="3" rx="1" fill="white"/>
</svg>
