<svg width="20" height="20" viewBox="0 0 20 20" fill="none" xmlns="http://www.w3.org/2000/svg">
<path d="M11.6218 10.6731L9.59113 11.968C9.51209 12.0173 9.42697 12.042 9.33577 12.042C9.25674 12.042 9.1777 12.0235 9.10474 11.9803C8.95275 11.894 8.85547 11.7337 8.85547 11.5549V8.96505C8.85547 8.78623 8.94667 8.62591 9.09866 8.53959C9.25066 8.45326 9.43305 8.45943 9.58505 8.55192L11.6157 9.84682C11.7555 9.93315 11.8407 10.0873 11.8407 10.2538C11.8407 10.4326 11.7555 10.5868 11.6218 10.6731Z" fill="#E6F1EB"/>
<path d="M17.4454 5H2.61674C2.20939 5 1.875 5.33914 1.875 5.75228V14.4466C1.875 14.8659 2.20939 15.1989 2.61674 15.1989H17.4454C17.8588 15.1989 18.1871 14.8597 18.1871 14.4466V5.75228C18.1932 5.33914 17.8588 5 17.4454 5ZM10.0341 13.6388C8.16152 13.6388 6.64157 12.0973 6.64157 10.1981C6.64157 8.29891 8.16152 6.75736 10.0341 6.75736C11.9067 6.75736 13.4266 8.29891 13.4266 10.1981C13.4266 12.0973 11.9067 13.6388 10.0341 13.6388Z" fill="#E6F1EB"/>
</svg>
