<svg width="64" height="64" viewBox="0 0 64 64" fill="none" xmlns="http://www.w3.org/2000/svg">
<path d="M51.445 52.5303C49.89 51.7475 49 50.601 49 49.3939C49 48.1869 49.89 47.0404 51.445 46.2576C51.94 46.0101 52.14 45.404 51.895 44.904C51.725 44.5606 51.38 44.3434 51 44.3434H17C14.24 44.3434 12 46.6061 12 49.3939C12 52.1818 14.24 54.4444 17 54.4444H51C51.55 54.4444 52 53.9899 52 53.4343C52 53.0505 51.785 52.702 51.445 52.5303Z" fill="white"/>
<path d="M31.0259 40.3889C32.0509 40.798 33.1409 41.0101 34.2409 41.0202C36.8859 41.0202 39.2959 39.6768 41.1359 37.0859C44.3809 32.5253 45.3609 24.4091 41.8109 20.3737C40.4959 18.8788 37.5159 16.9192 31.9509 19.5C31.9159 18.9697 31.8609 18.4848 31.7959 18.0253C35.8409 17.7424 38.0009 15.3535 38.0009 11.0101C38.0009 10.4545 37.5559 10 37.0009 10C33.5709 10 31.3509 11.3737 30.4559 14.0101C29.7209 12.7828 28.4159 12.0303 27.0009 12.0202C26.4509 12.0202 26.0009 12.4747 26.0009 13.0303C26.0009 13.5859 26.4509 14.0404 27.0009 14.0404C28.6259 14.0404 29.6809 16.0253 29.9359 19.4192C24.4709 16.9444 21.5459 18.8889 20.2409 20.3737C16.6909 24.4091 17.6659 32.5253 20.9159 37.0859C23.4809 40.6919 27.1509 41.8889 31.0259 40.3889Z" fill="white"/>
</svg>
