<svg width="32" height="32" viewBox="0 0 32 32" fill="none" xmlns="http://www.w3.org/2000/svg">
<path d="M29.8052 6H2.37221C1.61862 6 1 6.66066 1 7.46547V24.4025C1 25.2193 1.61862 25.8679 2.37221 25.8679H29.8052C30.5701 25.8679 31.1774 25.2073 31.1774 24.4025V7.46547C31.1887 6.66066 30.5701 6 29.8052 6ZM16.0943 22.8289C12.6301 22.8289 9.81815 19.8259 9.81815 16.1262C9.81815 12.4264 12.6301 9.42343 16.0943 9.42343C19.5586 9.42343 22.3705 12.4264 22.3705 16.1262C22.3705 19.8259 19.5586 22.8289 16.0943 22.8289Z" fill="white"/>
<path d="M19.0309 17.051L15.2742 19.5736C15.128 19.6697 14.9705 19.7177 14.8018 19.7177C14.6556 19.7177 14.5094 19.6817 14.3744 19.5976C14.0932 19.4294 13.9133 19.1171 13.9133 18.7688V13.7237C13.9133 13.3754 14.082 13.063 14.3632 12.8949C14.6444 12.7267 14.9818 12.7387 15.263 12.9189L19.0197 15.4414C19.2784 15.6096 19.4359 15.9099 19.4359 16.2342C19.4359 16.5826 19.2784 16.8829 19.0309 17.051Z" fill="white"/>
</svg>
