<svg width="80" height="80" viewBox="0 0 80 80" fill="none" xmlns="http://www.w3.org/2000/svg">
<path d="M75.3916 21.024L40.9398 5.09662C40.8019 5.03297 40.6519 5 40.5 5C40.3481 5 40.1981 5.03297 40.0602 5.09662L5.6084 21.024C5.42672 21.1081 5.27289 21.2424 5.16509 21.4111C5.05728 21.5798 5 21.7758 5 21.976C5 22.1762 5.05728 22.3722 5.16509 22.5409C5.27289 22.7096 5.42672 22.844 5.6084 22.9281L18.0314 28.6716V44.6822C18.0316 46.391 18.5629 48.0574 19.5519 49.451C20.5409 50.8445 21.9386 51.8962 23.5515 52.4604L27.4934 53.8385C35.9157 56.7747 45.0837 56.7747 53.506 53.8385L55.479 53.1488V60.8276C54.9497 61.0373 54.4954 61.401 54.175 61.8716C53.8546 62.3422 53.6827 62.8981 53.6816 63.4675C53.6848 63.9606 53.8174 64.4443 54.0662 64.8701L52.4197 74.7795C52.3947 74.9297 52.4026 75.0835 52.443 75.2303C52.4835 75.3771 52.5554 75.5134 52.6538 75.6295C52.7523 75.7457 52.8748 75.839 53.013 75.903C53.1512 75.967 53.3016 76.0001 53.4539 76H59.6013C59.7535 76.0001 59.904 75.967 60.0422 75.903C60.1803 75.839 60.3029 75.7457 60.4013 75.6295C60.4998 75.5134 60.5717 75.3771 60.6121 75.2303C60.6526 75.0835 60.6605 74.9297 60.6354 74.7795L58.9889 64.8701C59.2378 64.4443 59.3704 63.9606 59.3736 63.4675C59.3725 62.8981 59.2006 62.3422 58.8802 61.8716C58.5597 61.401 58.1055 61.0373 57.5761 60.8276V52.4101C59.1575 51.8279 60.5224 50.7747 61.4866 49.3927C62.4508 48.0106 62.9681 46.3661 62.9686 44.681V28.6716L75.3916 22.9281C75.5733 22.844 75.7271 22.7096 75.8349 22.5409C75.9427 22.3722 76 22.1762 76 21.976C76 21.7758 75.9427 21.5798 75.8349 21.4111C75.7271 21.2424 75.5733 21.1081 75.3916 21.024V21.024ZM52.814 51.8595C44.8409 54.64 36.1615 54.64 28.1884 51.8595L24.2453 50.4814C23.0424 50.0612 21.9999 49.2772 21.2623 48.2382C20.5246 47.1991 20.1284 45.9564 20.1285 44.6822V29.6434L40.0602 38.8584C40.1981 38.9219 40.3482 38.9548 40.5 38.9548C40.6518 38.9548 40.8019 38.9219 40.9398 38.8584L55.479 32.1341V50.9254L52.814 51.8595ZM56.5288 64.2164C56.3807 64.2164 56.2359 64.1725 56.1127 64.0902C55.9895 64.0079 55.8935 63.8909 55.8368 63.7541C55.7802 63.6172 55.7653 63.4666 55.7942 63.3214C55.8231 63.1761 55.8945 63.0426 55.9992 62.9379C56.1039 62.8332 56.2374 62.7618 56.3827 62.7329C56.528 62.704 56.6785 62.7189 56.8154 62.7755C56.9522 62.8322 57.0692 62.9282 57.1515 63.0514C57.2338 63.1746 57.2777 63.3194 57.2777 63.4675C57.2774 63.6662 57.1982 63.8567 57.0576 63.9971C56.9169 64.1376 56.7263 64.2164 56.5276 64.2164H56.5288ZM54.6912 73.903L55.962 66.2565C56.3352 66.3324 56.7199 66.3324 57.0932 66.2565L58.364 73.903H54.6912ZM60.8715 44.6822C60.8709 45.8035 60.5636 46.9033 59.9827 47.8625C59.4018 48.8217 58.5696 49.6036 57.5761 50.1237V31.1646L60.8715 29.641V44.6822ZM56.7373 29.242L40.9841 21.0437C40.7381 20.9221 40.4541 20.9018 40.1933 20.9871C39.9324 21.0724 39.7154 21.2566 39.5887 21.5001C39.462 21.7435 39.4358 22.027 39.5156 22.2896C39.5955 22.5522 39.7751 22.773 40.0159 22.9047L54.3317 30.354L40.5 36.7488L8.54669 21.976L40.5 7.20385L72.4533 21.976L56.7373 29.242Z" fill="white"/>
</svg>
