<svg width="64" height="64" viewBox="0 0 64 64" fill="none" xmlns="http://www.w3.org/2000/svg">
<path d="M25.1538 46.6364C24.8028 46.6364 24.4521 46.6364 24.1011 46.6364C24.018 46.6249 23.9349 46.606 23.8514 46.6039C22.7015 46.5729 21.5624 46.4427 20.4354 46.2237C17.8502 45.7209 15.4363 44.7854 13.1967 43.4195C13.1452 43.3878 13.0947 43.355 13 43.295C15.0509 43.5201 17.0135 43.3592 18.942 42.8243C20.868 42.29 22.6183 41.4131 24.1919 40.1777C22.5846 40.1064 21.1301 39.6288 19.8419 38.6912C18.5526 37.7529 17.6567 36.5325 17.1239 34.9994C18.2869 35.1998 19.403 35.1634 20.5105 34.8496C18.7518 34.448 17.2807 33.5899 16.1445 32.2126C15.0106 30.8378 14.4483 29.2597 14.4465 27.453C15.534 28.0118 16.6451 28.3339 17.8429 28.3424C16.2331 27.2055 15.1514 25.7204 14.706 23.8199C14.2614 21.9208 14.5438 20.1198 15.518 18.3944C17.4879 20.7375 19.8172 22.5885 22.5476 23.9455C25.2721 25.2996 28.16 26.046 31.2305 26.2051C31.221 26.1288 31.2156 26.0774 31.2083 26.0264C31.1553 25.6391 31.073 25.2532 31.0548 24.8645C30.9808 23.2971 31.3474 21.8313 32.216 20.5104C33.4559 18.6245 35.2088 17.4807 37.4709 17.1113C37.7678 17.0628 38.0684 17.0367 38.3671 17C38.5606 17 38.7544 17 38.9479 17C39.0364 17.0139 39.125 17.0303 39.2143 17.0417C39.4775 17.0745 39.7432 17.0931 40.0038 17.1394C41.5984 17.4226 42.9628 18.1362 44.0968 19.2732C44.1792 19.3559 44.2594 19.3745 44.3712 19.3509C45.96 19.0189 47.4617 18.4629 48.8711 17.6683C48.9038 17.6498 48.9412 17.6398 49.0109 17.612C48.7201 18.4829 48.2903 19.2375 47.7343 19.9251C47.176 20.6152 46.503 21.1812 45.7542 21.6705C47.2221 21.5271 48.6181 21.1427 50 20.5678C49.9626 20.632 49.9474 20.6634 49.9278 20.6915C48.9597 22.0589 47.8025 23.2468 46.4359 24.234C46.3092 24.3256 46.2631 24.4173 46.2663 24.5717C46.287 25.5218 46.2722 26.4708 46.1698 27.418C46.033 28.683 45.7941 29.9277 45.4319 31.1481C44.3037 34.9501 42.3396 38.2668 39.4074 40.9983C35.5554 44.585 30.9299 46.3635 25.6572 46.5946C25.4892 46.6021 25.3218 46.6221 25.1538 46.6364Z" fill="white"/>
</svg>
