<svg width="80" height="80" viewBox="0 0 80 80" fill="none" xmlns="http://www.w3.org/2000/svg">
<path d="M61.7964 10H18.5245C13.7995 10.0402 10 13.8445 10 18.5255V60.3485C10 65.681 14.3597 70 19.7423 70H67.317C70.4589 70 73 67.4826 73 64.37V30.992C73 27.9437 70.5563 25.4504 67.4794 25.3619V15.63C67.4388 12.5416 64.9139 10.0402 61.7964 10ZM18.5245 11.6086H61.7964C64.0209 11.6488 65.8151 13.4263 65.8557 15.63V17.7212H22.8273C22.4295 17.6729 22.0642 17.9544 22.0155 18.3566C22.0073 18.4129 22.0073 18.4692 22.0155 18.5255C22.0155 18.9678 22.3808 19.3298 22.8273 19.3298H65.8557V25.3619H18.5245C14.7169 25.3619 11.6237 22.2976 11.6237 18.5255C11.6237 14.7373 14.7006 11.6488 18.5245 11.6086ZM71.3763 56.0858H58.143C55.9023 56.0858 54.0838 54.2842 54.0838 52.0643V44.2627C54.0838 42.0429 55.9023 40.2413 58.143 40.2413H71.3763V56.0858ZM71.3763 30.992V38.6327H58.143C55.0012 38.6327 52.4601 41.1501 52.4601 44.2627V52.0643C52.4601 55.1769 55.0012 57.6944 58.143 57.6944H71.3763V64.37C71.3763 66.5898 69.5577 68.3914 67.317 68.3914H19.7423C15.2608 68.3914 11.6237 64.7882 11.6237 60.3485V23.4316C13.1987 25.6595 15.7804 26.9866 18.5245 26.9705H67.317C69.5577 26.9705 71.3763 28.7721 71.3763 30.992Z" fill="white"/>
</svg>
