<svg width="130" height="64" viewBox="0 0 23 16" fill="none" xmlns="http://www.w3.org/2000/svg">
<path d="M21.6873 2.42599C21.432 1.47739 20.6841 0.729656 19.7357 0.474217C18.0029 0 11.0715 0 11.0715 0C11.0715 0 4.1404 0 2.40758 0.456141C1.47739 0.71141 0.711241 1.47756 0.455972 2.42599C0 4.15865 0 7.75202 0 7.75202C0 7.75202 0 11.3635 0.455972 13.0781C0.71141 14.0265 1.45914 14.7744 2.40775 15.0298C4.15865 15.504 11.0717 15.504 11.0717 15.504C11.0717 15.504 18.0029 15.504 19.7357 15.0479C20.6843 14.7926 21.432 14.0447 21.6875 13.0963C22.1434 11.3635 22.1434 7.77027 22.1434 7.77027C22.1434 7.77027 22.1617 4.15865 21.6873 2.42599Z" fill="#E6F1EB"/>
<path d="M8.86433 11.0715L14.6281 7.75183L8.86433 4.43213V11.0715Z" fill="#47B25F"/>
</svg>
