<svg width="236" height="45" viewBox="0 0 236 45" fill="none" xmlns="http://www.w3.org/2000/svg">
<path d="M25.6431 0.126797C25.8067 0.462145 26.1429 0.824682 26.0975 1.12378C24.3982 11.7643 27.6241 19.2507 38.6285 23.0211C42.8631 24.4712 42.5723 34.3957 38.7557 36.9878C38.2741 37.3141 37.738 37.5679 37.2291 37.8579C19.9546 47.5558 19.9546 47.5558 3.08904 36.7431C2.43477 36.3171 1.35341 36.0271 1.18075 35.4652C-0.954705 28.4501 0.517398 21.2446 0.335657 14.1298C0.244786 10.6948 3.816 10.2688 6.11503 9.08148C12.1943 5.95459 18.3735 3.0271 24.5345 0.063353C24.8162 -0.0907255 25.2615 0.0905434 25.6431 0.126797ZM9.68624 23.9002C9.62263 28.9395 15.1021 34.8398 20.1273 34.6041C23.2623 34.4591 26.9607 32.8458 27.9421 30.2718C28.969 27.5437 24.7617 27.1449 22.8625 25.7673C20.5998 24.1359 17.2285 23.728 17.6192 19.7038C17.7919 17.9455 18.1281 15.0905 15.3293 15.444C13.0394 15.734 10.2678 16.7945 9.74076 19.8217C9.49541 21.1449 9.68624 22.5407 9.68624 23.9002Z" fill="#5292FE"/>
<path d="M53.559 21.2991C53.559 17.9819 53.6317 14.6738 53.5317 11.3565C53.4681 9.01816 54.0769 7.75834 56.8031 7.81272C59.302 7.86711 59.9653 9.16318 59.6382 11.1299C58.9022 15.5438 61.0831 16.0061 64.8814 16.0242C71.6877 16.0605 74.2684 19.287 74.3047 26.6012C74.3411 34.1511 71.9784 37.0514 65.2813 37.6586C55.4854 38.5469 53.5681 36.8248 53.559 27.136C53.559 25.1964 53.559 23.2478 53.559 21.2991ZM59.5564 26.6103C60.7923 28.713 57.2574 33.1994 62.9186 33.417C67.3895 33.5801 68.4072 30.8973 68.38 27.0182C68.3618 23.3656 68.0528 20.5378 63.2912 20.3565C57.9662 20.1571 60.2289 24 59.5564 26.6103Z" fill="white"/>
<path d="M122.712 21.7976C122.712 24.3173 122.839 26.846 122.684 29.3565C122.494 32.3747 123.984 36.0272 118.977 37.1239C112.125 38.6194 105.673 37.4502 103.465 33.716C98.5219 25.3777 103.302 16.1239 112.87 16.0151C116.005 15.9789 117.06 15.2176 116.723 12.2085C116.442 9.72511 116.551 7.5952 120.195 7.83085C123.938 8.0665 122.557 10.713 122.666 12.5076C122.848 15.5892 122.712 18.6979 122.712 21.7976ZM117.087 26.7463C115.442 24.8248 119.186 20.2025 113.152 20.3475C108.29 20.4653 108.191 23.42 108.154 27.0091C108.118 30.8429 108.954 33.5348 113.534 33.4441C118.913 33.3354 115.642 29.1299 117.087 26.7463Z" fill="white"/>
<path d="M203.659 27.5257C203.659 16.6042 206.857 13.9486 217.653 16.6405C220.433 17.3384 222.614 16.2508 225.059 15.9879C232.71 15.1631 235.672 17.5196 235.945 25.0332C236.063 28.3323 235.918 31.6495 235.972 34.9486C236.009 36.7976 235.018 37.2689 233.41 37.2507C231.71 37.2326 231.674 36.0997 231.674 34.8852C231.674 31.1873 231.647 27.4985 231.665 23.8006C231.692 19.7492 229.075 19.1239 225.804 19.1057C222.433 19.0876 221.533 20.7462 221.787 23.8822C222.06 27.1631 221.878 30.4894 221.833 33.7976C221.815 35.2659 222.314 37.1148 219.852 37.2145C217.353 37.3142 217.734 35.5287 217.734 34.006C217.725 30.6979 217.671 27.3897 217.734 24.0906C217.798 20.2205 215.554 19.1329 212.128 19.0604C208.22 18.9788 207.839 21.2356 208.048 24.3263C208.248 27.2266 208.175 30.1631 208.057 33.0725C207.984 34.7674 209.084 37.3142 205.712 37.2236C202.786 37.142 203.759 34.8943 203.668 33.3535C203.568 31.423 203.659 29.4743 203.659 27.5257Z" fill="white"/>
<path d="M98.0308 27.1541C97.3583 29.7825 99.7937 33.997 96.6859 35.9185C92.4877 38.5106 87.3535 38.2478 82.501 37.0151C80.1929 36.4351 78.6481 34.8218 78.5209 32.5197C78.2573 27.8792 78.3391 23.2206 78.2664 18.5801C78.2301 16.4774 79.4568 16.0967 81.2742 16.0423C83.3643 15.9789 84.0003 16.8943 83.9549 18.8067C83.8822 21.9064 83.9367 25.0151 83.9458 28.1148C83.9549 31.1692 84.8 33.3626 88.5166 33.4713C92.624 33.5982 92.0151 30.8429 92.0242 28.3686C92.0333 25.2689 92.106 22.1602 92.006 19.0605C91.9333 16.7855 92.8966 16.0605 95.1229 16.0151C97.5037 15.9698 98.1671 16.9668 98.0762 19.1148C97.949 21.6345 98.0308 24.1541 98.0308 27.1541Z" fill="white"/>
<path d="M146.047 28.5951C145.038 30.9607 148.073 35.0302 143.947 36.4531C139.159 38.1027 133.924 38.8731 129.19 36.2991C125.155 34.1057 125.592 27.3262 129.735 25.2145C131.071 24.5347 132.734 24.5166 134.179 24.009C136.051 23.3565 139.622 25.0785 139.595 22.4954C139.567 19.6314 136.069 20.4562 133.834 20.4562C132.67 20.4562 131.489 20.4652 130.335 20.5921C128.718 20.7643 127.691 20.3021 127.573 18.5166C127.464 16.9395 128.59 16.5226 129.744 16.3685C133.606 15.8701 137.514 15.3172 141.321 16.5136C147.619 18.5075 145.656 23.864 146.047 28.5951ZM137.586 27.5075C135.106 27.58 132.38 27.571 132.316 30.7432C132.261 33.2265 134.451 33.5528 136.541 33.5528C138.668 33.5528 140.413 33.3534 140.222 30.4894C140.104 28.6223 140.24 26.8549 137.586 27.5075Z" fill="white"/>
<path d="M198.879 26.9727C198.861 34.6403 195.808 37.7763 188.42 37.7038C181.232 37.6313 178.079 34.2415 178.152 26.6645C178.224 19.16 181.496 15.8337 188.738 15.8971C196.008 15.9606 198.897 19.1237 198.879 26.9727ZM194.699 26.7008C194.781 22.3322 193.754 18.9334 188.365 19.0693C182.895 19.2053 182.386 22.8579 182.404 27.0542C182.432 31.3866 183.368 34.6947 188.783 34.6494C194.526 34.595 194.49 30.598 194.699 26.7008Z" fill="white"/>
<path d="M159.668 26.2839C159.759 17.9909 164.466 14.293 172.672 16.015C173.844 16.2598 175.189 16.3413 175.107 17.9002C175.016 19.6132 173.571 19.2779 172.463 19.2235C168.164 19.0422 164.093 18.9425 163.612 24.9063C163.03 32.0392 164.793 34.1691 172.235 34.5498C173.326 34.6042 174.834 33.9063 175.125 35.5558C175.525 37.8308 173.408 37.2688 172.317 37.4773C163.766 39.1268 159.559 35.3655 159.668 26.2839Z" fill="white"/>
<path d="M152.79 37.6315C151.563 37.4411 150.627 36.6798 150.845 35.0212C151.054 33.3898 152.163 32.8279 153.68 32.9547C155.107 33.0816 155.561 34.0333 155.589 35.3112C155.634 37.0061 154.734 37.7131 152.79 37.6315Z" fill="white"/>
</svg>
