<svg width="29" height="26" viewBox="0 0 29 26" fill="none" xmlns="http://www.w3.org/2000/svg">
<path d="M14.5 1C7.60526 1 2 6.60526 2 13.5C2 20.3947 7.60526 26 14.5 26C21.3947 26 27 20.3947 27 13.5C27 6.60526 21.3947 1 14.5 1ZM6.89474 10.5263C6.89474 10.2632 7.13158 10.0263 7.39474 10.0263H15.5263V7.05263C15.5263 6.63158 16.0263 6.39474 16.3421 6.68421L21.8947 11.5263C22.2368 11.8421 22.0263 12.3947 21.5789 12.3947H7.39474C7.13158 12.3947 6.89474 12.1579 6.89474 11.8947V10.5263ZM22.1053 16.4737C22.1053 16.7368 21.8684 16.9737 21.6053 16.9737H13.4737V19.9474C13.4737 20.3684 12.9737 20.6053 12.6579 20.3158L7.07895 15.5C6.73684 15.1842 6.94737 14.6316 7.39474 14.6316H21.6053C21.8684 14.6316 22.1053 14.8421 22.1053 15.1316V16.4737Z" fill="#47B25F"/>
</svg>
