<svg width="29" height="26" viewBox="0 0 29 26" fill="none" xmlns="http://www.w3.org/2000/svg">
<path d="M18.8354 15.6677C16.8439 15.6677 14.8508 15.6754 12.8593 15.6646C11.917 15.66 11.7878 15.539 11.7863 14.6442C11.7783 10.7939 11.7783 6.94358 11.7863 3.09326C11.7878 2.18775 11.9218 2.05445 12.8418 2.05292C16.0292 2.04526 19.2165 2.02994 22.4039 2.06058C24.3603 2.07897 25.891 3.438 25.9357 5.31949C26.0106 8.50485 25.958 11.6933 25.966 14.8802C25.9676 15.5512 25.5418 15.6723 24.9694 15.6708C22.9253 15.6631 20.8796 15.6677 18.8354 15.6677Z" fill="#88AF9F"/>
<path d="M3.04391 12.9664C3.04391 12.329 3.03912 11.6932 3.0455 11.0558C3.05028 10.59 3.30221 10.3495 3.78853 10.3495C5.11514 10.3464 6.44174 10.3495 7.76835 10.3449C8.29294 10.3434 8.56081 10.5839 8.56081 11.0865C8.5624 12.3597 8.5624 13.6329 8.55921 14.9077C8.55762 15.4056 8.28975 15.66 7.76995 15.66C6.47044 15.6615 5.16935 15.66 3.86985 15.6646C3.31337 15.6676 3.03434 15.4194 3.03912 14.877C3.0455 14.2397 3.04072 13.6038 3.04072 12.9664C3.04072 12.9664 3.04231 12.9664 3.04391 12.9664Z" fill="#88AF9F"/>
<path d="M14.5475 18.7458C15.1566 18.7458 15.7657 18.7488 16.3764 18.7458C16.9281 18.7427 17.2151 18.9909 17.2135 19.5318C17.2103 20.7529 17.2119 21.974 17.2119 23.1952C17.2119 23.7421 16.9042 23.9689 16.3604 23.9674C15.1151 23.9643 13.8699 23.9643 12.6246 23.9674C12.0713 23.9689 11.7891 23.7192 11.7891 23.1798C11.7923 21.9587 11.7907 20.7376 11.7891 19.5164C11.7891 18.9679 12.0952 18.7412 12.6389 18.7442C13.2767 18.7488 13.9113 18.7458 14.5475 18.7458Z" fill="#88AF9F"/>
<path d="M5.79005 7.26107C5.12674 7.26107 4.46184 7.26261 3.79854 7.25954C3.3186 7.25801 3.09537 7.02512 3.03957 6.56088C2.6824 3.58083 4.77914 1.62885 7.87881 2.05939C8.33165 2.12221 8.55009 2.34437 8.55328 2.75806C8.56125 4.03281 8.56285 5.30757 8.55328 6.58233C8.55009 7.0573 8.25671 7.2626 7.78155 7.2626C7.11825 7.26107 6.45494 7.26107 5.79005 7.26107Z" fill="#88AF9F"/>
<path d="M5.83147 18.7458C6.46926 18.7458 7.10705 18.7488 7.74325 18.7442C8.25667 18.7412 8.55324 18.9618 8.55643 19.4705C8.56281 20.7207 8.56122 21.9694 8.55803 23.2197C8.55643 23.7191 8.28378 23.929 7.76398 23.9719C4.67228 24.2263 2.90081 22.6022 3.02518 19.6421C3.05229 18.9894 3.33292 18.7166 3.99782 18.7381C4.6085 18.758 5.21919 18.7427 5.82987 18.7427C5.83147 18.7427 5.83147 18.7442 5.83147 18.7458Z" fill="#88AF9F"/>
<path d="M20.5353 21.3045C20.5353 20.7192 20.5369 20.1324 20.5353 19.5471C20.5337 19.0139 20.8064 18.7458 21.3629 18.7473C22.6353 18.7489 23.9093 18.7473 25.1817 18.7489C25.7031 18.7504 25.9215 19.0124 25.9693 19.5073C26.2484 22.4414 24.4849 24.1681 21.4139 23.975C20.8271 23.9383 20.529 23.7115 20.5337 23.1385C20.5385 22.5256 20.5337 21.9143 20.5353 21.3045Z" fill="#88AF9F"/>
</svg>
