<svg width="50" height="50" viewBox="0 0 50 50" fill="none" xmlns="http://www.w3.org/2000/svg">
<g clip-path="url(#clip0)">
<path d="M33.986 30.9597C30.0893 30.9597 26.1896 30.9754 22.293 30.9534C20.4492 30.944 20.1965 30.6964 20.1933 28.8661C20.1777 20.99 20.1777 13.1139 20.1933 5.2378C20.1965 3.38552 20.4585 3.11285 22.2586 3.10972C28.4951 3.09405 34.7316 3.06271 40.9681 3.12539C44.7961 3.163 47.7911 5.94298 47.8784 9.79171C48.0251 16.3076 47.9221 22.8297 47.9377 29.3487C47.9408 30.7215 47.1079 30.9691 45.9878 30.966C41.9883 30.9503 37.9856 30.9597 33.986 30.9597Z" fill="white" fill-opacity="0.2"/>
<path d="M3.08711 25.4341C3.08711 24.1303 3.07776 22.8296 3.09023 21.5258C3.09959 20.573 3.59252 20.081 4.54406 20.081C7.13973 20.0747 9.73541 20.081 12.3311 20.0715C13.3575 20.0684 13.8816 20.5605 13.8816 21.5885C13.8847 24.1929 13.8847 26.7974 13.8785 29.405C13.8754 30.4236 13.3513 30.9439 12.3342 30.9439C9.79157 30.947 7.24581 30.9439 4.70317 30.9533C3.61436 30.9596 3.0684 30.4518 3.07776 29.3423C3.09023 28.0385 3.08087 26.7379 3.08087 25.4341C3.08087 25.4341 3.08399 25.4341 3.08711 25.4341Z" fill="white" fill-opacity="0.2"/>
<path d="M25.5962 37.2561C26.788 37.2561 27.9798 37.2624 29.1746 37.2561C30.2541 37.2499 30.8157 37.7576 30.8125 38.8639C30.8063 41.3619 30.8094 43.8598 30.8094 46.3577C30.8094 47.4766 30.2073 47.9404 29.1434 47.9373C26.7069 47.931 24.2703 47.931 21.8337 47.9373C20.7512 47.9404 20.199 47.4296 20.199 46.3263C20.2052 43.8284 20.2021 41.3305 20.199 38.8326C20.199 37.7106 20.798 37.2467 21.8618 37.253C23.1097 37.2624 24.3514 37.2561 25.5962 37.2561Z" fill="white" fill-opacity="0.2"/>
<path d="M8.46005 13.7634C7.16221 13.7634 5.86126 13.7665 4.56342 13.7602C3.62436 13.7571 3.18759 13.2807 3.07839 12.3311C2.37956 6.23515 6.4821 2.24226 12.547 3.12295C13.433 3.25145 13.8604 3.7059 13.8667 4.55212C13.8823 7.15973 13.8854 9.76733 13.8667 12.3749C13.8604 13.3465 13.2864 13.7665 12.3567 13.7665C11.0588 13.7634 9.76101 13.7634 8.46005 13.7634Z" fill="white" fill-opacity="0.2"/>
<path d="M8.54437 37.2561C9.79229 37.2561 11.0402 37.2624 12.285 37.253C13.2896 37.2467 13.8699 37.698 13.8761 38.7385C13.8886 41.296 13.8855 43.8503 13.8792 46.4078C13.8761 47.4295 13.3426 47.8589 12.3256 47.9467C6.27627 48.4669 2.81017 45.1447 3.05352 39.0896C3.10655 37.7544 3.65564 37.1966 4.95659 37.2404C6.15148 37.2812 7.34636 37.2498 8.54125 37.2498C8.54437 37.2498 8.54437 37.253 8.54437 37.2561Z" fill="white" fill-opacity="0.2"/>
<path d="M37.3121 42.4902C37.3121 41.2929 37.3152 40.0926 37.3121 38.8953C37.3089 37.8046 37.8424 37.2562 38.9312 37.2593C41.4208 37.2624 43.9136 37.2593 46.4032 37.2624C47.4233 37.2656 47.8508 37.8015 47.9444 38.8138C48.4903 44.8157 45.0398 48.3479 39.0311 47.953C37.883 47.8777 37.2996 47.4139 37.3089 46.2417C37.3183 44.9881 37.3089 43.7376 37.3121 42.4902Z" fill="white" fill-opacity="0.2"/>
</g>
<defs>
<clipPath id="clip0">
<rect width="45" height="45" fill="white" transform="translate(3 3)"/>
</clipPath>
</defs>
</svg>
