<svg width="163" height="26" viewBox="0 0 163 26" fill="none" xmlns="http://www.w3.org/2000/svg">
<path d="M43.412 7.84185C43.3503 7.5118 43.229 7.18174 43.2352 6.85375C43.303 3.56147 41.0001 1.43055 37.9342 0.663179C37.6772 0.599231 33.3489 -0.809687 27.4516 0.683807C23.9766 1.56464 22.202 3.80075 22.0643 7.43547C21.8607 11.6333 21.7209 15.8374 22.2391 20.0188C22.5989 22.9088 24.2871 24.8809 27.1205 25.4399C33.1432 26.626 37.8355 25.5719 38.1604 25.4915C41.1892 24.7344 42.9288 22.8077 43.2578 19.7114C43.6752 15.7631 43.4655 11.8004 43.412 7.84185ZM37.6608 17.1205C37.5847 19.9796 36.5381 20.9924 33.6964 21.0708C32.843 21.0935 31.9876 21.0461 31.1322 21.0461C28.7408 21.044 27.9286 19.4763 27.8382 17.8941C27.6408 14.4388 27.5955 10.9815 27.9389 7.5283C28.3461 6.14414 29.3186 5.46546 30.7045 5.28393C31.9691 5.11891 33.2337 5.14779 34.4983 5.24061C36.1597 5.36232 37.2372 6.20396 37.5991 7.87486C37.7574 10.9567 37.7451 14.0407 37.6608 17.1205Z" fill="white"/>
<path d="M135.802 20.7924C132.757 20.8337 129.707 20.7656 126.662 20.8295C125.593 20.8522 125.27 20.4685 125.342 19.4598C125.41 18.5047 125.412 17.5372 125.348 16.5801C125.282 15.5899 125.655 15.2743 126.64 15.2929C129.582 15.3465 132.529 15.2888 135.471 15.3259C136.291 15.3362 136.668 15.1134 136.608 14.2326C136.549 13.3786 136.544 12.5142 136.614 11.6623C136.69 10.7443 136.343 10.4927 135.448 10.5092C132.506 10.5607 129.559 10.4844 126.617 10.5525C125.591 10.5752 125.276 10.2142 125.365 9.25496C125.408 8.78463 125.317 8.30193 125.289 7.82335C125.305 7.51598 125.332 7.20862 125.336 6.90126C125.365 5.42014 125.363 5.42014 126.882 5.41808C129.893 5.41808 132.903 5.39951 135.913 5.43046C136.664 5.43871 137.052 5.29225 136.984 4.42379C136.912 3.47076 136.933 2.50329 136.986 1.5482C137.026 0.844771 136.808 0.595168 136.074 0.599293C130.908 0.62611 125.743 0.621985 120.578 0.603419C119.932 0.601356 119.667 0.770509 119.683 1.46568C119.733 3.58834 119.722 5.71307 119.735 7.83779C119.731 13.4961 119.731 19.1524 119.714 24.8108C119.712 25.4008 119.977 25.5864 120.522 25.5844C125.727 25.5761 130.929 25.5741 136.133 25.5864C136.76 25.5885 136.976 25.3265 136.96 24.7221C136.933 23.798 136.9 22.8656 136.978 21.9455C137.054 21.0111 136.674 20.7821 135.802 20.7924Z" fill="white"/>
<path d="M107.331 7.63356C105.585 7.6315 103.842 7.62737 102.096 7.62531C102.096 10.7443 102.096 13.8633 102.096 16.9823C101.991 16.9947 101.886 17.005 101.783 17.0174C101.584 16.6647 101.38 16.314 101.185 15.9592C99.5605 13.0238 97.9361 10.0904 96.3138 7.15498C95.2569 5.18291 94.1917 3.21497 93.1492 1.23464C92.9148 0.789071 92.6146 0.597227 92.1006 0.605478C90.4617 0.632295 88.8229 0.636421 87.1841 0.603415C86.5405 0.591038 86.2568 0.776694 86.2753 1.46568C86.3267 3.51614 86.3328 5.56866 86.3575 7.61912C86.3287 8.0977 86.2732 8.57422 86.2753 9.05279C86.2794 13.5126 86.2917 17.9725 86.3041 22.4324C86.3061 23.1193 86.3431 23.8062 86.3082 24.4911C86.267 25.3306 86.6084 25.6545 87.4535 25.5988C88.3747 25.539 89.3061 25.5245 90.2253 25.6009C91.2513 25.6854 91.5824 25.3348 91.5742 24.2807C91.533 19.5464 91.57 14.8122 91.5886 10.078C91.5906 9.73147 91.4899 9.35191 91.7345 9.01154C92.0985 9.2467 92.1828 9.59738 92.3432 9.89031C95.0327 14.8267 97.7223 19.763 100.383 24.7139C100.714 25.3286 101.084 25.6236 101.81 25.5988C103.35 25.5472 104.892 25.5658 106.432 25.5885C107.064 25.5967 107.362 25.4111 107.36 24.7139C107.333 19.0225 107.335 13.327 107.331 7.63356Z" fill="white"/>
<path d="M159.058 25.51C156.843 26.2485 155.381 24.8458 154.08 22.7747C152.708 20.5902 152.597 20.6603 154.1 18.5562C154.678 17.7476 155.27 16.9492 155.825 16.1262C156.183 15.596 156.467 15.6167 156.817 16.1282C158.032 17.9126 159.261 19.6846 160.483 21.4648C161.237 22.5643 161.982 23.67 162.738 24.7695C163.084 25.2728 162.983 25.5162 162.356 25.5121C161.398 25.5059 160.44 25.51 159.058 25.51Z" fill="white"/>
<path d="M159.206 0.638412C160.162 0.640474 161.118 0.646663 162.076 0.636349C162.695 0.63016 162.924 0.805501 162.525 1.40372C160.612 4.27932 158.702 7.15904 156.804 10.0429C156.43 10.6102 156.163 10.4905 155.834 9.99956C154.884 8.57827 153.921 7.16523 152.939 5.76456C152.655 5.36024 152.694 5.04876 152.967 4.66094C153.732 3.57177 154.485 2.47021 155.198 1.34596C155.529 0.824067 155.924 0.597155 156.543 0.626035C157.429 0.667291 158.318 0.636349 159.206 0.638412Z" fill="white"/>
<path d="M154.386 12.5967C153.126 10.8124 151.89 9.00943 150.646 7.2127C150.519 7.24364 150.391 7.27046 150.264 7.29521C150.391 7.27046 150.519 7.24364 150.646 7.2127C149.256 5.15605 147.858 3.10766 146.484 1.03863C146.205 0.615749 145.833 0.611623 145.417 0.611623C143.573 0.613686 141.728 0.60956 139.884 0.617812C139.623 0.619874 139.283 0.508481 139.119 0.753959C138.93 1.0345 139.236 1.25523 139.378 1.4677C140.7 3.4604 142.035 5.44691 143.365 7.43549C144.428 9.07132 145.464 10.7278 146.569 12.3368C146.984 12.9412 146.965 13.362 146.542 13.9623C144.052 17.4898 141.607 21.0481 139.152 24.6004C138.985 24.8417 138.654 25.0892 138.825 25.4049C138.991 25.7163 139.382 25.5823 139.674 25.5843C141.42 25.5967 143.168 25.5823 144.913 25.5946C145.417 25.5988 145.828 25.5183 146.157 25.0604C148.868 21.2668 151.594 17.4836 154.327 13.7065C154.598 13.3228 154.68 13.0113 154.386 12.5967ZM147.955 7.47881C148.084 7.47881 148.212 7.47674 148.341 7.47468C148.212 7.47674 148.084 7.47881 147.955 7.47881ZM149.11 7.43961C149.367 7.42105 149.622 7.39423 149.879 7.3571C149.624 7.39423 149.367 7.42105 149.11 7.43961Z" fill="white"/>
<path d="M116.334 7.21686C114.465 7.21686 112.598 7.21686 110.729 7.21686C110.723 13.0423 110.721 18.8678 110.704 24.6932C110.702 25.3574 110.982 25.6029 111.631 25.5885C112.896 25.5617 114.165 25.5534 115.429 25.5905C116.174 25.6132 116.363 25.2564 116.361 24.5901C116.353 21.9166 116.379 19.2432 116.375 16.5698C116.371 13.4528 116.348 10.3359 116.334 7.21686Z" fill="white"/>
<path d="M115.584 0.605485C114.216 0.63849 112.849 0.63849 111.481 0.605485C110.834 0.588982 110.663 0.869528 110.675 1.46569C110.714 3.38206 110.714 5.3005 110.729 7.21688C112.598 7.21688 114.465 7.21688 116.334 7.21688C116.349 5.3005 116.351 3.38206 116.388 1.46569C116.4 0.869528 116.231 0.588982 115.584 0.605485Z" fill="white"/>
<path d="M107.332 7.63358C105.586 7.63152 103.842 7.62739 102.096 7.62533C102.08 5.57693 102.084 3.52647 102.037 1.47807C102.02 0.795276 102.279 0.582804 102.931 0.603432C104.124 0.640563 105.319 0.644689 106.511 0.601369C107.184 0.576615 107.395 0.82003 107.379 1.48426C107.334 3.53472 107.344 5.58518 107.332 7.63358Z" fill="white"/>
<path d="M61.0009 21.8031C61.0235 21.0688 60.746 20.7841 59.979 20.7965C57.5506 20.8357 55.1201 20.7676 52.6917 20.8295C51.7047 20.8542 51.4107 20.5489 51.421 19.5546C51.4642 15.7178 51.421 11.8788 51.4107 8.04194C51.423 5.85327 51.4148 3.66254 51.4621 1.47593C51.4765 0.795194 51.238 0.584785 50.58 0.603351C49.2846 0.642544 47.985 0.640482 46.6875 0.603351C46.046 0.584785 45.7581 0.77044 45.7746 1.46355C45.826 3.65222 45.8342 5.84089 45.8589 8.02956C45.6677 13.6137 45.8239 19.1978 45.8219 24.7798C45.8219 25.3925 46.1283 25.5946 46.7225 25.5926C51.1701 25.5781 55.6177 25.574 60.0653 25.5946C60.7439 25.5987 60.9824 25.3079 60.9783 24.6828C60.9783 23.7216 60.9721 22.7623 61.0009 21.8031Z" fill="white"/>
<path d="M20.0427 7.82534C20.0119 7.31376 20.0221 6.79392 19.9461 6.28853C19.4382 2.84153 17.8693 1.14794 14.7788 0.700305C14.4066 0.646671 14.0282 0.619854 13.652 0.619854C9.40379 0.613666 5.15769 0.62398 0.909522 0.603352C0.270036 0.601289 -0.0157794 0.764253 0.000670389 1.46355C0.0500198 3.5202 0.0438511 5.58098 0.0603009 7.63762C0.0438511 9.21157 0.0109515 10.7876 0.0109515 12.3615C0.0109515 16.3696 0.052076 20.3777 0.0171202 24.3858C0.00889529 25.3409 0.333779 25.6544 1.25702 25.5987C2.27897 25.5348 3.31119 25.5307 4.33314 25.6008C5.29751 25.6668 5.66763 25.3595 5.63679 24.3445C5.5751 22.325 5.66146 20.3014 5.62239 18.2819C5.60594 17.4361 5.89176 17.137 6.74509 17.1514C9.10358 17.1927 11.4662 17.2092 13.8226 17.1452C15.8069 17.0916 17.7068 16.5883 18.7822 14.7627C20.0324 12.6441 20.3244 10.2677 20.0427 7.82534ZM12.6752 12.7493C10.5347 13.0546 8.37362 12.8772 6.22075 12.8566C5.62856 12.8504 5.65735 12.3677 5.65118 11.9531C5.63062 10.5153 5.61211 9.07749 5.59361 7.63969C5.60594 7.1281 5.66763 6.61033 5.61828 6.10287C5.52575 5.18904 5.83213 4.80535 6.80267 4.85692C8.36951 4.93943 9.94252 4.86311 11.5094 4.9415C13.7959 5.05702 14.2729 5.56035 14.4765 7.83772C14.3819 8.89183 14.3881 9.95006 14.2585 11.0062C14.1331 12.0335 13.5882 12.6194 12.6752 12.7493Z" fill="white"/>
<path d="M66.8564 0.923151C66.8708 0.921088 66.9449 0.908711 67.0724 0.890145C67.0826 0.873643 67.095 0.85714 67.1053 0.840637C67.023 0.867454 66.9387 0.894271 66.8564 0.923151Z" fill="white"/>
<path d="M66.8523 0.923131C65.3307 1.44915 64.0168 2.25779 63.1923 3.78635C62.5425 4.99105 62.341 6.29888 62.2135 7.63148C62.0983 11.5406 61.9626 15.4517 62.3307 19.3525C62.6535 22.7892 64.3335 24.6788 67.6892 25.5328C70.3582 26.2114 78.1842 25.5369 78.5255 25.4461C81.2973 24.7138 82.9999 22.9439 83.3885 20.124C83.9745 15.8746 83.6805 11.5901 83.6208 7.31792C83.6188 7.22097 83.5592 7.12402 83.5263 7.02706C83.3597 4.17004 82.0437 2.30523 79.7346 1.22637C75.4124 -0.263 68.3924 0.687968 67.0703 0.886L66.8523 0.923131ZM77.7359 18.2963C77.6208 19.6413 76.862 20.5758 75.4597 20.8666C73.7489 21.2194 72.0135 21.3988 70.315 20.9739C68.9661 20.6356 68.2341 19.6083 68.0902 18.2138C67.7674 15.101 67.864 11.9841 68.01 8.86712C68.0285 8.45661 68.0593 8.04817 68.084 7.63766C68.5467 6.03071 69.7084 5.3376 71.2835 5.2324C72.5111 5.14988 73.7407 5.12719 74.9683 5.28191C76.1362 5.42837 77.0348 5.94614 77.5673 7.02706C78.0917 10.7752 78.0588 14.5379 77.7359 18.2963Z" fill="white"/>
</svg>
