<svg width="50" height="50" viewBox="0 0 50 50" fill="none" xmlns="http://www.w3.org/2000/svg">
<path d="M24.7199 48.9993C23.7272 48.6232 22.7345 48.2457 21.7411 47.8709C17.7696 46.373 13.7968 44.8778 9.82662 43.3759C9.20086 43.1389 9.00773 42.8307 9.00773 42.1497C9.00773 34.5491 9.0103 26.9485 9 19.3479C8.99936 18.9638 9.12618 18.7228 9.43906 18.5444C10.2386 18.087 11.1232 17.9059 11.9962 17.6889C12.3812 17.593 12.7713 17.5112 13.1627 17.4559C13.4144 17.4199 13.4923 17.3188 13.4897 17.0531C13.4762 15.6904 13.4788 14.3277 13.484 12.9649C13.4994 9.13365 14.9608 5.99742 17.8334 3.60347C20.3705 1.48846 23.3087 0.675605 26.536 1.11565C31.421 1.78204 35.2393 5.44819 36.2668 10.4485C36.4458 11.3192 36.4908 12.2273 36.5198 13.1207C36.561 14.3936 36.5469 15.6691 36.5198 16.9426C36.5121 17.3168 36.6376 17.416 36.9666 17.4865C37.8879 17.6836 38.802 17.9172 39.7117 18.1636C39.9975 18.2408 40.2666 18.3939 40.5325 18.535C40.8538 18.7055 41.0044 18.9698 40.9999 19.3672C40.9825 20.8298 40.9928 22.2924 40.9928 23.7543C40.9928 29.881 40.9928 36.0084 40.9928 42.135C40.9928 42.8181 40.7778 43.1589 40.1572 43.3913C35.8207 45.017 31.4816 46.636 27.1457 48.2624C26.5257 48.4947 25.9148 48.753 25.2993 49C25.1055 48.9993 24.913 48.9993 24.7199 48.9993ZM15.3979 30.9508C15.3979 33.2889 15.4056 35.6262 15.3896 37.9643C15.387 38.3244 15.499 38.4942 15.8235 38.6147C18.6542 39.6652 21.4836 40.719 24.3027 41.8035C24.821 42.0026 25.2748 41.9952 25.7828 41.8022C28.5955 40.7337 31.414 39.6805 34.235 38.6366C34.5376 38.5248 34.6419 38.3743 34.6413 38.0408C34.631 33.4759 34.6342 28.9117 34.6342 24.3468C34.6342 23.4454 34.5872 23.3822 33.7425 23.1558C33.7116 23.1472 33.6794 23.1432 33.6479 23.1359C32.1762 22.801 30.6788 22.6872 29.18 22.6233C25.513 22.4668 21.8461 22.4435 18.1887 22.8183C17.4149 22.8975 16.6481 23.0806 15.8885 23.265C15.4288 23.3762 15.3973 23.4767 15.3966 23.9381C15.3979 26.2754 15.3979 28.6135 15.3979 30.9508ZM18.996 16.8095C23.0197 16.4879 27.0105 16.4986 30.9962 16.8035C31.0168 16.7462 31.038 16.7156 31.0374 16.6857C31.0122 15.036 31.0618 13.3803 30.9369 11.7393C30.8191 10.1982 30.1605 8.87136 28.9315 7.91005C27.6607 6.91546 26.189 6.65249 24.6459 6.71308C23.348 6.76434 22.1184 7.08388 21.0729 7.92869C19.5877 9.12833 19.0411 10.7853 18.9973 12.6587C18.9709 13.7771 18.9947 14.8968 18.996 16.0153C18.9967 16.2682 18.996 16.5206 18.996 16.8095Z" fill="white" fill-opacity="0.2"/>
</svg>
