<svg width="29" height="26" viewBox="0 0 29 26" fill="none" xmlns="http://www.w3.org/2000/svg">
<path d="M14.3512 25.9996C13.8238 25.7959 13.2964 25.5914 12.7687 25.3884C10.6589 24.5771 8.54832 23.7672 6.43914 22.9536C6.10671 22.8253 6.00411 22.6583 6.00411 22.2894C6.00411 18.1724 6.00547 14.0554 6 9.93844C5.99966 9.73037 6.06704 9.59984 6.23325 9.5032C6.65803 9.25546 7.12795 9.15738 7.59172 9.03982C7.79624 8.9879 8.0035 8.94354 8.21144 8.91361C8.34516 8.89414 8.38655 8.83933 8.38518 8.69545C8.378 7.9573 8.37936 7.21914 8.3821 6.48099C8.39031 4.40573 9.16667 2.70694 10.6927 1.41021C12.0406 0.264581 13.6015 -0.175714 15.316 0.0626436C17.9112 0.423606 19.9396 2.40944 20.4855 5.11792C20.5806 5.58958 20.6045 6.08145 20.6199 6.56537C20.6418 7.25484 20.6343 7.94576 20.6199 8.63559C20.6158 8.83825 20.6825 8.89197 20.8573 8.9302C21.3467 9.03694 21.8323 9.16351 22.3156 9.29693C22.4674 9.33876 22.6104 9.4217 22.7516 9.49815C22.9223 9.59046 23.0023 9.73362 22.9999 9.9489C22.9907 10.7411 22.9962 11.5334 22.9962 12.3253C22.9962 15.6439 22.9962 18.9629 22.9962 22.2815C22.9962 22.6515 22.882 22.8361 22.5523 22.9619C20.2485 23.8425 17.9433 24.7195 15.6399 25.6005C15.3105 25.7263 14.986 25.8662 14.659 26C14.5561 25.9996 14.4538 25.9996 14.3512 25.9996ZM9.3989 16.2234C9.3989 17.4898 9.403 18.7559 9.39445 20.0223C9.39308 20.2174 9.45259 20.3093 9.62496 20.3746C11.1288 20.9436 12.6319 21.5145 14.1296 22.1019C14.4049 22.2097 14.646 22.2057 14.9159 22.1012C16.4101 21.5224 17.9074 20.9519 19.4061 20.3865C19.5669 20.3259 19.6223 20.2444 19.6219 20.0638C19.6164 17.5911 19.6182 15.1188 19.6182 12.6462C19.6182 12.1579 19.5932 12.1237 19.1445 12.0011C19.1281 11.9964 19.111 11.9942 19.0942 11.9903C18.3124 11.8089 17.5168 11.7472 16.7206 11.7126C14.7726 11.6279 12.8245 11.6152 10.8815 11.8183C10.4704 11.8612 10.0631 11.9603 9.65951 12.0602C9.41531 12.1204 9.39855 12.1749 9.39821 12.4248C9.3989 13.6909 9.3989 14.9573 9.3989 16.2234ZM11.3104 8.56347C13.448 8.3893 15.5681 8.39507 17.6855 8.56022C17.6964 8.52921 17.7077 8.51262 17.7073 8.49639C17.694 7.60282 17.7203 6.70601 17.654 5.81712C17.5914 4.98233 17.2415 4.26365 16.5886 3.74294C15.9135 3.20421 15.1317 3.06177 14.3119 3.09458C13.6224 3.12235 12.9691 3.29544 12.4137 3.75304C11.6247 4.40285 11.3343 5.30038 11.3111 6.31512C11.2971 6.92093 11.3097 7.52746 11.3104 8.13327C11.3107 8.2703 11.3104 8.40697 11.3104 8.56347Z" fill="#88AF9F"/>
</svg>
