<svg width="189" height="44" viewBox="0 0 189 44" fill="none" xmlns="http://www.w3.org/2000/svg">
<path d="M23.8642 0C23.4578 0.406441 23.954 0.404078 24.1076 0.451339C25.8941 1.01138 27.2457 2.17635 28.5241 3.48311C32.3451 7.38447 36.1992 11.2527 40.0297 15.1447C43.8247 19.0011 43.8177 24.4526 40.025 28.3067C36.1945 32.1986 32.3452 36.074 28.5383 39.9872C27.2032 41.3601 25.7594 42.5251 23.9044 43.1111C23.8382 43.1324 23.7697 43.2056 23.7437 43.2718C23.7319 43.3049 23.817 43.3734 23.8595 43.4278C22.2054 43.4278 20.5513 43.4278 18.8995 43.4278C18.9539 43.3829 19.0555 43.3356 19.0507 43.2978C19.0437 43.2316 18.9846 43.1371 18.9255 43.1158C17.4746 42.5747 16.1749 41.8185 15.0761 40.7032C11.0873 36.6506 7.08436 32.6074 3.06721 28.5808C1.94005 27.4513 1.02792 26.2084 0.482058 24.7031C0.422982 24.5377 0.526956 23.98 0 24.3132C0 22.6615 0 21.0097 0 19.3579C0.0543497 19.3981 0.103973 19.443 0.165412 19.4714C0.17959 19.4785 0.236303 19.4288 0.248118 19.3981C0.822334 17.8385 1.59977 16.4207 2.7931 15.2179C6.81025 11.1795 10.8014 7.11508 14.7831 3.04358C15.9056 1.89279 17.1674 1.00192 18.6845 0.472606C18.8877 0.401715 19.3627 0.508051 19.1382 0C20.7143 0 22.2881 0 23.8642 0ZM32.1278 21.6595C32.0923 20.5111 31.693 19.4619 30.8612 18.6136C28.7722 16.4798 26.6928 14.3365 24.5613 12.2452C22.6874 10.4091 20.1141 10.4446 18.2426 12.3019C16.1773 14.3483 14.1333 16.4136 12.1105 18.5025C10.2792 20.3953 10.2697 23.0655 12.094 24.9512C14.1144 27.0425 16.1584 29.1102 18.2237 31.1565C20.1377 33.0564 22.7087 33.0682 24.6275 31.1754C26.6975 29.1338 28.725 27.0496 30.7643 24.9772C31.6575 24.0722 32.1183 22.9781 32.1278 21.6595Z" fill="white"/>
<path d="M189 35.6391C187.627 35.658 186.252 35.6532 184.882 35.7029C184.241 35.7265 183.986 35.5469 183.988 34.8545C184.012 28.9706 184 23.0866 184.002 17.2027C184.002 16.8104 183.948 16.3591 184.548 16.378C186.032 16.4276 187.526 16.1984 189 16.5221C189 22.8929 189 29.266 189 35.6391Z" fill="white"/>
<path d="M189 12.5103C187.644 12.2598 186.275 12.4252 184.914 12.4181C184.191 12.4134 183.95 12.1865 183.983 11.4682C184.035 10.3363 184.045 9.19495 183.981 8.06542C183.934 7.25017 184.281 7.0824 185.006 7.1013C186.334 7.13911 187.667 7.09421 188.998 7.0824C189 8.89012 189 10.7002 189 12.5103Z" fill="white"/>
<path d="M72.0797 21.2928C76.0094 23.2115 77.1956 25.2579 76.8152 29.1758C76.5151 32.2478 74.783 34.306 71.7654 35.1236C70.3547 35.5064 68.9085 35.6718 67.4458 35.6742C63.9036 35.6812 60.3614 35.6647 56.8192 35.7096C56.0016 35.719 55.7535 35.4875 55.7559 34.6557C55.7842 25.8865 55.7748 17.1196 55.7701 8.35044C55.7701 7.80458 55.7464 7.34615 56.5333 7.36506C60.7419 7.45958 64.9575 7.15711 69.159 7.56591C73.4337 7.98417 75.6904 10.4015 75.8322 14.5274C75.9338 17.4788 75.0193 19.8631 72.0797 21.2928ZM60.9215 27.5642C60.9215 28.6229 60.9309 29.6815 60.9167 30.7401C60.9096 31.1962 61.0113 31.4892 61.5548 31.4798C63.8682 31.4349 66.191 31.6286 68.4926 31.338C69.6883 31.1868 70.7682 30.7283 71.3353 29.5208C72.5594 26.9073 71.2668 24.3363 68.4383 23.8117C66.2595 23.4077 64.0525 23.7267 61.8619 23.6014C61.0325 23.5542 60.8718 23.9063 60.9073 24.627C60.9545 25.6029 60.9191 26.5836 60.9215 27.5642ZM60.9191 15.4844C60.9191 16.5053 60.9545 17.5261 60.9073 18.5446C60.8742 19.2251 61.1318 19.4212 61.7863 19.4047C63.5539 19.3622 65.3238 19.4307 67.0866 19.3527C69.3504 19.2511 70.5792 17.8498 70.6122 15.4821C70.6453 13.0032 69.5796 11.7296 67.1977 11.6067C65.3569 11.5122 63.5066 11.5925 61.6611 11.5642C61.1034 11.5547 60.8955 11.7438 60.9096 12.3062C60.9427 13.3648 60.9215 14.4258 60.9191 15.4844Z" fill="white"/>
<path d="M93.6953 24.6042C93.7473 21.8206 94.5649 18.6092 97.4596 16.3927C100.919 13.7437 104.828 13.5216 108.755 15.0788C112.5 16.5605 114.131 19.7009 114.618 23.5479C114.842 25.3297 114.726 27.0878 114.291 28.8151C112.954 34.1296 108.256 37.0928 102.55 36.2516C96.9327 35.4245 93.7048 31.431 93.6953 24.6042ZM109.629 25.2186C109.669 24.0654 109.485 22.9454 109.074 21.8725C108.254 19.7293 106.666 18.6305 104.388 18.5974C101.928 18.5596 100.279 19.5922 99.4115 21.7922C98.5915 23.874 98.5702 26.0126 99.2012 28.144C99.9479 30.6654 101.654 31.9201 104.232 31.9249C106.756 31.9296 108.403 30.7079 109.209 28.2338C109.53 27.2532 109.66 26.2465 109.629 25.2186Z" fill="white"/>
<path d="M144.676 22.9519C145.155 22.4509 145.607 21.9877 146.051 21.5151C147.776 19.6814 149.499 17.843 151.224 16.0093C151.543 15.669 151.821 15.3193 152.389 15.3311C154.076 15.3665 155.765 15.3429 157.507 15.3429C157.516 15.9029 157.098 16.1251 156.829 16.4134C154.709 18.6866 152.597 20.9693 150.43 23.1952C149.851 23.7907 149.794 24.1546 150.333 24.8305C152.953 28.1245 155.513 31.4658 158.088 34.7954C158.249 35.0033 158.518 35.2916 158.469 35.4712C158.362 35.8634 157.939 35.6295 157.656 35.6909C157.58 35.7075 157.5 35.6957 157.42 35.6933C155.888 35.665 154.144 36.0808 152.887 35.4806C151.675 34.9041 150.957 33.283 150.033 32.111C148.986 30.7829 147.937 29.4549 146.923 28.1009C146.561 27.6188 146.353 27.5456 145.848 27.9969C144.81 28.9232 144.262 29.9393 144.42 31.3831C144.548 32.5481 144.423 33.7414 144.454 34.9206C144.47 35.5326 144.241 35.7642 143.631 35.7453C142.648 35.7146 141.658 35.6744 140.68 35.7571C139.699 35.8398 139.517 35.4216 139.52 34.5402C139.548 26.9501 139.536 19.3577 139.536 11.7676C139.536 10.5483 139.56 9.32899 139.529 8.10966C139.515 7.50945 139.711 7.2637 140.337 7.28969C141.36 7.32986 142.388 7.35113 143.407 7.28497C144.248 7.22825 144.468 7.53781 144.461 8.34833C144.425 12.753 144.442 17.1577 144.451 21.5648C144.451 21.9783 144.326 22.4225 144.676 22.9519Z" fill="white"/>
<path d="M162.305 21.5976C162.305 17.2757 162.331 12.9513 162.284 8.62933C162.274 7.69594 162.459 7.33912 163.491 7.34857C168.605 7.40292 173.719 7.39583 178.832 7.3533C179.756 7.34621 180.113 7.5896 180.011 8.53481C179.895 9.61944 180.453 11.0184 179.801 11.7273C179.13 12.4551 177.714 11.9447 176.627 11.9588C173.874 11.999 171.119 11.9919 168.366 11.9588C167.65 11.9494 167.407 12.1644 167.421 12.8946C167.464 14.8985 167.464 16.9023 167.421 18.9062C167.407 19.6269 167.636 19.8466 168.359 19.8372C171.27 19.8017 174.182 19.8514 177.091 19.8041C177.903 19.7923 178.222 19.9955 178.152 20.8438C178.081 21.7016 178.09 22.5736 178.149 23.4361C178.201 24.1781 177.913 24.3647 177.206 24.3553C174.295 24.3222 171.384 24.3695 168.475 24.3246C167.638 24.3104 167.407 24.5821 167.416 25.395C167.456 28.4599 167.4 31.5247 167.452 34.5896C167.466 35.4828 167.197 35.7711 166.318 35.7097C165.339 35.6388 164.347 35.6293 163.371 35.712C162.44 35.79 162.274 35.4048 162.281 34.5659C162.326 30.244 162.305 25.9196 162.305 21.5976Z" fill="white"/>
<path d="M133.64 30.2656C134.058 31.4661 134.462 32.6523 134.885 33.8291C135.06 34.3111 134.847 34.5451 134.439 34.7459C130.601 36.6316 126.681 37.0215 122.72 35.2185C120.265 34.1008 118.89 32.0048 118.19 29.4787C117.42 26.6975 117.408 23.876 118.169 21.0876C119.247 17.139 122.113 14.7783 126.194 14.3506C128.415 14.1191 130.587 14.2679 132.725 14.9414C133.3 15.121 133.545 15.4116 133.512 16.0378C133.463 17.0185 133.448 18.0062 133.515 18.9845C133.574 19.8872 133.224 19.8447 132.577 19.5564C131.033 18.8711 129.398 18.6797 127.728 18.8049C125.064 19.0058 123.545 20.3031 122.997 22.9284C122.631 24.6794 122.659 26.4541 123.141 28.1862C123.866 30.7926 126.069 32.123 128.997 31.7662C129.816 31.6669 130.634 31.5369 131.404 31.2156C132.128 30.9155 132.848 30.6035 133.64 30.2656Z" fill="white"/>
<path d="M81.4944 19.8402C81.4944 16.0665 81.5252 12.2903 81.4732 8.51894C81.4614 7.57845 81.6457 7.14838 82.6783 7.25708C83.5337 7.34687 84.4128 7.33269 85.2729 7.25944C86.1969 7.18146 86.4663 7.49338 86.4615 8.4315C86.4214 14.9582 86.4403 21.4849 86.4403 28.0092C86.4403 28.4015 86.4379 28.7961 86.4403 29.1884C86.4615 31.2891 86.946 31.8302 89.0514 31.6128C90.2849 31.4852 90.7032 31.816 90.4929 32.9999C90.4716 33.1133 90.4905 33.2362 90.4905 33.3544C90.4905 36.1073 90.4905 36.1144 87.6832 36.2089C87.135 36.2278 86.582 36.1829 86.0338 36.1309C83.0848 35.8521 81.5417 34.2358 81.511 31.282C81.4708 27.4681 81.5015 23.6541 81.5015 19.8426C81.4992 19.8402 81.4968 19.8402 81.4944 19.8402Z" fill="white"/>
</svg>
