<svg width="1098" height="719" viewBox="0 0 1098 719" fill="none" xmlns="http://www.w3.org/2000/svg">
<g clip-path="url(#clip0)">
<path opacity="0.59" fill-rule="evenodd" clip-rule="evenodd" d="M727.433 242.98C750.899 265.477 777.542 285.06 797.28 311.171C804.423 323.212 811.566 335.261 818.717 347.293C820.549 350.388 822.413 353.449 825.605 354.002C826.1 354.085 826.628 354.118 827.188 354.077C826.982 339.742 828.088 325.481 830.174 311.303C825.654 309.942 821.538 306.154 818.222 302.647C813.48 300.113 808.564 294.072 806.023 291.151C804.992 289.971 804.035 288.724 803.12 287.454C741.232 222.861 714.276 129.433 719.539 75.9154C727.152 84.0607 727.837 94.0381 731.408 102.447C749.579 145.245 777.979 182.415 802.212 221.846C815.665 243.74 825.052 266.533 827.015 291.638C827.692 293.148 828.426 294.65 829.193 296.119C830.034 297.728 830.917 299.312 831.898 300.856C833.111 294.122 834.513 287.396 836.113 280.686C838.373 271.179 840.955 261.739 843.941 252.438C844.32 250.449 844.51 248.452 844.188 246.389C843.867 244.342 843.042 242.221 841.417 239.993C820.738 211.761 811.286 179.37 806.238 146.26C801.049 112.103 803.408 78.1519 814.676 45.1003C815.517 107.845 854.012 163.896 852.239 229.859C852.709 228.753 853.154 227.639 853.633 226.525C854.73 224.016 855.885 221.416 857.122 218.8C860.363 210.16 864.677 200.438 871.664 194.191C871.416 190.09 870.336 185.699 868.183 180.872C863.11 169.516 862.269 156.295 860.636 143.826C854.35 95.9279 861.147 50.0519 879.566 6.13994C880.671 3.50737 880.432 -0.883001 885.067 0.156823C888.688 0.973827 887.385 3.67242 886.783 6.37101C878.592 43.0289 886.362 80.083 888.21 116.988C888.903 130.712 890.033 144.478 891.237 161.61C891.328 162.856 891.419 164.069 891.509 165.349C933.749 118.103 984.056 84.6631 1017.31 35.0074C1021.21 38.8366 1020.03 41.2381 1019.18 43.7221C1007.44 77.6897 990.762 109.041 966.834 136.044C943.144 162.782 916.387 186.186 884.168 203.5C873.52 209.219 866.748 219.164 863.036 234.092C903.074 207.544 946.6 190.956 981.887 161.519C956.441 213.948 913.318 246.215 857.6 264.264C857.452 264.041 857.295 263.868 857.138 263.686C856.083 264.775 855.051 265.857 853.987 266.938C853.847 267.119 853.699 267.293 853.55 267.474C853.443 267.631 853.336 267.763 853.237 267.911C853.039 268.794 852.824 269.678 852.635 270.561C847.207 295.541 841.945 320.423 842.613 346.278C842.621 346.691 842.646 347.111 842.662 347.532C854.656 329.17 870.27 314.448 889.629 302.325C912.864 287.775 934.401 270.635 955.814 253.618C966.776 244.92 973.944 232.137 986.935 222.597C971.065 281.404 927.159 339.304 853.344 368.304C852.701 368.857 852.016 369.385 851.266 369.855C850.111 370.598 847.389 372.348 845.236 372.661C845.17 372.694 845.104 372.736 845.046 372.777C847.331 387.937 850.927 402.99 854.911 417.803C857.856 428.721 861.098 439.573 864.29 450.425C864.413 450.854 864.554 451.275 864.686 451.704C872.324 433.656 879.252 415.385 894.479 401.091C917.706 379.263 939.243 355.744 961.621 333.074C974.158 320.365 981.276 303.711 993.962 290.887C988.931 327.594 974.62 360.406 954.543 390.817C933.089 423.324 903.692 447.322 869.379 465.907C871.02 470.834 872.522 475.794 873.536 480.836C885.001 497.696 898.347 513.401 913.071 527.892C916.238 503.176 922.697 479.689 938.088 459.404C953.133 439.548 967.403 419.107 983.058 399.73C997.74 381.566 1004.83 359.416 1016.32 339.189C1017.77 340.74 1019.1 341.541 1019.08 342.242C1015.94 418.092 988.428 481.967 926.466 528.693C923.983 530.566 921.195 532.126 919.471 534.032C926.202 540.337 933.205 546.394 940.406 552.229C944.728 555.315 948.943 558.567 953.199 561.406C961.134 566.704 969.349 571.515 977.738 576.046C978.068 574.577 978.159 572.737 978.159 570.69C978.175 550.735 982.093 532.117 990.688 513.648C1008.05 476.371 1030.65 441.075 1037.38 399.334C1037.52 398.451 1039.86 397.964 1041.62 397.072C1050.18 457.605 1037.77 512.328 1004.31 561.852C999.604 568.825 988.378 573.512 987.438 581.105C997.955 586.444 1008.77 591.206 1019.54 596.017C1024.89 598.419 1030.37 600.49 1035.94 602.314C1038.22 603.057 1040.59 603.609 1042.97 604.146C1044.81 603.824 1046.76 603.849 1048.78 604.129C1048.86 602.099 1048.39 599.302 1047.47 595.671C1044.34 583.465 1046.38 570.921 1048.77 558.534C1052.61 538.67 1057.92 519.054 1058.7 498.538C1058.92 493.042 1054.65 486.233 1062.94 481.018C1073.72 516.091 1077.7 550.166 1066.87 584.488C1062.35 598.815 1060.55 604.715 1064.58 609.147C1066.95 610.071 1069.23 610.938 1071.32 611.548C1082.87 614.907 1094.89 616.756 1106.72 618.547C1117.39 620.148 1128.1 621.592 1138.78 623.02C1148.05 624.249 1158.54 625.982 1167.76 624.612C1168.19 624.555 1168.28 625.107 1168.18 625.801C1168.23 625.801 1168.27 625.817 1168.31 625.809C1168.27 625.817 1168.23 625.817 1168.18 625.825C1168.04 626.849 1167.52 628.194 1167.11 628.433C1160.3 632.353 1150.47 630.406 1142.8 629.919C1131.58 629.217 1120.25 627.798 1109.05 626.378C1108.93 626.362 1108.81 626.354 1108.7 626.337C1108.4 626.288 1108.1 626.263 1107.8 626.222C1098.21 624.992 1088.64 623.482 1079.15 621.493C1078.59 621.716 1078.05 621.963 1077.51 622.219C1077.41 622.269 1077.32 622.31 1077.22 622.368C1075.55 623.201 1074.02 624.233 1072.74 625.603C1071.96 626.436 1071.27 627.385 1070.69 628.499C1061.8 645.846 1045.47 656.17 1030.58 667.633C1014.39 680.103 975.338 689.337 956.21 684.922C992.478 669.168 1017.77 642.207 1048.1 621.707C1044.1 621.088 1040.13 619.95 1036.42 618.836C1026.44 615.815 1016.66 611.796 1006.94 608.049C1006.7 608.28 1006.47 608.495 1006.25 608.734C979.041 638.964 944.365 657.226 904.022 665.867C875.45 671.982 846.448 673.773 817.381 668.145C816.779 663.944 818.75 662.723 820.812 662.492C844.411 659.859 863.976 647.761 885.125 639.203C918.416 625.735 946.79 601.324 984.79 598.32C981.953 596.908 979.181 595.398 976.418 593.896C976.41 593.896 976.41 593.888 976.402 593.888C976.393 593.888 976.385 593.88 976.385 593.88C973.845 592.502 971.337 591.066 968.846 589.605C968.095 589.168 967.345 588.73 966.594 588.276C964.45 586.997 962.313 585.685 960.194 584.348C958.808 583.473 957.43 582.565 956.053 581.666C954.469 580.626 952.877 579.595 951.302 578.522C948.225 576.417 945.165 574.272 942.13 572.043C941.882 572.241 941.635 572.448 941.363 572.671C941.346 572.687 941.33 572.695 941.321 572.712C898.199 608.338 846.622 620.791 790.409 618.159C772.221 617.309 753.209 616.508 735.961 607.695C735.656 607.538 735.351 607.389 735.054 607.224C733.528 606.424 732.002 605.574 730.501 604.625C772.65 603.651 809.925 587.616 847.603 574.082C874.237 564.509 900.368 557.189 929.007 562.05C926.73 560.259 924.462 558.427 922.193 556.578C921.195 555.753 920.205 554.919 919.207 554.086C918.003 553.071 916.791 552.047 915.595 551.024C914.349 549.943 913.112 548.87 911.875 547.773C910.951 546.947 910.027 546.106 909.111 545.272C907.792 544.059 906.464 542.871 905.169 541.633C905.16 541.624 905.152 541.616 905.136 541.6C905.127 541.591 905.111 541.575 905.103 541.567C902.958 539.545 900.847 537.49 898.784 535.394C890.586 538.01 883.715 543.589 875.384 545.759C806.584 563.733 739.277 556.727 673.95 525.928C666.947 522.627 657.115 521.084 653.073 512.13C654.492 511.313 655.432 510.281 656.134 510.438C701.326 520.3 746.074 515.323 790.863 511.428C823.881 508.548 856.775 507.021 887.814 523.229C883.789 518.336 880.102 513.236 876.778 507.954C876.753 507.921 876.728 507.888 876.704 507.847C876.695 507.83 876.687 507.822 876.687 507.805C874.056 503.597 871.631 499.281 869.569 494.808C868.917 494.783 868.282 494.733 867.729 494.725C834.158 494.139 801.643 487.818 770.539 474.193C755.287 469.167 741.372 461.591 728.348 452.323C699.9 435.901 676.845 413.569 652.645 387.838C658.361 388.49 661.545 387.92 663.433 389.191C699.908 413.916 742.049 424.174 783.035 437.609C809.718 446.349 837.087 454.552 856.379 477.147C858.714 481.678 861.221 485.788 865.717 485.16C864.826 482.528 864.026 479.854 863.358 477.131C856.586 465.792 850.705 453.982 845.747 441.826C842.943 438.046 839.487 435.546 833.936 433.846C768.914 413.858 718.821 374.584 682.454 318.368C677.307 310.404 670.354 303.092 668.869 292.141C671.517 293.635 673.727 294.32 675.154 295.739C703.702 324.277 738.741 343.794 772.741 364.97C791.852 376.862 813.166 387.054 824.557 408.123C827.155 417.316 834.587 422.928 840.996 429.299C837.07 418.075 833.894 406.645 831.535 395.1C831.164 393.309 830.851 391.527 830.529 389.736C830.496 389.571 830.463 389.406 830.438 389.232C830.216 388.589 830.026 387.92 829.844 387.26C829.778 387.029 829.721 386.79 829.671 386.567C829.556 386.138 829.457 385.709 829.358 385.271C829.284 384.949 829.209 384.619 829.143 384.297C829.094 384.091 829.044 383.893 829.011 383.687C828.475 381.161 827.997 378.611 827.213 376.16C827.205 376.152 827.213 376.144 827.213 376.136C826.76 374.716 826.215 373.322 825.489 371.976C823.84 368.898 821.299 366.101 817.002 363.864C745.909 326.843 703.842 267.243 678.223 195.239C676.854 191.394 678.305 189.264 681.943 186.706C695.899 206.356 709.6 225.898 727.433 242.98Z" fill="#628E32"/>
<g opacity="0.86">
<path opacity="0.59" fill-rule="evenodd" clip-rule="evenodd" d="M1054.32 649.7C1047.06 656.154 1038.98 661.79 1031.28 667.724C1015.09 680.193 976.038 689.428 956.91 685.013C984.88 672.857 1006.33 654.041 1028.59 636.669C1037.14 641.555 1045.75 645.937 1054.32 649.7Z" fill="#1D652E"/>
<path opacity="0.59" fill-rule="evenodd" clip-rule="evenodd" d="M885.827 639.31C915.974 627.113 942.089 605.945 974.967 599.822C982.605 605.945 990.482 611.887 998.524 617.532C972.707 642.595 941.025 658.192 904.724 665.966C876.151 672.081 847.15 673.872 818.083 668.244C817.481 664.043 819.452 662.822 821.514 662.591C845.113 659.966 864.678 647.868 885.827 639.31Z" fill="#1D652E"/>
<path opacity="0.59" fill-rule="evenodd" clip-rule="evenodd" d="M818.899 302.737C814.156 300.204 809.24 294.163 806.699 291.241C805.668 290.061 804.711 288.815 803.796 287.544C741.908 222.951 714.952 129.524 720.223 76.0062C727.836 84.1515 728.521 94.1289 732.093 102.538C750.264 145.336 778.663 182.506 802.897 221.936C816.35 243.83 825.736 266.624 827.7 291.728C828.376 293.239 829.11 294.741 829.877 296.21C830.718 297.819 831.601 299.403 832.583 300.947C833.795 294.212 835.197 287.487 836.798 280.777C839.058 271.27 841.639 261.829 844.625 252.529C845.005 250.54 845.194 248.543 844.873 246.48C844.551 244.433 843.726 242.312 842.101 240.084C821.423 211.852 811.97 179.46 806.922 146.351C801.734 112.202 804.093 78.2427 815.36 45.1911C816.201 107.935 854.697 163.987 852.923 229.95C853.393 228.844 853.839 227.721 854.317 226.616C855.414 224.107 856.569 221.507 857.806 218.891C861.048 210.251 865.362 200.529 872.348 194.282C872.101 190.181 871.02 185.79 868.867 180.962C863.794 169.607 862.953 156.386 861.32 143.917C855.035 96.0187 861.831 50.1427 880.25 6.23076C881.355 3.59819 881.116 -0.792181 885.752 0.247643C889.373 1.06465 888.069 3.76324 887.467 6.46183C879.277 43.1197 887.047 80.1738 888.894 117.079C889.587 130.803 890.717 144.569 891.921 161.701C892.012 162.947 892.103 164.16 892.194 165.439C901.234 155.322 910.653 145.848 920.189 136.704C905.432 160.017 891.311 183.529 879.029 207.461C871.672 213.412 866.706 222.184 863.728 234.183C864.908 233.399 866.087 232.632 867.275 231.864C841.746 288.716 828.665 348.308 843.891 413.52C858.474 475.983 892.779 516.883 913.07 540.535C922.152 551.115 932.891 562.355 944.794 573.57C944.142 573.1 943.482 572.638 942.839 572.167C942.591 572.365 942.344 572.572 942.072 572.794C942.055 572.811 942.039 572.819 942.03 572.836C898.908 608.462 847.331 620.915 791.118 618.283C772.93 617.433 753.918 616.632 736.67 607.818C736.365 607.662 736.06 607.513 735.763 607.348C734.237 606.547 732.711 605.689 731.21 604.748C773.359 603.775 810.634 587.74 848.312 574.206C874.946 564.633 901.077 557.313 929.716 562.173C927.439 560.383 925.171 558.551 922.902 556.702C921.904 555.877 920.914 555.043 919.916 554.21C918.712 553.195 917.5 552.171 916.304 551.148C915.058 550.067 913.821 548.994 912.584 547.896C911.66 547.071 910.736 546.229 909.82 545.396C908.501 544.183 907.173 542.994 905.878 541.756C905.869 541.748 905.861 541.74 905.845 541.724C905.836 541.715 905.82 541.699 905.812 541.69C903.667 539.669 901.556 537.614 899.493 535.518C891.295 538.134 884.424 543.712 876.093 545.883C807.293 563.857 739.986 556.85 674.659 526.052C667.656 522.751 657.824 521.208 653.782 512.254C655.201 511.437 656.142 510.413 656.843 510.562C702.035 520.424 746.783 515.447 791.572 511.552C824.59 508.672 857.484 507.145 888.523 523.353C884.498 518.459 880.811 513.359 877.487 508.078C877.462 508.045 877.437 508.012 877.413 507.971C877.404 507.954 877.396 507.946 877.396 507.929C874.765 503.72 872.34 499.404 870.278 494.931C869.626 494.907 868.991 494.857 868.438 494.849C834.867 494.263 802.352 487.941 771.248 474.317C755.996 469.291 742.081 461.715 729.057 452.447C700.609 436.025 677.554 413.693 653.354 387.962C659.07 388.614 662.254 388.044 664.142 389.315C700.617 414.04 742.758 424.298 783.744 437.733C810.427 446.472 837.796 454.675 857.089 477.271C859.423 481.802 861.93 485.911 866.426 485.284C865.535 482.652 864.735 479.978 864.067 477.254C857.295 465.915 851.414 454.106 846.456 441.95C843.652 438.17 840.196 435.67 834.645 433.97C769.623 413.982 719.53 374.708 683.163 318.491C678.016 310.528 671.063 303.216 669.578 292.265C672.226 293.759 674.436 294.444 675.863 295.863C704.411 324.4 739.45 343.918 773.45 365.094C792.561 376.986 813.875 387.178 825.266 408.246C827.865 417.44 835.296 423.052 841.705 429.423C837.779 418.199 834.603 406.769 832.244 395.224C831.873 393.433 831.56 391.642 831.238 389.86C831.205 389.695 831.172 389.53 831.147 389.356C830.925 388.713 830.735 388.044 830.553 387.384C830.487 387.153 830.43 386.914 830.38 386.691C830.265 386.262 830.166 385.832 830.067 385.395C829.993 385.073 829.918 384.743 829.852 384.421C829.803 384.215 829.753 384.017 829.72 383.802C829.184 381.277 828.706 378.727 827.922 376.276C827.914 376.268 827.922 376.259 827.922 376.251C827.469 374.832 826.924 373.437 826.198 372.092C824.549 369.014 822.008 366.216 817.711 363.98C746.618 326.959 704.551 267.359 678.932 195.355C677.563 191.509 679.014 189.38 682.652 186.822C696.6 206.471 710.292 226.013 728.125 243.096C751.592 265.592 778.234 285.176 797.972 311.287C805.115 323.327 812.259 335.376 819.41 347.408C821.241 350.503 823.105 353.565 826.297 354.118C826.792 354.2 827.32 354.233 827.881 354.192C827.675 339.857 828.78 325.597 830.867 311.419C826.339 310.033 822.214 306.245 818.899 302.737Z" fill="#1D652E"/>
</g>
<path fill-rule="evenodd" clip-rule="evenodd" d="M1055.69 436.875C1068.19 458.991 1072.4 482.874 1072.64 507.616C1072.72 507.616 1072.78 507.599 1072.86 507.591C1072.8 508.251 1072.86 508.911 1072.97 509.555C1072.29 509.893 1072.72 511.205 1072.56 511.923C1072.35 512.905 1072.35 513.945 1072.31 514.96C1072.26 516.041 1072.2 517.122 1072.13 518.195C1072.05 518.715 1071.98 519.227 1071.88 519.747C1071.71 520.655 1071.7 521.505 1071.81 522.297C1070.68 534.684 1067.93 546.708 1062.21 557.989C1059.27 563.766 1055.62 569.097 1050.46 573.232C1043.21 579.05 1032.01 575.567 1030.35 566.605C1029.16 560.193 1030.59 554.3 1033.63 548.639C1040.05 536.648 1047.47 525.251 1051.16 511.8C1053.94 501.74 1056.77 491.771 1057.53 481.364C1058.47 468.507 1055.78 456.153 1051.35 444.162C1048.04 435.232 1042.99 428.226 1033.28 424.776C1023 421.12 1012.7 417.473 1002.24 414.403C997.394 412.975 992.552 411.176 987.232 410.722C989.36 413.751 991.57 416.458 993.311 419.437C1006.59 442.156 1014.94 466.501 1016.46 492.893C1017.04 503.126 1015.86 513.161 1010.7 522.445C1006.21 530.516 998.153 529.889 992.94 524.311C986.531 517.461 986.382 509.093 987.578 500.477C988.642 492.769 991.826 485.672 993.938 478.261C999.373 459.256 998.648 440.91 988.04 423.703C983.454 416.26 978.002 409.88 968.986 407.264C959.171 404.409 949.289 403.212 939.144 403.897C937.453 404.013 935.506 403.443 933.988 405.069C939.135 409.261 943.903 413.627 947.549 419.041C951.731 425.247 954.89 431.799 954.016 439.614C953.562 443.633 951.648 446.464 948.712 447.264C945.759 448.081 942.031 446.547 939.779 443.617C937.882 441.149 937.082 438.228 936.24 435.29C934.78 430.182 934.904 424.76 933.023 419.717C929.213 409.55 920.387 403.022 910.637 403.6C906.084 403.881 901.713 405.251 897.481 406.918C896.838 407.174 895.675 406.909 895.65 408.048C895.625 408.931 896.384 409.493 897.061 409.856C898.966 410.887 900.847 411.935 901.968 413.883C904.888 418.966 908.097 423.901 910.316 429.34C912.13 433.755 913.359 438.36 912.79 443.212C912.51 445.564 912.246 448.238 908.839 448.048C905.738 447.867 902.744 444.516 903.181 441.479C903.684 437.939 903.255 434.63 902.257 431.197C901.589 428.903 901.143 427.335 900.607 426.286C900.038 424.289 899.246 422.375 897.927 420.65C892.821 413.965 886.032 414.568 878.815 416.92C878.799 416.928 878.782 416.936 878.757 416.945C878.485 417.035 878.23 417.134 877.982 417.242C876.959 417.39 875.928 417.547 874.897 417.605C873.132 417.712 872.365 418.455 872.373 420.295C872.431 427.425 869.709 434.077 867.985 440.786C866.261 447.487 864.595 454.122 864.323 460.964C864.034 468.193 866.278 474.457 873.643 477.626C876.885 479.02 880.019 480.795 883.385 481.769C889.051 483.427 893.365 486.53 896.937 491.251C899.032 494.015 900.071 496.631 898.496 499.611C896.978 502.482 894.042 503.184 890.899 503.077C883.352 502.821 877.693 498.348 872.101 494.172C865.016 488.89 858.92 482.42 852.668 475.464C851.076 480.96 850.408 485.969 849.888 490.978C848.709 502.276 848.247 513.557 851.538 524.649C852.998 529.559 855.34 533.983 859.522 536.995C874.171 547.533 890.792 551.453 908.6 551.313C917.987 551.23 927.316 549.761 936.71 550.133C943.235 550.389 949.355 552.023 954.238 556.553C956.193 558.369 958.198 560.308 957.678 563.758C956.787 569.625 953.224 572.695 948.002 574.379C937.758 577.68 927.406 575.939 917.286 574.148C907.841 572.472 898.751 569.13 889.686 565.829C877.677 561.447 865.915 556.586 854.738 550.339C854.177 550.026 853.649 549.299 852.956 549.654C852.066 550.116 852.47 551.024 852.511 551.808C852.956 558.938 854.499 565.87 856.602 572.662C859.464 581.872 862.731 590.843 873.33 594.078C874.617 594.474 875.747 595.373 877.017 595.877C887.063 599.937 897.193 603.222 908.377 602.017C919.009 600.87 929.378 598.485 939.804 596.331C951.021 593.995 961.183 595.992 970.364 602.825C972.475 604.402 973.894 606.564 975.074 608.924C978.884 616.558 970.883 624.579 963.914 626.444C952.589 629.465 941.255 627.105 930.236 624.761C921.855 622.986 913.665 620.032 905.177 618.547C894.899 616.756 884.68 616.838 874.666 620.387C872.53 621.146 872.134 622.079 872.794 624.15C874.872 630.678 877.941 636.702 881.949 642.223C887.74 650.203 894.182 657.466 903.758 661.138C914.481 665.248 925.616 667.74 937.024 668.178C956.482 668.937 973.267 661.939 987.817 649.188C996.371 641.695 1006.14 637.065 1017.73 637.189C1024.84 637.272 1028.82 642.933 1027.24 649.948C1025.64 657.045 1021.06 661.683 1015.28 665.388C1005.75 671.495 995.175 674.796 984.155 677.082C971.048 679.805 957.727 680.284 944.489 680.243C935.556 680.218 926.474 679.277 917.046 677C918.259 678.477 919.067 679.541 919.966 680.54C924.222 685.277 928.99 689.428 933.98 693.414C946.452 703.367 960.532 710.109 975.544 715.085C985.689 718.452 996.124 720.581 1006.81 721.192C1018.47 721.861 1030.12 721.596 1040.88 716.298C1048.27 712.651 1054.18 707.592 1054.66 698.357C1054.76 696.434 1054.84 694.239 1056.53 692.655C1057.48 691.763 1058.41 690.971 1059.79 691.524C1060.93 691.978 1061.43 692.803 1061.58 694.107C1061.79 695.881 1062.21 697.68 1062.85 699.339C1064.05 702.45 1068.31 703.936 1071.02 702.137C1072.9 700.899 1074.61 699.38 1075.93 697.474C1082.57 687.893 1085.12 677.041 1085.45 665.628C1085.7 656.632 1086.66 655.964 1094.75 660.387C1094.85 660.445 1094.95 660.503 1095.05 660.56C1105.43 666.717 1115.75 672.981 1127.08 677.33C1132.25 679.31 1137.49 680.953 1143.24 682.57C1143.09 681.778 1142.91 681.027 1142.7 680.284C1142.64 680.053 1142.57 679.83 1142.5 679.607C1142.33 679.087 1142.16 678.584 1141.98 678.097C1141.9 677.874 1141.81 677.651 1141.72 677.429C1141.44 676.785 1141.15 676.166 1140.83 675.572C1140.75 675.423 1140.66 675.283 1140.58 675.134C1140.32 674.689 1140.05 674.251 1139.76 673.831C1139.6 673.591 1139.43 673.368 1139.27 673.146C1139.02 672.824 1138.76 672.51 1138.51 672.205C1138.33 671.99 1138.14 671.767 1137.95 671.561C1137.53 671.115 1137.09 670.686 1136.63 670.274C1135.44 669.234 1134.11 668.318 1132.64 667.534C1128.24 665.19 1123.42 663.639 1118.8 661.691C1111.03 658.415 1103.34 654.973 1097.12 649.032C1094.87 646.894 1093.55 644.072 1093.86 641.159C1094.09 639.029 1096.93 639.038 1098.69 638.311C1117.44 630.562 1131.21 617.622 1139.32 598.955C1141.31 594.383 1143.01 589.63 1143.44 584.579C1143.57 583.036 1144.03 581.261 1142.36 580.213C1140.61 579.116 1139.15 580.312 1137.71 581.129C1135.54 582.343 1133.45 583.721 1130.79 583.564C1127.73 583.391 1126.36 581.476 1127.03 578.538C1127.69 575.617 1129.83 573.941 1132.09 572.522C1141.05 566.927 1146.47 559.499 1146.69 548.416C1146.88 538.818 1145.44 529.559 1142.99 520.391C1138.19 502.458 1128.28 487.966 1112.76 476.239C1113.38 477.774 1113.65 478.5 1113.97 479.202C1118.05 488.239 1120.43 497.745 1121.42 507.574C1122.55 518.641 1121.71 529.518 1116.95 539.768C1114.63 544.802 1111.97 546.675 1109.37 545.668C1106.39 544.505 1105.23 540.923 1106.34 535.914C1109.5 521.67 1110.61 507.294 1108.76 492.786C1107.44 482.453 1104.45 472.691 1097.99 464.257C1090.12 453.966 1079.57 447.116 1068.27 441.347C1064.35 439.425 1060.21 437.659 1055.69 436.875ZM1043.16 680.457C1041.73 683.04 1039.34 684.435 1036.8 685.648C1033.07 687.431 1029.15 688.363 1025.04 688.495C1023.41 688.471 1021.66 688.124 1021.24 686.498C1020.82 684.881 1021.92 683.676 1023.29 682.455C1027.2 678.98 1031.37 676.067 1036.35 674.425C1037.32 674.111 1038.32 673.806 1039.4 673.847C1043.08 674.012 1044.93 677.247 1043.16 680.457ZM944.72 467.607C945.685 465.494 947.112 463.423 949.462 463.803C951.797 464.166 952.754 466.27 953.562 468.746C955.863 475.794 957.29 482.866 956.597 490.269C956.457 491.713 956.3 493.182 955.624 494.568C953.347 499.239 948.101 499.817 944.926 495.699C942.377 492.381 941.915 488.486 941.775 484.5C941.561 478.641 942.567 473.021 944.72 467.607ZM918.745 541.014C914.679 540.32 910.943 538.819 907.511 536.557C906.191 535.592 904.962 534.304 905.556 532.728C906.142 531.168 907.734 530.814 909.565 530.607C914.762 530.03 919.851 530.054 924.866 531.589C925.839 531.895 926.837 532.216 927.695 532.877C930.598 535.121 930.244 538.835 926.944 540.436C924.28 541.723 921.517 541.484 918.745 541.014ZM1046.44 618.959C1045.87 619.487 1045.28 619.95 1044.67 620.387C1043.86 620.965 1043.01 621.443 1042.14 621.864C1042.02 621.93 1041.9 621.996 1041.78 622.054C1041.43 622.219 1041.07 622.351 1040.71 622.491C1040.52 622.574 1040.32 622.648 1040.12 622.722C1039.78 622.846 1039.45 622.953 1039.11 623.061C1038.87 623.135 1038.64 623.209 1038.4 623.275C1038.08 623.366 1037.76 623.449 1037.44 623.531C1037.17 623.597 1036.89 623.663 1036.61 623.721C1036.31 623.779 1036.02 623.853 1035.72 623.911C1035.38 623.977 1035.03 624.043 1034.68 624.101C1034.44 624.142 1034.21 624.191 1033.97 624.224C1033.37 624.315 1032.79 624.406 1032.19 624.48C1024.58 625.487 1017.11 624.868 1009.77 622.731C1006.89 621.74 1004 620.123 1004.2 617.003C1004.39 613.9 1007.02 612.398 1010.15 611.028C1011.55 610.418 1012.95 609.848 1014.35 609.304C1014.64 609.196 1014.92 609.089 1015.21 608.982C1016.55 608.478 1017.91 607.992 1019.26 607.554C1019.32 607.538 1019.38 607.513 1019.43 607.496C1022.52 606.514 1025.64 605.722 1028.84 605.177C1031.8 604.674 1034.81 604.369 1037.89 604.36C1039.79 604.36 1041.73 604.393 1043.62 605.095C1050.03 607.505 1051.43 614.305 1046.44 618.959ZM1018.32 578.769C1017.57 580.312 1016.49 581.402 1015.28 582.029C1011.74 578.324 1008.15 574.676 1004.62 571.053C1004.55 570.269 1004.5 569.493 1004.47 568.701C1004.26 562.85 1005.27 557.222 1007.42 551.816C1008.38 549.704 1009.81 547.632 1012.16 548.004C1014.49 548.367 1015.45 550.479 1016.26 552.955C1018.56 559.995 1019.99 567.067 1019.29 574.478C1019.16 575.922 1019 577.383 1018.32 578.769ZM1097.13 565.268C1098.4 570.566 1098.21 575.815 1095.78 580.783C1094.44 583.539 1092.85 586.172 1090.77 589.943C1089.18 592.534 1087.2 596.355 1084.41 599.64C1082.53 601.86 1080.17 603.469 1077.3 602C1074.43 600.523 1073.49 597.758 1074.05 594.515C1074.38 592.485 1074.88 590.488 1075.86 588.689C1080.36 580.403 1084.88 572.134 1089.44 563.882C1090.23 562.437 1090.9 560.647 1093.17 561.232C1095.29 561.785 1096.65 563.23 1097.13 565.268Z" fill="#40A156"/>
<path fill-rule="evenodd" clip-rule="evenodd" d="M766.258 543.316C776.89 562.124 780.47 582.442 780.676 603.477C780.75 603.477 780.8 603.469 780.866 603.461C780.816 604.022 780.866 604.583 780.965 605.136C780.379 605.417 780.742 606.539 780.618 607.15C780.437 607.983 780.437 608.866 780.396 609.733C780.354 610.649 780.305 611.573 780.247 612.489C780.173 612.927 780.123 613.364 780.041 613.81C779.892 614.577 779.884 615.303 779.975 615.98C779.01 626.519 776.676 636.744 771.809 646.333C769.31 651.252 766.2 655.782 761.812 659.298C755.65 664.241 746.132 661.287 744.721 653.661C743.707 648.206 744.927 643.197 747.509 638.386C752.97 628.186 759.28 618.497 762.422 607.059C764.781 598.501 767.19 590.026 767.841 581.179C768.642 570.244 766.357 559.739 762.579 549.539C759.766 541.938 755.477 535.988 747.221 533.05C738.469 529.939 729.717 526.836 720.826 524.228C716.702 523.015 712.586 521.488 708.065 521.1C709.872 523.675 711.753 525.978 713.237 528.511C724.529 547.83 731.623 568.536 732.918 590.983C733.421 599.681 732.406 608.223 728.027 616.12C724.208 622.987 717.361 622.45 712.924 617.705C707.472 611.879 707.348 604.765 708.362 597.437C709.27 590.884 711.975 584.843 713.773 578.546C718.392 562.388 717.782 546.782 708.758 532.151C704.857 525.821 700.221 520.391 692.559 518.171C684.211 515.744 675.806 514.721 667.178 515.307C665.743 515.406 664.085 514.919 662.798 516.306C667.178 519.871 671.228 523.584 674.33 528.189C677.885 533.471 680.574 539.033 679.831 545.685C679.452 549.11 677.819 551.511 675.319 552.196C672.804 552.889 669.636 551.585 667.723 549.093C666.106 546.997 665.43 544.505 664.712 542.012C663.475 537.663 663.574 533.058 661.974 528.767C658.732 520.118 651.226 514.564 642.928 515.059C639.06 515.299 635.34 516.462 631.735 517.882C631.191 518.096 630.201 517.882 630.176 518.847C630.151 519.598 630.803 520.077 631.372 520.382C632.989 521.265 634.597 522.148 635.546 523.807C638.028 528.131 640.75 532.332 642.648 536.954C644.19 540.708 645.238 544.628 644.751 548.746C644.512 550.744 644.289 553.021 641.394 552.856C638.763 552.708 636.206 549.852 636.577 547.269C637.006 544.257 636.634 541.443 635.785 538.53C635.216 536.582 634.836 535.245 634.383 534.354C633.896 532.654 633.228 531.028 632.106 529.559C627.768 523.873 621.985 524.393 615.849 526.39C615.832 526.398 615.816 526.407 615.799 526.407C615.568 526.481 615.345 526.563 615.139 526.663C614.265 526.786 613.391 526.918 612.516 526.976C611.015 527.067 610.363 527.702 610.372 529.262C610.421 535.328 608.103 540.981 606.643 546.683C605.175 552.386 603.765 558.022 603.526 563.849C603.278 569.997 605.183 575.328 611.452 578.018C614.207 579.207 616.88 580.709 619.734 581.542C624.551 582.953 628.221 585.594 631.257 589.605C633.038 591.957 633.921 594.177 632.585 596.71C631.29 599.153 628.799 599.747 626.126 599.657C619.709 599.434 614.892 595.638 610.141 592.081C604.111 587.583 598.931 582.087 593.611 576.17C592.258 580.841 591.689 585.107 591.244 589.366C590.246 598.972 589.85 608.569 592.646 618.002C593.883 622.178 595.879 625.933 599.434 628.499C611.889 637.462 626.027 640.796 641.171 640.672C649.156 640.606 657.082 639.351 665.083 639.665C670.634 639.88 675.839 641.266 679.988 645.128C681.646 646.671 683.353 648.322 682.916 651.252C682.157 656.236 679.122 658.852 674.684 660.28C665.974 663.086 657.173 661.609 648.562 660.09C640.528 658.662 632.799 655.824 625.095 653.018C614.884 649.296 604.878 645.153 595.376 639.847C594.898 639.582 594.452 638.955 593.858 639.261C593.1 639.657 593.446 640.424 593.479 641.093C593.858 647.158 595.17 653.051 596.96 658.827C599.393 666.659 602.173 674.293 611.188 677.041C612.285 677.379 613.242 678.139 614.323 678.576C622.868 682.025 631.479 684.815 640.99 683.8C650.03 682.826 658.856 680.796 667.714 678.964C677.258 676.983 685.894 678.675 693.705 684.493C695.503 685.838 696.707 687.67 697.714 689.676C700.947 696.162 694.15 702.995 688.228 704.58C678.594 707.146 668.96 705.141 659.59 703.152C652.463 701.642 645.502 699.133 638.276 697.87C629.533 696.352 620.847 696.418 612.327 699.438C610.512 700.082 610.174 700.874 610.735 702.632C612.5 708.186 615.106 713.311 618.521 717.998C623.445 724.79 628.922 730.963 637.063 734.083C646.186 737.582 655.647 739.694 665.347 740.074C681.893 740.718 696.171 734.768 708.544 723.924C715.819 717.553 724.125 713.608 733.982 713.724C740.036 713.798 743.418 718.609 742.074 724.576C740.713 730.608 736.811 734.553 731.903 737.706C723.795 742.896 714.796 745.711 705.434 747.65C694.291 749.961 682.957 750.373 671.698 750.34C664.102 750.315 656.381 749.515 648.364 747.584C649.395 748.838 650.079 749.746 650.846 750.596C654.467 754.623 658.517 758.155 662.765 761.547C673.373 770.014 685.349 775.75 698.118 779.975C706.746 782.839 715.621 784.654 724.702 785.166C734.625 785.736 744.532 785.513 753.679 781.007C759.964 777.904 764.996 773.596 765.4 765.748C765.482 764.114 765.548 762.24 766.984 760.904C767.792 760.144 768.584 759.468 769.763 759.946C770.728 760.334 771.157 761.036 771.281 762.15C771.454 763.66 771.817 765.187 772.362 766.598C773.376 769.247 777.005 770.501 779.307 768.975C780.907 767.918 782.359 766.631 783.48 765.013C789.131 756.868 791.3 747.633 791.572 737.928C791.787 730.278 792.603 729.709 799.482 733.472C799.565 733.522 799.647 733.571 799.73 733.621C808.555 738.861 817.34 744.184 826.974 747.881C831.371 749.564 835.825 750.959 840.716 752.337C840.592 751.661 840.435 751.025 840.254 750.398C840.205 750.2 840.139 750.01 840.081 749.82C839.941 749.383 839.8 748.954 839.635 748.533C839.561 748.343 839.487 748.153 839.413 747.964C839.182 747.419 838.934 746.891 838.662 746.387C838.596 746.263 838.514 746.14 838.439 746.016C838.217 745.636 837.986 745.265 837.747 744.91C837.615 744.712 837.466 744.514 837.326 744.332C837.12 744.06 836.897 743.788 836.674 743.532C836.517 743.35 836.361 743.161 836.196 742.987C835.841 742.608 835.47 742.244 835.074 741.898C834.068 741.015 832.938 740.239 831.684 739.571C827.939 737.582 823.84 736.261 819.914 734.603C813.307 731.813 806.757 728.892 801.47 723.833C799.565 722.017 798.435 719.616 798.699 717.14C798.888 715.333 801.313 715.341 802.815 714.714C818.759 708.12 830.463 697.119 837.367 681.241C839.058 677.354 840.501 673.311 840.864 669.011C840.98 667.699 841.368 666.189 839.949 665.297C838.464 664.365 837.219 665.38 835.99 666.073C834.142 667.105 832.369 668.277 830.109 668.145C827.519 667.996 826.347 666.37 826.916 663.87C827.477 661.386 829.292 659.958 831.222 658.753C838.844 654 843.446 647.678 843.636 638.254C843.801 630.092 842.572 622.219 840.485 614.42C836.41 599.17 827.972 586.849 814.783 576.871C815.311 578.175 815.534 578.794 815.806 579.396C819.278 587.08 821.299 595.167 822.149 603.519C823.106 612.935 822.388 622.178 818.346 630.901C816.367 635.184 814.107 636.777 811.888 635.918C809.356 634.928 808.374 631.883 809.314 627.625C811.995 615.51 812.944 603.279 811.376 590.942C810.255 582.153 807.706 573.851 802.212 566.679C795.515 557.932 786.549 552.105 776.939 547.195C773.624 545.478 770.102 543.976 766.258 543.316ZM755.601 750.472C754.388 752.667 752.351 753.856 750.19 754.887C747.023 756.406 743.69 757.198 740.193 757.305C738.799 757.281 737.322 756.992 736.96 755.605C736.605 754.235 737.537 753.204 738.7 752.172C742.024 749.218 745.571 746.742 749.811 745.339C750.635 745.067 751.485 744.811 752.409 744.852C755.543 744.984 757.11 747.741 755.601 750.472ZM671.888 569.452C672.713 567.661 673.925 565.895 675.922 566.217C677.909 566.522 678.718 568.313 679.402 570.426C681.357 576.417 682.57 582.433 681.984 588.73C681.869 589.96 681.728 591.206 681.159 592.386C679.221 596.364 674.759 596.851 672.061 593.343C669.892 590.521 669.504 587.212 669.381 583.82C669.199 578.835 670.057 574.057 671.888 569.452ZM649.799 631.875C646.343 631.289 643.159 630.009 640.239 628.078C639.117 627.253 638.07 626.164 638.581 624.827C639.084 623.498 640.437 623.193 641.988 623.02C646.409 622.524 650.731 622.549 655.004 623.861C655.837 624.117 656.678 624.389 657.412 624.959C659.878 626.865 659.573 630.026 656.769 631.388C654.5 632.485 652.158 632.279 649.799 631.875ZM758.397 698.176C757.91 698.63 757.407 699.017 756.896 699.389C756.203 699.876 755.485 700.288 754.743 700.652C754.644 700.701 754.537 700.759 754.438 700.808C754.141 700.949 753.836 701.064 753.539 701.18C753.374 701.246 753.209 701.32 753.036 701.378C752.747 701.485 752.466 701.576 752.178 701.667C751.98 701.733 751.782 701.79 751.576 701.848C751.303 701.922 751.031 701.997 750.751 702.063C750.52 702.12 750.281 702.17 750.041 702.228C749.794 702.277 749.547 702.335 749.291 702.385C749.002 702.442 748.697 702.5 748.4 702.541C748.202 702.574 747.996 702.616 747.798 702.649C747.295 702.723 746.792 702.797 746.288 702.871C739.813 703.73 733.454 703.202 727.218 701.386C724.768 700.544 722.319 699.174 722.484 696.517C722.64 693.876 724.884 692.597 727.548 691.433C728.736 690.913 729.924 690.435 731.12 689.964C731.367 689.874 731.606 689.783 731.854 689.684C733 689.255 734.147 688.842 735.302 688.471C735.351 688.454 735.401 688.438 735.442 688.421C738.073 687.588 740.737 686.911 743.451 686.449C745.967 686.02 748.524 685.764 751.147 685.756C752.763 685.756 754.413 685.78 756.022 686.383C761.441 688.429 762.637 694.206 758.397 698.176ZM734.477 663.985C733.833 665.298 732.918 666.222 731.887 666.758C728.876 663.606 725.824 660.503 722.822 657.425C722.764 656.756 722.723 656.096 722.698 655.427C722.517 650.451 723.383 645.665 725.206 641.068C726.03 639.269 727.243 637.511 729.239 637.825C731.227 638.138 732.035 639.929 732.72 642.033C734.675 648.025 735.887 654.041 735.302 660.338C735.194 661.567 735.054 662.813 734.477 663.985ZM801.511 652.506C802.592 657.012 802.419 661.477 800.365 665.702C799.227 668.046 797.874 670.282 796.109 673.492C794.756 675.696 793.073 678.939 790.698 681.737C789.098 683.626 787.085 684.988 784.652 683.742C782.202 682.488 781.41 680.136 781.88 677.379C782.169 675.646 782.59 673.954 783.423 672.419C787.25 665.372 791.094 658.341 794.962 651.318C795.639 650.088 796.199 648.561 798.13 649.065C799.936 649.543 801.091 650.773 801.511 652.506Z" fill="#628E32"/>
<path d="M1131.93 568.66V742.327L316.334 742.649C316.334 742.649 423.266 708.153 524.523 706.238C625.78 704.324 813.01 678.601 862.69 650.369C912.362 622.137 1030.82 637.75 1063.3 612.894C1095.78 588.045 1131.93 568.66 1131.93 568.66Z" fill="#21472A"/>
<path fill-rule="evenodd" clip-rule="evenodd" d="M881.373 735.131C881.546 734.982 881.711 734.817 881.876 734.652C918.953 757.124 959.724 770.922 999.581 786.808C968.22 764.337 935.631 744.035 899.924 728.834C937.429 736.063 975.124 739.546 1014.27 738.878C1012.46 737.928 1011.71 737.334 1010.86 737.12C1000.16 734.314 989.452 731.524 978.721 728.801C960.558 724.18 942.122 720.895 923.605 718.04C923.3 717.99 922.986 717.99 922.673 717.974C922.862 717.437 923.019 716.901 923.118 716.348C963.395 714.268 1002.71 705.9 1042.09 697.862C1008.42 692.011 974.695 691.978 940.811 695.626C957.72 688.867 974.654 682.504 991.242 675.3C1007.72 668.145 1024.24 661.089 1040.73 653.983C999.886 662.178 959.625 672.304 919.86 684.699C960.475 663.391 999.168 639.104 1036.73 613.059C995.085 625.33 956.409 643.989 918.994 665.603C936.093 649.849 953.522 634.623 969.895 618.241C986.276 601.844 1002.18 585.017 1017.22 567.315C978.836 590.257 944.613 618.588 911.884 648.957C927.333 628.161 942.865 607.604 957.951 586.717C972.914 566.003 987.777 545.198 1001.55 523.659C959.007 561.612 924.553 606.382 891.997 652.787C919.687 603.544 944.086 552.964 959.32 498.323C954.388 504.653 949.983 511.28 945.504 517.857C926.624 545.512 909.847 574.387 895.098 604.451C890.694 613.438 886.396 622.491 882.049 631.512C881.678 631.272 881.299 631.058 880.911 630.868C884.194 617.49 887.592 604.13 890.702 590.711C898.406 557.469 904.493 523.915 909.03 490.104C909.533 486.357 910.853 482.536 909.55 477.263C890.801 516.231 877.472 555.613 868.885 596.636C868.679 596.529 868.464 596.438 868.25 596.364C867.161 595.085 867.458 593.566 867.483 592.089C867.598 585.223 867.829 578.348 867.788 571.482C867.598 537.663 865.899 503.902 863.482 470.174C863.111 464.975 862.517 459.784 862.031 454.593C851.365 510.463 846.705 566.704 847.101 623.498C839.537 565.475 827.396 508.433 812.243 451.993C815.147 506.056 819.774 559.929 829.136 613.405C810.924 560.68 790.196 509.027 767.925 457.943C778.392 510.479 792.126 562.116 810.478 613.727C808.845 611.26 807.756 609.783 806.832 608.198C793.256 584.852 779.613 561.571 765.054 538.81C752.698 519.499 739.542 500.741 727.211 481.422C726.774 480.745 726.502 479.433 725.281 480.069C724.25 480.605 724.555 481.653 724.959 482.511C726.625 486.019 728.564 489.411 729.966 493.017C738.742 515.53 748.995 537.399 758.241 559.698C762.431 569.807 767.644 579.413 772.33 589.275V589.267C773.501 591.742 774.664 594.226 775.744 596.735C776.371 598.188 777.765 599.525 776.784 601.216C748.632 566.143 718.501 532.869 686.414 501.319C717.42 549.209 750.306 595.761 785.37 640.837C746.075 603.172 703.48 569.576 659.558 537.573C698.589 581.584 739.856 623.259 784.884 661.204C784.859 661.262 784.834 661.32 784.809 661.378C736.878 628.598 686.159 601.027 632.66 578.481C651.111 593.748 670.256 608.074 689.681 622.013C709.031 635.902 728.819 649.139 749.185 661.848C747.873 663.086 747.205 662.409 746.578 662.162C708.091 646.771 668.153 636.967 627.208 630.967C625.913 630.777 624.84 630.48 624.098 631.825C625.492 632.395 626.935 632.89 628.272 633.558C664.004 651.4 700.857 666.626 738.346 680.284C751.478 685.071 764.807 689.313 778.037 693.802C724.802 684.889 671.312 681.316 617.408 684.65C668.342 700.668 720.752 707.947 773.757 712.387C720.208 714.722 667.014 718.956 615.148 733.282C634.194 733.348 653.19 733.035 672.161 732.259C703.126 730.996 734.057 729.057 764.947 726.639C765.855 726.565 767.306 725.195 767.611 726.961C767.892 728.595 765.978 728.834 764.955 728.793C761.277 728.62 757.986 730.155 754.579 730.972C734.593 735.808 714.88 741.485 695.413 748.195C678.686 753.963 662.387 760.706 646.129 767.621C644.405 768.356 642.409 768.859 641.255 770.823C687.874 764.188 733.628 754.706 778.681 741.576C739.575 761.069 702.433 783.433 669.035 811.789C711.061 794.879 752.162 775.989 791.87 753.955C760.353 780.52 729.842 808.026 700.734 837.091C702.268 836.629 703.662 836.043 704.883 835.193C713.519 829.136 722.567 823.706 731.302 817.813C743.633 809.503 755.973 801.184 768.139 792.61C775.497 787.427 782.162 781.197 790.154 776.914C790.385 777.112 790.624 777.293 790.872 777.467C790.69 777.739 790.468 777.986 790.262 778.259C784.471 785.513 778.499 792.626 772.998 800.087C758.547 819.728 746.339 840.714 736.284 862.938C738.181 862.509 739.418 861.205 740.68 859.827C744.021 856.196 747.37 852.565 750.859 849.082C766.671 833.303 781.898 816.98 796.448 800.037C803.673 791.636 810.487 782.88 817.473 774.265C817.828 774.438 818.191 774.57 818.553 774.702C817.712 777.937 816.137 780.875 814.751 783.879C807.08 800.458 800.654 817.533 794.699 834.781C791.713 843.413 788.983 852.136 786.129 860.826C808.606 829.227 826.884 795.507 840.948 759.418C834.267 798.147 832.749 837.034 834.663 876.109C843.414 834.583 853.205 793.262 855.952 750.596C856.067 750.571 856.174 750.547 856.29 750.514C862.204 783.656 871.211 815.8 881.076 847.762C881.051 845.658 881.027 843.537 880.985 841.424C880.961 840.236 880.936 839.047 880.903 837.859C880.878 836.951 880.862 836.043 880.837 835.127C880.787 833.345 880.722 831.562 880.656 829.78C880.647 829.474 880.639 829.169 880.622 828.863C880.54 826.809 880.449 824.77 880.342 822.715C880.342 822.682 880.334 822.641 880.334 822.6C879.006 796.967 875.682 771.566 868.167 746.577C868.341 746.61 868.489 746.66 868.638 746.701C869.553 748.343 870.469 749.985 871.376 751.611C875.055 758.23 878.857 765.03 882.767 771.83C899.602 803.594 916.429 835.35 933.165 867.155C935.26 871.141 936.464 874.517 942.172 871.174C944.712 869.689 944.927 869.45 943.574 867.23C938.848 859.571 934.146 851.888 929.651 844.098C924.05 834.418 918.813 824.539 913.146 814.908C899.874 792.354 887.898 769.057 874.395 746.495C896.608 771.541 923.019 791.512 950.528 810.246C928.975 783.829 906.399 758.42 881.373 735.131Z" fill="#1A5649"/>
<path d="M816.309 506.197C815.449 507.508 813.702 507.958 812.338 507.203C810.631 506.25 808.526 505.257 806.038 504.409C803.391 503.509 799.566 502.198 795.29 502.396C787.984 502.727 778.481 507.508 776.204 516.089C775.754 517.784 775.132 521.333 776.786 526.061C776.35 527.69 775.82 529.372 775.185 531.093C772.313 538.959 768.249 545.144 764.437 549.766C763.828 550.6 762.942 551.818 761.883 553.301C757.952 558.771 755.979 561.525 755.635 562.558C754.246 566.849 755.966 572.768 760.149 576.436C764.371 580.144 770.552 581.098 775.648 578.661C781.419 575.92 783.074 570.067 783.378 568.981C784.384 565.392 783.59 563.061 783.458 560.32C783.246 555.95 784.662 549.567 792.418 541.224C793.001 540.893 794.893 539.913 796.746 540.615C798.586 541.317 799.248 543.25 799.87 545.091C801.578 550.057 800.32 554.745 799.751 556.771C799.619 557.221 799.142 558.89 798.123 561.035C795.635 566.266 793.345 567.18 791.081 571.497C790.076 573.404 788.871 575.695 788.739 578.648C788.487 583.826 791.505 591.003 797.726 592.672C803.907 594.327 809.202 589.467 810.115 588.593C812.974 585.839 813.94 582.674 814.522 580.634C816.905 572.358 814.086 564.876 812.669 561.763C813.371 558.506 814.205 555.102 815.184 551.567C816.534 546.733 818.004 542.244 819.526 538.112C820.082 538.138 820.955 538.271 821.763 538.84C823.536 540.072 823.682 542.455 823.735 543.422C823.907 546.362 822.676 548.004 821.763 550.494C821.59 550.944 819.605 556.546 820.982 561.525C822.12 565.63 826.038 571.06 832.02 571.404C835.647 571.603 839.883 569.934 842.093 566.186C844.37 562.32 843.946 557.155 841.246 554.162C840.412 553.235 839.499 552.679 838.837 552.348C838.758 550.706 838.665 549.064 838.585 547.422C844.581 552.48 849.611 556.334 852.894 558.771C861.219 564.955 867.149 568.676 890.696 583.614C893.515 585.402 900.835 590.05 903.455 591.719C903.839 592.447 904.633 594.195 903.892 595.334C903.072 596.592 900.848 596.433 899.643 596.34C887.837 595.387 881.947 594.91 878.85 594.023C871.715 591.957 868.155 590.924 865.005 588.66C864.091 587.997 862.781 586.964 860.73 586.554C856.309 585.68 852.55 588.567 852.152 588.885C848.592 591.705 847.97 595.744 847.838 596.883C847.308 601.558 849.624 605.888 852.827 608.338C856.15 610.881 859.869 610.947 861.074 610.973C863.628 611.026 863.853 610.351 870.762 609.014C874.72 608.246 876.176 608.179 877.751 608.338C880.186 608.603 883.813 609.543 883.919 610.947C883.985 611.861 882.569 612.682 881.563 613.212C874.336 616.986 864.978 618.085 859.287 618.906C856.997 619.237 853.463 619.793 849.108 620.667C848.049 620.217 846.514 619.621 844.634 619.052C840.333 617.754 837.46 616.893 834.509 617.396C830.313 618.098 825.561 621.634 824.211 627.077C824.132 627.395 822.61 634.016 827.256 638.955C831.173 643.114 836.494 642.928 837.977 642.875C843.893 642.663 847.679 639.048 848.552 638.174C854.959 637.088 861.352 636.016 867.758 634.93C869.717 633.989 871.795 634.162 872.88 635.287C874.363 636.85 873.33 639.538 872.986 640.425C871.808 643.471 869.108 644.968 867.096 646.08C863.84 647.881 860.677 648.477 857.725 649.033C854.389 649.656 854.244 649.325 852.748 649.921C848.711 651.549 846.739 655.257 846.276 656.158C845.733 657.23 843.178 662.157 845.534 667.573C847.864 672.923 853.119 674.473 853.886 674.684C858.718 676.009 862.675 674.022 864.052 673.334C870.829 669.93 872.721 662.806 873.039 661.534C874.693 661.442 877.076 661.15 879.776 660.21C883.906 658.767 886.606 656.542 888.83 654.675C890.444 653.311 892.562 651.311 894.68 648.556C902.727 647.457 908.776 645.365 912.8 643.657C920.331 640.452 921.39 638.36 929.372 635.671C934.282 634.016 935.831 634.162 943.693 631.844C948.736 630.361 952.813 628.917 955.526 627.911C959.576 629.805 963.679 631.765 967.835 633.817C970.747 635.261 973.62 636.704 976.439 638.148C977.736 639.128 979.801 640.611 982.501 642.173C983.785 642.915 985.228 643.67 992.653 647.298C996.372 649.113 997.934 649.867 999.351 651.748C1000.53 653.311 1001.06 654.926 1001.32 656.039C996.849 659.548 994.519 662.766 993.222 665.136C992.6 666.262 991.885 667.798 990.204 669.334C988.1 671.268 986.829 671.056 984.804 672.632C984.394 672.95 981.416 675.347 980.621 679.28C979.96 682.551 980.767 687.093 983.719 689.146C987.517 691.794 994.744 690.271 998.94 683.848C1001.02 680.935 1003.1 678.035 1005.19 675.121C1005.52 674.949 1007.94 673.718 1008.96 674.631C1009.91 675.492 1009.09 677.757 1008.71 678.829C1006.46 685.027 993.408 694.178 987.742 697.992C986.432 698.005 977.67 698.27 972.64 705.196C971.978 706.109 967.663 712.056 970.072 717.035C972.508 722.08 980.396 723.179 985.572 721.352C988.563 720.293 988.947 718.849 994.414 713.208C996.73 710.824 1003.15 704.388 1011.41 698.998C1014.19 697.184 1020.67 692.959 1021.75 694.138C1022.8 695.317 1018.61 702.004 1013.24 706.639C1010.83 708.718 1009.57 709.169 1007.36 711.698C1005.51 713.803 1003.37 716.24 1002.66 719.829C1002.49 720.729 1001.16 727.351 1005.82 731.337C1009.12 734.171 1014.15 734.568 1018.45 732.37C1025.39 724.199 1032.74 714.413 1039.83 702.905C1040.18 702.322 1046.22 694.39 1050.92 682.71C1053.15 677.161 1053.88 673.784 1053.06 670.116C1051.71 664.064 1046.85 660.462 1044.76 659.098C1047.46 656.688 1051.42 652.609 1054.66 646.597C1056.9 642.425 1061.88 633.182 1059.75 621.263C1057.84 610.616 1051.39 604.074 1049.57 602.339C1046.78 599.677 1039.85 593.03 1029.17 592.937C1016.86 592.831 1009 601.478 1007.74 602.922C1007.61 603.173 1007.44 603.478 1007.28 603.452C1006.66 603.346 1007.74 598.181 1007.31 594.049C1006.51 586.395 1000.78 584.938 996.65 575.496C995.591 573.073 994.281 569.325 993.818 564.2C994.056 556.188 991.806 551.553 989.596 548.759C986.485 544.826 982.475 543.343 979.007 537.37C977.551 534.867 976.77 532.576 976.333 531C977.22 529.199 978.332 526.697 979.364 523.638C980.238 521.029 981.68 516.619 982.077 510.964C982.329 507.481 982.289 501.906 980.33 495.232C980.847 494.649 982.091 493.1 982.422 490.729C982.686 488.783 982.21 487.246 981.932 486.505C981.297 487.525 980.066 489.206 977.948 490.557C977.948 490.557 974.718 492.61 970.549 492.53C963.388 492.398 958.2 485.167 956.783 483.194C948.948 472.282 950.404 457.344 955.87 447.836C957.485 445.015 959.629 441.426 963.812 440.221C970.258 438.381 976.28 443.718 977.021 444.393C975.777 442.658 973.408 439.864 969.583 437.851C968.669 437.374 962.793 434.395 955.711 435.732C945.467 437.679 944.341 446.446 932.23 449.611C930.722 450.008 928.485 450.193 924.024 450.551C910.735 451.637 900.557 450.683 897.579 450.379C885.057 449.094 878.783 448.445 873.238 444.989C868.38 441.956 868.353 440.116 860.941 435.388C855.038 431.614 851.014 429.124 845.548 429.005C839.711 428.872 834.932 431.494 831.848 433.799C833.556 433.176 836.905 432.276 840.425 433.507C845.945 435.428 848.049 441.228 849.294 444.658C852.497 453.451 850.352 461.45 848.896 466.906C847.295 472.931 846.223 476.93 842.397 480.307C841.603 481.022 833.953 487.577 826.197 484.161C820.624 481.711 818.837 475.805 818.546 474.772C817.924 475.129 817.315 475.487 816.693 475.844C816.839 477.566 817.117 480.148 817.62 483.26C818.718 490.001 819.738 491.961 819.883 495.007C819.963 497.735 819.38 501.509 816.309 506.197Z" fill="#EAA238"/>
<path d="M974.719 492.393C985.115 490.288 991.181 476.912 988.269 462.519C985.357 448.125 974.569 438.163 964.173 440.269C953.777 442.374 947.71 455.749 950.623 470.143C953.535 484.537 964.323 494.499 974.719 492.393Z" fill="#1C6267"/>
<path d="M813.914 453.438C810.036 467.515 815.515 477.99 824.662 483.816C829.771 487.074 836.468 486.147 843.854 478.797C847.375 475.301 847.864 468.918 849.439 463.224C853.317 449.147 848.5 435.547 838.692 432.845C828.884 430.144 817.792 439.361 813.914 453.438Z" fill="#1C6267"/>
<path d="M977.841 451.147C980.25 456.444 981.613 461.926 981.428 467.475C981.296 473.024 979.615 478.414 976.875 483.552C979.006 481.552 980.687 479.036 981.852 476.281C983.043 473.54 983.652 470.547 983.758 467.541C983.917 461.529 981.825 455.451 977.841 451.147Z" fill="white"/>
<path d="M827.017 444.035C823.271 448.021 821.193 453.57 820.981 459.145C820.888 461.94 821.246 464.747 822.066 467.396C822.887 470.044 824.131 472.547 825.852 474.666C824.118 469.528 823.086 464.403 823.311 459.225C823.469 454.047 824.859 449.015 827.017 444.035Z" fill="white"/>
<path d="M960.144 465.052C964.581 465.052 968.178 461.453 968.178 457.013C968.178 452.574 964.581 448.975 960.144 448.975C955.707 448.975 952.109 452.574 952.109 457.013C952.109 461.453 955.707 465.052 960.144 465.052Z" fill="#D8E4E9"/>
<path d="M838.438 457.384C842.876 457.384 846.473 453.785 846.473 449.346C846.473 444.906 842.876 441.307 838.438 441.307C834.001 441.307 830.404 444.906 830.404 449.346C830.404 453.785 834.001 457.384 838.438 457.384Z" fill="#D8E4E9"/>
<path d="M838.335 546.468C836.416 539.913 834.496 533.358 832.577 526.803C829.215 523.585 825.867 520.38 822.505 517.162C821.882 514.076 821.26 510.978 820.625 507.892C826.555 504.674 831.558 502.939 834.668 501.999C850.737 497.152 862.742 499.562 893.132 499.814C894.879 499.827 898.082 499.854 902.252 499.748C911.438 499.523 916.48 498.913 919.816 498.728C941.113 497.536 953.303 509.958 967.519 512.434C968.339 512.58 970.709 512.951 972.059 514.818C973.66 517.03 973.316 520.645 971.688 523.015C971.238 523.677 970.258 524.869 964.871 526.935C958.094 529.544 957.075 528.657 955.169 530.418C951.424 533.888 952.152 540.231 952.31 541.41C952.721 544.336 953.661 544.773 955.699 549.355C958.121 554.824 958.981 559.168 960.133 564.968C961.271 570.729 961.814 573.656 960.848 576C959.564 579.085 957.3 579.866 952.178 583.349C943.31 589.388 944.475 590.871 937.764 594.91C932.92 597.824 928.022 600.75 922.159 600.605C915.051 600.432 910.365 595.811 905.058 591.361C902.106 588.885 912.02 597.413 874.125 571.457C864.463 564.876 852.339 556.466 838.335 546.468Z" fill="#E55D3C"/>
<path d="M974.664 515.096C969.594 510.858 963.77 507.495 957.576 505.005C951.302 502.595 944.671 501.496 938.212 500.317C931.752 499.099 925.068 498.066 918.291 498.251C914.89 498.278 911.567 498.847 908.444 498.874C905.241 498.94 902.037 498.754 898.861 498.304C895.684 497.894 892.415 497.245 889.079 496.847C885.757 496.437 882.408 496.172 879.073 496.093C872.468 495.96 865.704 495.96 859.113 497.006C852.535 497.947 846.049 499.152 839.577 500.383C833.131 501.827 826.658 503.164 820.252 504.714C833.342 503.125 846.38 500.966 859.431 499.695C862.687 499.403 865.93 499.218 869.172 499.178C872.389 499.165 875.724 499.271 878.954 499.417C882.21 499.575 885.439 499.814 888.643 500.251C891.846 500.661 895.049 501.323 898.398 501.787C901.746 502.224 905.148 502.396 908.536 502.303C912.004 502.211 915.221 501.668 918.41 501.562C924.843 501.178 931.263 502.131 937.801 502.966C944.34 503.84 950.839 504.608 957.02 506.621C963.228 508.514 969.131 511.494 974.664 515.096Z" fill="white"/>
<path d="M884.065 612.205C883.602 611.331 882.794 610.126 881.47 609.12C878.4 606.776 874.641 607.12 872.245 607.372C865.825 608.047 865.375 610.722 861.074 610.616C856.931 610.523 852.894 607.928 850.644 604.511C848.063 600.591 846.858 594.089 850.352 590.103C853.661 586.329 859.34 586.925 860.571 587.044C865.124 587.521 867.493 589.891 870.749 591.891C878.254 596.486 886.156 596.38 894.627 596.261C901.589 596.168 913.105 594.778 917.552 594.248C921.02 593.837 924.408 593.374 924.818 594.42C924.977 594.817 924.951 596.062 915.805 601.836C903.442 609.636 896.255 611.914 896.507 615.277C896.679 617.555 900.054 617.886 901.126 621.899C901.589 623.647 901.43 625.342 900.702 627.898C899.776 631.116 898.201 636.625 893.595 641.498C884.012 651.669 872.086 647.682 869.121 655.324C867.559 659.349 870.418 661.587 868.076 666.381C867.877 666.792 864.939 672.552 858.678 673.546C852.92 674.459 846.395 671.043 844.449 664.925C842.887 660.025 844.807 654.688 848.023 651.708C852.073 647.947 855.528 650.358 864.436 646.742C869.518 644.676 876.6 640.571 876.03 637.486C875.938 636.969 875.554 636.069 872.867 634.837C867.493 632.387 858.506 631.182 849.757 635.896C845.204 638.36 845.362 639.922 841.312 641.22C840.055 641.631 832.351 644.107 827.229 639.803C822.226 635.592 821.326 626.309 826.303 620.601C831.187 614.999 840.492 614.271 846.832 619.727C855.422 619.846 866.037 618.84 877.394 614.854C879.737 614.046 881.96 613.145 884.065 612.205Z" fill="#E55D3C"/>
<path d="M1009.44 650.543C1007.06 647.298 1004.86 645.537 1001.03 642.452C994.071 636.863 988.499 632.374 982.278 633.447C981.51 633.579 977.672 634.32 977.222 636.36C976.56 639.366 983.575 643.961 988.247 646.186C991.741 647.841 994.177 648.292 997.526 651.086C999.418 652.675 1000.98 654.012 1001.15 655.999C1001.38 658.581 999.153 660.74 995.964 663.825C994.322 665.415 993.012 666.408 990.471 668.328C984.501 672.844 983.8 672.645 982.675 674.433C981.1 676.909 979.829 681.359 982.119 684.709C983.919 687.358 986.976 687.98 987.691 688.099C992.919 688.973 998.201 684.802 1000.13 681.293C1000.27 681.041 1000.94 679.796 1001.97 678.167C1003.68 675.466 1004.43 674.751 1005.27 674.274C1005.9 673.903 1007.2 673.148 1008.37 673.652C1009.69 674.221 1009.99 676.035 1010.03 676.26C1010.36 678.233 1009.13 680.207 1005.35 684.047C1001.91 687.53 999.537 689.304 993.819 694.072C989.346 697.78 989.399 697.859 988.432 698.416C983.84 701.077 981.788 700.058 976.97 702.6C974.204 704.057 971.437 705.514 970.061 708.652C968.618 711.936 969.055 716.28 971.517 719.273C975.21 723.789 981.761 723.153 985.269 721.829C987.281 721.074 988.79 719.723 991.728 717.035C996.361 712.81 996.546 711.632 1000.15 708.122C1004.45 703.938 1004.87 704.944 1013.42 697.992C1017.49 694.694 1019.56 692.708 1020.11 693.158C1020.77 693.688 1018.69 697.263 1017.09 700.044C1014.15 705.13 1011.22 708.758 1010.64 709.486C1006.49 714.611 1005.82 714.121 1004.45 716.783C1003.43 718.756 1000.95 723.563 1003.27 728.172C1005.1 731.8 1009.28 734.105 1013.46 733.774C1019.25 733.31 1022.03 728.04 1022.55 727.046C1024.46 723.431 1024.09 719.882 1023.79 717.035C1023.07 710.4 1020.49 709.976 1020.6 705.831C1020.69 702.269 1022.65 701.038 1029.94 691.158C1037.02 681.571 1037.3 679.849 1036.84 679.306C1031.69 673.373 1029.74 684.127 1023.72 682.193C1020.25 681.081 1018.37 677.796 1017.72 676.671C1015.49 672.751 1016.84 670.606 1015.78 664.752C1014.4 657.416 1010.76 652.357 1009.44 650.543Z" fill="#E55D3C"/>
<path d="M818.109 517.215C819.512 517.255 819.936 516.354 821.657 516.5C823.325 516.645 824.542 517.639 825.641 518.671C830.035 522.803 831.716 526.246 831.716 526.246C837.011 537.066 832.775 543.104 837.858 550.269C838.387 551.024 840.121 553.315 841.312 556.811C842.504 560.307 842.226 562.253 842.12 562.889C842.001 563.604 841.551 565.908 839.711 567.776C836.375 571.139 831.253 570.239 830.393 570.093C824.079 568.994 821.207 563.207 820.942 562.637C820.598 561.922 818.811 557.976 819.989 553.752C820.386 552.348 820.651 552.533 822.213 548.613C823.391 545.647 823.775 544.203 823.669 542.495C823.563 540.641 822.967 539.675 822.57 539.171C822.213 538.721 821.551 537.874 820.743 537.834C820.227 537.807 819.102 538.099 817.156 542.535C815.502 546.322 815.608 547.726 814.073 552.52C812.762 556.585 812.312 556.758 811.994 559.049C811.836 560.188 811.783 561.313 812.286 566.081C813.04 573.285 813.477 573.92 813.345 576.94C813.239 579.284 813.12 581.482 811.942 584.038C811.306 585.428 810.022 588.09 807.018 589.865C803.603 591.877 800.188 591.44 799.222 591.295C798.652 591.215 793.16 590.328 790.208 585.309C787.15 580.118 789.242 574.596 789.665 573.497C790.552 571.166 791.161 571.444 795.132 565.432C797.607 561.697 798.838 559.817 799.314 558.055C800.201 554.784 799.023 554.718 799.804 548.587C800.069 546.495 800.373 545.197 799.658 543.647C799.553 543.422 798.414 541.052 796.085 540.681C794.351 540.403 792.948 541.383 791.968 542.085C790.009 543.488 789.109 545.064 786.621 549.977C784.146 554.851 782.915 557.301 782.796 558.413C782.465 561.684 783.709 562.704 782.928 566.054C782.385 568.358 781.313 569.934 780.426 571.245C779.129 573.165 777.303 575.854 774.139 577.337C769.838 579.363 764.451 578.502 760.639 575.814C757.144 573.351 753.279 568.16 754.828 563.935C756.496 559.393 763.643 558.148 764.279 558.042C767.495 557.526 769.096 558.413 772.18 557.155C773.61 556.572 775.066 555.659 776.892 553.791C780.81 549.779 782.121 545.766 784.53 540.323C785.787 537.489 787.667 533.954 791.452 526.855C798.123 514.328 794.483 522.644 799.328 513.904C801.101 510.699 802.067 508.726 804.146 508.249C806.978 507.587 810.075 510.17 811.597 511.428C815.079 514.368 815.674 517.135 818.109 517.215Z" fill="#E55D3C"/>
<path d="M1036.38 636.347C1037.15 638.307 1035.23 639.605 1031.91 645.802C1031.91 645.802 1030.42 648.597 1027.66 651.881C1027.16 652.49 1026.67 653.02 1026.43 652.914C1025.84 652.622 1027.31 648.477 1027.68 647.444C1028.66 644.663 1029.58 642.902 1031.21 639.817C1033.46 635.579 1034.19 634.837 1034.9 634.89C1035.62 634.956 1036.16 635.751 1036.38 636.347Z" fill="white"/>
<path opacity="0.59" fill-rule="evenodd" clip-rule="evenodd" d="M658.34 490.83C644.945 503.671 629.735 514.853 618.468 529.749C614.393 536.623 610.31 543.498 606.227 550.372C605.18 552.138 604.116 553.888 602.293 554.201C602.012 554.251 601.707 554.267 601.385 554.243C601.501 546.064 600.874 537.919 599.678 529.823C602.26 529.048 604.61 526.885 606.499 524.88C609.205 523.436 612.009 519.986 613.461 518.319C614.047 517.642 614.591 516.933 615.119 516.206C650.447 479.334 665.83 426.006 662.827 395.455C658.481 400.101 658.093 405.804 656.056 410.598C645.687 435.026 629.471 456.243 615.638 478.748C607.959 491.242 602.598 504.257 601.476 518.583C601.088 519.45 600.676 520.3 600.231 521.142C599.752 522.058 599.249 522.965 598.688 523.848C597.995 520.003 597.195 516.165 596.28 512.336C594.993 506.914 593.516 501.517 591.809 496.211C591.594 495.072 591.487 493.933 591.669 492.753C591.85 491.589 592.32 490.376 593.252 489.105C605.056 472.988 610.45 454.502 613.329 435.604C616.29 416.111 614.946 396.726 608.512 377.86C608.033 413.677 586.06 445.672 587.066 483.328C586.802 482.693 586.546 482.057 586.274 481.43C585.647 480.002 584.988 478.517 584.286 477.023C582.439 472.088 579.972 466.543 575.98 462.977C576.12 460.634 576.739 458.133 577.968 455.369C580.863 448.89 581.342 441.339 582.274 434.225C585.862 406.885 581.977 380.699 571.468 355.628C570.842 354.126 570.974 351.617 568.326 352.211C566.255 352.674 566.998 354.217 567.344 355.76C572.021 376.689 567.583 397.84 566.528 418.9C566.132 426.732 565.488 434.589 564.804 444.376C564.754 445.086 564.705 445.779 564.647 446.505C540.537 419.536 511.816 400.448 492.837 372.1C490.61 374.287 491.278 375.657 491.773 377.076C498.47 396.462 507.997 414.362 521.648 429.777C535.167 445.045 550.443 458.397 568.837 468.284C574.916 471.544 578.785 477.221 580.896 485.746C558.04 470.595 533.196 461.121 513.053 444.318C527.579 474.242 552.192 492.662 583.998 502.969C584.08 502.837 584.171 502.738 584.262 502.639C584.864 503.258 585.458 503.877 586.06 504.496C586.142 504.603 586.225 504.702 586.307 504.801C586.373 504.892 586.431 504.966 586.489 505.049C586.604 505.552 586.72 506.056 586.835 506.559C589.937 520.82 592.939 535.022 592.56 549.778C592.551 550.017 592.543 550.257 592.535 550.496C585.689 540.015 576.772 531.614 565.728 524.69C552.464 516.38 540.166 506.6 527.95 496.887C521.689 491.919 517.606 484.624 510.183 479.177C519.24 512.74 544.306 545.792 586.439 562.355C586.802 562.668 587.198 562.974 587.627 563.246C588.287 563.675 589.838 564.666 591.067 564.847C591.1 564.864 591.141 564.888 591.174 564.913C589.871 573.57 587.817 582.161 585.54 590.612C583.857 596.842 582.01 603.04 580.187 609.238C580.113 609.485 580.038 609.725 579.964 609.964C575.601 599.665 571.65 589.233 562.956 581.072C549.693 568.61 537.403 555.192 524.634 542.243C517.475 534.989 513.416 525.482 506.174 518.162C509.045 539.116 517.219 557.849 528.676 575.204C540.925 593.756 557.702 607.455 577.284 618.068C576.343 620.882 575.494 623.713 574.908 626.593C568.359 636.215 560.746 645.178 552.34 653.455C550.534 639.351 546.847 625.941 538.062 614.363C529.476 603.032 521.327 591.363 512.394 580.296C504.013 569.931 499.963 557.28 493.406 545.734C492.581 546.625 491.822 547.079 491.83 547.475C493.62 590.768 509.325 627.237 544.694 653.909C546.113 654.982 547.705 655.865 548.686 656.962C544.843 660.56 540.85 664.018 536.734 667.352C534.268 669.11 531.86 670.967 529.435 672.593C524.906 675.613 520.213 678.361 515.429 680.944C515.239 680.103 515.19 679.054 515.19 677.883C515.181 666.494 512.938 655.865 508.038 645.318C498.124 624.035 485.232 603.89 481.388 580.065C481.305 579.561 479.969 579.289 478.963 578.777C474.072 613.331 481.157 644.567 500.26 672.84C502.949 676.818 509.358 679.492 509.886 683.833C503.881 686.886 497.711 689.601 491.566 692.341C488.514 693.711 485.388 694.891 482.204 695.939C480.901 696.36 479.548 696.682 478.188 696.987C477.14 696.806 476.026 696.814 474.863 696.979C474.814 695.815 475.086 694.223 475.614 692.151C477.396 685.186 476.233 678.023 474.872 670.95C472.686 659.611 469.65 648.413 469.205 636.702C469.081 633.566 471.523 629.679 466.78 626.7C460.635 646.721 458.358 666.172 464.536 685.764C467.118 693.942 468.141 697.309 465.848 699.834C464.495 700.363 463.192 700.858 461.996 701.204C455.405 703.119 448.543 704.175 441.787 705.199C435.692 706.115 429.588 706.94 423.484 707.749C418.197 708.45 412.2 709.44 406.946 708.656C406.699 708.623 406.649 708.937 406.699 709.333C406.674 709.333 406.658 709.341 406.633 709.341C406.658 709.341 406.682 709.35 406.707 709.35C406.79 709.936 407.086 710.703 407.317 710.843C411.202 713.08 416.82 711.966 421.199 711.693C427.6 711.297 434.075 710.489 440.459 709.672C440.525 709.663 440.591 709.655 440.666 709.647C440.839 709.622 441.004 709.605 441.177 709.581C446.646 708.879 452.114 708.013 457.534 706.882C457.855 707.014 458.16 707.146 458.466 707.295C458.523 707.32 458.573 707.344 458.631 707.377C459.587 707.856 460.453 708.442 461.188 709.226C461.633 709.705 462.029 710.241 462.359 710.876C467.432 720.78 476.761 726.672 485.256 733.216C494.495 740.338 516.79 745.603 527.711 743.086C507.007 734.091 492.573 718.7 475.259 707.006C477.536 706.651 479.812 705.999 481.924 705.364C487.615 703.639 493.2 701.345 498.751 699.207C498.883 699.339 499.023 699.463 499.138 699.603C514.67 716.859 534.466 727.283 557.496 732.218C573.811 735.708 590.365 736.732 606.953 733.521C607.291 731.128 606.169 730.427 604.99 730.295C591.52 728.793 580.352 721.885 568.276 717C549.272 709.308 533.08 695.378 511.387 693.661C513.004 692.853 514.588 691.995 516.171 691.136C516.18 691.136 516.18 691.136 516.18 691.128L516.188 691.12C517.639 690.328 519.066 689.51 520.493 688.677C520.922 688.429 521.351 688.174 521.78 687.918C523.009 687.192 524.222 686.441 525.434 685.673C526.226 685.17 527.01 684.658 527.793 684.146C528.692 683.552 529.608 682.966 530.507 682.356C532.264 681.159 534.013 679.929 535.745 678.658C535.885 678.774 536.025 678.889 536.182 679.013C536.19 679.021 536.198 679.03 536.207 679.038C560.82 699.372 590.266 706.478 622.353 704.984C632.737 704.497 643.584 704.043 653.433 699.009C653.606 698.918 653.779 698.836 653.952 698.745C654.827 698.283 655.693 697.804 656.55 697.26C632.49 696.707 611.217 687.555 589.706 679.83C574.504 674.367 559.582 670.191 543.242 672.964C544.537 671.941 545.841 670.901 547.136 669.836C547.705 669.366 548.274 668.887 548.843 668.417C549.536 667.839 550.221 667.253 550.905 666.667C551.615 666.048 552.324 665.438 553.033 664.811C553.561 664.34 554.089 663.861 554.609 663.383C555.368 662.69 556.118 662.013 556.861 661.303C556.861 661.295 556.869 661.295 556.877 661.287C556.877 661.278 556.894 661.27 556.894 661.27C558.114 660.115 559.327 658.943 560.498 657.746C565.175 659.24 569.101 662.426 573.852 663.663C613.123 673.921 651.544 669.927 688.835 652.341C692.835 650.459 698.444 649.576 700.754 644.468C699.945 643.998 699.409 643.412 699.005 643.502C673.212 649.131 647.667 646.292 622.097 644.072C603.249 642.43 584.468 641.555 566.75 650.806C569.052 648.008 571.155 645.103 573.052 642.091C573.069 642.075 573.085 642.05 573.093 642.033C573.093 642.025 573.102 642.017 573.102 642.009C574.603 639.607 575.989 637.148 577.168 634.59C577.539 634.573 577.902 634.548 578.216 634.54C597.377 634.202 615.935 630.595 633.694 622.821C642.404 619.95 650.339 615.625 657.779 610.335C674.02 600.96 687.177 588.21 700.993 573.521C697.735 573.892 695.912 573.57 694.839 574.296C674.021 588.408 649.96 594.268 626.568 601.934C611.333 606.927 595.719 611.606 584.699 624.505C583.371 627.088 581.936 629.432 579.37 629.077C579.882 627.575 580.335 626.048 580.715 624.497C584.583 618.027 587.94 611.284 590.77 604.344C592.37 602.19 594.341 600.762 597.509 599.789C634.626 588.383 663.215 565.961 683.976 533.867C686.913 529.32 690.88 525.144 691.73 518.897C690.22 519.747 688.958 520.135 688.142 520.952C671.843 537.242 651.849 548.383 632.432 560.465C621.52 567.249 609.353 573.067 602.854 585.099C601.369 590.348 597.129 593.55 593.467 597.189C595.71 590.785 597.517 584.257 598.87 577.663C599.084 576.64 599.265 575.625 599.439 574.602C599.455 574.503 599.48 574.412 599.488 574.313C599.612 573.941 599.727 573.562 599.826 573.19C599.859 573.058 599.901 572.926 599.925 572.794C599.991 572.547 600.049 572.307 600.107 572.052C600.148 571.87 600.189 571.68 600.231 571.49C600.255 571.375 600.288 571.259 600.305 571.136C600.61 569.691 600.882 568.239 601.328 566.836C601.328 566.828 601.328 566.828 601.328 566.82C601.583 566.011 601.897 565.21 602.309 564.443C603.249 562.685 604.701 561.092 607.151 559.813C647.733 538.678 671.744 504.661 686.368 463.563C687.152 461.368 686.319 460.155 684.249 458.694C676.338 469.918 668.519 481.075 658.34 490.83Z" fill="#628E32"/>
<g opacity="0.86">
<path opacity="0.59" fill-rule="evenodd" clip-rule="evenodd" d="M471.746 722.991C475.887 726.672 480.498 729.89 484.902 733.282C494.14 740.404 516.436 745.669 527.357 743.152C511.388 736.212 499.147 725.475 486.445 715.555C481.545 718.337 476.637 720.837 471.746 722.991Z" fill="#1D652E"/>
<path opacity="0.59" fill-rule="evenodd" clip-rule="evenodd" d="M567.923 717.057C550.717 710.092 535.812 698.01 517.039 694.52C512.683 698.019 508.18 701.41 503.594 704.629C518.325 718.931 536.414 727.835 557.142 732.275C573.458 735.766 590.012 736.789 606.6 733.579C606.938 731.186 605.816 730.484 604.636 730.352C591.167 728.85 579.998 721.943 567.923 717.057Z" fill="#1D652E"/>
<path opacity="0.59" fill-rule="evenodd" clip-rule="evenodd" d="M606.129 524.938C608.835 523.493 611.639 520.044 613.091 518.377C613.677 517.7 614.221 516.99 614.749 516.264C650.077 479.392 665.46 426.064 662.458 395.513C658.111 400.159 657.723 405.861 655.686 410.656C645.317 435.084 629.101 456.301 615.269 478.806C607.589 491.3 602.228 504.314 601.114 518.641C600.727 519.499 600.314 520.357 599.869 521.199C599.391 522.115 598.887 523.023 598.326 523.906C597.634 520.06 596.833 516.223 595.918 512.394C594.631 506.972 593.155 501.575 591.447 496.268C591.233 495.129 591.126 493.99 591.307 492.81C591.489 491.647 591.959 490.434 592.891 489.163C604.694 473.045 610.089 454.56 612.967 435.661C615.929 416.169 614.584 396.783 608.15 377.918C607.672 413.734 585.698 445.729 586.704 483.386C586.441 482.75 586.185 482.115 585.913 481.488C585.286 480.06 584.626 478.575 583.925 477.081C582.077 472.146 579.611 466.6 575.627 463.035C575.767 460.691 576.386 458.191 577.615 455.426C580.51 448.948 580.988 441.397 581.92 434.283C585.508 406.942 581.624 380.757 571.115 355.686C570.488 354.184 570.62 351.675 567.972 352.269C565.902 352.731 566.644 354.274 566.991 355.818C571.668 376.746 567.23 397.898 566.174 418.958C565.778 426.79 565.135 434.646 564.45 444.434C564.401 445.143 564.351 445.837 564.294 446.563C559.13 440.786 553.76 435.381 548.317 430.157C556.738 443.468 564.805 456.887 571.808 470.545C576.006 473.945 578.844 478.946 580.543 485.796C579.867 485.35 579.198 484.913 578.522 484.475C593.097 516.933 600.562 550.941 591.868 588.169C583.545 623.828 563.964 647.166 552.375 660.668C547.195 666.708 541.058 673.121 534.27 679.525C534.641 679.252 535.012 678.997 535.383 678.724C535.523 678.84 535.664 678.955 535.82 679.079C535.828 679.087 535.837 679.096 535.845 679.104C560.458 699.438 589.905 706.544 621.991 705.05C632.376 704.563 643.222 704.109 653.071 699.075C653.244 698.984 653.417 698.902 653.591 698.811C654.465 698.349 655.331 697.87 656.189 697.325C632.128 696.773 610.856 687.62 589.344 679.896C574.142 674.433 559.221 670.257 542.881 673.03C544.176 672.007 545.479 670.967 546.774 669.902C547.343 669.432 547.912 668.953 548.482 668.483C549.174 667.905 549.859 667.319 550.544 666.733C551.253 666.114 551.962 665.504 552.672 664.876C553.2 664.406 553.727 663.927 554.247 663.449C555.006 662.755 555.757 662.079 556.499 661.369C556.499 661.361 556.507 661.361 556.515 661.353C556.515 661.344 556.532 661.336 556.532 661.336C557.753 660.181 558.965 659.009 560.136 657.812C564.813 659.306 568.74 662.491 573.491 663.729C612.761 673.987 651.182 669.993 688.473 652.407C692.473 650.525 698.082 649.642 700.392 644.534C699.584 644.063 699.047 643.477 698.643 643.568C672.851 649.197 647.305 646.358 621.735 644.138C602.888 642.495 584.106 641.621 566.389 650.872C568.69 648.074 570.793 645.169 572.69 642.149C572.707 642.132 572.723 642.108 572.732 642.091C572.732 642.083 572.74 642.075 572.74 642.066C574.241 639.665 575.627 637.206 576.806 634.647C577.178 634.631 577.541 634.606 577.854 634.598C597.015 634.259 615.574 630.653 633.333 622.879C642.043 620.007 649.978 615.683 657.418 610.393C673.659 601.018 686.815 588.268 700.631 573.578C697.373 573.95 695.55 573.628 694.478 574.354C673.659 588.466 649.598 594.317 626.206 601.992C610.971 606.985 595.357 611.664 584.337 624.563C583.009 627.146 581.574 629.489 579.009 629.134C579.52 627.633 579.974 626.106 580.353 624.554C584.222 618.084 587.579 611.342 590.408 604.402C592.008 602.248 593.98 600.82 597.147 599.846C634.265 588.441 662.854 566.019 683.615 533.925C686.551 529.377 690.519 525.202 691.368 518.954C689.859 519.804 688.597 520.192 687.78 521.009C671.481 537.3 651.487 548.441 632.071 560.523C621.158 567.306 608.992 573.124 602.492 585.157C601.007 590.405 596.768 593.607 593.105 597.247C595.349 590.843 597.155 584.315 598.508 577.721C598.722 576.698 598.904 575.683 599.077 574.659C599.094 574.56 599.118 574.469 599.127 574.37C599.25 573.999 599.366 573.619 599.465 573.248C599.498 573.116 599.531 572.984 599.564 572.852C599.63 572.604 599.687 572.365 599.745 572.109C599.786 571.928 599.828 571.738 599.869 571.556C599.894 571.441 599.927 571.325 599.943 571.201C600.248 569.757 600.521 568.305 600.966 566.902C600.966 566.894 600.966 566.894 600.966 566.885C601.222 566.077 601.535 565.276 601.947 564.509C602.888 562.751 604.34 561.158 606.789 559.879C647.371 538.744 671.382 504.727 686.007 463.629C686.79 461.434 685.957 460.221 683.887 458.76C675.927 469.975 668.108 481.133 657.929 490.879C644.534 503.72 629.324 514.902 618.057 529.798C613.982 536.673 609.899 543.547 605.816 550.421C604.768 552.188 603.704 553.937 601.882 554.251C601.601 554.3 601.296 554.317 600.974 554.292C601.09 546.114 600.463 537.968 599.267 529.873C601.881 529.105 604.232 526.943 606.129 524.938Z" fill="#1D652E"/>
</g>
<path opacity="0.59" fill-rule="evenodd" clip-rule="evenodd" d="M999.652 222.708C1013.05 235.549 1028.26 246.731 1039.53 261.627C1043.6 268.501 1047.68 275.376 1051.77 282.25C1052.81 284.016 1053.88 285.766 1055.7 286.079C1055.98 286.129 1056.29 286.145 1056.61 286.121C1056.49 277.942 1057.12 269.797 1058.31 261.701C1055.73 260.925 1053.38 258.763 1051.49 256.758C1048.79 255.314 1045.98 251.864 1044.53 250.197C1043.95 249.52 1043.4 248.811 1042.87 248.084C1007.55 211.212 992.163 157.884 995.165 127.333C999.512 131.979 999.9 137.682 1001.94 142.476C1012.31 166.904 1028.52 188.121 1042.35 210.626C1050.03 223.12 1055.39 236.135 1056.52 250.461C1056.9 251.328 1057.32 252.178 1057.76 253.019C1058.24 253.936 1058.74 254.843 1059.3 255.726C1060 251.881 1060.8 248.043 1061.71 244.214C1063 238.792 1064.48 233.395 1066.18 228.088C1066.4 226.95 1066.51 225.811 1066.32 224.631C1066.14 223.467 1065.67 222.254 1064.74 220.983C1052.94 204.866 1047.54 186.38 1044.66 167.482C1041.7 147.989 1043.05 128.604 1049.48 109.738C1049.96 145.554 1071.93 177.55 1070.93 215.206C1071.19 214.571 1071.45 213.935 1071.72 213.308C1072.35 211.88 1073.01 210.395 1073.71 208.901C1075.55 203.966 1078.02 198.42 1082.01 194.855C1081.87 192.512 1081.25 190.011 1080.02 187.246C1077.13 180.768 1076.65 173.217 1075.72 166.103C1072.13 138.763 1076.02 112.577 1086.52 87.5059C1087.15 86.0039 1087.02 83.4952 1089.67 84.0893C1091.74 84.5515 1090.99 86.0947 1090.65 87.6379C1085.97 108.566 1090.41 129.718 1091.47 150.778C1091.86 158.61 1092.5 166.467 1093.19 176.254C1093.24 176.964 1093.29 177.657 1093.35 178.383C1117.46 151.414 1146.18 132.326 1165.16 103.978C1167.38 106.165 1166.72 107.535 1166.22 108.954C1159.52 128.34 1150 146.239 1136.34 161.655C1122.83 176.923 1107.55 190.275 1089.16 200.162C1083.08 203.422 1079.21 209.099 1077.1 217.624C1099.95 202.472 1124.8 192.999 1144.94 176.196C1130.41 206.12 1105.8 224.54 1073.99 234.847C1073.91 234.715 1073.82 234.616 1073.73 234.517C1073.13 235.136 1072.54 235.755 1071.93 236.374C1071.85 236.481 1071.77 236.58 1071.69 236.679C1071.62 236.77 1071.56 236.844 1071.5 236.927C1071.39 237.43 1071.27 237.934 1071.16 238.437C1068.06 252.698 1065.05 266.9 1065.43 281.656C1065.44 281.895 1065.45 282.135 1065.46 282.374C1072.3 271.893 1081.22 263.492 1092.27 256.568C1105.53 248.258 1117.83 238.478 1130.04 228.765C1136.3 223.797 1140.39 216.502 1147.81 211.055C1138.75 244.618 1113.69 277.67 1071.55 294.233C1071.19 294.546 1070.79 294.852 1070.37 295.124C1069.71 295.553 1068.16 296.544 1066.93 296.725C1066.89 296.742 1066.85 296.766 1066.82 296.791C1068.12 305.448 1070.18 314.039 1072.45 322.49C1074.14 328.72 1075.98 334.918 1077.81 341.116C1077.88 341.363 1077.95 341.603 1078.03 341.842C1082.39 331.543 1086.34 321.111 1095.04 312.95C1108.3 300.488 1120.59 287.07 1133.36 274.121C1140.52 266.867 1144.58 257.36 1151.82 250.04C1148.95 270.994 1140.77 289.727 1129.32 307.082C1117.07 325.634 1100.29 339.333 1080.71 349.946C1081.65 352.76 1082.5 355.591 1083.08 358.471C1089.63 368.093 1097.25 377.056 1105.65 385.333C1107.46 371.229 1111.15 357.819 1119.93 346.241C1128.52 334.91 1136.67 323.241 1145.6 312.174C1153.98 301.809 1158.03 289.157 1164.59 277.612C1165.41 278.503 1166.17 278.957 1166.16 279.353C1164.37 322.646 1148.67 359.115 1113.3 385.787C1111.88 386.86 1110.29 387.743 1109.31 388.84C1113.15 392.438 1117.14 395.896 1121.26 399.23C1123.72 400.988 1126.13 402.845 1128.56 404.471C1133.09 407.491 1137.78 410.239 1142.56 412.822C1142.75 411.98 1142.8 410.932 1142.8 409.761C1142.81 398.372 1145.05 387.743 1149.95 377.196C1159.87 355.913 1172.76 335.776 1176.6 311.943C1176.69 311.439 1178.02 311.167 1179.03 310.655C1183.92 345.209 1176.84 376.445 1157.73 404.718C1155.04 408.696 1148.63 411.37 1148.11 415.711C1154.11 418.764 1160.28 421.479 1166.43 424.219C1169.48 425.589 1172.6 426.769 1175.79 427.817C1177.09 428.238 1178.44 428.56 1179.81 428.865C1180.85 428.684 1181.97 428.692 1183.13 428.857C1183.18 427.693 1182.91 426.101 1182.38 424.029C1180.6 417.064 1181.76 409.901 1183.12 402.828C1185.31 391.489 1188.34 380.291 1188.79 368.58C1188.91 365.444 1186.47 361.557 1191.21 358.578C1197.36 378.599 1199.63 398.05 1193.46 417.642C1190.87 425.82 1189.85 429.187 1192.14 431.712C1193.5 432.241 1194.8 432.736 1196 433.082C1202.59 434.997 1209.45 436.053 1216.21 437.077C1222.3 437.993 1228.41 438.818 1234.51 439.627C1239.8 440.328 1245.79 441.318 1251.05 440.534C1251.29 440.501 1251.34 440.815 1251.29 441.211C1251.32 441.211 1251.34 441.219 1251.36 441.219C1251.34 441.219 1251.31 441.228 1251.29 441.228C1251.2 441.814 1250.91 442.581 1250.68 442.721C1246.79 444.958 1241.17 443.844 1236.79 443.571C1230.39 443.175 1223.92 442.366 1217.53 441.549C1217.47 441.541 1217.4 441.533 1217.33 441.525C1217.15 441.5 1216.99 441.483 1216.82 441.459C1211.35 440.757 1205.88 439.891 1200.46 438.76C1200.14 438.892 1199.83 439.024 1199.53 439.173C1199.47 439.197 1199.42 439.222 1199.36 439.255C1198.41 439.734 1197.54 440.32 1196.81 441.104C1196.36 441.582 1195.96 442.119 1195.63 442.754C1190.56 452.657 1181.23 458.55 1172.74 465.094C1163.5 472.216 1141.2 477.481 1130.28 474.964C1150.99 465.969 1165.42 450.578 1182.73 438.884C1180.46 438.529 1178.18 437.877 1176.07 437.242C1170.38 435.517 1164.79 433.223 1159.24 431.085C1159.11 431.217 1158.97 431.341 1158.85 431.481C1143.32 448.737 1123.53 459.16 1100.5 464.095C1084.18 467.586 1067.63 468.61 1051.04 465.399C1050.7 463.006 1051.82 462.305 1053 462.173C1066.47 460.671 1077.64 453.763 1089.72 448.878C1108.72 441.186 1124.91 427.256 1146.61 425.539C1144.99 424.731 1143.41 423.872 1141.82 423.014C1141.81 423.014 1141.81 423.014 1141.81 423.006L1141.8 422.998C1140.35 422.205 1138.93 421.388 1137.5 420.555C1137.07 420.307 1136.64 420.052 1136.21 419.796C1134.98 419.069 1133.77 418.318 1132.56 417.551C1131.77 417.048 1130.98 416.536 1130.2 416.024C1129.3 415.43 1128.38 414.844 1127.49 414.233C1125.73 413.037 1123.98 411.807 1122.25 410.536C1122.11 410.652 1121.97 410.767 1121.81 410.891C1121.8 410.899 1121.79 410.908 1121.79 410.916C1097.17 431.25 1067.73 438.356 1035.64 436.862C1025.26 436.375 1014.41 435.921 1004.56 430.887C1004.39 430.796 1004.21 430.714 1004.04 430.623C1003.17 430.161 1002.3 429.682 1001.44 429.138C1025.5 428.585 1046.78 419.433 1068.29 411.708C1083.49 406.245 1098.41 402.069 1114.75 404.842C1113.46 403.819 1112.15 402.779 1110.86 401.714C1110.29 401.244 1109.72 400.765 1109.15 400.295C1108.46 399.717 1107.77 399.131 1107.09 398.545C1106.38 397.926 1105.67 397.316 1104.96 396.688C1104.43 396.218 1103.9 395.739 1103.38 395.261C1102.63 394.568 1101.87 393.891 1101.13 393.181C1101.13 393.173 1101.12 393.173 1101.12 393.165C1101.12 393.156 1101.1 393.148 1101.1 393.148C1099.88 391.993 1098.67 390.821 1097.49 389.624C1092.82 391.118 1088.89 394.303 1084.14 395.541C1044.87 405.799 1006.45 401.805 969.158 384.219C965.158 382.337 959.549 381.454 957.239 376.346C958.048 375.875 958.584 375.29 958.988 375.38C984.781 381.009 1010.33 378.17 1035.9 375.95C1054.74 374.307 1073.52 373.433 1091.24 382.684C1088.94 379.886 1086.84 376.981 1084.94 373.969C1084.92 373.953 1084.91 373.928 1084.9 373.911C1084.9 373.903 1084.89 373.895 1084.89 373.887C1083.39 371.485 1082 369.026 1080.82 366.468C1080.45 366.451 1080.09 366.426 1079.78 366.418C1060.62 366.08 1042.06 362.473 1024.3 354.699C1015.59 351.828 1007.65 347.503 1000.21 342.213C983.972 332.838 970.816 320.088 957 305.399C960.258 305.77 962.081 305.448 963.153 306.174C983.972 320.286 1008.03 326.146 1031.43 333.812C1046.66 338.805 1062.27 343.484 1073.29 356.383C1074.62 358.966 1076.06 361.31 1078.62 360.955C1078.11 359.453 1077.66 357.926 1077.28 356.375C1073.41 349.905 1070.05 343.162 1067.22 336.222C1065.62 334.068 1063.65 332.64 1060.48 331.666C1023.37 320.261 994.778 297.839 974.016 265.745C971.08 261.198 967.112 257.022 966.263 250.775C967.772 251.625 969.034 252.013 969.851 252.83C986.15 269.12 1006.14 280.261 1025.56 292.343C1036.46 299.127 1048.64 304.945 1055.14 316.977C1056.62 322.226 1060.86 325.428 1064.53 329.067C1062.28 322.663 1060.48 316.135 1059.12 309.541C1058.91 308.518 1058.73 307.503 1058.55 306.48C1058.54 306.381 1058.51 306.29 1058.5 306.191C1058.38 305.819 1058.27 305.44 1058.17 305.068C1058.13 304.936 1058.1 304.804 1058.07 304.672C1058 304.425 1057.94 304.185 1057.89 303.93C1057.84 303.748 1057.8 303.558 1057.76 303.368C1057.74 303.253 1057.7 303.137 1057.69 303.014C1057.38 301.569 1057.11 300.117 1056.67 298.714C1056.67 298.706 1056.67 298.706 1056.67 298.697C1056.41 297.889 1056.1 297.088 1055.68 296.321C1054.74 294.563 1053.29 292.97 1050.84 291.691C1010.26 270.556 986.249 236.539 971.624 195.441C970.841 193.246 971.674 192.033 973.744 190.572C981.654 201.804 989.466 212.961 999.652 222.708Z" fill="#628E32"/>
<g opacity="0.86">
<path opacity="0.59" fill-rule="evenodd" clip-rule="evenodd" d="M1090.06 448.944C1107.27 441.978 1122.17 429.897 1140.95 426.406C1145.3 429.905 1149.81 433.297 1154.39 436.515C1139.66 450.817 1121.57 459.721 1100.84 464.161C1084.53 467.652 1067.97 468.675 1051.39 465.465C1051.05 463.072 1052.17 462.37 1053.35 462.238C1066.83 460.736 1078 453.829 1090.06 448.944Z" fill="#1D652E"/>
<path opacity="0.59" fill-rule="evenodd" clip-rule="evenodd" d="M1051.86 256.824C1049.16 255.38 1046.36 251.93 1044.9 250.263C1044.32 249.586 1043.77 248.877 1043.25 248.15C1007.92 211.278 992.534 157.95 995.537 127.399C999.884 132.045 1000.27 137.747 1002.31 142.542C1012.68 166.97 1028.89 188.187 1042.73 210.692C1050.4 223.186 1055.77 236.201 1056.88 250.527C1057.27 251.385 1057.68 252.244 1058.13 253.085C1058.6 254.001 1059.11 254.909 1059.67 255.792C1060.36 251.947 1061.16 248.109 1062.08 244.28C1063.36 238.858 1064.84 233.461 1066.55 228.154C1066.76 227.016 1066.87 225.877 1066.69 224.697C1066.51 223.533 1066.04 222.32 1065.1 221.049C1053.3 204.932 1047.91 186.446 1045.03 167.547C1042.07 148.055 1043.41 128.67 1049.84 109.804C1050.32 145.62 1072.3 177.616 1071.29 215.272C1071.55 214.637 1071.81 214.001 1072.08 213.374C1072.71 211.946 1073.37 210.461 1074.07 208.967C1075.92 204.032 1078.38 198.486 1082.37 194.921C1082.23 192.578 1081.61 190.077 1080.38 187.312C1077.48 180.834 1077.01 173.283 1076.07 166.169C1072.49 138.829 1076.37 112.643 1086.88 87.5718C1087.51 86.0699 1087.37 83.5611 1090.02 84.1553C1092.09 84.6174 1091.35 86.1606 1091 87.7039C1086.33 108.632 1090.76 129.784 1091.82 150.844C1092.22 158.676 1092.86 166.532 1093.54 176.32C1093.59 177.03 1093.64 177.723 1093.7 178.449C1098.86 172.672 1104.23 167.267 1109.68 162.043C1101.26 175.354 1093.19 188.773 1086.19 202.431C1081.99 205.831 1079.15 210.832 1077.45 217.682C1078.13 217.236 1078.8 216.799 1079.47 216.361C1064.9 248.819 1057.43 282.828 1066.13 320.055C1074.45 355.714 1094.03 379.053 1105.62 392.554C1110.8 398.595 1116.94 405.007 1123.72 411.411C1123.35 411.147 1122.97 410.883 1122.61 410.61C1122.47 410.726 1122.33 410.842 1122.17 410.965C1122.17 410.974 1122.16 410.982 1122.15 410.99C1097.54 431.324 1068.09 438.43 1036 436.936C1025.62 436.449 1014.77 435.995 1004.92 430.961C1004.75 430.871 1004.58 430.788 1004.4 430.697C1003.53 430.235 1002.66 429.756 1001.81 429.212C1025.87 428.659 1047.14 419.507 1068.65 411.782C1083.85 406.319 1098.77 402.143 1115.11 404.916C1113.82 403.893 1112.52 402.853 1111.22 401.788C1110.65 401.318 1110.08 400.839 1109.51 400.369C1108.82 399.791 1108.14 399.205 1107.45 398.62C1106.74 398.001 1106.03 397.39 1105.32 396.763C1104.79 396.292 1104.27 395.814 1103.75 395.335C1102.99 394.642 1102.24 393.965 1101.5 393.255C1101.5 393.247 1101.49 393.247 1101.48 393.239C1101.48 393.231 1101.46 393.222 1101.46 393.222C1100.24 392.067 1099.03 390.895 1097.86 389.698C1093.18 391.192 1089.25 394.378 1084.5 395.616C1045.23 405.874 1006.81 401.879 969.521 384.293C965.521 382.411 959.912 381.528 957.602 376.42C958.411 375.95 958.947 375.364 959.351 375.455C985.144 381.083 1010.69 378.244 1036.26 376.024C1055.11 374.382 1073.89 373.507 1091.61 382.758C1089.3 379.96 1087.2 377.056 1085.3 374.035C1085.29 374.019 1085.27 373.994 1085.26 373.977C1085.26 373.969 1085.25 373.961 1085.25 373.953C1083.75 371.551 1082.37 369.092 1081.19 366.534C1080.82 366.517 1080.45 366.492 1080.14 366.484C1060.98 366.146 1042.42 362.539 1024.66 354.765C1015.95 351.893 1008.02 347.569 1000.58 342.279C984.335 332.904 971.179 320.154 957.363 305.464C960.621 305.836 962.444 305.514 963.517 306.24C984.335 320.352 1008.4 326.203 1031.79 333.878C1047.02 338.871 1062.64 343.55 1073.66 356.449C1074.99 359.032 1076.42 361.376 1078.99 361.029C1078.47 359.527 1078.02 358 1077.64 356.449C1073.77 349.979 1070.42 343.236 1067.59 336.296C1065.99 334.142 1064.01 332.714 1060.85 331.741C1023.73 320.336 995.141 297.913 974.38 265.819C971.443 261.272 967.476 257.096 966.626 250.849C968.136 251.699 969.398 252.087 970.214 252.904C986.513 269.194 1006.51 280.335 1025.92 292.417C1036.84 299.201 1049 305.019 1055.5 317.051C1056.99 322.3 1061.23 325.502 1064.89 329.141C1062.65 322.737 1060.84 316.209 1059.49 309.615C1059.27 308.592 1059.09 307.577 1058.92 306.554C1058.9 306.455 1058.88 306.364 1058.87 306.265C1058.74 305.894 1058.63 305.514 1058.53 305.143C1058.5 305.011 1058.46 304.879 1058.43 304.746C1058.36 304.499 1058.31 304.26 1058.25 304.004C1058.21 303.822 1058.17 303.632 1058.13 303.443C1058.1 303.327 1058.07 303.212 1058.05 303.088C1057.75 301.644 1057.47 300.191 1057.03 298.788C1057.03 298.78 1057.03 298.78 1057.03 298.772C1056.77 297.963 1056.46 297.162 1056.05 296.395C1055.11 294.637 1053.65 293.044 1051.21 291.765C1010.62 270.63 986.612 236.613 971.988 195.515C971.204 193.32 972.037 192.107 974.107 190.646C982.067 201.862 989.887 213.019 1000.07 222.765C1013.46 235.606 1028.67 246.789 1039.94 261.685C1044.01 268.559 1048.1 275.433 1052.18 282.308C1053.23 284.074 1054.29 285.823 1056.11 286.137C1056.39 286.186 1056.7 286.203 1057.02 286.178C1056.9 278 1057.53 269.855 1058.73 261.759C1056.1 260.983 1053.75 258.821 1051.86 256.824Z" fill="#1D652E"/>
</g>
<path d="M654.737 441.546C656.042 443.035 657.337 444.538 658.642 446.027C659.87 446.911 660.565 447.536 660.565 447.536C660.565 447.536 660.422 447.662 660.226 447.849C669.282 458.234 678.293 468.698 687.219 479.336L696.818 490.938C705.624 501.609 714.359 512.406 722.961 523.429L732.648 536.201C743.191 550.668 753.177 565.96 763.359 580.926L768.835 588.904C768.835 588.904 768.795 588.857 768.777 588.837C773.692 595.918 778.687 602.872 783.847 609.567C787.703 614.574 791.652 619.427 795.659 624.188L799.541 628.649C808.743 639.266 818.275 649.292 828.119 658.6L836.511 666.246C847.957 676.478 859.737 685.833 871.762 694.323L877.216 698.152C877.773 698.531 878.325 698.95 878.881 699.323C889.183 706.25 899.677 712.427 910.313 717.905L913.385 719.474C924.804 725.185 936.389 730.019 948.106 733.941L972.019 740.623C991.799 745.011 1011.86 746.72 1032.05 745.41C1034.86 745.224 1037.75 758.195 1039 758.116C995.775 760.915 952.884 749.891 912.387 728.264C911.203 741.667 907.806 773.693 901.066 791.371C892.393 814.116 871.802 864 871.802 864C848.803 769.391 890.479 734.786 906.765 725.192C896.075 719.188 885.564 712.453 875.266 705.034C870.413 712.859 857.03 733.503 846.074 741.594C832.437 751.666 801.393 772.782 801.393 772.782C814.633 700.719 850.597 696.896 867.773 699.495C856.581 690.985 845.664 681.664 835.059 671.625C834.436 672.177 833.639 672.868 832.7 673.673C832.615 673.832 832.557 673.932 832.557 673.932C832.557 673.932 832.531 673.872 832.513 673.826C826.173 679.224 813.779 689.024 804.634 691.59C791.839 695.174 763.02 701.896 763.02 701.896C784.942 651.693 813.022 656.971 827.335 664.132C820.514 657.344 813.827 650.27 807.305 642.897C804.033 639.2 800.881 635.35 797.778 631.448C797.729 631.521 797.666 631.621 797.666 631.621C797.666 631.621 797.595 631.408 797.484 631.069C797.373 630.929 797.266 630.79 797.159 630.65C792.431 634.845 777.334 647.697 766.662 650.682C753.867 654.266 725.049 660.987 725.049 660.987C748.956 606.237 780.188 617.473 792.903 625.178C783.54 612.825 774.743 599.728 765.879 586.623C762.998 589.236 746.022 604.315 734.34 607.586C721.545 611.17 692.727 617.891 692.727 617.891C719.902 555.655 756.538 578.672 764.677 584.855C759.485 577.189 754.254 569.537 748.849 562.057C743.017 553.979 737.083 546.067 731.072 538.275C728.076 540.988 711.777 555.409 700.531 558.553C688.11 562.03 660.133 568.559 660.133 568.559C685.817 509.733 720.205 529.366 729.296 535.982C717.654 520.956 705.731 506.396 693.684 492.088C688.497 496.642 674.424 508.397 664.371 511.216C651.839 514.726 623.608 521.308 623.608 521.308C645.539 471.072 673.761 477.548 687.487 484.775C682.487 478.891 677.474 473.027 672.447 467.209C667.586 461.578 662.724 455.78 657.831 449.976C653.09 454.045 643.108 462.063 635.811 464.104C625.919 466.877 603.636 472.069 603.636 472.069C619.379 436.014 639.231 436.978 650.846 441.732C645.552 435.522 640.206 429.406 634.77 423.528C623.194 417.551 596.629 400.797 582.952 389.541C571.283 379.941 559.886 378.438 554 378.804C565.299 373.864 599.718 359.822 639.453 423.941C642.596 427.597 645.731 431.247 648.856 434.844L654.737 441.546Z" fill="#1D652E"/>
</g>
<defs>
<clipPath id="clip0">
<rect width="1174" height="952" fill="white"/>
</clipPath>
</defs>
</svg>
