<svg width="162" height="37" viewBox="0 0 162 37" fill="none" xmlns="http://www.w3.org/2000/svg">
<path d="M20.3321 0C19.9858 0.346284 20.4086 0.34427 20.5395 0.384536C22.0615 0.861682 23.2131 1.85423 24.3023 2.96757C27.5577 6.29149 30.8414 9.58722 34.1049 12.9031C37.3382 16.1888 37.3322 20.8334 34.1009 24.117C30.8374 27.4329 27.5577 30.7347 24.3143 34.0687C23.1768 35.2384 21.9467 36.2309 20.3663 36.7302C20.3099 36.7483 20.2516 36.8108 20.2294 36.8671C20.2193 36.8953 20.2918 36.9537 20.3281 37C18.9188 37 17.5095 37 16.1022 37C16.1485 36.9618 16.2351 36.9215 16.231 36.8893C16.225 36.8329 16.1747 36.7524 16.1243 36.7342C14.8882 36.2732 13.7809 35.629 12.8447 34.6787C9.44629 31.2259 6.0358 27.7812 2.61323 24.3506C1.6529 23.3882 0.875775 22.3293 0.410708 21.0468C0.360377 20.9059 0.448961 20.4307 0 20.7146C0 19.3073 0 17.9 0 16.4928C0.0463054 16.527 0.0885842 16.5652 0.140929 16.5894C0.153009 16.5954 0.201328 16.5532 0.211394 16.527C0.70062 15.1982 1.36299 13.9903 2.37969 12.9655C5.80226 9.52481 9.20269 6.06198 12.5951 2.5931C13.5514 1.61263 14.6265 0.853629 15.919 0.402655C16.0921 0.342257 16.4968 0.432855 16.3055 0C17.6484 0 18.9892 0 20.3321 0ZM27.3725 18.4537C27.3423 17.4752 27.0021 16.5813 26.2934 15.8586C24.5137 14.0406 22.742 12.2146 20.926 10.4328C19.3295 8.86848 17.137 8.89868 15.5425 10.4811C13.7829 12.2246 12.0414 13.9842 10.318 15.764C8.75775 17.3766 8.7497 19.6516 10.304 21.2582C12.0253 23.0399 13.7668 24.8016 15.5264 26.5451C17.1571 28.1637 19.3476 28.1738 20.9824 26.5612C22.746 24.8217 24.4734 23.046 26.2108 21.2803C26.9719 20.5093 27.3645 19.5771 27.3725 18.4537Z" fill="white"/>
<path d="M161.026 30.3642C159.856 30.3803 158.685 30.3763 157.517 30.4186C156.971 30.4387 156.754 30.2857 156.756 29.6958C156.776 24.6827 156.766 19.6697 156.768 14.6566C156.768 14.3224 156.722 13.9379 157.233 13.954C158.497 13.9963 159.77 13.801 161.026 14.0768C161.026 19.5046 161.026 24.9344 161.026 30.3642Z" fill="white"/>
<path d="M161.026 10.6583C159.87 10.4449 158.705 10.5858 157.545 10.5798C156.929 10.5758 156.724 10.3825 156.752 9.77045C156.796 8.8061 156.804 7.83368 156.75 6.87134C156.709 6.17676 157.005 6.03381 157.623 6.04992C158.755 6.08213 159.89 6.04388 161.024 6.03381C161.026 7.57397 161.026 9.11614 161.026 10.6583Z" fill="white"/>
<path d="M61.4107 18.1417C64.7587 19.7764 65.7694 21.5199 65.4453 24.858C65.1896 27.4752 63.7138 29.2288 61.1429 29.9254C59.941 30.2515 58.7088 30.3925 57.4626 30.3945C54.4447 30.4005 51.4268 30.3864 48.4089 30.4247C47.7123 30.4327 47.5009 30.2354 47.5029 29.5267C47.5271 22.0555 47.519 14.5862 47.515 7.11495C47.515 6.64988 47.4949 6.25931 48.1653 6.27541C51.751 6.35594 55.3426 6.09824 58.9223 6.44654C62.5643 6.80289 64.4869 8.86247 64.6077 12.3777C64.6943 14.8922 63.9152 16.9236 61.4107 18.1417ZM51.904 23.4849C51.904 24.3869 51.912 25.2888 51.8999 26.1907C51.8939 26.5793 51.9805 26.829 52.4435 26.8209C54.4145 26.7826 56.3936 26.9477 58.3545 26.7001C59.3732 26.5713 60.2933 26.1807 60.7765 25.1519C61.8194 22.9252 60.7181 20.7348 58.3082 20.2878C56.452 19.9435 54.5716 20.2153 52.7053 20.1086C51.9986 20.0684 51.8617 20.3684 51.8919 20.9824C51.9322 21.8139 51.902 22.6494 51.904 23.4849ZM51.902 13.193C51.902 14.0628 51.9322 14.9325 51.8919 15.8002C51.8637 16.38 52.0831 16.5472 52.6408 16.5331C54.1468 16.4968 55.6547 16.5552 57.1566 16.4888C59.0853 16.4022 60.1322 15.2083 60.1604 13.191C60.1886 11.0791 59.2806 9.99394 57.2512 9.88924C55.6829 9.80871 54.1065 9.87717 52.5341 9.85301C52.059 9.84495 51.8818 10.006 51.8939 10.4852C51.9221 11.3871 51.904 12.2911 51.902 13.193Z" fill="white"/>
<path d="M79.8281 20.9623C79.8724 18.5906 80.569 15.8546 83.0353 13.9661C85.9827 11.7092 89.3127 11.52 92.6587 12.8467C95.8498 14.1091 97.2389 16.7847 97.6537 20.0623C97.8449 21.5803 97.7463 23.0782 97.3758 24.5499C96.2363 29.0778 92.2339 31.6024 87.3719 30.8857C82.5863 30.181 79.8362 26.7786 79.8281 20.9623ZM93.4036 21.4857C93.4379 20.5032 93.2808 19.5489 92.9305 18.6349C92.2319 16.8089 90.879 15.8727 88.9382 15.8445C86.8424 15.8123 85.4371 16.6921 84.6982 18.5665C83.9996 20.3402 83.9815 22.1622 84.5191 23.9781C85.1553 26.1263 86.6088 27.1954 88.8053 27.1994C90.9555 27.2034 92.3588 26.1625 93.0453 24.0546C93.3191 23.2191 93.4298 22.3615 93.4036 21.4857Z" fill="white"/>
<path d="M123.263 19.5549C123.672 19.1281 124.056 18.7335 124.435 18.3309C125.905 16.7686 127.372 15.2022 128.842 13.6399C129.114 13.35 129.351 13.0521 129.834 13.0621C131.272 13.0923 132.711 13.0722 134.195 13.0722C134.203 13.5493 133.847 13.7386 133.617 13.9842C131.811 15.921 130.012 17.8658 128.165 19.7623C127.672 20.2697 127.624 20.5797 128.083 21.1555C130.316 23.962 132.496 26.8088 134.69 29.6455C134.827 29.8227 135.057 30.0683 135.015 30.2213C134.924 30.5555 134.564 30.3562 134.322 30.4085C134.258 30.4226 134.189 30.4125 134.121 30.4105C132.816 30.3864 131.33 30.7407 130.259 30.2293C129.226 29.7381 128.614 28.357 127.827 27.3584C126.935 26.2269 126.041 25.0955 125.178 23.9419C124.87 23.5312 124.693 23.4688 124.262 23.8533C123.378 24.6425 122.911 25.5082 123.046 26.7383C123.154 27.7309 123.048 28.7476 123.074 29.7522C123.088 30.2736 122.893 30.4709 122.373 30.4548C121.536 30.4286 120.692 30.3944 119.859 30.4649C119.023 30.5354 118.868 30.179 118.87 29.428C118.894 22.9614 118.884 16.4927 118.884 10.0261C118.884 8.98725 118.904 7.9484 118.878 6.90955C118.866 6.39818 119.033 6.18879 119.567 6.21094C120.438 6.24517 121.314 6.26329 122.182 6.20691C122.899 6.1586 123.086 6.42233 123.08 7.11289C123.05 10.8656 123.064 14.6184 123.072 18.3731C123.072 18.7255 122.965 19.104 123.263 19.5549Z" fill="white"/>
<path d="M138.282 18.4013C138.282 14.719 138.304 11.0347 138.264 7.35246C138.256 6.55722 138.413 6.25321 139.293 6.26126C143.649 6.30757 148.006 6.30153 152.363 6.26529C153.15 6.25925 153.454 6.46662 153.368 7.27193C153.269 8.19602 153.744 9.38788 153.188 9.99187C152.617 10.612 151.411 10.1771 150.485 10.1892C148.139 10.2234 145.792 10.2174 143.446 10.1892C142.836 10.1811 142.629 10.3643 142.641 10.9864C142.677 12.6937 142.677 14.4009 142.641 16.1082C142.629 16.7223 142.824 16.9095 143.44 16.9014C145.92 16.8712 148.401 16.9135 150.879 16.8732C151.572 16.8632 151.843 17.0363 151.783 17.7591C151.723 18.4899 151.731 19.2328 151.781 19.9677C151.825 20.5998 151.58 20.7589 150.978 20.7508C148.497 20.7226 146.017 20.7629 143.539 20.7246C142.826 20.7126 142.629 20.9441 142.637 21.6367C142.671 24.2479 142.623 26.8591 142.667 29.4703C142.679 30.2313 142.45 30.477 141.701 30.4246C140.867 30.3642 140.022 30.3562 139.19 30.4266C138.397 30.4931 138.256 30.1649 138.262 29.4502C138.3 25.7679 138.282 22.0836 138.282 18.4013Z" fill="white"/>
<path d="M113.86 25.7861C114.217 26.8088 114.561 27.8195 114.921 28.8221C115.07 29.2328 114.889 29.4321 114.541 29.6032C111.271 31.2098 107.931 31.542 104.557 30.0059C102.465 29.0536 101.293 27.2678 100.698 25.1156C100.041 22.746 100.031 20.3422 100.679 17.9665C101.597 14.6023 104.04 12.5911 107.517 12.2266C109.409 12.0293 111.259 12.1562 113.081 12.73C113.57 12.883 113.78 13.1306 113.752 13.6641C113.709 14.4996 113.697 15.3412 113.754 16.1747C113.804 16.9438 113.506 16.9075 112.954 16.6619C111.64 16.078 110.247 15.915 108.823 16.0217C106.554 16.1928 105.26 17.2981 104.793 19.5348C104.481 21.0267 104.505 22.5387 104.915 24.0144C105.533 26.235 107.41 27.3685 109.904 27.0645C110.603 26.9799 111.299 26.8692 111.956 26.5954C112.572 26.3397 113.186 26.074 113.86 25.7861Z" fill="white"/>
<path d="M69.4316 16.9035C69.4316 13.6883 69.4578 10.4711 69.4135 7.25789C69.4035 6.45661 69.5605 6.09019 70.4403 6.1828C71.1691 6.25931 71.918 6.24723 72.6509 6.18481C73.4381 6.11838 73.6676 6.38413 73.6636 7.1834C73.6293 12.7441 73.6454 18.3047 73.6454 23.8634C73.6454 24.1976 73.6434 24.5338 73.6454 24.868C73.6636 26.6578 74.0763 27.1189 75.8701 26.9336C76.921 26.8249 77.2774 27.1068 77.0982 28.1154C77.0801 28.2121 77.0962 28.3168 77.0962 28.4174C77.0962 30.7629 77.0962 30.7689 74.7044 30.8495C74.2373 30.8656 73.7662 30.8273 73.2992 30.783C70.7866 30.5455 69.4719 29.1684 69.4457 26.6518C69.4115 23.4024 69.4377 20.1529 69.4377 16.9055C69.4357 16.9035 69.4337 16.9035 69.4316 16.9035Z" fill="white"/>
</svg>
