<svg width="43" height="31" viewBox="0 0 43 31" fill="none" xmlns="http://www.w3.org/2000/svg">
<path d="M41.56 15.74H0.85C0.38 15.74 0 16.12 0 16.59V19.98C0 20.45 0.38 20.83 0.85 20.83H19.83L15.41 29.67C15.28 29.93 15.29 30.24 15.45 30.49C15.61 30.74 15.88 30.89 16.17 30.89H26.24C26.53 30.89 26.81 30.74 26.96 30.49C27.11 30.24 27.13 29.93 27 29.67L22.58 20.83H41.56C42.03 20.83 42.41 20.45 42.41 19.98V16.59C42.41 16.12 42.03 15.74 41.56 15.74ZM17.54 29.21L21.2 21.88L24.86 29.21H17.54ZM40.71 19.14H1.7V17.44H40.71V19.14Z" fill="white"/>
<path d="M37.31 3.57998C38.48 3.57998 39.42 4.30998 39.42 5.20998C39.42 5.67998 39.8 6.05998 40.27 6.05998C40.74 6.05998 41.12 5.67998 41.12 5.20998C41.12 3.62998 39.85 2.30998 38.16 1.96998V1.32998C38.16 0.85998 37.78 0.47998 37.31 0.47998C36.84 0.47998 36.46 0.85998 36.46 1.32998V1.97998C34.77 2.31998 33.5 3.63998 33.5 5.21998C33.5 6.31998 34.13 7.78998 37.1 8.51998C38.63 8.89998 39.41 9.45998 39.41 10.18C39.41 11.08 38.46 11.81 37.3 11.81C36.14 11.81 35.19 11.08 35.19 10.18C35.19 9.70998 34.81 9.32998 34.34 9.32998C33.87 9.32998 33.49 9.70998 33.49 10.18C33.49 11.76 34.76 13.08 36.45 13.42V14.07C36.45 14.54 36.83 14.92 37.3 14.92C37.77 14.92 38.15 14.54 38.15 14.07V13.4C39.84 13.06 41.11 11.74 41.11 10.16C41.11 8.55998 39.9 7.44998 37.51 6.85998C36.46 6.59998 35.2 6.09998 35.2 5.20998C35.2 4.30998 36.15 3.57998 37.31 3.57998Z" fill="white"/>
<path d="M1.28998 7.21C1.28998 11.18 4.51998 14.42 8.49998 14.42C12.48 14.42 15.71 11.19 15.71 7.21C15.71 3.23 12.47 0 8.49998 0C4.52998 0 1.28998 3.23 1.28998 7.21ZM14.01 7.21C14.01 10.25 11.54 12.72 8.49998 12.72C5.45998 12.72 2.98998 10.25 2.98998 7.21C2.98998 4.17 5.45998 1.7 8.49998 1.7C11.54 1.7 14.01 4.17 14.01 7.21Z" fill="white"/>
<path d="M7.90003 7.81C8.07003 7.98 8.28003 8.06001 8.50003 8.06001C8.72003 8.06001 8.93003 7.98 9.10003 7.81L11.27 5.64C11.6 5.31 11.6 4.77 11.27 4.44C10.94 4.11 10.4 4.11 10.07 4.44L7.90003 6.61C7.57003 6.94 7.57003 7.48 7.90003 7.81Z" fill="white"/>
</svg>
