<svg width="275" height="251" viewBox="0 0 275 251" fill="none" xmlns="http://www.w3.org/2000/svg">
<path fill-rule="evenodd" clip-rule="evenodd" d="M163.458 189.992C158.502 181.243 156.835 171.796 156.74 162.009C156.707 162.009 156.681 162.016 156.651 162.019C156.674 161.758 156.651 161.497 156.606 161.242C156.877 161.108 156.707 160.589 156.769 160.305C156.854 159.917 156.854 159.505 156.87 159.104C156.89 158.676 156.913 158.248 156.939 157.824C156.972 157.618 156.998 157.416 157.037 157.21C157.106 156.851 157.109 156.515 157.067 156.202C157.515 151.302 158.603 146.545 160.872 142.083C162.036 139.798 163.484 137.689 165.531 136.054C168.405 133.752 172.841 135.13 173.499 138.675C173.973 141.211 173.404 143.542 172.201 145.782C169.654 150.525 166.715 155.033 165.25 160.354C164.151 164.333 163.027 168.277 162.726 172.393C162.353 177.479 163.419 182.366 165.178 187.109C166.489 190.641 168.49 193.413 172.338 194.777C176.415 196.224 180.495 197.666 184.641 198.881C186.563 199.446 188.482 200.157 190.591 200.337C189.747 199.139 188.871 198.068 188.181 196.89C182.918 187.903 179.609 178.272 179.007 167.833C178.775 163.785 179.243 159.815 181.289 156.143C183.068 152.95 186.262 153.198 188.328 155.405C190.869 158.115 190.928 161.425 190.454 164.833C190.032 167.882 188.77 170.689 187.933 173.621C185.778 181.139 186.066 188.395 190.27 195.202C192.088 198.146 194.249 200.67 197.823 201.705C201.713 202.834 205.63 203.307 209.651 203.036C210.322 202.991 211.093 203.216 211.695 202.573C209.655 200.915 207.765 199.188 206.32 197.046C204.662 194.591 203.41 191.999 203.757 188.908C203.936 187.318 204.695 186.199 205.859 185.882C207.029 185.559 208.507 186.166 209.4 187.325C210.152 188.301 210.469 189.456 210.802 190.619C211.381 192.639 211.332 194.784 212.077 196.779C213.588 200.8 217.086 203.382 220.95 203.154C222.755 203.043 224.488 202.501 226.165 201.842C226.42 201.74 226.881 201.845 226.891 201.394C226.901 201.045 226.6 200.823 226.332 200.679C225.576 200.271 224.831 199.857 224.386 199.086C223.229 197.076 221.957 195.123 221.078 192.972C220.359 191.226 219.871 189.404 220.097 187.485C220.208 186.554 220.313 185.497 221.663 185.572C222.892 185.644 224.079 186.969 223.906 188.17C223.706 189.571 223.876 190.88 224.272 192.238C224.537 193.145 224.713 193.765 224.926 194.18C225.151 194.97 225.465 195.727 225.988 196.41C228.012 199.054 230.703 198.816 233.564 197.885C233.57 197.882 233.577 197.879 233.586 197.875C233.694 197.839 233.796 197.8 233.894 197.758C234.299 197.699 234.708 197.637 235.117 197.614C235.816 197.572 236.12 197.278 236.117 196.55C236.094 193.73 237.173 191.098 237.856 188.444C238.54 185.794 239.2 183.169 239.308 180.463C239.422 177.603 238.533 175.126 235.613 173.872C234.329 173.32 233.086 172.618 231.752 172.233C229.506 171.577 227.796 170.35 226.381 168.482C225.55 167.389 225.138 166.354 225.763 165.176C226.364 164.04 227.528 163.762 228.774 163.805C231.765 163.906 234.008 165.675 236.225 167.327C239.033 169.416 241.449 171.975 243.927 174.727C244.558 172.553 244.823 170.572 245.029 168.59C245.497 164.121 245.68 159.659 244.375 155.271C243.797 153.329 242.868 151.579 241.211 150.388C235.404 146.219 228.816 144.668 221.758 144.724C218.037 144.757 214.34 145.338 210.616 145.191C208.03 145.09 205.604 144.443 203.668 142.651C202.894 141.933 202.099 141.166 202.305 139.801C202.658 137.48 204.071 136.266 206.14 135.6C210.201 134.294 214.304 134.983 218.315 135.691C222.059 136.354 225.661 137.676 229.254 138.982C234.015 140.715 238.677 142.638 243.107 145.109C243.329 145.233 243.538 145.52 243.813 145.38C244.166 145.197 244.006 144.838 243.99 144.528C243.813 141.708 243.202 138.965 242.368 136.279C241.233 132.636 239.939 129.087 235.738 127.808C235.228 127.651 234.78 127.295 234.276 127.096C230.294 125.49 226.279 124.191 221.846 124.667C217.632 125.121 213.522 126.064 209.39 126.916C204.943 127.84 200.916 127.05 197.277 124.347C196.44 123.724 195.877 122.869 195.41 121.935C193.899 118.915 197.071 115.742 199.833 115.005C204.322 113.81 208.814 114.743 213.182 115.671C216.504 116.372 219.75 117.541 223.115 118.129C227.188 118.837 231.239 118.804 235.208 117.401C236.055 117.1 236.212 116.731 235.95 115.912C235.126 113.33 233.91 110.947 232.321 108.763C230.026 105.606 227.473 102.734 223.677 101.281C219.427 99.6552 215.013 98.6694 210.492 98.4964C202.779 98.196 196.126 100.964 190.359 106.008C186.968 108.972 183.097 110.803 178.504 110.754C175.683 110.722 174.107 108.482 174.731 105.707C175.365 102.9 177.183 101.065 179.472 99.5997C183.251 97.1841 187.442 95.8783 191.81 94.974C197.005 93.8968 202.285 93.7074 207.533 93.7238C211.073 93.7335 214.673 94.1057 218.41 95.0067C217.929 94.4224 217.609 94.0012 217.253 93.6062C215.566 91.7325 213.676 90.0905 211.698 88.5137C206.755 84.5768 201.174 81.9098 195.224 79.9413C191.202 78.6095 187.066 77.7672 182.833 77.5257C178.21 77.2612 173.59 77.3657 169.327 79.4615C166.397 80.9044 164.053 82.9055 163.864 86.5583C163.824 87.319 163.792 88.1873 163.125 88.8141C162.746 89.1666 162.379 89.48 161.83 89.2613C161.379 89.0817 161.183 88.7553 161.121 88.2395C161.039 87.5377 160.872 86.826 160.617 86.1699C160.143 84.9392 158.453 84.3516 157.381 85.0632C156.635 85.5529 155.958 86.1536 155.435 86.9076C152.803 90.6976 151.79 94.9904 151.662 99.5051C151.561 103.063 151.182 103.328 147.975 101.578C147.935 101.555 147.896 101.532 147.857 101.509C143.741 99.0742 139.651 96.5965 135.159 94.8761C133.112 94.0926 131.033 93.443 128.754 92.8032C128.813 93.1166 128.885 93.4136 128.97 93.7074C128.993 93.7988 129.022 93.887 129.048 93.9751C129.113 94.1808 129.182 94.3799 129.254 94.5725C129.287 94.6607 129.323 94.7488 129.359 94.8369C129.467 95.0916 129.581 95.3364 129.709 95.5714C129.741 95.6302 129.777 95.6857 129.81 95.7444C129.911 95.9207 130.019 96.0937 130.134 96.2602C130.196 96.3549 130.264 96.443 130.33 96.5312C130.428 96.6585 130.529 96.7825 130.63 96.9033C130.702 96.9882 130.778 97.0763 130.853 97.1579C131.02 97.3342 131.193 97.504 131.376 97.6672C131.847 98.0785 132.373 98.4409 132.955 98.751C134.701 99.6781 136.61 100.292 138.441 101.062C141.521 102.358 144.571 103.719 147.036 106.07C147.925 106.915 148.452 108.032 148.328 109.184C148.236 110.026 147.111 110.023 146.412 110.31C138.98 113.376 133.524 118.494 130.307 125.878C129.519 127.687 128.845 129.567 128.675 131.565C128.623 132.175 128.443 132.877 129.104 133.292C129.797 133.726 130.375 133.253 130.948 132.93C131.807 132.45 132.635 131.905 133.691 131.967C134.9 132.035 135.446 132.792 135.178 133.955C134.917 135.11 134.07 135.773 133.174 136.334C129.624 138.548 127.476 141.486 127.387 145.87C127.312 149.666 127.884 153.329 128.855 156.956C130.755 164.049 134.685 169.782 140.834 174.42C140.589 173.813 140.484 173.526 140.357 173.249C138.739 169.674 137.797 165.913 137.401 162.025C136.957 157.648 137.29 153.345 139.173 149.291C140.095 147.3 141.148 146.559 142.181 146.957C143.361 147.417 143.819 148.834 143.381 150.815C142.129 156.45 141.688 162.136 142.42 167.875C142.943 171.962 144.13 175.824 146.69 179.16C149.809 183.231 153.99 185.941 158.469 188.222C160.022 188.983 161.667 189.682 163.458 189.992ZM168.424 93.6389C168.99 92.6171 169.938 92.0654 170.945 91.5856C172.423 90.8804 173.976 90.5116 175.604 90.4593C176.251 90.4691 176.944 90.6062 177.111 91.2493C177.278 91.8892 176.843 92.3658 176.3 92.8489C174.751 94.2232 173.096 95.3756 171.122 96.0252C170.736 96.1492 170.34 96.27 169.912 96.2537C168.454 96.1884 167.722 94.9088 168.424 93.6389ZM207.441 177.835C207.059 178.671 206.493 179.49 205.561 179.34C204.636 179.196 204.257 178.364 203.936 177.385C203.024 174.597 202.459 171.799 202.733 168.871C202.789 168.3 202.851 167.719 203.119 167.17C204.021 165.322 206.101 165.094 207.359 166.723C208.37 168.035 208.553 169.576 208.608 171.153C208.693 173.47 208.295 175.694 207.441 177.835ZM217.736 148.798C219.348 149.072 220.829 149.666 222.189 150.561C222.712 150.943 223.2 151.452 222.964 152.075C222.732 152.692 222.101 152.833 221.375 152.914C219.316 153.143 217.298 153.133 215.311 152.526C214.925 152.405 214.529 152.278 214.189 152.017C213.038 151.129 213.179 149.66 214.487 149.026C215.543 148.517 216.638 148.612 217.736 148.798ZM167.123 117.965C167.349 117.756 167.584 117.574 167.823 117.401C168.147 117.172 168.483 116.983 168.827 116.816C168.876 116.79 168.921 116.764 168.97 116.741C169.108 116.676 169.252 116.624 169.392 116.568C169.471 116.536 169.549 116.506 169.628 116.477C169.762 116.428 169.892 116.385 170.03 116.343C170.121 116.314 170.216 116.284 170.308 116.258C170.435 116.222 170.563 116.19 170.69 116.157C170.798 116.131 170.909 116.105 171.02 116.082C171.138 116.059 171.252 116.03 171.37 116.007C171.507 115.981 171.645 115.955 171.785 115.932C171.88 115.915 171.972 115.896 172.067 115.883C172.302 115.847 172.534 115.811 172.769 115.782C175.787 115.383 178.749 115.628 181.659 116.474C182.8 116.865 183.944 117.505 183.866 118.739C183.791 119.966 182.748 120.561 181.505 121.103C180.953 121.344 180.397 121.569 179.841 121.785C179.727 121.827 179.616 121.87 179.501 121.912C178.968 122.111 178.432 122.304 177.896 122.477C177.873 122.483 177.85 122.493 177.83 122.5C176.604 122.888 175.365 123.202 174.1 123.417C172.926 123.616 171.733 123.737 170.514 123.74C169.758 123.74 168.99 123.727 168.241 123.45C165.701 122.496 165.145 119.807 167.123 117.965ZM178.269 133.863C178.566 133.253 178.994 132.822 179.475 132.574C180.878 134.039 182.3 135.482 183.699 136.915C183.725 137.226 183.745 137.532 183.758 137.846C183.84 140.16 183.441 142.387 182.591 144.525C182.208 145.361 181.643 146.18 180.711 146.033C179.786 145.889 179.406 145.054 179.086 144.074C178.174 141.29 177.608 138.492 177.883 135.561C177.935 134.989 178.001 134.412 178.269 133.863ZM147.03 139.204C146.526 137.108 146.605 135.032 147.566 133.067C148.099 131.976 148.726 130.935 149.55 129.443C150.181 128.418 150.966 126.907 152.071 125.607C152.82 124.729 153.755 124.093 154.889 124.674C156.03 125.258 156.4 126.352 156.181 127.635C156.047 128.438 155.85 129.228 155.461 129.939C153.68 133.217 151.885 136.488 150.08 139.752C149.766 140.323 149.501 141.032 148.602 140.8C147.762 140.581 147.223 140.01 147.03 139.204Z" fill="#40A156"/>
<path fill-rule="evenodd" clip-rule="evenodd" d="M98.5091 72.4527C102.407 79.3135 103.72 86.7252 103.796 94.3988C103.823 94.3988 103.841 94.3957 103.865 94.3927C103.847 94.5975 103.865 94.8022 103.901 95.0039C103.687 95.1062 103.82 95.5156 103.774 95.7384C103.708 96.0425 103.708 96.3646 103.693 96.6807C103.678 97.0148 103.659 97.352 103.638 97.6862C103.611 97.8457 103.593 98.0053 103.563 98.1678C103.508 98.4478 103.505 98.7127 103.538 98.9596C103.185 102.804 102.329 106.534 100.544 110.032C99.6281 111.826 98.488 113.479 96.8791 114.761C94.62 116.565 91.13 115.487 90.6128 112.705C90.2408 110.715 90.6884 108.888 91.635 107.133C93.6371 103.412 95.9506 99.8778 97.1029 95.7053C97.9678 92.5835 98.8509 89.4918 99.0898 86.2646C99.3832 82.2757 98.5454 78.4435 97.1603 74.7226C96.1291 71.95 94.5564 69.7794 91.5292 68.7077C88.3204 67.5728 85.1117 66.4408 81.8516 65.4895C80.3394 65.047 78.8303 64.4901 77.173 64.3486C77.8353 65.2879 78.5249 66.1278 79.0692 67.052C83.2094 74.0994 85.8103 81.6526 86.2851 89.841C86.4696 93.014 86.0976 96.1298 84.4917 99.0108C83.0915 101.515 80.5814 101.32 78.9543 99.5888C76.9553 97.4634 76.9099 94.8684 77.2819 92.1951C77.6146 89.8048 78.6065 87.6012 79.2658 85.3042C80.9594 79.4098 80.7356 73.7171 77.4271 68.3796C75.9966 66.0706 74.297 64.0897 71.4874 63.2799C68.4269 62.3948 65.3452 62.0215 62.1818 62.2353C61.6556 62.2714 61.0477 62.0938 60.5759 62.5995C62.1818 63.9 63.6667 65.2547 64.8038 66.9346C66.1073 68.8612 67.0932 70.8903 66.821 73.3167C66.6819 74.566 66.0831 75.442 65.1667 75.6919C64.2443 75.9448 63.083 75.4691 62.3814 74.56C61.7886 73.7953 61.5406 72.8862 61.2775 71.977C60.8239 70.3905 60.8602 68.7107 60.2735 67.1453C59.0849 63.9903 56.3329 61.9643 53.2905 62.145C51.8721 62.2323 50.5082 62.6567 49.1866 63.1745C48.987 63.2528 48.6241 63.1745 48.615 63.5268C48.6059 63.8007 48.8448 63.9753 49.0535 64.0867C49.6463 64.4088 50.236 64.7309 50.5838 65.336C51.4941 66.9135 52.4921 68.4458 53.1877 70.1316C53.7532 71.5014 54.1373 72.9313 53.9588 74.4336C53.8711 75.1621 53.7895 75.993 52.728 75.9327C51.7632 75.8786 50.8257 74.837 50.9618 73.8947C51.1191 72.7959 50.983 71.7693 50.6715 70.7066C50.4628 69.9962 50.3237 69.5085 50.1573 69.1834C49.9789 68.5632 49.734 67.9701 49.3227 67.4343C47.7319 65.3601 45.6119 65.5498 43.3619 66.2783C43.3558 66.2813 43.3498 66.2843 43.3437 66.2843C43.259 66.3114 43.1774 66.3415 43.1018 66.3776C42.7812 66.4228 42.4606 66.471 42.1401 66.492C41.5896 66.5251 41.3507 66.7569 41.3537 67.3259C41.3719 69.5386 40.5221 71.6007 39.9868 73.6809C39.4485 75.7612 38.9313 77.8173 38.8436 79.9426C38.7529 82.1854 39.4515 84.1302 41.7499 85.1116C42.76 85.5451 43.7399 86.093 44.7863 86.397C46.5525 86.9118 47.8982 87.8752 49.0112 89.3382C49.6644 90.1962 49.988 91.006 49.4981 91.9302C49.0233 92.8213 48.1099 93.038 47.1301 93.0049C44.7772 92.9237 43.011 91.5389 41.2691 90.2414C39.0583 88.6007 37.1591 86.5957 35.2085 84.4372C34.7125 86.1411 34.5038 87.6975 34.3405 89.2509C33.9746 92.7551 33.8294 96.2562 34.8546 99.6971C35.3083 101.22 36.0401 102.59 37.3436 103.526C41.9102 106.796 47.0938 108.012 52.6463 107.967C55.5738 107.943 58.4801 107.485 61.4136 107.6C63.449 107.678 65.3573 108.184 66.8785 109.592C67.4863 110.155 68.1124 110.757 67.9521 111.826C67.6738 113.644 66.5609 114.599 64.9339 115.12C61.7403 116.143 58.5134 115.604 55.356 115.05C52.4104 114.53 49.5767 113.494 46.7521 112.47C43.008 111.113 39.3396 109.601 35.8557 107.666C35.6802 107.569 35.5169 107.341 35.2992 107.452C35.021 107.597 35.148 107.876 35.1601 108.12C35.2992 110.333 35.78 112.482 36.4363 114.59C37.3285 117.447 38.3476 120.231 41.6531 121.234C42.0554 121.357 42.4062 121.634 42.8024 121.794C45.9355 123.052 49.0928 124.07 52.5798 123.699C55.8944 123.344 59.1303 122.604 62.3784 121.935C65.8774 121.213 69.0438 121.83 71.9078 123.952C72.5671 124.443 73.0086 125.111 73.3776 125.843C74.5631 128.209 72.0711 130.702 69.8997 131.28C66.3674 132.216 62.835 131.484 59.3995 130.759C56.7865 130.208 54.2341 129.293 51.5848 128.832C48.3791 128.278 45.1945 128.302 42.0705 129.404C41.4052 129.639 41.2812 129.928 41.4868 130.569C42.134 132.595 43.0897 134.465 44.3417 136.175C46.1472 138.652 48.1553 140.904 51.1402 142.042C54.4851 143.318 57.9539 144.089 61.5104 144.228C67.5771 144.462 72.812 142.292 77.3484 138.336C80.0158 136.012 83.0612 134.573 86.6752 134.615C88.895 134.642 90.135 136.397 89.642 138.574C89.143 140.775 87.7126 142.214 85.9131 143.363C82.9403 145.257 79.6408 146.284 76.2083 146.991C72.1225 147.834 67.9672 147.985 63.8391 147.972C61.0538 147.963 58.223 147.671 55.2835 146.967C55.6615 147.425 55.9125 147.756 56.1938 148.066C57.5214 149.535 59.0063 150.823 60.5638 152.061C64.453 155.149 68.8442 157.242 73.5258 158.783C76.6891 159.828 79.9432 160.49 83.2729 160.677C86.9111 160.884 90.5432 160.803 93.8971 159.159C96.2016 158.027 98.0464 156.456 98.1946 153.593C98.2249 152.997 98.249 152.314 98.7753 151.826C99.0716 151.549 99.362 151.302 99.7944 151.477C100.148 151.618 100.306 151.874 100.351 152.28C100.414 152.831 100.547 153.388 100.747 153.903C101.119 154.869 102.45 155.327 103.294 154.77C103.88 154.385 104.412 153.915 104.824 153.325C106.895 150.354 107.691 146.985 107.791 143.445C107.869 140.654 108.169 140.446 110.691 141.819C110.721 141.837 110.751 141.855 110.782 141.873C114.018 143.785 117.238 145.727 120.771 147.075C122.383 147.689 124.016 148.198 125.809 148.701C125.764 148.454 125.706 148.222 125.64 147.994C125.622 147.921 125.597 147.852 125.576 147.783C125.525 147.623 125.473 147.467 125.413 147.313C125.386 147.244 125.358 147.175 125.331 147.105C125.247 146.907 125.156 146.714 125.056 146.53C125.032 146.485 125.002 146.44 124.974 146.395C124.893 146.257 124.808 146.121 124.72 145.992C124.672 145.919 124.618 145.847 124.566 145.781C124.491 145.682 124.409 145.582 124.327 145.489C124.27 145.423 124.212 145.353 124.152 145.29C124.022 145.152 123.886 145.019 123.74 144.893C123.372 144.571 122.957 144.288 122.498 144.044C121.125 143.318 119.621 142.837 118.182 142.232C115.759 141.214 113.358 140.148 111.42 138.303C110.721 137.641 110.307 136.765 110.404 135.861C110.473 135.202 111.362 135.205 111.913 134.976C117.759 132.571 122.05 128.558 124.581 122.766C125.201 121.348 125.73 119.873 125.864 118.305C125.906 117.826 126.048 117.275 125.528 116.95C124.983 116.61 124.527 116.98 124.076 117.233C123.399 117.609 122.749 118.037 121.92 117.989C120.97 117.934 120.541 117.341 120.75 116.429C120.955 115.523 121.62 115.002 122.328 114.563C125.123 112.829 126.81 110.523 126.88 107.085C126.94 104.107 126.49 101.235 125.724 98.3906C124.23 92.8273 121.137 88.3327 116.301 84.6931C116.494 85.1688 116.576 85.3946 116.676 85.6143C117.949 88.417 118.69 91.3673 119.001 94.4138C119.352 97.8487 119.089 101.22 117.607 104.402C116.881 105.965 116.053 106.546 115.239 106.233C114.311 105.872 113.951 104.761 114.296 103.207C115.279 98.788 115.626 94.3265 115.052 89.8259C114.641 86.6198 113.706 83.5913 111.692 80.9752C109.236 77.7842 105.949 75.6588 102.426 73.8676C101.21 73.2414 99.9184 72.6935 98.5091 72.4527ZM94.6018 148.021C94.1572 148.821 93.4102 149.255 92.6179 149.631C91.4566 150.185 90.2348 150.474 88.9525 150.513C88.4414 150.504 87.9001 150.399 87.767 149.893C87.6369 149.393 87.9787 149.017 88.4051 148.641C89.6239 147.563 90.9243 146.66 92.4788 146.148C92.7812 146.049 93.0927 145.955 93.4314 145.971C94.5806 146.019 95.1552 147.024 94.6018 148.021ZM63.9086 81.9867C64.2111 81.3335 64.6556 80.6892 65.3875 80.8066C66.1164 80.918 66.4127 81.5713 66.6637 82.342C67.3805 84.5276 67.8251 86.7222 67.6103 89.0191C67.568 89.4677 67.5166 89.9222 67.3079 90.3527C66.5972 91.8038 64.9611 91.9814 63.9722 90.7019C63.1768 89.6724 63.0346 88.4652 62.9893 87.2279C62.9227 85.4096 63.2373 83.6666 63.9086 81.9867ZM55.8097 104.758C54.5425 104.544 53.3752 104.077 52.3046 103.373C51.8933 103.072 51.5092 102.674 51.6967 102.187C51.8812 101.702 52.3772 101.591 52.9457 101.527C54.5667 101.347 56.1514 101.356 57.718 101.835C58.0234 101.928 58.3319 102.027 58.6011 102.235C59.5053 102.93 59.3934 104.083 58.3652 104.58C57.5335 104.98 56.6746 104.905 55.8097 104.758ZM95.627 128.944C95.4486 129.109 95.2641 129.251 95.0766 129.386C94.8226 129.564 94.5595 129.714 94.2873 129.847C94.251 129.865 94.2117 129.886 94.1754 129.904C94.0665 129.955 93.9546 129.997 93.8457 130.039C93.7853 130.063 93.7248 130.09 93.6613 130.112C93.5554 130.151 93.4526 130.184 93.3467 130.217C93.2741 130.241 93.2016 130.262 93.126 130.283C93.0262 130.31 92.9264 130.337 92.8235 130.361C92.7389 130.382 92.6512 130.401 92.5635 130.422C92.4727 130.44 92.382 130.461 92.2882 130.479C92.1824 130.5 92.0705 130.521 91.9616 130.536C91.889 130.548 91.8134 130.563 91.7408 130.575C91.5564 130.602 91.3719 130.629 91.1874 130.656C88.8134 130.97 86.4817 130.777 84.1953 130.115C83.2971 129.808 82.3989 129.308 82.4594 128.338C82.5169 127.375 83.3395 126.908 84.3163 126.484C84.7518 126.294 85.1873 126.12 85.6258 125.948C85.7165 125.915 85.8042 125.882 85.895 125.846C86.3153 125.689 86.7357 125.539 87.1591 125.403C87.1773 125.397 87.1954 125.391 87.2105 125.385C88.1753 125.081 89.1521 124.834 90.1471 124.666C91.0695 124.509 92.007 124.416 92.9687 124.413C93.5615 124.413 94.1663 124.422 94.756 124.642C96.743 125.388 97.1815 127.495 95.627 128.944ZM86.8567 116.471C86.6208 116.95 86.2851 117.287 85.9071 117.483C84.8032 116.333 83.6842 115.201 82.5834 114.078C82.5622 113.834 82.5471 113.593 82.538 113.349C82.4715 111.534 82.7891 109.788 83.4574 108.111C83.7599 107.455 84.2044 106.814 84.9363 106.928C85.6651 107.043 85.9615 107.696 86.2125 108.464C86.9293 110.649 87.3738 112.844 87.1591 115.141C87.1198 115.589 87.0684 116.044 86.8567 116.471ZM111.435 112.284C111.831 113.927 111.767 115.556 111.014 117.097C110.597 117.952 110.101 118.768 109.454 119.939C108.958 120.743 108.341 121.926 107.47 122.947C106.883 123.636 106.145 124.133 105.253 123.678C104.355 123.221 104.065 122.363 104.237 121.357C104.343 120.725 104.497 120.108 104.803 119.548C106.206 116.977 107.615 114.412 109.034 111.85C109.282 111.402 109.487 110.845 110.195 111.028C110.857 111.203 111.281 111.652 111.435 112.284Z" fill="#628E32"/>
<path fill-rule="evenodd" clip-rule="evenodd" d="M138.088 177.371C138.166 177.305 138.239 177.232 138.313 177.158C154.863 187.165 173.062 193.31 190.852 200.384C176.854 190.377 162.307 181.337 146.369 174.567C163.11 177.787 179.936 179.337 197.41 179.04C196.603 178.617 196.268 178.352 195.889 178.257C191.11 177.007 186.331 175.765 181.541 174.553C173.434 172.495 165.205 171.032 156.939 169.76C156.803 169.738 156.663 169.738 156.523 169.731C156.608 169.492 156.678 169.253 156.722 169.007C174.7 168.081 192.248 164.354 209.828 160.775C194.799 158.169 179.744 158.155 164.619 159.779C172.167 156.769 179.726 153.936 187.13 150.727C194.486 147.541 201.857 144.399 209.221 141.235C190.989 144.884 173.018 149.393 155.268 154.913C173.397 145.424 190.668 134.609 207.435 123.01C188.846 128.475 171.582 136.784 154.881 146.409C162.513 139.394 170.293 132.613 177.601 125.318C184.914 118.016 192.012 110.523 198.728 102.64C181.593 112.856 166.317 125.473 151.707 138.997C158.603 129.736 165.536 120.581 172.27 111.28C178.949 102.055 185.584 92.7908 191.732 83.199C172.741 100.1 157.363 120.037 142.83 140.702C155.19 118.773 166.081 96.249 172.881 71.9167C170.68 74.7354 168.714 77.6865 166.714 80.6155C158.287 92.9304 150.798 105.789 144.215 119.177C142.249 123.179 140.33 127.211 138.39 131.228C138.224 131.121 138.055 131.026 137.882 130.941C139.347 124.984 140.864 119.034 142.252 113.058C145.691 98.2555 148.408 83.3129 150.433 68.2564C150.658 66.5879 151.247 64.8864 150.665 62.5381C142.297 79.8915 136.347 97.4286 132.514 115.697C132.422 115.649 132.326 115.609 132.23 115.576C131.744 115.006 131.877 114.33 131.888 113.672C131.94 110.615 132.043 107.553 132.024 104.496C131.94 89.4355 131.181 74.401 130.102 59.3812C129.937 57.0659 129.672 54.7544 129.454 52.4428C124.694 77.3226 122.614 102.368 122.79 127.659C119.414 101.82 113.994 76.4186 107.231 51.2852C108.527 75.3602 110.592 99.3507 114.771 123.165C106.642 99.6851 97.3894 76.6832 87.4485 53.9348C92.1207 77.33 98.251 100.325 106.443 123.308C105.714 122.209 105.228 121.551 104.816 120.846C98.7554 110.449 92.6656 100.082 86.1672 89.9463C80.6519 81.3468 74.7794 72.9935 69.2751 64.3903C69.0799 64.0889 68.9584 63.5046 68.4135 63.7875C67.9533 64.0264 68.0895 64.4932 68.2699 64.8754C69.0136 66.4372 69.8789 67.9477 70.5048 69.5536C74.4222 79.5791 78.9987 89.3179 83.1261 99.2478C84.9964 103.75 87.3233 108.027 89.4146 112.419V112.415C89.9374 113.518 90.4565 114.624 90.9389 115.741C91.2187 116.388 91.8409 116.983 91.4028 117.737C78.8367 102.118 65.3871 87.3003 51.0648 73.2507C64.9047 94.5768 79.5842 115.308 95.2356 135.381C77.6954 118.608 58.6825 103.647 39.0768 89.3951C56.4992 108.994 74.9193 127.553 95.0183 144.45C95.0073 144.476 94.9962 144.502 94.9852 144.528C73.5901 129.93 50.9507 117.652 27.0704 107.612C35.3066 114.411 43.8521 120.791 52.5228 126.998C61.1603 133.183 69.993 139.078 79.0834 144.737C78.498 145.288 78.1998 144.987 77.92 144.877C60.7406 138.023 42.9133 133.657 24.6367 130.985C24.0587 130.901 23.58 130.768 23.2487 131.367C23.8709 131.621 24.5152 131.841 25.1117 132.139C41.0613 140.085 57.5117 146.865 74.2455 152.947C80.107 155.079 86.0568 156.968 91.9624 158.967C68.2 154.998 44.3234 153.406 20.2627 154.891C42.9979 162.024 66.3922 165.266 90.0516 167.243C66.1492 168.283 42.4052 170.168 19.2539 176.548C27.7552 176.577 36.2344 176.438 44.7026 176.092C58.5242 175.53 72.331 174.666 86.1194 173.59C86.5244 173.557 87.1724 172.947 87.3086 173.733C87.4338 174.461 86.5796 174.567 86.1231 174.549C84.481 174.472 83.0119 175.155 81.4913 175.519C72.5703 177.673 63.7708 180.201 55.0817 183.189C47.6149 185.758 40.3397 188.76 33.0828 191.84C32.3133 192.167 31.4223 192.391 30.9068 193.266C51.7165 190.311 72.1395 186.088 92.2496 180.241C74.7941 188.922 58.2149 198.881 43.3072 211.508C62.0661 203.978 80.4126 195.566 98.1368 185.754C84.0686 197.584 70.4496 209.833 57.4564 222.776C58.1412 222.57 58.7635 222.309 59.3084 221.931C63.1632 219.233 67.2022 216.815 71.1012 214.191C76.6055 210.49 82.1136 206.786 87.5442 202.968C90.8284 200.66 93.8033 197.885 97.371 195.978C97.4741 196.066 97.5809 196.147 97.6913 196.224C97.6103 196.345 97.5109 196.456 97.4189 196.577C94.8342 199.807 92.1686 202.975 89.7128 206.297C83.2623 215.044 77.8132 224.389 73.3251 234.286C74.1719 234.095 74.7241 233.514 75.2875 232.901C76.7786 231.284 78.2734 229.667 79.8308 228.116C86.8889 221.089 93.6855 213.82 100.18 206.275C103.406 202.534 106.447 198.635 109.565 194.798C109.724 194.875 109.885 194.934 110.048 194.993C109.672 196.434 108.969 197.742 108.35 199.08C104.926 206.463 102.058 214.066 99.3997 221.747C98.0669 225.591 96.8482 229.476 95.5743 233.345C105.607 219.274 113.766 204.258 120.044 188.187C117.061 205.434 116.384 222.75 117.238 240.152C121.144 221.659 125.515 203.258 126.741 184.258C126.792 184.247 126.84 184.236 126.892 184.221C129.532 198.98 133.552 213.295 137.956 227.528C137.945 226.591 137.934 225.646 137.915 224.705C137.904 224.176 137.893 223.647 137.878 223.118C137.867 222.714 137.86 222.309 137.849 221.901C137.827 221.108 137.797 220.314 137.768 219.52C137.764 219.384 137.761 219.248 137.753 219.112C137.716 218.197 137.676 217.289 137.628 216.374C137.628 216.359 137.624 216.341 137.624 216.323C137.032 204.908 135.548 193.596 132.194 182.468C132.271 182.483 132.337 182.505 132.403 182.524C132.812 183.255 133.221 183.986 133.626 184.71C135.268 187.658 136.965 190.686 138.71 193.714C146.225 207.859 153.736 222.001 161.206 236.164C162.142 237.939 162.679 239.442 165.227 237.954C166.361 237.292 166.457 237.186 165.853 236.197C163.743 232.787 161.644 229.365 159.638 225.896C157.138 221.585 154.8 217.186 152.271 212.898C146.347 202.854 141.001 192.479 134.973 182.432C144.889 193.585 156.678 202.479 168.957 210.821C159.336 199.058 149.259 187.742 138.088 177.371Z" fill="#1A5649"/>
<path d="M98.4042 57.7922C97.9794 58.4387 97.1168 58.6607 96.4438 58.2885C95.6008 57.8183 94.5617 57.3286 93.3332 56.9106C92.0262 56.4666 90.1376 55.82 88.0269 55.918C84.4196 56.0813 79.7277 58.4387 78.6037 62.6704C78.3815 63.5062 78.0743 65.2564 78.8912 67.5877C78.6755 68.3909 78.4141 69.2202 78.1005 70.0692C76.6824 73.9482 74.6762 76.9979 72.7942 79.277C72.4936 79.6884 72.0557 80.2892 71.5329 81.0205C69.5921 83.7176 68.6184 85.0759 68.4485 85.5852C67.7623 87.7011 68.6119 90.6201 70.6769 92.429C72.7615 94.2575 75.8133 94.7277 78.3292 93.5261C81.1784 92.1743 81.9952 89.2879 82.1455 88.7524C82.6421 86.9827 82.2501 85.8334 82.1847 84.4816C82.0802 82.3266 82.7794 79.179 86.6089 75.0649C86.8964 74.9016 87.8308 74.4184 88.7457 74.7645C89.654 75.1106 89.9808 76.064 90.2879 76.9717C91.1309 79.4206 90.5101 81.7323 90.2291 82.7315C90.1638 82.9535 89.9285 83.7763 89.4253 84.8342C88.1968 87.4137 87.0663 87.8643 85.9488 89.9932C85.4522 90.9336 84.8575 92.0633 84.7921 93.5196C84.668 96.0729 86.1579 99.6124 89.2293 100.435C92.281 101.251 94.895 98.8549 95.3459 98.4239C96.7575 97.0656 97.2345 95.5048 97.522 94.4991C98.6983 90.4177 97.3064 86.7281 96.6071 85.1934C96.9535 83.587 97.3652 81.9087 97.8488 80.1651C98.5153 77.7815 99.2407 75.5677 99.9922 73.5303C100.267 73.5433 100.698 73.6087 101.097 73.8895C101.972 74.4968 102.044 75.6722 102.07 76.1489C102.155 77.5986 101.547 78.4084 101.097 79.6361C101.012 79.8582 100.031 82.6205 100.711 85.0759C101.273 87.1003 103.207 89.7777 106.161 89.9475C107.952 90.0454 110.043 89.2226 111.134 87.3745C112.258 85.4677 112.049 82.9209 110.716 81.445C110.304 80.9879 109.853 80.7136 109.527 80.5503C109.487 79.7406 109.442 78.9308 109.402 78.1211C112.363 80.6157 114.846 82.516 116.467 83.7176C120.577 86.7672 123.505 88.6023 135.13 95.9685C136.522 96.8501 140.136 99.1422 141.43 99.965C141.619 100.324 142.011 101.186 141.645 101.748C141.24 102.368 140.142 102.29 139.548 102.244C133.719 101.774 130.811 101.539 129.281 101.101C125.759 100.083 124.001 99.5732 122.446 98.4565C121.995 98.13 121.348 97.6206 120.335 97.4182C118.153 96.9872 116.297 98.4108 116.101 98.5675C114.343 99.9585 114.036 101.95 113.97 102.512C113.709 104.817 114.852 106.952 116.434 108.161C118.074 109.414 119.91 109.447 120.505 109.46C121.766 109.486 121.877 109.153 125.289 108.494C127.243 108.115 127.961 108.082 128.739 108.161C129.941 108.291 131.732 108.755 131.784 109.447C131.817 109.898 131.118 110.302 130.621 110.564C127.053 112.425 122.433 112.967 119.623 113.372C118.492 113.535 116.748 113.809 114.598 114.24C114.075 114.018 113.317 113.724 112.389 113.444C110.265 112.804 108.847 112.379 107.39 112.627C105.318 112.973 102.972 114.717 102.305 117.401C102.266 117.558 101.515 120.823 103.809 123.259C105.743 125.309 108.37 125.218 109.102 125.192C112.023 125.087 113.892 123.304 114.323 122.873C117.486 122.338 120.642 121.809 123.805 121.273C124.772 120.81 125.798 120.895 126.334 121.45C127.066 122.22 126.556 123.546 126.386 123.983C125.805 125.485 124.472 126.223 123.478 126.772C121.871 127.66 120.309 127.954 118.852 128.228C117.205 128.535 117.133 128.372 116.395 128.666C114.402 129.469 113.428 131.297 113.199 131.742C112.931 132.27 111.67 134.7 112.833 137.371C113.983 140.009 116.578 140.773 116.957 140.877C119.342 141.53 121.296 140.551 121.975 140.211C125.321 138.533 126.256 135.02 126.413 134.393C127.229 134.347 128.406 134.203 129.739 133.74C131.778 133.028 133.111 131.931 134.209 131.01C135.006 130.338 136.051 129.351 137.097 127.993C141.07 127.451 144.057 126.419 146.043 125.577C149.762 123.997 150.284 122.965 154.225 121.639C156.649 120.823 157.414 120.895 161.296 119.752C163.785 119.02 165.798 118.309 167.138 117.812C169.137 118.746 171.163 119.713 173.215 120.725C174.653 121.437 176.071 122.148 177.463 122.86C178.103 123.344 179.123 124.075 180.456 124.846C181.09 125.211 181.802 125.583 185.468 127.373C187.304 128.267 188.075 128.64 188.775 129.567C189.356 130.337 189.618 131.134 189.748 131.683C187.54 133.413 186.389 135 185.749 136.169C185.442 136.724 185.089 137.482 184.259 138.239C183.22 139.193 182.593 139.088 181.593 139.865C181.39 140.022 179.92 141.204 179.528 143.143C179.201 144.756 179.6 146.996 181.057 148.009C182.932 149.315 186.5 148.564 188.572 145.396C189.598 143.96 190.624 142.53 191.657 141.093C191.82 141.008 193.016 140.401 193.519 140.851C193.989 141.276 193.584 142.392 193.395 142.921C192.284 145.978 185.84 150.49 183.044 152.371C182.397 152.377 178.071 152.508 175.587 155.923C175.261 156.374 173.13 159.306 174.32 161.761C175.522 164.249 179.417 164.791 181.972 163.89C183.449 163.368 183.638 162.656 186.337 159.874C187.481 158.699 190.65 155.525 194.728 152.867C196.1 151.972 199.302 149.889 199.832 150.47C200.354 151.052 198.283 154.349 195.63 156.635C194.44 157.66 193.82 157.882 192.728 159.13C191.813 160.168 190.761 161.37 190.408 163.139C190.323 163.583 189.67 166.849 191.97 168.814C193.597 170.212 196.081 170.408 198.204 169.324C201.629 165.294 205.262 160.468 208.758 154.794C208.935 154.506 211.915 150.595 214.234 144.835C215.339 142.099 215.698 140.433 215.293 138.625C214.626 135.64 212.228 133.864 211.196 133.191C212.529 132.003 214.483 129.991 216.084 127.027C217.188 124.97 219.645 120.411 218.593 114.534C217.652 109.284 214.47 106.058 213.568 105.202C212.189 103.89 208.771 100.612 203.498 100.566C197.42 100.514 193.539 104.778 192.918 105.49C192.852 105.614 192.767 105.764 192.689 105.751C192.382 105.699 192.918 103.152 192.702 101.114C192.31 97.3398 189.48 96.6215 187.442 91.9654C186.919 90.7703 186.272 88.9222 186.043 86.395C186.161 82.4441 185.05 80.1586 183.958 78.7807C182.423 76.8411 180.443 76.1097 178.731 73.1646C178.012 71.9303 177.626 70.8006 177.411 70.0235C177.848 69.1354 178.397 67.9011 178.907 66.3926C179.338 65.1061 180.051 62.9315 180.247 60.1431C180.371 58.4256 180.351 55.6764 179.384 52.3851C179.639 52.0978 180.253 51.3337 180.417 50.1648C180.547 49.2048 180.312 48.4473 180.175 48.0816C179.861 48.5845 179.253 49.4138 178.208 50.0799C178.208 50.0799 176.613 51.0921 174.555 51.0529C171.019 50.9876 168.458 47.4221 167.759 46.449C163.89 41.0681 164.609 33.7018 167.308 29.0131C168.105 27.6221 169.164 25.8524 171.229 25.2581C174.411 24.3504 177.384 26.9822 177.75 27.3152C177.136 26.4597 175.966 25.0818 174.078 24.0892C173.627 23.8541 170.725 22.3848 167.229 23.0444C162.171 24.0043 161.616 28.3274 155.636 29.8882C154.891 30.0841 153.787 30.1755 151.585 30.3518C145.024 30.8873 139.999 30.4171 138.528 30.2669C132.346 29.6334 129.249 29.3135 126.511 27.6091C124.112 26.1136 124.099 25.2059 120.44 22.8746C117.525 21.0135 115.539 19.7858 112.84 19.727C109.958 19.6617 107.599 20.9547 106.076 22.091C106.919 21.784 108.572 21.34 110.311 21.9473C113.036 22.8942 114.075 25.7545 114.689 27.4458C116.271 31.782 115.212 35.7263 114.493 38.4168C113.702 41.3881 113.173 43.3602 111.284 45.0254C110.892 45.3781 107.115 48.6106 103.286 46.9257C100.535 45.7176 99.6524 42.8051 99.5086 42.2958C99.2015 42.4721 98.9009 42.6484 98.5937 42.8247C98.6656 43.6737 98.8028 44.9471 99.0511 46.4817C99.5935 49.8056 100.097 50.7721 100.169 52.2741C100.208 53.6193 99.9203 55.4805 98.4042 57.7922Z" fill="#EAA238"/>
<path d="M176.609 50.9842C181.742 49.9459 184.737 43.3502 183.299 36.2523C181.862 29.1543 176.535 24.242 171.403 25.2802C166.27 26.3185 163.275 32.9142 164.713 40.0121C166.151 47.1101 171.477 52.0224 176.609 50.9842Z" fill="#1C6267"/>
<path d="M97.2205 31.7751C95.3058 38.7169 98.0112 43.8823 102.527 46.7557C105.049 48.3621 108.356 47.905 112.002 44.2807C113.741 42.5567 113.982 39.4091 114.76 36.601C116.675 29.6593 114.296 22.9527 109.454 21.6205C104.611 20.2883 99.1352 24.8334 97.2205 31.7751Z" fill="#1C6267"/>
<path d="M178.153 30.6465C179.342 33.2586 180.015 35.9622 179.924 38.6984C179.858 41.4346 179.029 44.0925 177.676 46.6262C178.728 45.6401 179.558 44.3993 180.133 43.041C180.721 41.6893 181.022 40.2134 181.074 38.731C181.152 35.7663 180.12 32.7688 178.153 30.6465Z" fill="white"/>
<path d="M103.69 27.1387C101.841 29.1043 100.815 31.8405 100.71 34.5898C100.664 35.9677 100.841 37.3521 101.246 38.6582C101.651 39.9643 102.265 41.1985 103.115 42.2433C102.259 39.7096 101.749 37.1824 101.86 34.629C101.939 32.0756 102.625 29.5941 103.69 27.1387Z" fill="white"/>
<path d="M169.416 37.503C171.607 37.503 173.383 35.7283 173.383 33.5391C173.383 31.3499 171.607 29.5752 169.416 29.5752C167.225 29.5752 165.449 31.3499 165.449 33.5391C165.449 35.7283 167.225 37.503 169.416 37.503Z" fill="#D8E4E9"/>
<path d="M109.33 33.7208C111.521 33.7208 113.297 31.9461 113.297 29.7569C113.297 27.5677 111.521 25.793 109.33 25.793C107.139 25.793 105.363 27.5677 105.363 29.7569C105.363 31.9461 107.139 33.7208 109.33 33.7208Z" fill="#D8E4E9"/>
<path d="M109.279 77.6508C108.331 74.4182 107.384 71.1858 106.436 67.9532C104.776 66.3664 103.123 64.7861 101.463 63.1992C101.156 61.6776 100.849 60.1495 100.535 58.628C103.463 57.0411 105.933 56.1856 107.469 55.722C115.402 53.3319 121.329 54.5204 136.333 54.6445C137.196 54.651 138.777 54.6641 140.836 54.6118C145.371 54.5008 147.861 54.2004 149.507 54.109C160.022 53.5212 166.04 59.6467 173.059 60.8679C173.464 60.9397 174.634 61.1225 175.3 62.0433C176.091 63.1339 175.921 64.9167 175.117 66.0856C174.895 66.4121 174.412 66.9998 171.752 68.0185C168.406 69.305 167.903 68.8675 166.962 69.736C165.113 71.447 165.472 74.575 165.55 75.1562C165.753 76.5994 166.217 76.8149 167.223 79.0744C168.419 81.7714 168.844 83.9134 169.412 86.7736C169.974 89.6143 170.242 91.0575 169.765 92.2134C169.132 93.735 168.014 94.1202 165.485 95.8377C161.107 98.8155 161.682 99.5469 158.369 101.539C155.977 102.975 153.559 104.419 150.664 104.347C147.155 104.262 144.841 101.983 142.221 99.7885C140.764 98.5674 145.658 102.773 126.949 89.9735C122.179 86.7279 116.193 82.5811 109.279 77.6508Z" fill="#E55D3C"/>
<path d="M176.587 62.1821C174.084 60.0924 171.209 58.4336 168.151 57.2059C165.053 56.0174 161.779 55.4754 158.59 54.8942C155.401 54.2934 152.101 53.784 148.755 53.8755C147.076 53.8885 145.435 54.1694 143.893 54.1824C142.312 54.2151 140.73 54.1236 139.162 53.9016C137.594 53.6991 135.98 53.3792 134.333 53.1833C132.693 52.9808 131.039 52.8502 129.392 52.811C126.132 52.7457 122.792 52.7457 119.538 53.2616C116.29 53.7253 113.088 54.3195 109.892 54.9268C106.71 55.6387 103.514 56.2982 100.352 57.0623C106.815 56.2786 113.251 55.2142 119.695 54.5873C121.302 54.4436 122.903 54.3522 124.504 54.3326C126.092 54.3261 127.739 54.3783 129.334 54.4501C130.941 54.5285 132.536 54.6461 134.117 54.8616C135.699 55.064 137.28 55.3905 138.933 55.6191C140.587 55.8346 142.266 55.9195 143.939 55.8738C145.651 55.828 147.239 55.5603 148.814 55.5081C151.99 55.3187 155.159 55.7889 158.388 56.2003C161.616 56.6313 164.824 57.01 167.876 58.0026C170.941 58.9365 173.856 60.4058 176.587 62.1821Z" fill="white"/>
<path d="M131.856 110.067C131.627 109.636 131.228 109.042 130.575 108.546C129.059 107.39 127.203 107.56 126.02 107.684C122.851 108.017 122.628 109.336 120.505 109.284C118.459 109.238 116.466 107.958 115.355 106.273C114.081 104.34 113.486 101.134 115.211 99.1681C116.845 97.307 119.649 97.6009 120.256 97.6596C122.504 97.8947 123.674 99.0637 125.282 100.05C128.987 102.316 132.888 102.264 137.07 102.205C140.508 102.159 146.193 101.473 148.389 101.212C150.101 101.01 151.774 100.781 151.976 101.297C152.055 101.493 152.042 102.107 147.526 104.954C141.423 108.8 137.874 109.924 137.998 111.582C138.083 112.705 139.75 112.869 140.279 114.847C140.508 115.709 140.429 116.545 140.07 117.806C139.612 119.393 138.835 122.109 136.561 124.512C131.829 129.528 125.942 127.562 124.478 131.33C123.707 133.315 125.118 134.419 123.962 136.783C123.863 136.985 122.413 139.826 119.322 140.316C116.479 140.766 113.257 139.081 112.297 136.064C111.526 133.648 112.473 131.017 114.061 129.547C116.061 127.693 117.766 128.881 122.164 127.098C124.674 126.08 128.17 124.055 127.889 122.534C127.843 122.279 127.654 121.835 126.327 121.228C123.674 120.019 119.237 119.425 114.917 121.75C112.669 122.965 112.748 123.735 110.748 124.375C110.127 124.578 106.324 125.799 103.795 123.676C101.325 121.6 100.88 117.022 103.338 114.207C105.749 111.445 110.343 111.086 113.473 113.776C117.714 113.835 122.955 113.339 128.562 111.373C129.719 110.975 130.817 110.531 131.856 110.067Z" fill="#E55D3C"/>
<path d="M193.753 128.973C192.577 127.373 191.492 126.505 189.604 124.983C186.167 122.227 183.415 120.014 180.344 120.542C179.965 120.608 178.07 120.973 177.848 121.979C177.521 123.461 180.984 125.728 183.291 126.825C185.016 127.641 186.219 127.863 187.872 129.241C188.807 130.024 189.578 130.684 189.663 131.664C189.774 132.937 188.676 134.001 187.101 135.523C186.291 136.307 185.644 136.796 184.389 137.743C181.442 139.97 181.096 139.872 180.54 140.754C179.762 141.975 179.135 144.169 180.266 145.821C181.154 147.127 182.664 147.434 183.017 147.493C185.598 147.924 188.205 145.867 189.159 144.137C189.225 144.012 189.558 143.399 190.068 142.595C190.911 141.263 191.283 140.911 191.695 140.675C192.009 140.493 192.649 140.12 193.224 140.369C193.878 140.649 194.028 141.544 194.048 141.655C194.211 142.628 193.603 143.601 191.734 145.495C190.035 147.212 188.865 148.087 186.042 150.438C183.834 152.267 183.86 152.306 183.383 152.58C181.115 153.893 180.102 153.39 177.724 154.644C176.358 155.362 174.992 156.08 174.312 157.628C173.6 159.248 173.816 161.39 175.031 162.865C176.854 165.092 180.089 164.779 181.821 164.126C182.814 163.754 183.559 163.088 185.01 161.762C187.297 159.679 187.389 159.097 189.166 157.367C191.29 155.303 191.499 155.8 195.72 152.371C197.727 150.745 198.753 149.766 199.021 149.988C199.347 150.249 198.321 152.012 197.531 153.383C196.08 155.891 194.636 157.68 194.348 158.04C192.296 160.567 191.969 160.325 191.29 161.638C190.787 162.611 189.565 164.981 190.708 167.254C191.61 169.043 193.675 170.179 195.74 170.016C198.596 169.788 199.968 167.189 200.23 166.699C201.171 164.916 200.988 163.166 200.837 161.762C200.484 158.49 199.21 158.281 199.262 156.237C199.308 154.481 200.275 153.873 203.876 149.002C207.372 144.274 207.509 143.425 207.281 143.157C204.738 140.231 203.778 145.534 200.805 144.581C199.092 144.032 198.164 142.412 197.844 141.857C196.74 139.924 197.406 138.867 196.884 135.98C196.204 132.362 194.407 129.868 193.753 128.973Z" fill="#E55D3C"/>
<path d="M99.2916 63.2257C99.9843 63.2453 100.193 62.8012 101.043 62.873C101.866 62.9449 102.468 63.4346 103.01 63.944C105.18 65.9814 106.009 67.6794 106.009 67.6794C108.623 73.0146 106.532 75.9925 109.042 79.5254C109.303 79.8976 110.159 81.0273 110.747 82.7514C111.335 84.4754 111.198 85.4353 111.146 85.7487C111.087 86.1014 110.865 87.2377 109.957 88.1584C108.31 89.8171 105.781 89.3731 105.356 89.3012C102.239 88.7592 100.821 85.9055 100.69 85.6247C100.52 85.272 99.638 83.326 100.22 81.2428C100.416 80.5506 100.546 80.6421 101.317 78.7091C101.899 77.2463 102.089 76.5344 102.036 75.692C101.984 74.7778 101.69 74.3011 101.494 74.053C101.317 73.8309 100.991 73.413 100.592 73.3934C100.337 73.3803 99.7817 73.524 98.8211 75.7116C98.0043 77.5793 98.0566 78.2715 97.2985 80.6355C96.6516 82.6403 96.4293 82.7252 96.2725 83.8549C96.1941 84.4165 96.1679 84.9717 96.4162 87.3226C96.7887 90.8751 97.0044 91.1885 96.9391 92.6774C96.8868 93.8333 96.828 94.9173 96.2464 96.1777C95.9327 96.8634 95.2988 98.176 93.8154 99.051C92.1294 100.044 90.4434 99.8281 89.9664 99.7563C89.6854 99.7171 86.9734 99.2796 85.5162 96.8046C84.0066 94.2447 85.0391 91.5216 85.2482 90.9795C85.6861 89.8302 85.9867 89.9673 87.9471 87.0026C89.1691 85.161 89.7769 84.2337 90.0121 83.3652C90.45 81.7522 89.8684 81.7195 90.2539 78.696C90.3846 77.6642 90.5349 77.0243 90.1821 76.2602C90.1298 76.1492 89.5677 74.9802 88.4176 74.7974C87.5615 74.6602 86.8689 75.1435 86.3853 75.4896C85.4181 76.1818 84.9738 76.9589 83.7452 79.3817C82.5232 81.7848 81.9155 82.993 81.8567 83.5415C81.6933 85.1545 82.3076 85.6573 81.922 87.3095C81.6541 88.4458 81.1247 89.2229 80.6869 89.8694C80.0465 90.8163 79.1447 92.142 77.5829 92.8734C75.459 93.8725 72.7994 93.448 70.9173 92.1224C69.1921 90.9077 67.284 88.3478 68.0485 86.2646C68.8719 84.0247 72.4007 83.4109 72.7144 83.3587C74.3024 83.104 75.0931 83.5415 76.6157 82.9211C77.3215 82.6338 78.0403 82.1832 78.9421 81.2624C80.8764 79.2837 81.5233 77.3051 82.7127 74.6211C83.3335 73.2236 84.2614 71.48 86.1304 67.9797C89.424 61.802 87.6269 65.9031 90.0187 61.5931C90.8944 60.0127 91.3714 59.0397 92.3974 58.8046C93.7958 58.4781 95.325 59.7515 96.0765 60.3719C97.7952 61.8217 98.0892 63.1865 99.2916 63.2257Z" fill="#E55D3C"/>
<path d="M207.058 121.972C207.437 122.938 206.489 123.578 204.849 126.634C204.849 126.634 204.111 128.012 202.751 129.632C202.503 129.932 202.261 130.193 202.144 130.141C201.849 129.997 202.575 127.953 202.758 127.444C203.241 126.073 203.699 125.204 204.503 123.683C205.614 121.593 205.973 121.227 206.326 121.253C206.679 121.286 206.947 121.678 207.058 121.972Z" fill="white"/>
</svg>
