<svg width="479" height="59" viewBox="0 0 479 59" fill="none" xmlns="http://www.w3.org/2000/svg">
<path d="M89.45 18.7H78.65V47H70.45V18.7H59.6V11.5H89.45V18.7ZM107.843 27.6C105.91 27.6333 104.16 27.95 102.593 28.55C101.027 29.15 99.8934 30.05 99.1934 31.25V47H91.1934V20.75H98.5434V26.05C99.4434 24.2833 100.61 22.9 102.043 21.9C103.477 20.9 104.977 20.3833 106.543 20.35C107.21 20.35 107.643 20.3667 107.843 20.4V27.6ZM123.518 47.5C120.518 47.5 117.968 46.8667 115.868 45.6C113.801 44.3333 112.218 42.6667 111.118 40.6C110.018 38.5333 109.468 36.3 109.468 33.9C109.468 31.4667 110.018 29.2167 111.118 27.15C112.218 25.0833 113.818 23.4167 115.918 22.15C118.018 20.8833 120.551 20.25 123.518 20.25C126.484 20.25 129.018 20.8833 131.118 22.15C133.218 23.4167 134.818 25.0833 135.918 27.15C137.018 29.2167 137.568 31.4667 137.568 33.9C137.568 36.3 137.018 38.5333 135.918 40.6C134.818 42.6667 133.218 44.3333 131.118 45.6C129.018 46.8667 126.484 47.5 123.518 47.5ZM117.668 33.9C117.668 35.9333 118.218 37.5833 119.318 38.85C120.451 40.1167 121.851 40.75 123.518 40.75C125.151 40.75 126.518 40.1167 127.618 38.85C128.751 37.5833 129.318 35.9333 129.318 33.9C129.318 31.8667 128.751 30.2167 127.618 28.95C126.518 27.6833 125.151 27.05 123.518 27.05C121.851 27.05 120.451 27.6833 119.318 28.95C118.218 30.2167 117.668 31.8667 117.668 33.9ZM158.135 47.5C156.168 47.5 154.435 47.0833 152.935 46.25C151.468 45.3833 150.335 44.2167 149.535 42.75V57.65H141.535V20.75H148.485V25C149.452 23.5 150.668 22.3333 152.135 21.5C153.602 20.6667 155.318 20.25 157.285 20.25C159.618 20.25 161.702 20.8667 163.535 22.1C165.402 23.3 166.852 24.9167 167.885 26.95C168.952 28.9833 169.485 31.2667 169.485 33.8C169.485 36.4 169.002 38.7333 168.035 40.8C167.068 42.8667 165.718 44.5 163.985 45.7C162.285 46.9 160.335 47.5 158.135 47.5ZM155.435 40.75C156.568 40.75 157.585 40.4333 158.485 39.8C159.385 39.1333 160.085 38.2833 160.585 37.25C161.085 36.1833 161.335 35.0167 161.335 33.75C161.335 31.8167 160.735 30.2167 159.535 28.95C158.368 27.6833 156.868 27.05 155.035 27.05C153.935 27.05 152.868 27.3833 151.835 28.05C150.835 28.6833 150.068 29.55 149.535 30.65V36.05C150.068 37.3833 150.868 38.5 151.935 39.4C153.035 40.3 154.202 40.75 155.435 40.75ZM172.79 50.95C174.157 51.3833 175.307 51.6 176.24 51.6C177.173 51.6 177.907 51.2667 178.44 50.6C179.007 49.9333 179.507 48.7333 179.94 47L169.94 20.75H178.19L184.29 38.8L189.49 20.75H197.04L187.04 51.25C186.34 53.4167 185.073 55.1667 183.24 56.5C181.44 57.8667 179.323 58.55 176.89 58.55C175.49 58.55 174.123 58.3 172.79 57.8V50.95ZM217.828 47L210.978 36.5L208.178 39.35V47H200.178V10.5H208.178V31.6L217.078 20.75H225.528L216.078 32.05L226.328 47H217.828ZM228.395 37.55V20.75H236.395V35.8C236.395 39.1 237.611 40.75 240.045 40.75C241.111 40.75 242.145 40.4667 243.145 39.9C244.145 39.3 245.028 38.3167 245.795 36.95V20.75H253.795V38.1C253.795 38.9 253.911 39.4667 254.145 39.8C254.411 40.1333 254.861 40.3167 255.495 40.35V47C254.728 47.1333 254.078 47.2333 253.545 47.3C253.011 47.3667 252.528 47.4 252.095 47.4C249.228 47.4 247.595 46.2833 247.195 44.05L247.045 42.45C245.845 44.1833 244.345 45.4667 242.545 46.3C240.778 47.1 238.795 47.5 236.595 47.5C233.928 47.5 231.895 46.65 230.495 44.95C229.095 43.25 228.395 40.7833 228.395 37.55ZM270.042 47.5C267.776 47.5 265.576 47.1333 263.442 46.4C261.342 45.6333 259.559 44.55 258.092 43.15L260.842 38.1C264.076 40.4667 267.059 41.65 269.792 41.65C270.826 41.65 271.626 41.4833 272.192 41.15C272.759 40.8167 273.042 40.3 273.042 39.6C273.042 38.8667 272.659 38.35 271.892 38.05C271.126 37.7167 269.992 37.3333 268.492 36.9C266.492 36.2333 264.826 35.5833 263.492 34.95C262.159 34.3167 261.159 33.55 260.492 32.65C259.826 31.75 259.492 30.55 259.492 29.05C259.492 26.4167 260.476 24.3 262.442 22.7C264.409 21.0667 267.076 20.25 270.442 20.25C272.242 20.25 273.992 20.5333 275.692 21.1C277.426 21.6667 279.042 22.6167 280.542 23.95L277.442 28.95C275.942 27.9167 274.609 27.1667 273.442 26.7C272.276 26.2333 271.142 26 270.042 26C269.176 26 268.442 26.1667 267.842 26.5C267.242 26.8 266.942 27.3333 266.942 28.1C266.942 28.8333 267.276 29.3833 267.942 29.75C268.609 30.0833 269.642 30.45 271.042 30.85C273.176 31.4833 274.959 32.1333 276.392 32.8C277.859 33.4333 278.942 34.2333 279.642 35.2C280.376 36.1333 280.742 37.3833 280.742 38.95C280.742 41.6167 279.776 43.7167 277.842 45.25C275.909 46.75 273.309 47.5 270.042 47.5ZM322.751 18.7H311.951V47H303.751V18.7H292.901V11.5H322.751V18.7ZM334.066 47.5C331.099 47.5 328.566 46.8833 326.466 45.65C324.366 44.4167 322.749 42.7833 321.616 40.75C320.516 38.7167 319.966 36.5167 319.966 34.15C319.966 31.6167 320.516 29.3 321.616 27.2C322.716 25.1 324.316 23.4167 326.416 22.15C328.516 20.8833 331.066 20.25 334.066 20.25C337.032 20.25 339.566 20.8833 341.666 22.15C343.766 23.4167 345.349 25.0833 346.416 27.15C347.516 29.2167 348.066 31.4333 348.066 33.8C348.066 34.7667 347.999 35.6167 347.866 36.35H328.466C328.599 38.1167 329.232 39.4667 330.366 40.4C331.532 41.3 332.849 41.75 334.316 41.75C335.482 41.75 336.599 41.4667 337.666 40.9C338.732 40.3333 339.466 39.5667 339.866 38.6L346.666 40.5C345.632 42.5667 344.016 44.25 341.816 45.55C339.649 46.85 337.066 47.5 334.066 47.5ZM328.266 31.45H339.666C339.499 29.7833 338.882 28.4667 337.816 27.5C336.782 26.5 335.499 26 333.966 26C332.432 26 331.132 26.5 330.066 27.5C329.032 28.5 328.432 29.8167 328.266 31.45ZM361.741 47.5C359.475 47.5 357.275 47.1333 355.141 46.4C353.041 45.6333 351.258 44.55 349.791 43.15L352.541 38.1C355.775 40.4667 358.758 41.65 361.491 41.65C362.525 41.65 363.325 41.4833 363.891 41.15C364.458 40.8167 364.741 40.3 364.741 39.6C364.741 38.8667 364.358 38.35 363.591 38.05C362.825 37.7167 361.691 37.3333 360.191 36.9C358.191 36.2333 356.525 35.5833 355.191 34.95C353.858 34.3167 352.858 33.55 352.191 32.65C351.525 31.75 351.191 30.55 351.191 29.05C351.191 26.4167 352.175 24.3 354.141 22.7C356.108 21.0667 358.775 20.25 362.141 20.25C363.941 20.25 365.691 20.5333 367.391 21.1C369.125 21.6667 370.741 22.6167 372.241 23.95L369.141 28.95C367.641 27.9167 366.308 27.1667 365.141 26.7C363.975 26.2333 362.841 26 361.741 26C360.875 26 360.141 26.1667 359.541 26.5C358.941 26.8 358.641 27.3333 358.641 28.1C358.641 28.8333 358.975 29.3833 359.641 29.75C360.308 30.0833 361.341 30.45 362.741 30.85C364.875 31.4833 366.658 32.1333 368.091 32.8C369.558 33.4333 370.641 34.2333 371.341 35.2C372.075 36.1333 372.441 37.3833 372.441 38.95C372.441 41.6167 371.475 43.7167 369.541 45.25C367.608 46.75 365.008 47.5 361.741 47.5ZM393.35 45.6C392.25 46.0667 390.983 46.5 389.55 46.9C388.15 47.3 386.733 47.5 385.3 47.5C383.966 47.5 382.75 47.2833 381.65 46.85C380.55 46.3833 379.666 45.6333 379 44.6C378.333 43.5667 378 42.2 378 40.5V26.8H374.65V20.75H378V12.4H386V20.75H391.35V26.8H386V37.75C386 38.6167 386.216 39.25 386.65 39.65C387.083 40.0167 387.633 40.2 388.3 40.2C388.9 40.2 389.516 40.1 390.15 39.9C390.783 39.7 391.333 39.4833 391.8 39.25L393.35 45.6ZM421.767 47H413.767V32.25C413.767 30.5167 413.433 29.2667 412.767 28.5C412.133 27.7 411.283 27.3 410.217 27.3C409.117 27.3 408 27.7333 406.867 28.6C405.733 29.4667 404.933 30.5833 404.467 31.95V47H396.467V20.75H403.667V25.15C404.633 23.6167 406 22.4167 407.767 21.55C409.533 20.6833 411.567 20.25 413.867 20.25C415.567 20.25 416.933 20.5667 417.967 21.2C419.033 21.8 419.833 22.6 420.367 23.6C420.933 24.5667 421.3 25.6333 421.467 26.8C421.667 27.9667 421.767 29.1 421.767 30.2V47ZM439.632 47.5C436.665 47.5 434.132 46.8833 432.032 45.65C429.932 44.4167 428.315 42.7833 427.182 40.75C426.082 38.7167 425.532 36.5167 425.532 34.15C425.532 31.6167 426.082 29.3 427.182 27.2C428.282 25.1 429.882 23.4167 431.982 22.15C434.082 20.8833 436.632 20.25 439.632 20.25C442.599 20.25 445.132 20.8833 447.232 22.15C449.332 23.4167 450.915 25.0833 451.982 27.15C453.082 29.2167 453.632 31.4333 453.632 33.8C453.632 34.7667 453.565 35.6167 453.432 36.35H434.032C434.165 38.1167 434.799 39.4667 435.932 40.4C437.099 41.3 438.415 41.75 439.882 41.75C441.049 41.75 442.165 41.4667 443.232 40.9C444.299 40.3333 445.032 39.5667 445.432 38.6L452.232 40.5C451.199 42.5667 449.582 44.25 447.382 45.55C445.215 46.85 442.632 47.5 439.632 47.5ZM433.832 31.45H445.232C445.065 29.7833 444.449 28.4667 443.382 27.5C442.349 26.5 441.065 26 439.532 26C437.999 26 436.699 26.5 435.632 27.5C434.599 28.5 433.999 29.8167 433.832 31.45ZM473.965 45.6C472.865 46.0667 471.598 46.5 470.165 46.9C468.765 47.3 467.348 47.5 465.915 47.5C464.582 47.5 463.365 47.2833 462.265 46.85C461.165 46.3833 460.282 45.6333 459.615 44.6C458.948 43.5667 458.615 42.2 458.615 40.5V26.8H455.265V20.75H458.615V12.4H466.615V20.75H471.965V26.8H466.615V37.75C466.615 38.6167 466.832 39.25 467.265 39.65C467.698 40.0167 468.248 40.2 468.915 40.2C469.515 40.2 470.132 40.1 470.765 39.9C471.398 39.7 471.948 39.4833 472.415 39.25L473.965 45.6Z" fill="white"/>
<path d="M26 48H20L21.3538 26H24.4462L26 48Z" stroke="white" stroke-width="2"/>
<path d="M23.1532 26.0097L37.6909 11.3628C35.4915 10.7233 30.1787 10.4769 26.5225 14.6073C22.8662 18.7377 22.7529 23.9299 23.1532 26.0097Z" stroke="white" stroke-width="2"/>
<path d="M23.1071 26.124L43.7436 26.0468C42.6406 24.0394 39.0582 20.1084 33.5522 20.4437C28.0462 20.779 24.2946 24.3703 23.1071 26.124Z" stroke="white" stroke-width="2"/>
<path d="M22.9952 26.1632L37.642 40.7009C38.2816 38.5015 38.528 33.1887 34.3976 29.5325C30.2672 25.8762 25.075 25.7629 22.9952 26.1632Z" stroke="white" stroke-width="2"/>
<path d="M8.45939 40.9215L22.997 26.2747C20.7977 25.6352 15.4849 25.3887 11.8286 29.5191C8.17238 33.6496 8.05903 38.8417 8.45939 40.9215Z" stroke="white" stroke-width="2"/>
<path d="M2.11149 26.0302L22.748 25.953C21.645 23.9456 18.0626 20.0147 12.5566 20.35C7.05058 20.6853 3.29902 24.2765 2.11149 26.0302Z" stroke="white" stroke-width="2"/>
<path d="M8.63388 11.2633L23.1734 25.9083C23.8291 23.7137 24.1146 18.4028 20.0112 14.7163C15.9077 11.0298 10.7165 10.8783 8.63388 11.2633Z" stroke="white" stroke-width="2"/>
</svg>
