<svg width="2078" height="269" viewBox="0 0 2078 269" fill="none" xmlns="http://www.w3.org/2000/svg">
<g clip-path="url(#clip0)">
<path d="M1217.6 196.43C1217.6 190.61 1218.43 186.01 1220.08 182.64C1224.13 180.39 1229.6 179.26 1236.5 179.26C1243.4 179.26 1248.78 180.39 1252.65 182.64C1254.31 186.02 1255.13 190.62 1255.13 196.43C1255.13 202.25 1254.3 206.85 1252.65 210.22C1249.15 212.47 1243.86 213.6 1236.78 213.6C1229.7 213.6 1224.13 212.47 1220.08 210.22C1218.43 206.85 1217.6 202.25 1217.6 196.43Z" fill="white"/>
<path d="M331.53 38.0099L331.81 58.8399V206.92C327.95 207.67 323.3 208.05 317.87 208.05C312.44 208.05 307.89 207.67 304.21 206.92V38.0099L288.48 38.2899H255.08C254.34 34.7299 253.98 30.8299 253.98 26.6099C253.98 22.3899 254.35 18.3999 255.08 14.6499H380.66C381.76 17.8399 382.32 21.5999 382.32 25.9099C382.32 34.1699 377.17 38.2999 366.86 38.2999H347.54L331.81 38.0199H331.53V38.0099Z" fill="white"/>
<path d="M359.48 80.8002C360.95 74.4202 364.26 69.5402 369.42 66.1602C381.56 69.1602 389.57 77.5202 393.43 91.2102C400.97 74.5102 413.03 66.1602 429.59 66.1602C434.01 66.1602 438.79 66.7202 443.94 67.8502C443.94 77.9802 441.82 86.5302 437.59 93.4702C436.49 93.2902 432.8 92.9101 426.55 92.3401C413.67 92.3401 403.55 99.6602 396.19 114.3V206.92C393.06 207.67 388.6 208.05 382.8 208.05C377 208.05 372.54 207.67 369.41 206.92V109.51C369.41 96.7502 366.1 87.1802 359.48 80.8002Z" fill="white"/>
<path d="M540.12 79.9502C553 93.2802 559.44 112.47 559.44 137.52C559.44 162.57 553 181.77 540.12 195.09C530 205.41 516.75 210.57 500.38 210.57C484 210.57 470.75 205.41 460.64 195.09C447.76 181.77 441.32 162.57 441.32 137.52C441.32 112.46 447.76 93.2802 460.64 79.9502C470.76 69.6302 484.01 64.4702 500.38 64.4702C516.75 64.4702 530 69.6402 540.12 79.9502ZM468.91 137.67C468.91 172.2 479.4 189.47 500.37 189.47C521.35 189.47 531.83 172.2 531.83 137.67C531.83 127.91 530.95 119.37 529.21 112.05C527.46 104.73 524.15 98.4402 519.27 93.1902C514.39 87.9402 508.09 85.3102 500.36 85.3102C492.63 85.3102 486.33 87.9402 481.45 93.1902C476.57 98.4502 473.26 104.73 471.51 112.05C469.78 119.37 468.91 127.91 468.91 137.67Z" fill="white"/>
<path d="M645.69 64.4702C660.68 64.4702 672.23 70.9402 680.33 83.8902C688.42 96.8402 692.47 114.67 692.47 137.38C692.47 160.09 687.27 177.78 676.88 190.45C666.48 203.12 654.2 209.45 640.03 209.45C628.99 209.45 618.13 206.17 607.46 199.6V249.99C607.46 256.18 606.45 260.64 604.42 263.36C602.39 266.08 598.62 267.44 593.1 267.44H583.16L581.23 265.75V68.6902L583.16 67.0002H591.44C600.27 67.0002 605.42 71.8802 606.9 81.6402C617.76 70.2002 630.69 64.4702 645.69 64.4702ZM639.48 87.5602C626.6 87.5602 615.93 94.0302 607.46 106.98V176.23C617.58 183.55 627.06 187.21 635.89 187.21C644.72 187.21 651.85 182.85 657.28 174.12C662.7 165.39 665.42 152.77 665.42 136.25C665.42 119.74 662.98 107.49 658.11 99.5102C653.23 91.5502 647.02 87.5602 639.48 87.5602Z" fill="white"/>
<path d="M816.94 70.3799L779.96 202.41C773.34 225.87 765.79 242.71 757.33 252.94C748.86 263.17 736.17 268.28 719.24 268.28C710.22 268.28 701.76 266.87 693.85 264.06C693.85 263.31 693.85 262.46 693.85 261.53C693.85 255.15 695.78 249.42 699.65 244.36C705.54 246.61 712.57 247.74 720.76 247.74C728.95 247.74 735.53 244.74 740.49 238.73C745.46 232.72 749.78 223.62 753.46 211.42L754.29 208.32C748.58 207.94 744.17 206.73 741.04 204.66C737.91 202.6 735.52 198.84 733.86 193.4L697.15 70.0899C702.85 67.4599 708.19 66.1499 713.16 66.1499C719.97 66.1499 724.57 70.1899 726.96 78.2499L746.28 144.41C747.38 147.98 750.97 161.96 757.04 186.36C757.41 187.67 758.23 188.33 759.52 188.33L790.71 68.1199C793.65 67.3699 797.61 66.9899 802.58 66.9899C807.55 66.9899 811.96 67.6499 815.83 68.9599L816.94 70.3799Z" fill="white"/>
<path d="M917.13 154.84L926.79 178.49C931.21 189.75 935.62 197.07 940.04 200.45C935.62 206.08 929.64 208.9 922.1 208.9C917.5 208.9 914.05 207.68 911.75 205.24C909.45 202.8 907.1 198.67 904.71 192.85L893.12 164.98C889.99 157.48 886.82 152.41 883.6 149.78C880.38 147.15 876.05 145.84 870.63 145.84C865.2 145.84 860.19 146.12 855.59 146.68V206.93C852.46 207.68 848.18 208.06 842.76 208.06C837.33 208.06 832.87 207.68 829.37 206.93V1.69L831.3 0H841.24C846.76 0 850.53 1.36 852.56 4.08C854.58 6.8 855.6 11.26 855.6 17.45V123.86L865.54 123.3C867.93 123.3 870.14 121.89 872.16 119.08L897.55 79.1C899.94 74.97 902.42 71.97 905 70.09C907.57 68.22 911.49 67.28 916.73 67.28C921.97 67.28 926.25 67.38 929.56 67.56L931.22 69.81L900.03 119.36C897.64 123.3 894.79 126.68 891.47 129.49C902.68 132.51 911.24 140.95 917.13 154.84Z" fill="white"/>
<path d="M948.31 163.85V97.1299C948.31 86.2499 946.84 77.8899 943.89 72.0699C948.12 68.3199 953.27 66.4399 959.35 66.4399C965.42 66.4399 969.52 67.8499 971.63 70.6599C973.74 73.4799 974.8 77.8899 974.8 83.8899V156.8C974.8 166.93 976.09 174.16 978.66 178.48C981.23 182.8 985.7 184.95 992.05 184.95C998.4 184.95 1004.88 183.26 1011.51 179.88C1018.13 176.5 1024.02 172 1029.17 166.37V68.1199C1033.95 67.3699 1038.37 66.9899 1042.42 66.9899C1046.46 66.9899 1050.88 67.3699 1055.67 68.1199V167.78C1055.67 181.29 1058.25 190.4 1063.4 195.09C1061.74 201.28 1058.34 205.88 1053.19 208.88C1041.96 206.44 1034.7 199.59 1031.39 188.33C1017.59 202.41 1001.95 209.44 984.47 209.44C972.33 209.44 963.26 205.22 957.28 196.77C951.3 188.34 948.31 177.36 948.31 163.85Z" fill="white"/>
<path d="M1074.18 196.5C1074.36 193.31 1075.33 189.84 1077.08 186.08C1078.83 182.33 1080.9 179.42 1083.29 177.35C1098.37 185.8 1110.57 190.02 1119.86 190.02C1129.15 190.02 1136.1 188.29 1140.7 184.81C1145.3 181.34 1147.69 176.88 1147.88 171.44C1147.88 162.81 1141.9 156.15 1129.94 151.45L1114.48 145.26C1090.93 136.25 1079.15 123.02 1079.15 105.57C1079.15 93.0002 1083.7 83.0002 1092.81 75.5902C1101.92 68.1802 1113.88 64.4702 1128.69 64.4702C1143.5 64.4702 1157.9 67.7602 1171.88 74.3202C1172.06 77.8902 1171.37 81.6402 1169.81 85.5802C1168.24 89.5202 1166.27 92.5302 1163.88 94.5902C1150.45 88.5902 1138.21 85.5802 1127.17 85.5802C1120.91 85.5802 1115.85 87.1302 1111.99 90.2202C1108.13 93.3202 1106.19 97.2102 1106.19 101.9C1106.19 106.59 1107.61 110.3 1110.47 113.02C1113.32 115.74 1117.87 118.32 1124.13 120.76L1140.69 126.95C1163.87 136.15 1175.47 150.22 1175.47 169.18C1175.47 181.76 1170.64 191.8 1160.98 199.3C1151.32 206.81 1138.25 210.56 1121.79 210.56C1105.32 210.58 1089.45 205.89 1074.18 196.5Z" fill="white"/>
<path d="M219 111.84C218.75 51.3698 169.98 2.33984 109.5 2.33984C49.03 2.33984 0 51.3598 0 111.84C0 167.32 41.26 213.15 94.78 220.35L99.81 124C96.61 122.07 94.05 119.22 92.47 115.81L39.88 168.4C35.87 150.27 40.27 129.89 54.38 115.79C62.6 107.57 72.72 102.45 83.33 100.38H11.88C21.86 84.7198 39.38 73.4298 59.33 73.4298C71.35 73.4298 82.5 77.2098 91.64 83.6398L40.7 32.6998C58.84 28.6898 79.21 33.0898 93.31 47.1998C102.92 56.8098 108.3 69.0398 109.5 81.5798C110.69 69.0298 116.08 56.8098 125.69 47.1998C139.79 33.0998 160.16 28.6898 178.3 32.6998L127.35 83.6498C136.49 77.2198 147.64 73.4398 159.66 73.4398C179.61 73.4398 197.12 84.7298 207.11 100.39H135.68C146.28 102.46 156.41 107.58 164.63 115.8C178.73 129.9 183.14 150.28 179.13 168.41L126.54 115.82C124.96 119.23 122.39 122.07 119.2 124.01L124.23 220.36C177.73 213.15 219.2 160.92 219 111.84Z" fill="white"/>
<path d="M1367.15 74.75C1367.87 77.94 1368.23 81.37 1368.23 85.03C1368.23 88.69 1367.87 92.02 1367.15 95.02L1333.34 94.74V181.17C1333.34 189.24 1337.03 193.28 1344.43 193.28H1363.36C1364.8 196.85 1365.52 200.74 1365.52 204.96C1365.52 209.18 1365.43 211.86 1365.25 212.98C1354.79 214.29 1344.87 214.95 1335.5 214.95C1317.11 214.95 1307.91 205.76 1307.91 187.36V94.74L1288.17 95.02C1287.45 92.02 1287.09 88.69 1287.09 85.03C1287.09 81.37 1287.45 77.95 1288.17 74.75L1307.91 75.03V49.41C1307.91 43.03 1308.9 38.53 1310.89 35.9C1312.87 33.27 1316.57 31.96 1321.98 31.96H1331.72L1333.34 33.65V75.32L1367.15 74.75Z" fill="white"/>
<path d="M1492.38 153.01H1412.05C1412.59 166.34 1415.3 176.66 1420.16 183.98C1425.03 191.3 1433.14 194.96 1444.5 194.96C1455.86 194.96 1468.39 191.3 1482.1 183.98C1486.61 188.48 1489.4 194.4 1490.48 201.72C1476.05 212.23 1459.15 217.49 1439.77 217.49C1420.38 217.49 1406.41 210.73 1397.85 197.22C1389.28 183.71 1385 166.11 1385 144.44C1385 122.76 1389.82 105.17 1399.47 91.6499C1409.11 78.1399 1422.64 71.3799 1440.04 71.3799C1457.44 71.3799 1470.83 77.0599 1480.21 88.4099C1489.58 99.7699 1494.27 114.17 1494.27 131.62C1494.28 138.75 1493.64 145.88 1492.38 153.01ZM1461.96 102.2C1457.36 95.1599 1450.46 91.6399 1441.27 91.6399C1432.07 91.6399 1425.04 95.2599 1420.17 102.48C1415.3 109.71 1412.6 119.89 1412.06 133.02H1468.86V129.36C1468.85 118.29 1466.55 109.23 1461.96 102.2Z" fill="white"/>
<path d="M1514.02 203.4C1514.2 200.21 1515.14 196.74 1516.86 192.98C1518.57 189.23 1520.6 186.32 1522.95 184.25C1537.73 192.7 1549.68 196.92 1558.79 196.92C1567.89 196.92 1574.7 195.19 1579.21 191.71C1583.72 188.24 1586.06 183.78 1586.24 178.34C1586.24 169.71 1580.38 163.05 1568.66 158.35L1553.51 152.16C1530.43 143.15 1518.89 129.92 1518.89 112.47C1518.89 99.9001 1523.35 89.9001 1532.28 82.4901C1541.21 75.0801 1552.93 71.3701 1567.44 71.3701C1581.95 71.3701 1596.06 74.6601 1609.77 81.2201C1609.95 84.7901 1609.27 88.5401 1607.74 92.4801C1606.21 96.4201 1604.27 99.4301 1601.93 101.49C1588.76 95.4901 1576.78 92.4801 1565.96 92.4801C1559.83 92.4801 1554.87 94.0301 1551.08 97.1301C1547.29 100.23 1545.4 104.12 1545.4 108.81C1545.4 113.5 1546.79 117.21 1549.59 119.93C1552.38 122.65 1556.85 125.23 1562.98 127.67L1579.21 133.86C1601.93 143.06 1613.29 157.13 1613.29 176.09C1613.29 188.67 1608.56 198.71 1599.09 206.21C1589.62 213.72 1576.82 217.47 1560.68 217.47C1544.54 217.48 1528.99 212.79 1514.02 203.4Z" fill="white"/>
<path d="M1706.87 74.75C1707.59 77.94 1707.95 81.37 1707.95 85.03C1707.95 88.69 1707.59 92.02 1706.87 95.02L1673.06 94.74V181.17C1673.06 189.24 1676.75 193.28 1684.15 193.28H1703.08C1704.52 196.85 1705.24 200.74 1705.24 204.96C1705.24 209.18 1705.15 211.86 1704.97 212.98C1694.51 214.29 1684.59 214.95 1675.22 214.95C1656.83 214.95 1647.63 205.76 1647.63 187.36V94.74L1627.89 95.02C1627.17 92.02 1626.81 88.69 1626.81 85.03C1626.81 81.37 1627.17 77.95 1627.89 74.75L1647.63 75.03V49.41C1647.63 43.03 1648.62 38.53 1650.61 35.9C1652.59 33.27 1656.29 31.96 1661.7 31.96H1671.44L1673.06 33.65V75.32L1706.87 74.75Z" fill="white"/>
<path d="M1839.4 118.1V184.82C1839.4 196.08 1840.75 204.43 1843.46 209.88C1838.95 213.82 1833.54 215.79 1827.23 215.79C1817.85 215.79 1813.17 209.97 1813.17 198.34V125.14C1813.17 115.01 1811.95 107.83 1809.52 103.6C1807.09 99.38 1802.76 97.27 1796.54 97.27C1790.32 97.27 1783.92 98.96 1777.34 102.34C1770.76 105.72 1765.03 110.13 1760.16 115.57V213.82C1757.09 214.57 1752.81 214.95 1747.31 214.95C1741.81 214.95 1737.34 214.57 1733.92 213.82V75.59L1735.81 73.9H1745.55C1754.75 73.9 1759.61 79.81 1760.16 91.64C1773.68 78.88 1788.2 72.5 1803.71 72.5C1815.79 72.5 1824.76 76.72 1830.62 85.17C1836.47 93.61 1839.4 104.59 1839.4 118.1Z" fill="white"/>
<path d="M1977.08 153.01H1896.75C1897.29 166.34 1900 176.66 1904.86 183.98C1909.73 191.3 1917.84 194.96 1929.2 194.96C1940.56 194.96 1953.09 191.3 1966.8 183.98C1971.31 188.48 1974.1 194.4 1975.19 201.72C1960.76 212.23 1943.86 217.49 1924.47 217.49C1905.08 217.49 1891.11 210.73 1882.55 197.22C1873.98 183.71 1869.7 166.11 1869.7 144.44C1869.7 122.76 1874.52 105.17 1884.17 91.6499C1893.81 78.1399 1907.34 71.3799 1924.74 71.3799C1942.14 71.3799 1955.53 77.0599 1964.91 88.4099C1974.28 99.7699 1978.97 114.17 1978.97 131.62C1978.97 138.75 1978.34 145.88 1977.08 153.01ZM1946.65 102.2C1942.05 95.1599 1935.15 91.6399 1925.96 91.6399C1916.77 91.6399 1909.73 95.2599 1904.86 102.48C1899.99 109.71 1897.29 119.89 1896.75 133.02H1953.55V129.36C1953.54 118.29 1951.25 109.23 1946.65 102.2Z" fill="white"/>
<path d="M2076.07 74.75C2076.79 77.94 2077.15 81.37 2077.15 85.03C2077.15 88.69 2076.79 92.02 2076.07 95.02L2042.26 94.74V181.17C2042.26 189.24 2045.95 193.28 2053.35 193.28H2072.28C2073.72 196.85 2074.44 200.74 2074.44 204.96C2074.44 209.18 2074.35 211.86 2074.17 212.98C2063.71 214.29 2053.79 214.95 2044.42 214.95C2026.03 214.95 2016.83 205.76 2016.83 187.36V94.74L1997.08 95.02C1996.36 92.02 1996 88.69 1996 85.03C1996 81.37 1996.36 77.95 1997.08 74.75L2016.83 75.03V49.41C2016.83 43.03 2017.82 38.53 2019.81 35.9C2021.79 33.27 2025.49 31.96 2030.9 31.96H2040.64L2042.26 33.65V75.32L2076.07 74.75Z" fill="white"/>
</g>
<defs>
<clipPath id="clip0">
<rect width="2077.15" height="268.28" fill="white"/>
</clipPath>
</defs>
</svg>
