<svg width="318" height="59" viewBox="0 0 318 59" fill="none" xmlns="http://www.w3.org/2000/svg">
<path d="M84.45 18.7H73.65V47H65.45V18.7H54.6V11.5H84.45V18.7ZM102.843 27.6C100.91 27.6333 99.16 27.95 97.5934 28.55C96.0267 29.15 94.8934 30.05 94.1934 31.25V47H86.1934V20.75H93.5434V26.05C94.4434 24.2833 95.61 22.9 97.0434 21.9C98.4767 20.9 99.9767 20.3833 101.543 20.35C102.21 20.35 102.643 20.3667 102.843 20.4V27.6ZM118.518 47.5C115.518 47.5 112.968 46.8667 110.868 45.6C108.801 44.3333 107.218 42.6667 106.118 40.6C105.018 38.5333 104.468 36.3 104.468 33.9C104.468 31.4667 105.018 29.2167 106.118 27.15C107.218 25.0833 108.818 23.4167 110.918 22.15C113.018 20.8833 115.551 20.25 118.518 20.25C121.484 20.25 124.018 20.8833 126.118 22.15C128.218 23.4167 129.818 25.0833 130.918 27.15C132.018 29.2167 132.568 31.4667 132.568 33.9C132.568 36.3 132.018 38.5333 130.918 40.6C129.818 42.6667 128.218 44.3333 126.118 45.6C124.018 46.8667 121.484 47.5 118.518 47.5ZM112.668 33.9C112.668 35.9333 113.218 37.5833 114.318 38.85C115.451 40.1167 116.851 40.75 118.518 40.75C120.151 40.75 121.518 40.1167 122.618 38.85C123.751 37.5833 124.318 35.9333 124.318 33.9C124.318 31.8667 123.751 30.2167 122.618 28.95C121.518 27.6833 120.151 27.05 118.518 27.05C116.851 27.05 115.451 27.6833 114.318 28.95C113.218 30.2167 112.668 31.8667 112.668 33.9ZM153.135 47.5C151.168 47.5 149.435 47.0833 147.935 46.25C146.468 45.3833 145.335 44.2167 144.535 42.75V57.65H136.535V20.75H143.485V25C144.452 23.5 145.668 22.3333 147.135 21.5C148.602 20.6667 150.318 20.25 152.285 20.25C154.618 20.25 156.702 20.8667 158.535 22.1C160.402 23.3 161.852 24.9167 162.885 26.95C163.952 28.9833 164.485 31.2667 164.485 33.8C164.485 36.4 164.002 38.7333 163.035 40.8C162.068 42.8667 160.718 44.5 158.985 45.7C157.285 46.9 155.335 47.5 153.135 47.5ZM150.435 40.75C151.568 40.75 152.585 40.4333 153.485 39.8C154.385 39.1333 155.085 38.2833 155.585 37.25C156.085 36.1833 156.335 35.0167 156.335 33.75C156.335 31.8167 155.735 30.2167 154.535 28.95C153.368 27.6833 151.868 27.05 150.035 27.05C148.935 27.05 147.868 27.3833 146.835 28.05C145.835 28.6833 145.068 29.55 144.535 30.65V36.05C145.068 37.3833 145.868 38.5 146.935 39.4C148.035 40.3 149.202 40.75 150.435 40.75ZM167.79 50.95C169.157 51.3833 170.307 51.6 171.24 51.6C172.173 51.6 172.907 51.2667 173.44 50.6C174.007 49.9333 174.507 48.7333 174.94 47L164.94 20.75H173.19L179.29 38.8L184.49 20.75H192.04L182.04 51.25C181.34 53.4167 180.073 55.1667 178.24 56.5C176.44 57.8667 174.323 58.55 171.89 58.55C170.49 58.55 169.123 58.3 167.79 57.8V50.95ZM212.828 47L205.978 36.5L203.178 39.35V47H195.178V10.5H203.178V31.6L212.078 20.75H220.528L211.078 32.05L221.328 47H212.828ZM223.395 37.55V20.75H231.395V35.8C231.395 39.1 232.611 40.75 235.045 40.75C236.111 40.75 237.145 40.4667 238.145 39.9C239.145 39.3 240.028 38.3167 240.795 36.95V20.75H248.795V38.1C248.795 38.9 248.911 39.4667 249.145 39.8C249.411 40.1333 249.861 40.3167 250.495 40.35V47C249.728 47.1333 249.078 47.2333 248.545 47.3C248.011 47.3667 247.528 47.4 247.095 47.4C244.228 47.4 242.595 46.2833 242.195 44.05L242.045 42.45C240.845 44.1833 239.345 45.4667 237.545 46.3C235.778 47.1 233.795 47.5 231.595 47.5C228.928 47.5 226.895 46.65 225.495 44.95C224.095 43.25 223.395 40.7833 223.395 37.55ZM265.042 47.5C262.776 47.5 260.576 47.1333 258.442 46.4C256.342 45.6333 254.559 44.55 253.092 43.15L255.842 38.1C259.076 40.4667 262.059 41.65 264.792 41.65C265.826 41.65 266.626 41.4833 267.192 41.15C267.759 40.8167 268.042 40.3 268.042 39.6C268.042 38.8667 267.659 38.35 266.892 38.05C266.126 37.7167 264.992 37.3333 263.492 36.9C261.492 36.2333 259.826 35.5833 258.492 34.95C257.159 34.3167 256.159 33.55 255.492 32.65C254.826 31.75 254.492 30.55 254.492 29.05C254.492 26.4167 255.476 24.3 257.442 22.7C259.409 21.0667 262.076 20.25 265.442 20.25C267.242 20.25 268.992 20.5333 270.692 21.1C272.426 21.6667 274.042 22.6167 275.542 23.95L272.442 28.95C270.942 27.9167 269.609 27.1667 268.442 26.7C267.276 26.2333 266.142 26 265.042 26C264.176 26 263.442 26.1667 262.842 26.5C262.242 26.8 261.942 27.3333 261.942 28.1C261.942 28.8333 262.276 29.3833 262.942 29.75C263.609 30.0833 264.642 30.45 266.042 30.85C268.176 31.4833 269.959 32.1333 271.392 32.8C272.859 33.4333 273.942 34.2333 274.642 35.2C275.376 36.1333 275.742 37.3833 275.742 38.95C275.742 41.6167 274.776 43.7167 272.842 45.25C270.909 46.75 268.309 47.5 265.042 47.5Z" fill="white"/>
<path d="M26 47H20L21.3538 25H24.4462L26 47Z" stroke="white" stroke-width="2"/>
<path d="M23.1533 25.0097L37.6909 10.3628C35.4916 9.7233 30.1788 9.47685 26.5225 13.6073C22.8663 17.7377 22.7529 22.9299 23.1533 25.0097Z" stroke="white" stroke-width="2"/>
<path d="M23.107 25.124L43.7435 25.0468C42.6406 23.0394 39.0581 19.1084 33.5521 19.4437C28.0461 19.779 24.2945 23.3703 23.107 25.124Z" stroke="white" stroke-width="2"/>
<path d="M22.9953 25.1632L37.6421 39.7009C38.2816 37.5015 38.5281 32.1887 34.3977 28.5325C30.2672 24.8762 25.0751 24.7629 22.9953 25.1632Z" stroke="white" stroke-width="2"/>
<path d="M8.45948 39.9215L22.9971 25.2747C20.7977 24.6352 15.485 24.3887 11.8287 28.5191C8.17247 32.6496 8.05912 37.8417 8.45948 39.9215Z" stroke="white" stroke-width="2"/>
<path d="M2.11158 25.0301L22.7481 24.9529C21.6451 22.9455 18.0627 19.0145 12.5567 19.3498C7.05067 19.6851 3.29911 23.2764 2.11158 25.0301Z" stroke="white" stroke-width="2"/>
<path d="M8.63376 10.2632L23.1733 24.9081C23.829 22.7135 24.1145 17.4027 20.011 13.7162C15.9076 10.0297 10.7164 9.87814 8.63376 10.2632Z" stroke="white" stroke-width="2"/>
</svg>
