<svg width="39" height="39" viewBox="0 0 39 39" fill="none" xmlns="http://www.w3.org/2000/svg">
<path d="M19.5 0C8.73068 0 0 8.73068 0 19.5C0 30.2693 8.73068 39 19.5 39C30.2693 39 39 30.2693 39 19.5C39 8.73068 30.2693 0 19.5 0ZM19.5 37.0303C9.81894 37.0303 1.9697 29.1811 1.9697 19.5C1.9697 9.81894 9.81894 1.9697 19.5 1.9697C29.1811 1.9697 37.0303 9.81894 37.0303 19.5C37.0057 29.1712 29.1712 37.0057 19.5 37.0303Z" fill="white"/>
<path d="M24.5721 23.7841L19.3524 19.8447V9.79924C19.3524 9.25757 18.9092 8.81439 18.3675 8.81439C17.8258 8.81439 17.3827 9.25757 17.3827 9.79924V20.3371C17.3876 20.6473 17.5353 20.933 17.7766 21.125L23.3902 25.3598C23.5527 25.5026 23.7645 25.5765 23.9811 25.5568C24.2914 25.5519 24.577 25.4042 24.769 25.1629C25.0448 24.7148 24.966 24.1337 24.5721 23.7841Z" fill="white"/>
</svg>
