<svg width="22" height="22" viewBox="0 0 22 22" fill="none" xmlns="http://www.w3.org/2000/svg">
<path d="M20.3077 8.46154V19.4615C20.3077 21.3231 18.7931 22 17.7692 22H2.53846C0.676923 22 0 20.4854 0 19.4615V4.23077C0 2.36923 1.51462 1.69231 2.53846 1.69231H12.6923C13.1577 1.69231 13.5385 2.07308 13.5385 2.53846C13.5385 3.00385 13.1577 3.38462 12.6923 3.38462H2.53846C2.15769 3.39308 1.69231 3.55385 1.69231 4.23077V19.4615C1.70077 19.8423 1.86154 20.3077 2.53846 20.3077H17.7692C18.15 20.2992 18.6154 20.1469 18.6154 19.4615V8.46154C18.6154 7.99615 18.9962 7.61538 19.4615 7.61538C19.9269 7.61538 20.3077 7.99615 20.3077 8.46154ZM21.1538 0H16.0769C15.6115 0 15.2308 0.380769 15.2308 0.846154C15.2308 1.31154 15.6115 1.69231 16.0769 1.69231H18.9962L8.73231 11.2285C8.39385 11.55 8.36846 12.0831 8.69 12.4215C8.85077 12.6077 9.07923 12.6923 9.30769 12.6923C9.51077 12.6923 9.72231 12.6162 9.88308 12.4638L20.3077 2.78385V5.92308C20.3077 6.38846 20.6885 6.76923 21.1538 6.76923C21.6192 6.76923 22 6.38846 22 5.92308V0.846154C22 0.380769 21.6192 0 21.1538 0Z" fill="white"/>
</svg>
