<svg width="46" height="46" viewBox="0 0 46 46" fill="none" xmlns="http://www.w3.org/2000/svg">
<path d="M0 23.1625C0 20.4299 0.288072 19.1566 0.650485 17.6881C3.45687 6.42315 13.8925 -1.01244 25.3968 0.112194C36.2599 1.17176 45.4782 10.6614 45.9707 21.2943C46.5376 33.3214 38.8154 43.4709 27.4877 45.6551C26.1123 45.9247 21.3824 46.0362 21.02 45.9897C10.6865 44.8837 2.81567 37.9128 0.501803 27.819C0.204438 26.5457 0 23.7852 0 23.1625ZM43.8706 23.1439C43.8892 11.5258 34.6709 2.25922 23.0736 2.23134C11.4671 2.21275 2.20236 11.4329 2.18377 23.0417C2.16519 34.5482 11.3742 43.8148 22.9064 43.8706C34.5036 43.9357 43.852 34.697 43.8706 23.1439Z" fill="#00A14D"/>
<path d="M6.4212 23.2923C6.4212 21.5914 6.43979 19.8812 6.41191 18.1803C6.40262 17.4646 6.61635 17.1486 7.38764 17.1858C9.03244 17.2694 10.6865 17.1021 12.3313 17.3624C15.5838 17.8736 17.6003 20.2158 17.5073 23.4317C17.4144 26.8428 15.2306 29.3058 11.9689 29.5289C10.4263 29.6404 8.87446 29.5196 7.33188 29.5753C6.51413 29.6032 6.41191 29.2036 6.4212 28.5436C6.43049 26.8056 6.4212 25.0489 6.4212 23.2923ZM9.38556 26.0992C9.38556 26.536 9.40414 26.8335 9.99887 26.9357C13.0283 27.4469 15.1935 25.021 14.2735 22.084C13.7903 20.5504 12.1269 19.8533 10.0918 19.9927C8.83729 20.0764 9.37626 19.8812 9.3298 20.4574C9.26475 21.1452 9.39485 25.1697 9.38556 26.0992Z" fill="#00A14D"/>
<path d="M34.4664 29.6409C31.3627 29.5944 29.1232 27.6983 28.6585 24.7334C28.1196 21.2944 29.7551 18.283 32.6451 17.4279C35.6187 16.5449 38.6481 17.7346 39.9119 20.2999C40.5996 21.7034 40.5624 21.7591 38.992 21.787C38.0534 21.8056 37.3193 21.722 36.5945 20.8576C35.1727 19.1753 32.5707 19.7701 31.8831 21.8614C31.4092 23.2834 31.4277 24.7427 32.4128 25.9788C33.119 26.8618 34.1319 27.0105 35.2191 26.8339C35.7488 26.7503 36.325 26.583 36.5387 26.1368C37.1613 24.8728 38.2671 25.1423 39.3172 25.0494C40.581 24.9379 40.3766 25.5513 40.0606 26.3134C39.1778 28.4419 37.1241 29.678 34.4664 29.6409Z" fill="#00A14D"/>
<path d="M28.0453 24.8728C27.9896 27.7448 25.8708 29.7524 22.9529 29.6966C19.9421 29.6408 17.9256 27.5496 17.9907 24.5846C18.0557 21.7312 20.2209 19.6772 23.083 19.7422C26.0753 19.798 28.1104 21.9078 28.0453 24.8728ZM23.0737 22.4004C21.8843 22.3726 21.0944 23.2277 21.0387 24.6218C20.9829 26.0532 21.7728 27.057 22.9901 27.0849C24.1703 27.1127 24.9602 26.2484 25.0159 24.8635C25.0717 23.4042 24.3004 22.4283 23.0737 22.4004Z" fill="#00A14D"/>
</svg>
