<svg width="46" height="46" viewBox="0 0 46 46" fill="none" xmlns="http://www.w3.org/2000/svg">
<path d="M21.1646 0C21.1646 0.0604368 21.1646 0.151092 21.1948 0.211529C20.7715 0.634587 20.197 0.513713 19.683 0.543932C19.4109 0.513713 19.1388 0.483495 18.9272 0.332403C18.8062 0.241747 18.776 0.120874 18.8667 0C19.6226 0 20.3785 0 21.1646 0Z" fill="#0083FF"/>
<path d="M0 24.8096C0.0907049 24.8096 0.151175 24.8398 0.24188 24.8398C0.393055 24.9607 0.453524 25.1118 0.483759 25.2931C0.544229 25.7463 0.513994 26.1694 0.513994 26.5925C0.483759 26.7738 0.42329 26.9249 0.332585 27.076C0.211645 27.1968 0.12094 27.1968 0 27.1062C0 26.3507 0 25.5952 0 24.8096Z" fill="#0083FF"/>
<path d="M0 27.1057C0.0604699 27.1057 0.151175 27.1057 0.211645 27.1057C0.393055 27.2266 0.42329 27.4079 0.513994 27.5892C0.604699 27.8007 0.907049 27.8914 0.876814 28.1936C0.604699 28.2238 0.30235 28.254 0 28.254C0 27.8914 0 27.4986 0 27.1057Z" fill="#0083FF"/>
<path d="M18.8665 0C18.8665 0.0906553 18.8665 0.151092 18.8665 0.241747C18.806 0.302184 18.7153 0.362621 18.6246 0.423058C18.292 0.483495 18.1408 0.876334 17.778 0.906553C17.7478 0.604368 17.7175 0.302184 17.7175 0C18.0803 0 18.4734 0 18.8665 0Z" fill="#0083FF"/>
<path d="M19.7131 42.3065C19.3503 42.246 18.8968 42.4878 18.5944 42.1251C18.5339 42.0345 18.5339 41.9438 18.5642 41.823C18.7758 41.6719 18.806 41.5208 18.5642 41.3697C18.5339 41.279 18.5339 41.1884 18.5944 41.0977C18.5642 40.9768 18.9572 41.1279 18.7456 40.9164C18.5339 40.7049 18.5037 40.4933 18.5037 40.2214C18.5037 36.5952 18.5037 32.969 18.5037 29.373C18.3828 28.8593 18.9875 28.7384 19.1084 28.3455C19.1689 28.0434 19.1991 27.7412 19.5619 27.6203C20.2573 27.6505 21.0132 27.3786 21.7086 27.8318C21.9202 28.6477 21.8295 29.4938 21.8598 30.34C21.89 33.6942 21.7993 37.0484 21.9202 40.4027C22.011 40.8862 21.9807 41.3697 21.9505 41.8532C21.376 42.8504 20.469 42.2762 19.7131 42.3065Z" fill="#0083FF"/>
<path d="M27.6349 27.3481C27.5744 27.3179 27.5744 27.2877 27.5744 27.2272C27.5139 27.0459 27.4837 26.8646 27.5139 26.6833C27.5744 26.502 27.6349 26.3509 27.6953 26.1696C27.907 25.535 27.4837 24.7191 28.2093 24.2054C32.2004 24.0241 36.2216 24.1449 40.2126 24.1449C40.7871 24.296 40.7266 24.7795 40.7871 25.2328C40.8476 25.6256 40.6057 26.0487 40.908 26.4113C41.1197 26.4415 41.3011 26.4415 41.5127 26.502C41.6034 26.5624 41.6941 26.6531 41.7546 26.7437C41.7848 27.0459 41.6337 27.197 41.3615 27.2877C40.908 27.3179 40.4243 27.3481 39.9707 27.4387C36.2518 27.4387 32.5027 27.4387 28.7838 27.4387C28.3908 27.469 27.9977 27.5596 27.6349 27.3481Z" fill="#0083FF"/>
<path d="M12.4265 33.5426C12.3358 31.1553 12.3358 28.7983 12.4265 26.411C13.001 25.7462 13.7871 26.2297 14.3918 26.0786C13.9383 26.0484 13.4545 26.1088 12.9405 26.0484C12.6684 25.6858 13.001 25.6253 13.2429 25.5347C13.6359 25.3836 14.0592 25.4742 14.4523 25.4138C14.6337 25.3534 14.7546 25.2627 14.8151 25.0814C14.8151 24.9907 14.8756 24.9303 14.9361 24.8699C15.1779 24.8699 15.4198 24.9001 15.6617 24.9001C16.3873 25.5649 15.7222 26.1693 15.571 26.7736C15.4198 28.5565 15.571 30.3696 15.4803 32.1525C15.45 32.6058 15.6315 33.1799 14.9361 33.331C14.7244 31.2157 14.9058 29.1005 14.8453 27.2873C14.8453 28.4961 14.8756 30.007 14.8453 31.5179C14.8151 33.4821 15.3593 33.5728 12.8498 33.6332C12.6684 33.6634 12.5475 33.6332 12.4265 33.5426Z" fill="#0083FF"/>
<path d="M17.7782 0.906175C17.9596 0.573772 18.0503 0.0902776 18.6248 0.24137C18.9271 0.664428 19.2295 0.42268 19.5318 0.24137C20.0761 0.24137 20.6203 0.24137 21.1645 0.24137C21.3157 0.24137 21.3762 0.301807 21.3459 0.452899C21.2855 0.603991 21.225 0.755083 21.1645 0.936393C21.0738 1.75229 21.2855 2.56819 21.0436 3.35387C20.9831 3.47474 20.8924 3.53518 20.7715 3.53518C20.5598 3.47474 20.3179 3.44452 20.1668 3.23299C19.9249 2.87037 20.0761 2.44731 19.9854 2.08469C19.9854 2.47753 20.0761 2.87037 19.8342 3.26321C19.6528 3.44452 19.4109 3.47474 19.1992 3.5654C18.776 3.53518 18.3224 3.65605 17.8991 3.47474C17.5363 2.62862 17.7782 1.75229 17.7782 0.906175Z" fill="#0083FF"/>
<path d="M10.9753 15.8946H10.8846L10.8241 15.8644C10.673 15.7435 10.7032 15.5622 10.7334 15.4111C10.7939 15.26 10.8241 15.1089 10.9148 14.9578C11.2172 14.1721 10.673 13.2656 11.3079 12.5403C11.5498 12.4195 11.7614 12.4497 11.9731 12.5705C12.4266 13.1145 12.1242 13.8095 12.3661 14.4139C12.5475 14.6858 12.8499 14.8369 13.122 15.0182C15.178 15.1391 17.2339 15.1089 19.3202 15.0182C19.6527 14.9276 19.9853 14.8369 20.3481 14.7765C20.4691 14.7765 20.59 14.7765 20.711 14.8369C20.8621 14.9276 20.9831 15.0485 21.0738 15.1995C21.1645 15.4413 21.104 15.6528 20.9528 15.8644C17.5968 16.0457 14.3012 16.0154 10.9753 15.8946Z" fill="#0083FF"/>
<path d="M0.242065 27.8012C0.242065 27.5594 0.242065 27.3479 0.242065 27.1062C0.242065 26.9551 0.242065 26.804 0.242065 26.6529C0.51418 26.1996 0.604885 25.7463 0.242065 25.2628C0.242065 25.1118 0.242065 24.9909 0.242065 24.8398C0.302535 24.8096 0.363005 24.8096 0.423475 24.8096C0.483945 24.8096 0.51418 24.8096 0.57465 24.8398C0.786295 24.87 0.967705 24.9002 1.17935 24.9607C1.81428 25.0513 2.47945 24.9002 3.11439 25.1118C3.2958 25.1722 3.41674 25.2931 3.47721 25.4744C3.53768 25.5953 3.53768 25.6859 3.47721 25.8068C3.3865 25.9579 3.23533 26.0485 3.05392 26.0787C2.50969 26.0787 1.93522 26.109 1.51193 26.0787C2.02593 26.2601 2.72133 25.9277 3.32603 26.2298C3.47721 26.4716 3.44697 26.7436 3.44697 26.9853C3.44697 27.7105 3.08415 28.0127 2.38875 28.0127C1.66311 28.0429 0.93747 28.0732 0.242065 27.8012Z" fill="#0083FF"/>
<path d="M24.6714 45.7201C24.611 45.6596 24.611 45.5992 24.6412 45.5085C24.7017 45.3877 24.7621 45.2668 24.8226 45.1459C24.8831 45.025 24.9435 44.8739 24.9738 44.7531C25.0645 44.1789 25.0645 43.5746 24.9435 43.0004C24.9133 42.9097 24.8831 42.8191 24.8528 42.7284C24.8226 42.6378 24.8226 42.5471 24.7924 42.4263C25.8808 42.2449 26.9693 42.0939 28.0577 42.5169C27.4228 43.0608 27.3926 43.7861 27.4228 44.5415C27.4228 44.9646 27.6647 45.3574 27.3926 45.7805C27.2112 45.8712 26.9995 45.8409 26.7879 45.8409C26.3344 45.569 25.8808 45.7503 25.4273 45.8409C25.1854 45.8107 24.8831 45.9316 24.6714 45.7201Z" fill="#0083FF"/>
<path d="M40.4845 24.356C36.5237 24.4164 32.5629 24.2351 28.6323 24.4466C28.4509 24.4466 28.2695 24.3862 28.0881 24.356C27.8765 24.4164 27.7858 24.356 27.7858 24.1747C27.8765 24.0538 27.9974 23.9934 28.1486 23.9934C32.2303 23.9934 36.3423 23.9934 40.424 23.9934C40.8473 23.9934 41.2706 23.9027 41.6636 24.084C42.1776 23.9934 42.6009 24.0538 42.5102 24.7488C42.3893 25.5949 42.7823 26.5015 42.2381 27.2872C41.9962 27.4987 41.6939 27.4081 41.4217 27.3778C41.331 27.2872 41.3008 27.1965 41.3915 27.0756C41.5729 26.985 41.6334 26.8037 41.6334 26.6224C41.5124 26.2295 41.7241 25.8065 41.6334 25.5345C41.6636 25.2625 41.6939 25.3532 41.6939 25.3834C41.5427 25.7158 41.7241 26.1389 41.4217 26.4411C40.4845 26.1691 41.0589 25.3532 40.817 24.8093C40.7868 24.7186 40.7566 24.628 40.6961 24.5373C40.6054 24.5071 40.5449 24.4164 40.4845 24.356Z" fill="#0083FF"/>
<path d="M26.214 36.2923C28.27 36.1412 28.27 36.1412 28.27 38.3169C28.27 40.0394 28.27 40.0394 26.5466 39.8278C26.4559 39.435 26.3349 39.8883 26.2442 39.8278C25.7 39.8883 25.0651 40.2509 24.672 39.5257C24.8232 39.3141 24.672 39.0119 24.8534 38.8004C24.9441 38.7702 25.0651 38.7702 25.1558 38.8306C25.6093 39.9185 26.0023 38.8306 26.4256 38.8004C26.6373 38.9817 26.9396 38.8911 27.2117 38.8911C27.635 38.6191 27.3629 38.2565 27.3327 37.9241C27.4536 37.4104 26.9699 37.5615 26.7582 37.4406C26.3349 37.1686 25.7907 36.9571 26.214 36.2923Z" fill="#0083FF"/>
<path d="M9.67533 26.1987C9.67533 26.4102 9.70556 26.652 9.70556 26.8635C9.7358 28.3744 10.0381 28.2838 8.28452 28.1931C8.13335 27.9514 7.98217 27.6492 7.61935 27.6492C7.317 27.619 6.98442 27.6492 6.68207 27.619C6.50066 27.5887 6.34948 27.5283 6.19831 27.4377C6.13784 27.347 6.1076 27.2563 6.13784 27.1355C6.74254 26.5915 6.86348 25.9569 6.59136 25.2015C6.59136 25.0806 6.65183 24.99 6.74254 24.9295C7.01465 24.8086 7.28677 24.8086 7.52865 24.9295C7.61935 24.99 7.67982 25.0806 7.67982 25.2015C7.67982 25.685 7.89147 25.8965 8.37523 25.8663C8.85899 25.8361 9.31251 25.8361 9.67533 26.1987Z" fill="#0083FF"/>
<path d="M42.5707 19.5206C42.5405 19.4601 42.5405 19.3695 42.5102 19.309C42.3288 18.8558 42.4497 18.3723 42.5405 17.8888C43.387 17.5262 44.2336 17.7679 45.1104 17.7679C45.5035 17.8283 45.9872 17.7679 45.8965 18.4327C45.8965 18.5234 45.8663 18.6442 45.8058 18.7349C45.5942 19.0371 45.2918 19.2788 45.0197 19.5206C44.2034 19.6717 43.387 19.7019 42.5707 19.5206Z" fill="#0083FF"/>
<path d="M15.42 26.4412C15.6014 25.9577 16.1154 25.5044 15.6619 24.9303C16.0549 24.9001 16.0851 25.172 16.0549 25.444C16.0549 28.5263 16.0549 31.6086 16.0247 34.6908C16.0247 34.7815 15.934 34.9024 15.9037 34.993C15.8735 34.9628 15.813 34.9628 15.7828 34.9326C15.6619 34.7815 15.6316 34.6002 15.5409 34.4491C15.42 34.298 15.2386 34.2376 15.0572 34.1469C14.8153 33.9958 14.8153 33.7843 14.9664 33.5728C15.4502 33.2403 15.42 32.7871 15.42 32.3338C15.42 30.3696 15.3897 28.4054 15.42 26.4412Z" fill="#0083FF"/>
<path d="M30.1141 21.0926C30.0838 21.0624 30.0536 21.0624 30.0536 21.0322C29.8722 17.6175 29.7513 14.233 30.0838 10.8184C30.1443 10.8486 30.1746 10.8788 30.235 10.909C30.235 11.4227 30.5676 11.7551 30.8095 12.148C30.8397 12.3293 30.8095 12.4804 30.7793 12.6617C30.749 12.7826 30.7188 12.9034 30.6885 13.0243C30.6281 14.9885 30.6583 16.9225 30.6583 18.8867C30.6583 19.1889 30.7792 19.4004 30.9607 19.6119C31.0514 19.763 31.1118 19.8839 30.9909 20.0652C30.5676 20.2465 30.4164 20.73 30.1141 21.0926Z" fill="#0083FF"/>
<path d="M42.5707 19.5208C43.3568 19.0977 44.2336 19.4604 45.0802 19.2791C45.1407 19.2791 45.2012 19.2791 45.2314 19.2791C45.8663 19.4604 45.6849 20.0949 45.8663 20.518C45.9873 21.1526 45.6245 21.3037 45.1105 21.2433C44.2639 21.2433 43.3871 21.485 42.5405 21.1224C42.3591 20.6389 42.3893 20.1856 42.5103 19.7021C42.5405 19.6719 42.5405 19.6115 42.5707 19.5208Z" fill="#0083FF"/>
<path d="M25.0644 33.5423C24.3993 33.2402 24.7923 32.666 24.7923 32.2732C24.7319 29.8859 24.7621 29.8859 27.2111 29.8859C29.509 29.8859 31.7766 29.8859 34.0745 29.8859C34.4373 29.8859 34.8303 29.7348 35.1629 30.037C35.2536 30.1277 35.2839 30.2485 35.1932 30.3392C35.042 30.4601 34.8606 30.4601 34.6792 30.4601C34.4373 30.3996 34.1954 30.3996 33.9535 30.3996C31.7766 30.3996 29.5997 30.3996 27.4228 30.3996C26.9692 30.3996 26.4855 30.2788 26.1529 30.7018C26.032 30.8227 25.8808 30.9133 25.7296 30.9133C25.0342 30.7623 25.5482 31.3364 25.3668 31.5177C25.3366 32.0919 25.4273 32.666 25.2761 33.2402C25.2156 33.3308 25.1551 33.4517 25.0644 33.5423Z" fill="#0083FF"/>
<path d="M3.71851 18.6447C3.89992 18.3728 4.20227 18.4332 4.44415 18.4332C8.88869 18.4332 13.3332 18.4332 17.7778 18.4332C17.9894 18.4332 18.2313 18.3728 18.3825 18.6447C18.3522 18.675 18.322 18.7052 18.2918 18.7656C18.1708 18.8563 18.0196 18.9469 17.8382 18.9771C17.7173 18.9771 17.6266 18.9771 17.5057 18.9771C17.2033 18.9167 16.901 18.9469 16.5986 18.9771C13.0611 19.0074 9.52362 19.0074 5.98613 18.9771C5.50237 18.9167 4.9279 18.7354 4.68602 19.4304C4.53485 19.4909 4.38368 19.4909 4.2325 19.4606C3.93015 19.3398 3.83945 19.0678 3.74874 18.7656C3.71851 18.7354 3.71851 18.675 3.71851 18.6447Z" fill="#0083FF"/>
<path d="M27.393 3.83765C27.6047 4.04918 27.5442 4.35136 27.5442 4.59311C27.5442 8.94456 27.5442 13.296 27.5442 17.6172C27.5442 17.8892 27.6047 18.1612 27.3326 18.3425C27.3023 18.3425 27.2721 18.3123 27.2419 18.2821C27.1209 18.0705 26.9697 17.8892 26.8488 17.6777C26.8186 17.5568 26.8186 17.4662 26.8488 17.3453C26.9093 17.2244 26.9697 17.1035 27 16.9827C27.0604 13.024 27.1209 9.06543 26.9697 5.0766C26.879 4.92551 26.7581 4.80464 26.6674 4.62333C26.486 4.32114 26.6069 4.07939 26.9093 3.9283C27.0604 3.86786 27.2419 3.83765 27.393 3.83765Z" fill="#0083FF"/>
<path d="M19.7733 9.67053C19.1686 9.67053 18.5639 9.67053 17.929 9.67053C17.7174 9.30791 17.8685 8.88485 17.8383 8.49201C17.929 8.00852 18.5035 7.85743 18.5942 7.34372C19.1384 7.10197 19.6222 7.40415 20.1059 7.55524C20.1664 7.6459 20.1966 7.76677 20.2269 7.85743C20.2571 8.09918 20.2269 8.3107 20.1966 8.52223C20.0757 8.91507 20.0757 9.36835 19.7733 9.67053Z" fill="#0083FF"/>
<path d="M27.363 45.7512C27.1211 45.0562 27.0908 44.3309 27.1513 43.6057C27.1816 43.0315 27.4234 42.6085 28.0584 42.5178C28.4212 43.515 28.3002 44.482 28.0886 45.4792C27.9979 45.9929 27.7258 45.9627 27.363 45.9023C27.2723 45.8721 27.242 45.8116 27.2723 45.7814C27.3025 45.7512 27.3327 45.7512 27.363 45.7512Z" fill="#0083FF"/>
<path d="M41.3913 27.3179C41.6634 27.3179 41.9658 27.3179 42.2379 27.3481C42.0565 27.6201 41.7844 27.5597 41.5122 27.5597C37.1282 27.5597 32.7441 27.5597 28.36 27.5597C28.0879 27.5597 27.8158 27.6201 27.6344 27.3481C31.8371 27.3481 36.0397 27.3481 40.2424 27.3481C40.6354 27.197 40.9983 27.197 41.3913 27.3179Z" fill="#0083FF"/>
<path d="M33.5611 11.0297C33.682 14.3235 33.7122 17.6173 33.5611 20.9111C33.4099 20.9715 33.3192 20.9413 33.2285 20.8204C32.8354 19.4908 33.1075 18.1008 33.0168 16.741C32.9866 15.8948 32.9866 15.0789 33.0168 14.2328C33.0471 13.4774 32.8354 12.9636 31.9586 12.9636C31.626 12.9636 31.2934 12.8428 31.0516 12.5406C31.0213 12.4802 30.9911 12.4197 30.9911 12.3593C30.9911 12.2384 31.0516 12.1175 31.1725 12.0571C31.7167 11.7549 32.3819 12.0873 32.9261 11.7247C33.1075 11.5132 33.1378 11.2714 33.2889 11.0599C33.3494 10.9692 33.4704 10.9692 33.5611 11.0297Z" fill="#0083FF"/>
<path d="M21.8298 41.8224C21.8298 41.3691 21.8298 40.8856 21.8298 40.4324C21.6182 39.0423 21.7391 37.6221 21.7391 36.232C21.7089 33.4821 21.7089 30.7625 21.7391 28.0126C21.7996 27.8615 21.8903 27.8011 22.0717 27.8313C22.1019 32.5756 22.2229 37.3199 22.0112 42.0642C21.8298 42.0642 21.7089 42.0339 21.8298 41.8224Z" fill="#0083FF"/>
<path d="M25.0647 33.5425C25.0647 33.4821 25.0647 33.3914 25.0647 33.331C25.5182 32.9382 26.0322 32.9684 26.5764 32.9684C28.7231 32.9684 30.9 32.9382 33.0467 32.9684C33.2281 32.9986 33.4398 32.9986 33.6212 32.9986C34.0445 32.9986 34.1957 32.7871 34.1957 32.3942C34.2259 32.0014 34.1654 31.5783 34.4375 31.2459C34.5585 31.1855 34.6794 31.1553 34.8004 31.1553C34.9213 31.1855 35.0422 31.2761 35.1027 31.397C35.1632 32.1223 35.3446 32.8475 34.9515 33.5425C31.6559 33.5425 28.3603 33.5425 25.0647 33.5425Z" fill="#0083FF"/>
<path d="M41.694 24.1141C37.068 24.1141 32.4421 24.1443 27.8464 24.1443C27.7557 24.2048 27.665 24.235 27.5742 24.2048C27.5138 24.1141 27.5138 24.0235 27.6045 23.963C29.5395 23.7213 31.4746 23.9026 33.4398 23.8724C35.7982 23.8421 38.1565 23.8421 40.545 23.8724C40.9079 23.8724 41.3614 23.6911 41.694 24.1141Z" fill="#0083FF"/>
<path d="M18.6554 41.1276C18.6554 41.1881 18.6554 41.2787 18.6554 41.3392C18.7763 41.4903 18.7763 41.6716 18.6554 41.8227C18.6251 41.9133 18.6251 42.004 18.5949 42.0946C18.5344 41.9738 18.4437 41.8529 18.4437 41.7018C18.4437 37.2899 18.474 32.9082 18.5042 28.4963C18.5949 28.4661 18.6856 28.4661 18.7461 28.5568C18.7763 28.7079 18.7461 28.8287 18.6554 28.9496C18.6554 32.8478 18.6554 36.7762 18.6554 40.6744C18.7461 40.8255 18.7763 40.9766 18.6554 41.1276Z" fill="#0083FF"/>
<path d="M23.9763 18.3721C23.7344 16.2266 23.9159 14.0509 23.8856 11.9054C23.8554 9.79008 23.9159 7.64457 23.9159 5.52928C24.067 5.49906 24.188 5.5595 24.2787 5.71059C24.4601 6.01278 24.4601 6.3754 24.4601 6.7078C24.4601 10.3944 24.4903 14.1113 24.4299 17.798C24.4299 17.9491 24.3694 18.0699 24.3089 18.221C24.2484 18.3419 24.1275 18.4023 23.9763 18.3721Z" fill="#0083FF"/>
<path d="M18.4131 21.8471C18.2014 22.1191 17.8688 22.0888 17.5665 22.0888C13.5452 22.0888 9.52399 22.0586 5.53297 22.0586C5.44227 21.8773 5.50274 21.7564 5.65391 21.696C5.80509 21.6356 5.92603 21.5751 6.0772 21.5751C10.0682 21.5449 14.0592 21.4543 18.0805 21.6356C18.2317 21.6658 18.3224 21.7262 18.4131 21.8471Z" fill="#0083FF"/>
<path d="M33.3493 20.9115C33.4097 20.9115 33.5004 20.9115 33.5609 20.9115C32.4422 21.3346 31.2933 21.4253 30.1444 21.0929C30.0839 20.4281 30.1444 19.8539 31.0514 19.9748C31.5654 19.8237 32.1096 19.9446 32.6236 19.9748C32.8957 20.005 33.1981 20.0654 33.1981 20.3978C33.1981 20.7605 32.8957 20.7605 32.6236 20.7605C32.3213 20.7605 32.0189 20.7605 31.8678 20.7605C32.2608 20.9115 32.8353 20.6396 33.3493 20.9115Z" fill="#0083FF"/>
<path d="M36.3123 18.1612C36.1914 17.859 36.3425 17.7381 36.6146 17.7079C37.6729 17.6777 39.0334 17.2546 39.6986 17.859C40.394 18.554 39.9707 19.9139 39.8498 21.0017C39.8498 21.032 39.7893 21.0622 39.7893 21.0924C39.6986 21.0017 39.6381 20.9111 39.6079 20.8204C39.5172 20.5485 39.5172 20.2765 39.5777 19.9743C39.6986 19.7023 39.7288 19.4304 39.6986 19.1584C39.487 19.1584 39.9405 20.0347 39.2451 19.6419C39.1846 19.5512 39.1544 19.4606 39.1241 19.3397C39.0032 18.9771 39.1846 18.4936 38.6706 18.2821C38.3985 18.1612 38.1264 18.2216 37.8543 18.2821C37.31 18.3425 36.796 18.3425 36.3123 18.1612Z" fill="#0083FF"/>
<path d="M11.0059 12.39C11.2477 12.1483 11.5501 12.1785 11.8827 12.1785C14.6643 12.1785 17.4459 12.1785 20.1973 12.1785C20.4694 12.1785 20.7415 12.1483 20.9532 12.3598C21.0136 12.4202 21.0136 12.4505 21.0136 12.5109C21.0136 12.5713 21.0136 12.6016 20.9834 12.6016C20.9532 12.7224 20.8625 12.7829 20.7718 12.8433C20.6508 12.9037 20.5299 12.9642 20.3787 12.9642C20.288 12.9642 20.1671 12.934 20.0763 12.8735C19.8345 12.7224 19.5624 12.7224 19.3205 12.7224C17.0226 12.7526 14.755 12.7224 12.4571 12.7526C12.2153 12.7829 12.0943 12.6016 11.9129 12.5411C11.6106 12.4505 11.278 12.6318 11.0059 12.39Z" fill="#0083FF"/>
<path d="M14.6944 35.1738C14.1199 35.1738 13.5454 35.1738 12.971 35.2041C12.4267 35.2343 12.336 34.9019 12.3965 34.4486C13.2431 33.5723 14.1804 33.8745 15.1479 34.1766C15.2386 34.2673 15.3293 34.358 15.3595 34.509C15.3898 34.6299 15.3595 34.7508 15.3293 34.8717C15.1176 35.053 14.9967 35.2947 14.6944 35.1738Z" fill="#0083FF"/>
<path d="M10.9751 15.895C14.3009 15.895 17.5966 15.895 20.9224 15.895C20.5293 16.2274 20.0456 16.0159 19.6223 16.0159C17.0826 16.0461 14.5126 16.0159 11.9729 16.0159C11.6403 16.0461 11.2774 16.1368 10.9751 15.895Z" fill="#0083FF"/>
<path d="M9.67526 26.1994C9.16126 26.1994 8.64727 26.1994 8.13327 26.1994C7.40763 26.1994 7.10528 25.9879 7.58904 25.2928C8.28445 24.8093 8.97985 24.9907 9.67526 25.2928C9.67526 25.595 9.67526 25.8972 9.67526 26.1994Z" fill="#0083FF"/>
<path d="M38.9427 21.1834C38.1868 21.5762 37.3704 21.2438 36.6146 21.2438C36.1006 21.2438 36.2518 20.7905 36.3425 20.4581C36.796 20.2466 37.2495 20.2768 37.703 20.2768C38.0961 20.3977 38.4891 20.307 38.8822 20.2466C39.3357 20.2768 39.8497 20.2768 39.5776 20.9718C39.0334 21.0927 38.4589 20.9718 37.9449 21.0323C38.217 21.0927 38.6101 20.9114 38.9427 21.1834Z" fill="#0083FF"/>
<path d="M38.6404 20.4584C38.338 20.7908 38.0357 20.7908 37.7333 20.4584C37.3403 20.126 36.7053 20.398 36.3425 20.0051C36.3425 19.9145 36.3425 19.854 36.3425 19.7634C36.7658 19.3403 37.31 19.4008 37.824 19.4612C38.338 19.5519 38.852 19.3403 39.366 19.5519C39.7893 19.6425 39.4567 19.159 39.7893 19.0684C39.7893 19.4008 39.7893 19.7029 39.7893 20.0051C39.487 20.4584 38.9125 20.0656 38.6404 20.4584Z" fill="#0083FF"/>
<path d="M20.0157 8.49143C20.0157 8.24968 20.0157 8.03815 20.0157 7.7964C20.5297 7.97771 20.6809 7.04094 21.2553 7.40357C21.2856 7.58488 21.2553 7.73597 21.1949 7.88706C21.0739 8.49143 21.1042 9.0958 20.9227 9.66995C20.6204 9.66995 20.318 9.66995 20.0157 9.66995C19.8343 9.27711 19.8343 8.88427 20.0157 8.49143Z" fill="#0083FF"/>
<path d="M26.4558 38.8309C26.3651 38.9518 26.2139 39.0424 26.1837 39.1935C26.0628 39.5863 25.7604 39.7374 25.3976 39.677C24.8836 39.5863 25.1557 39.1331 25.0953 38.8611C24.7324 38.015 24.7627 37.1689 25.0953 36.3228C25.186 36.3228 25.2464 36.3228 25.3371 36.3228C25.6395 36.6552 25.6395 37.0782 25.6395 37.4711C25.6395 37.6221 25.6697 37.7732 25.6395 37.9243C25.4883 38.5287 25.7302 38.5287 26.1535 38.287C26.3349 38.3172 26.4558 38.4078 26.5465 38.5589C26.5163 38.6496 26.5163 38.7402 26.4558 38.8309Z" fill="#0083FF"/>
<path d="M26.2137 38.3776C25.7601 38.3171 25.8508 38.861 25.5183 38.9819C25.3369 38.5589 25.2764 38.1358 25.3066 37.6825C25.6694 37.2897 25.4578 36.6249 26.002 36.2925C26.0927 36.2925 26.1532 36.2925 26.2439 36.2925C25.9718 36.9573 26.9091 36.9271 26.9091 37.471C26.8788 37.5012 26.8486 37.5314 26.8184 37.5617C26.7277 37.6221 26.6067 37.6221 26.4858 37.6825C26.3648 37.8336 26.4253 38.0149 26.3648 38.1962C26.3648 38.2567 26.3044 38.3171 26.2137 38.3776Z" fill="#0083FF"/>
<path d="M0.242065 27.8006C0.907235 27.8006 1.60264 27.7704 2.26781 27.8006C2.93298 27.8308 3.26556 27.5588 3.23533 26.894C3.35627 26.8034 3.47721 26.8336 3.53768 26.9545C3.53768 27.3171 3.65862 27.7099 3.44697 28.0725C2.63063 28.4352 1.75381 28.1934 0.907235 28.1934C0.665355 28.0725 0.45371 27.9517 0.242065 27.8006Z" fill="#0083FF"/>
<path d="M7.83096 27.3481C8.31472 27.4388 8.49613 27.7108 8.31472 28.1943C7.77049 28.1943 7.22626 28.1943 6.6518 28.1943C6.31921 28.0129 5.92616 27.8316 6.25874 27.3481C6.40992 27.3481 6.53086 27.3481 6.68203 27.3481C7.04485 27.5295 7.43791 27.5295 7.83096 27.3481Z" fill="#0083FF"/>
<path d="M36.3118 18.1614C36.856 17.8592 37.4002 18.1614 37.9445 18.1614C37.9142 18.4032 38.0956 18.5542 38.2468 18.7053C38.2468 18.8262 38.1863 18.8866 38.0956 18.9471C37.6723 19.1284 37.1583 19.1586 36.7653 19.4306C36.5839 19.4608 36.4327 19.4306 36.3118 19.3097C36.3118 18.9169 36.3118 18.5542 36.3118 18.1614Z" fill="#0083FF"/>
<path d="M6.25894 27.3483C6.16824 27.7412 6.50082 27.9225 6.652 28.1945C6.53106 28.1945 6.37988 28.2549 6.31941 28.1945C5.86589 27.711 5.95659 25.3841 6.41012 24.81C6.50082 24.7496 6.59153 24.7193 6.71247 24.7798C6.77294 24.8704 6.77294 24.9611 6.68223 25.0517C6.68223 25.1424 6.68223 25.2028 6.68223 25.2935C6.98458 26.0187 6.50082 26.5324 6.25894 27.1368C6.25894 27.1972 6.25894 27.2577 6.25894 27.3483Z" fill="#0083FF"/>
<path d="M14.9363 25.5047C14.3618 26.0789 13.485 25.3839 12.8803 25.958C12.7291 26.0789 12.5779 26.1091 12.4268 25.958C12.4268 25.7163 12.4268 25.5047 12.4268 25.263C13.3036 24.8702 14.1804 24.6586 14.9363 25.5047Z" fill="#0083FF"/>
<path d="M18.2016 6.4971C18.2318 5.86251 18.7156 6.04382 19.0482 6.07404C19.7436 6.10426 20.4692 5.89273 21.1646 6.22513C21.0437 6.79928 20.5902 6.64819 20.2273 6.64819C19.8645 6.58775 19.5319 6.46688 19.1691 6.58775C18.9575 6.64819 18.7156 6.70863 18.4737 6.76906C18.383 6.76906 18.2923 6.76906 18.2016 6.73885C18.1411 6.67841 18.1109 6.61797 18.1411 6.55754C18.1714 6.52732 18.1714 6.4971 18.2016 6.4971Z" fill="#0083FF"/>
<path d="M25.0652 36.2925C25.0652 37.1386 25.0652 37.9847 25.0652 38.8308C25.0048 38.8308 24.9141 38.8308 24.8536 38.8308C24.6117 38.6495 24.8234 38.3473 24.6419 38.1358C24.7931 37.5314 24.0675 36.7155 25.0652 36.2925Z" fill="#0083FF"/>
<path d="M15.1775 34.4796C14.2402 34.0867 13.3332 34.1774 12.3959 34.4796C12.3959 34.3285 12.3959 34.1774 12.3959 34.0263C13.0006 33.5126 13.7564 33.845 14.4216 33.6335C14.5728 33.573 14.724 33.4824 14.9054 33.5126C15.0263 33.6032 15.0263 33.6939 14.9356 33.7846C15.0263 33.9659 15.2077 33.9961 15.3891 34.0263C15.5705 34.2983 15.5705 34.4796 15.1775 34.4796Z" fill="#0083FF"/>
<path d="M11.0055 12.3896C11.3079 12.3896 11.6405 12.4199 11.9428 12.4199C12.0033 12.4501 12.0335 12.5105 12.0033 12.5407C12.0033 12.6314 11.9731 12.6314 11.9428 12.6314C11.701 12.6314 11.4893 12.6314 11.2474 12.6314C10.9451 13.4473 11.3684 14.3538 11.0358 15.1697C10.9753 15.2302 10.8846 15.3208 10.8241 15.3813C10.6125 15.1697 10.7334 14.8978 10.7032 14.6258C10.7637 13.9006 10.552 13.1451 10.8241 12.4199C10.8846 12.3896 10.9451 12.3896 11.0055 12.3896Z" fill="#0083FF"/>
<path d="M18.2017 6.49784C18.2017 6.55828 18.2017 6.61871 18.2017 6.67915C18.2621 7.07199 18.2621 7.46483 18.1714 7.85767C18.111 8.00876 18.0505 8.15985 17.9598 8.31095C17.9598 8.76422 17.9598 9.2175 17.9598 9.70099C17.476 8.58291 17.7784 7.49505 17.7784 6.40718C17.7784 6.19566 18.0505 6.37697 18.2017 6.49784Z" fill="#0083FF"/>
<path d="M18.6245 28.5263C18.564 28.5263 18.5338 28.4961 18.4733 28.4961C18.4431 28.1939 18.2919 27.8313 18.685 27.6198C18.7757 27.4385 18.8966 27.4687 19.0478 27.4989C19.1989 27.5594 19.2897 27.65 19.3199 27.8011C19.4106 28.0428 19.4711 28.2544 19.5618 28.4961C19.2594 28.7077 18.9571 28.7681 18.6245 28.5263Z" fill="#0083FF"/>
<path d="M19.0784 27.5889C18.9273 27.5889 18.8063 27.5889 18.6552 27.5889C19.8343 27.1054 21.5879 27.2262 22.0717 27.8306C22.0112 27.8306 21.9205 27.8306 21.8601 27.8004C21.7996 27.7702 21.7391 27.7702 21.6786 27.74C20.8321 27.5586 19.9553 27.8306 19.0784 27.5889Z" fill="#0083FF"/>
<path d="M30.0835 10.8185C31.2324 10.3955 32.3814 10.4257 33.5303 10.8185C32.8953 11.2718 32.1395 11.0905 31.4441 11.1207C31.2627 11.1207 31.051 11.1207 30.8696 11.1207C30.5975 11.1207 30.3556 11.0603 30.144 10.879L30.0835 10.8185Z" fill="#0083FF"/>
<path d="M35.1628 30.3396C35.1628 30.2489 35.1628 30.1583 35.1628 30.0676C35.5558 31.2159 35.5558 32.3642 35.1628 33.5125C34.9511 32.7873 35.1325 32.0318 35.0418 31.3066C34.9209 30.9742 34.9209 30.6418 35.1628 30.3396Z" fill="#0083FF"/>
<path d="M6.68164 25.0505C6.68164 24.9901 6.68164 24.8994 6.68164 24.839C7.19564 24.5066 7.80033 24.8994 8.31433 24.6274C8.76785 24.7181 9.25161 24.7181 9.6749 25.0505C8.9795 25.2318 8.28409 25.2318 7.58869 25.0505C7.28634 25.0505 6.98399 25.0505 6.68164 25.0505Z" fill="#0083FF"/>
<path d="M45.1106 21.2741C45.5037 21.123 45.8967 21.0021 45.7758 20.4582C45.5641 20.1258 45.7455 19.7027 45.5641 19.3401C45.5339 19.0681 45.6246 18.8264 45.7758 18.6149C45.8362 18.5242 45.8967 18.5242 45.9572 18.6149C45.9572 19.2797 45.9572 19.9445 45.9874 20.6395C46.0176 21.3345 45.7153 21.4856 45.1106 21.2741Z" fill="#0083FF"/>
<path d="M23.9766 18.3731C24.037 18.3731 24.0673 18.3731 24.1277 18.3731C24.8231 17.8896 25.6093 18.1314 26.3651 18.0709C26.7279 18.0709 27.0605 18.1011 27.3326 18.3429C26.2442 18.7659 25.0953 18.8264 23.9766 18.3731Z" fill="#0083FF"/>
<path d="M24.1271 3.62605C25.2155 3.35408 26.2738 3.26342 27.332 3.68648C27.0901 3.92823 26.7575 3.89801 26.4552 3.95845C25.7598 3.95845 25.0946 4.0491 24.3992 3.86779C24.2782 3.83757 24.1875 3.74692 24.1271 3.62605Z" fill="#0083FF"/>
<path d="M3.6586 21.8482C3.32601 20.7603 3.26554 19.7027 3.71907 18.645H3.7493C3.84001 18.9472 3.90048 19.2796 3.96095 19.5818C3.96095 20.307 4.11212 21.0323 3.80977 21.7273C3.7493 21.7575 3.71907 21.7877 3.6586 21.8482Z" fill="#0083FF"/>
<path d="M18.3827 18.645C18.7757 19.7027 18.7757 20.7905 18.4431 21.8784L18.4129 21.8482C18.2617 21.6669 18.1408 21.4856 18.1105 21.274C18.1408 20.3977 17.8687 19.4911 18.3827 18.645Z" fill="#0083FF"/>
<path d="M3.4472 28.0724C3.4472 27.6795 3.4472 27.2867 3.41696 26.8939C3.26579 26.501 3.26579 26.1384 3.41696 25.7456C3.41696 25.6549 3.41696 25.5642 3.41696 25.5038C3.32626 25.3527 3.29602 25.1714 3.29602 24.9901C3.32626 24.8994 3.38673 24.839 3.47743 24.7786C3.77978 25.8966 3.84025 26.9845 3.4472 28.0724Z" fill="#0083FF"/>
<path d="M27.6045 23.9626C27.6045 24.0231 27.6045 24.0533 27.6045 24.1137C27.9371 24.9599 27.9069 25.806 27.6045 26.6521C27.6045 26.8334 27.5743 27.0147 27.5743 27.2262C27.2719 26.1384 27.151 25.0505 27.6045 23.9626Z" fill="#0083FF"/>
<path d="M17.8988 3.47504C18.3826 3.47504 18.8361 3.44482 19.3198 3.44482C19.7734 3.26351 20.2269 3.26351 20.6804 3.44482C20.7711 3.44482 20.8316 3.44482 20.9223 3.44482C20.9525 3.4146 21.013 3.4146 21.0432 3.38438C21.1037 3.38438 21.1339 3.44482 21.1642 3.47504C20.0757 3.80744 18.9873 3.80744 17.8988 3.47504Z" fill="#0083FF"/>
<path d="M25.9721 36.2925C25.7 36.7458 26.0326 37.471 25.2767 37.6825C25.2767 37.2293 25.2767 36.7458 25.2767 36.2925C25.5186 36.2925 25.7605 36.2925 25.9721 36.2925Z" fill="#0083FF"/>
<path d="M0.42334 24.8096C1.45133 24.4469 2.44908 24.4469 3.47707 24.8096L3.4166 24.87C2.41885 25.2628 1.45133 25.1117 0.453575 24.87L0.42334 24.8096Z" fill="#0083FF"/>
<path d="M14.9356 25.5043C14.1193 25.0813 13.2425 25.3532 12.3959 25.2928C12.3959 25.2021 12.3959 25.1417 12.4261 25.051C13.2727 24.6884 14.089 24.7186 14.9356 25.051C15.2077 25.2021 14.9658 25.3532 14.9356 25.5043Z" fill="#0083FF"/>
<path d="M21.1343 0.694628C21.225 0.603973 21.2854 0.543536 21.3459 0.452881C21.3459 1.45009 21.6483 2.47752 21.1645 3.47472L21.1343 3.4445C20.9831 2.50773 20.9831 1.60118 21.1343 0.694628Z" fill="#0083FF"/>
<path d="M24.8533 45.2678C24.7928 45.3584 24.7021 45.4491 24.6416 45.5095C24.6719 44.4821 24.3997 43.4245 24.823 42.4272C24.8533 42.4575 24.8533 42.4877 24.9137 42.5179C25.1556 43.4547 25.1859 44.3612 24.8533 45.2678Z" fill="#0083FF"/>
<path d="M12.4268 25.9575C12.5779 25.9575 12.7291 25.9575 12.8803 25.9575C13.485 25.9575 14.0897 25.9575 14.6944 25.9575C13.9687 26.3504 13.1222 25.9575 12.4268 26.4108C12.4268 26.2899 12.4268 26.1388 12.4268 25.9575Z" fill="#0083FF"/>
<path d="M27.3629 45.7503C27.3629 45.8108 27.3629 45.8712 27.3629 45.9317C26.4559 45.8712 25.5186 46.2338 24.672 45.7201C24.9743 45.7201 25.2465 45.7201 25.5488 45.7201C25.9419 45.569 26.3047 45.5388 26.6977 45.7201C26.9094 45.7201 27.121 45.7201 27.3629 45.7503Z" fill="#0083FF"/>
<path d="M36.3118 20.0051C36.8258 20.0051 37.37 19.9447 37.7026 20.4584C37.2491 20.4584 36.7653 20.6397 36.3118 20.4584C36.3118 20.3073 36.3118 20.1562 36.3118 20.0051Z" fill="#0083FF"/>
<path d="M21.8296 41.8225C21.8901 41.9132 21.9505 41.9736 22.011 42.0643C21.3156 42.7895 20.4992 42.3967 19.7131 42.306C20.4388 42.1549 21.2551 42.578 21.8296 41.8225Z" fill="#0083FF"/>
<path d="M20.9223 12.6314C20.9223 12.5408 20.9526 12.4501 20.9526 12.3594C21.013 12.3292 21.0735 12.3594 21.134 12.3897C21.4061 13.1149 21.1945 13.8704 21.2549 14.6258C21.2549 14.7769 21.1945 14.8978 21.0433 14.9582C20.3176 14.2632 20.5293 13.4473 20.9223 12.6314Z" fill="#0083FF"/>
<path d="M14.9363 25.0516C14.0897 25.0516 13.2733 25.0516 12.4268 25.0516C12.4268 24.9912 12.457 24.9005 12.457 24.8401C13.2129 24.6588 13.9687 24.689 14.7549 24.8099C14.8153 24.8099 14.8758 24.8401 14.9363 24.8703C14.9363 24.9308 14.9363 24.9912 14.9363 25.0516Z" fill="#0083FF"/>
<path d="M14.7246 33.7839C13.999 34.2372 13.1826 33.9048 12.4268 34.0256C12.4268 33.8745 12.4268 33.7234 12.457 33.5724C12.5175 33.5724 12.6082 33.5724 12.6686 33.5724C13.3338 33.6328 14.0594 33.3608 14.7246 33.7839Z" fill="#0083FF"/>
<path d="M38.9425 21.1829C38.6099 21.1527 38.2773 21.1225 37.9447 21.0923C37.9447 21.0318 37.9447 20.9714 37.9447 20.911C38.4889 20.911 39.0029 20.911 39.5472 20.911C39.6076 20.7901 39.6681 20.7901 39.7286 20.911C39.7286 20.9714 39.7588 21.0318 39.7588 21.0923C39.5169 21.5153 39.2146 21.1527 38.9425 21.1829Z" fill="#0083FF"/>
<path d="M10.8241 12.4199C10.8241 13.1754 10.7939 13.9308 10.7939 14.6863C10.7334 14.777 10.6729 14.8072 10.6125 14.6863C10.6729 13.9611 10.3101 13.1452 10.8241 12.4199Z" fill="#0083FF"/>
<path d="M31.2632 10.8184C32.0191 10.8184 32.775 10.8184 33.5308 10.8184C33.5308 10.8788 33.5308 10.9695 33.5611 11.0299C33.5006 11.0299 33.4099 11.0299 33.3494 11.0299C32.7145 11.4832 32.0493 11.4227 31.3841 11.1508C31.233 11.0601 31.2027 10.9695 31.2632 10.8184Z" fill="#0083FF"/>
<path d="M35.1636 31.2455C35.1636 32.001 35.1636 32.7564 35.1636 33.5119L35.0427 33.5421L34.9218 33.5119C34.9218 32.7564 34.9218 32.001 34.9218 31.2455C35.0125 31.1851 35.1032 31.1851 35.1636 31.2455Z" fill="#0083FF"/>
<path d="M36.3118 19.3102C36.4629 19.3102 36.6444 19.3102 36.7955 19.3102C36.9165 19.1893 37.0676 19.1591 37.2188 19.1289C37.3398 19.1289 37.4305 19.1591 37.5212 19.2196C37.6723 19.3707 37.8235 19.5217 37.7026 19.7635C37.2491 19.5822 36.7653 19.7937 36.3118 19.7635C36.3118 19.6124 36.3118 19.4613 36.3118 19.3102Z" fill="#0083FF"/>
<path d="M14.7546 24.8093C13.9988 24.8093 13.2127 24.8093 12.4568 24.8395C13.2127 24.4165 13.9988 24.4467 14.7546 24.8093Z" fill="#0083FF"/>
<path d="M21.1643 14.7165C21.1643 13.9611 21.1643 13.1754 21.134 12.4199C21.6783 13.1452 21.2852 13.9308 21.3457 14.7165C21.2852 14.8072 21.2247 14.8072 21.1643 14.7165Z" fill="#0083FF"/>
<path d="M7.58923 25.051C8.28464 25.051 8.98004 25.051 9.67545 25.051C9.67545 25.1417 9.67545 25.2021 9.67545 25.2928C8.98004 25.2928 8.28464 25.2928 7.58923 25.2928C7.58923 25.2021 7.58923 25.1417 7.58923 25.051Z" fill="#0083FF"/>
<path d="M24.1279 5.49971C24.0674 5.49971 23.9767 5.49971 23.9162 5.49971C23.9162 4.86512 23.6744 4.20032 24.1279 3.59595V3.6866C24.2488 3.80748 24.3395 3.92835 24.3698 4.10966C24.4302 4.44206 24.4 4.74425 24.3698 5.07665C24.3395 5.19752 24.3093 5.28818 24.2488 5.37883C24.2186 5.43927 24.1884 5.46949 24.1279 5.49971Z" fill="#0083FF"/>
<path d="M21.1344 7.8272C21.1344 7.67611 21.1344 7.52501 21.1344 7.37392C21.0134 7.25305 21.0134 7.10196 21.0739 6.95086C21.1344 6.86021 21.2251 6.82999 21.3158 6.86021C21.3763 7.52501 21.6181 8.1596 21.1646 8.76397C20.9832 8.46179 21.0134 8.12938 21.1344 7.8272Z" fill="#0083FF"/>
<path d="M21.1647 14.7168C21.2252 14.7168 21.2857 14.7168 21.3461 14.7168C21.2857 15.1399 21.7392 15.714 20.9229 15.8651C20.9229 15.6233 20.9229 15.4118 20.9229 15.1701C20.9229 15.019 21.0438 14.9888 21.1345 14.9283C21.1345 14.8679 21.1647 14.7772 21.1647 14.7168Z" fill="#0083FF"/>
<path d="M21.1346 7.82666C21.1648 8.12884 21.1648 8.46125 21.1648 8.76343C21.0741 9.06562 21.3462 9.45846 20.9229 9.66998C21.0136 9.06562 20.7113 8.40081 21.1346 7.82666Z" fill="#0083FF"/>
<path d="M21.3157 6.88966C21.2552 6.88966 21.225 6.88966 21.1645 6.88966C20.7714 6.9501 20.3784 6.98031 20.0156 6.73857C19.9551 6.64791 19.9551 6.55726 20.0156 6.43638C20.4086 6.37595 20.8319 6.58747 21.1645 6.22485C21.5273 6.34573 21.3459 6.61769 21.3157 6.88966Z" fill="#0083FF"/>
<path d="M5.50238 21.8472C5.50238 21.9076 5.50238 21.9983 5.50238 22.0587C4.86744 22.0587 4.23251 22.2702 3.62781 21.8472L3.65804 21.8169C3.83945 21.6659 4.02086 21.6054 4.26274 21.5752C4.38368 21.5752 4.47439 21.5752 4.59533 21.5752C4.7465 21.5752 4.92791 21.5752 5.07909 21.6054C5.2605 21.6356 5.41167 21.6961 5.50238 21.8472Z" fill="#0083FF"/>
<path d="M8.28424 24.6278C7.80048 25.0206 7.19578 24.7185 6.65155 24.8393C6.56084 24.8393 6.50037 24.8091 6.40967 24.8091C7.01437 24.4163 7.6493 24.5976 8.28424 24.6278Z" fill="#0083FF"/>
<path d="M42.5409 17.8892C42.5409 18.3727 42.5409 18.8561 42.5107 19.3094C42.1781 18.8561 42.1781 18.3727 42.5409 17.8892Z" fill="#0083FF"/>
<path d="M45.9572 18.6143C45.8967 18.6143 45.8362 18.6143 45.7758 18.6143C45.8967 18.0704 45.4734 17.9495 45.1106 17.7682C45.8665 17.5566 46.1083 17.889 45.9572 18.6143Z" fill="#0083FF"/>
<path d="M14.6945 35.1745C14.8456 35.0839 15.027 35.0234 15.1782 34.9328C15.3899 34.7515 15.6317 34.7213 15.8434 34.9026L15.9039 34.963C15.5713 35.3558 15.148 35.3559 14.6945 35.1745Z" fill="#0083FF"/>
<path d="M24.6412 38.1357C24.9134 38.3171 24.8226 38.589 24.8529 38.8308C24.8226 39.0725 24.8831 39.3445 24.6412 39.5258C24.6412 39.0725 24.6412 38.6192 24.6412 38.1357Z" fill="#0083FF"/>
<path d="M42.5107 19.7324C42.5107 20.2159 42.5107 20.6692 42.5409 21.1527C42.1781 20.6994 42.1781 20.2159 42.5107 19.7324Z" fill="#0083FF"/>
<path d="M20.0157 8.4917C20.0157 8.88454 20.0157 9.27738 20.0157 9.64C19.925 9.64 19.8645 9.64 19.7738 9.64C19.8343 9.27738 19.6226 8.8241 20.0157 8.4917Z" fill="#0083FF"/>
<path d="M10.6128 14.7168C10.6732 14.7168 10.7337 14.7168 10.7942 14.7168C10.7942 14.9585 10.8244 15.1701 10.8244 15.4118C10.8244 15.5629 10.8244 15.714 10.8244 15.8651C10.3709 15.5629 10.643 15.1096 10.6128 14.7168Z" fill="#0083FF"/>
<path d="M26.4253 3.68652C26.7277 3.68652 27.03 3.68652 27.3324 3.68652C27.3928 3.71674 27.3928 3.77718 27.3928 3.83762C27.3324 3.92827 27.2417 4.04914 27.151 4.1398C26.9696 3.92827 26.6672 4.1398 26.4556 3.98871C26.3649 3.86783 26.3649 3.77718 26.4253 3.68652Z" fill="#0083FF"/>
<path d="M26.2443 39.7977C26.335 39.4955 26.5768 39.4955 26.7885 39.5257C26.849 39.5257 26.8792 39.5862 26.9397 39.6164C26.8187 39.6768 26.6676 39.7372 26.5466 39.7977C26.4559 39.8279 26.335 39.8279 26.2443 39.7977Z" fill="#0083FF"/>
<path d="M19.532 0.241699C19.3809 0.574102 19.1088 0.755412 18.7459 0.755412C18.6855 0.755412 18.6552 0.42301 18.625 0.241699C18.7157 0.241699 18.7762 0.241699 18.8669 0.241699C19.0785 0.241699 19.3204 0.241699 19.532 0.241699Z" fill="#0083FF"/>
<path d="M0.242065 25.2935C1.05841 25.7467 0.786295 26.2 0.242065 26.6835C0.242065 26.2 0.242065 25.7467 0.242065 25.2935Z" fill="#0083FF"/>
<path d="M21.8596 27.8014C21.8596 32.0017 21.8596 36.2323 21.8294 40.4327C21.7689 40.3118 21.6178 40.1607 21.6178 40.0398C21.6178 35.9603 21.5875 31.8808 21.5875 27.8014C21.6782 27.7107 21.7689 27.7409 21.8596 27.8014C21.8596 27.8014 21.8294 27.8014 21.8596 27.8014Z" fill="#0083FF"/>
<path d="M21.8299 27.8017C21.7694 27.8017 21.6787 27.8017 21.6182 27.8017C20.8624 27.8017 20.0762 27.8017 19.3204 27.8017C19.2297 27.7412 19.1692 27.6808 19.0785 27.5901C20.0158 27.6808 20.9531 27.3182 21.8299 27.8017Z" fill="#0083FF"/>
<path d="M18.6552 41.8221C18.6552 41.671 18.6552 41.4897 18.6552 41.3386C18.897 41.4293 19.3808 41.1875 19.3808 41.5804C19.3808 41.9732 18.897 41.7617 18.6552 41.8221Z" fill="#0083FF"/>
<path d="M18.625 28.5263C18.9273 28.5263 19.2297 28.4961 19.532 28.4961C19.3809 28.8889 19.0483 28.9796 18.6552 28.9494C18.6552 28.8285 18.6552 28.6774 18.625 28.5263Z" fill="#0083FF"/>
<path d="M18.6552 41.1271C18.6552 40.976 18.6552 40.8249 18.6552 40.6738C18.8668 40.7645 19.1087 40.8854 19.3506 41.0062C19.1389 41.248 18.8668 41.0969 18.6552 41.1271Z" fill="#0083FF"/>
<path d="M41.3914 26.4414C41.3914 25.8068 41.3914 25.1722 41.3914 24.5376C41.5123 24.5376 41.603 24.5376 41.7239 24.5376C41.9356 25.2326 41.9658 25.9579 41.6332 26.6831C41.5425 26.6831 41.4821 26.6831 41.3914 26.6831C41.3007 26.6227 41.3007 26.5925 41.3007 26.532C41.3309 26.4414 41.3611 26.4414 41.3914 26.4414Z" fill="#0083FF"/>
<path d="M40.4851 24.3564C40.5758 24.3564 40.6363 24.3564 40.727 24.3564C41.12 24.9608 40.9084 25.6558 40.9084 26.2904C40.8781 26.4113 40.7874 26.5322 40.727 26.653C40.5758 26.8041 40.4246 26.925 40.4246 26.5926C40.3944 25.8371 40.4549 25.1119 40.4851 24.3564Z" fill="#0083FF"/>
<path d="M40.6967 26.6531C40.6967 26.5927 40.6967 26.502 40.6967 26.4416C40.999 25.7768 40.6362 25.0515 40.9385 24.3867C41.513 24.9911 40.8176 25.8674 41.3921 26.4416C41.3921 26.5322 41.3921 26.5927 41.3921 26.6833C41.1502 26.6531 40.9385 26.6531 40.6967 26.6531Z" fill="#0083FF"/>
<path d="M27.6045 26.6528C27.6045 25.8067 27.6045 24.9606 27.6045 24.1145C27.665 24.1145 27.7557 24.1145 27.8161 24.1447C27.8161 24.2052 27.8161 24.2958 27.8161 24.3563C27.9975 25.0513 27.9975 25.7463 27.8161 26.4111C27.7557 26.5018 27.6952 26.5924 27.6045 26.6528Z" fill="#0083FF"/>
<path d="M27.8165 26.4416C27.8165 25.7465 27.8165 25.0515 27.8165 24.3867C27.9072 24.3867 27.9677 24.3867 28.0584 24.3867C27.9375 25.0515 28.3003 25.7768 27.8165 26.4416Z" fill="#0083FF"/>
<path d="M41.3914 27.3172C40.9983 27.3172 40.6355 27.3172 40.2424 27.3172C40.575 26.9848 40.9983 27.1661 41.3611 27.1057C41.3914 27.1964 41.3914 27.2568 41.3914 27.3172Z" fill="#0083FF"/>
<path d="M14.9365 33.7837C14.9365 33.693 14.9365 33.6326 14.9365 33.542C14.876 33.4815 14.8458 33.4513 14.876 33.3909C14.9062 33.3304 14.9062 33.3002 14.9365 33.3002C15.4202 32.0612 15.0272 30.7619 15.1783 29.5229C15.2993 28.4955 14.9062 27.4076 15.4202 26.4104C15.9342 28.2537 15.5412 30.1273 15.6319 32.0008C15.6621 32.6958 15.7528 33.4211 14.9365 33.7837Z" fill="#0083FF"/>
<path d="M14.9361 33.331C14.9361 33.4216 14.9361 33.4821 14.9361 33.5727C14.8454 33.6634 14.7849 33.7238 14.6942 33.8145C13.9988 33.7238 13.2732 34.0562 12.608 33.5727C12.729 33.5123 12.8499 33.3914 13.0011 33.3612C14.6942 33.1497 14.6942 33.1497 14.6942 31.3668C14.6942 29.8256 14.6942 28.2543 14.6942 26.7131C14.7849 26.7131 14.8454 26.7131 14.9361 26.7131C14.9361 28.9191 14.9361 31.125 14.9361 33.331Z" fill="#0083FF"/>
<path d="M19.7739 3.20288C19.8344 2.50786 19.653 1.7524 20.0158 1.05737C20.3484 1.7524 20.1972 2.50786 20.2577 3.20288C20.0763 3.35397 19.9251 3.35397 19.7739 3.20288Z" fill="#0083FF"/>
<path d="M21.1338 0.695312C21.1338 1.60187 21.1338 2.50842 21.1338 3.41497H21.0129H20.892C21.0431 2.50842 20.6803 1.57165 21.1338 0.695312Z" fill="#0083FF"/>
<path d="M20.6502 1.17822C20.6502 1.69194 20.6502 2.20565 20.6502 2.68914C20.62 2.68914 20.5898 2.68914 20.5293 2.68914C20.5293 2.17543 20.5293 1.69194 20.5293 1.17822C20.5898 1.20844 20.62 1.17822 20.6502 1.17822Z" fill="#0083FF"/>
<path d="M19.7741 3.20337C19.9253 3.20337 20.0764 3.20337 20.2276 3.20337C20.409 3.20337 20.5904 3.23359 20.6811 3.4149C20.2276 3.4149 19.7741 3.4149 19.3206 3.4149C19.4113 3.26381 19.5927 3.23359 19.7741 3.20337Z" fill="#0083FF"/>
<path d="M20.2274 12.8729C20.3181 12.8729 20.3786 12.8729 20.4693 12.8729C20.8321 13.5679 20.8019 14.2629 20.4693 14.9277C20.1669 15.109 19.8646 15.1997 19.532 15.1695C17.3248 15.3508 15.0875 15.3508 12.8803 15.1695C12.6384 15.0184 12.4268 14.8673 12.1849 14.7162C12.0035 14.1118 12.0337 13.4772 12.1547 12.8729C12.6989 12.6311 12.8501 13.024 12.9105 13.3866C13.0315 14.2629 13.5757 14.3536 14.3013 14.3536C16.0247 14.3234 17.7179 14.3838 19.4413 14.3234C19.8343 14.3234 19.8948 14.0816 19.925 13.7492C19.9553 13.447 19.9553 13.1146 20.2274 12.8729Z" fill="#0083FF"/>
<path d="M12.8798 15.1697C15.087 15.1697 17.3243 15.1697 19.5315 15.1697C19.0175 15.623 18.3826 15.3812 17.7779 15.3812C16.1452 15.4114 14.5125 15.3812 12.8798 15.351C12.8496 15.351 12.8193 15.2906 12.8193 15.2603C12.8496 15.2301 12.8798 15.1999 12.8798 15.1697Z" fill="#0083FF"/>
<path d="M21.1346 14.9277C21.0742 15.0184 21.0137 15.0788 20.923 15.1695C20.8625 15.109 20.7718 15.0184 20.6811 14.9277C20.4997 14.1722 20.4997 13.3866 20.6811 12.6311C20.7718 12.6311 20.8323 12.6311 20.923 12.6311C21.0137 13.3866 20.7113 14.2025 21.1346 14.9277Z" fill="#0083FF"/>
<path d="M11.036 15.1695C11.157 14.3233 10.7639 13.447 11.2779 12.6311C11.0663 13.4772 11.671 14.3838 11.036 15.1695Z" fill="#0083FF"/>
<path d="M12.1845 12.8732C12.1845 13.4776 12.1845 14.1122 12.1845 14.7165C11.7309 14.0517 12.0635 13.3265 11.9426 12.6314C11.9426 12.571 11.9426 12.4804 11.9426 12.4199C12.0333 12.5106 12.0937 12.571 12.1845 12.6314C12.2752 12.6919 12.3054 12.7523 12.2752 12.7825C12.2449 12.843 12.2147 12.8732 12.1845 12.8732Z" fill="#0083FF"/>
<path d="M20.6805 12.6311C20.6805 13.3866 20.6805 14.1722 20.6805 14.9277C20.5898 14.9277 20.5293 14.9277 20.4386 14.9277C20.4386 14.2327 20.4386 13.5377 20.4386 12.8729C20.5293 12.7822 20.62 12.7218 20.6805 12.6311Z" fill="#0083FF"/>
<path d="M0.484131 24.8389C1.48188 24.8389 2.4494 24.8389 3.44716 24.8389C3.44716 25.0504 3.44716 25.2921 3.44716 25.5037C3.35645 25.413 3.29598 25.3526 3.20528 25.2921C2.47964 24.9597 1.66329 25.3526 0.90742 25.0504C0.756246 25.0504 0.574836 25.0202 0.484131 24.8389Z" fill="#0083FF"/>
<path d="M3.20458 26.1993C2.53941 26.1993 1.844 26.1993 1.17883 26.1993C1.17883 26.1086 1.17883 26.0482 1.17883 25.9575C1.844 25.9575 2.53941 25.9575 3.20458 25.9575C3.26505 26.018 3.29528 26.0482 3.26505 26.1086C3.26505 26.169 3.23481 26.1993 3.20458 26.1993Z" fill="#0083FF"/>
<path d="M0.90686 25.0514C1.66273 25.1421 2.47908 24.8097 3.20472 25.2932C2.44884 25.1723 1.6325 25.5047 0.90686 25.0514Z" fill="#0083FF"/>
<path d="M3.20532 26.1996C3.20532 26.109 3.20532 26.0485 3.20532 25.9579C3.26579 25.8974 3.3565 25.8068 3.41697 25.7463C3.41697 26.1392 3.41697 26.5018 3.41697 26.8946C3.3565 26.8946 3.26579 26.8946 3.20532 26.8946C3.20532 26.6529 3.20532 26.4414 3.20532 26.1996Z" fill="#0083FF"/>
<path d="M24.8534 45.2675C24.8534 44.361 24.8534 43.4544 24.8836 42.5479C24.9441 42.6083 25.0046 42.6989 25.065 42.7594C25.2464 43.5148 25.2464 44.3005 25.065 45.056C25.0046 45.1164 24.9139 45.1769 24.8534 45.2675Z" fill="#0083FF"/>
<path d="M25.0647 45.0549C25.0647 44.2994 25.0647 43.5138 25.0647 42.7583C25.4275 43.5138 25.4275 44.2692 25.0647 45.0549Z" fill="#0083FF"/>
<path d="M26.0929 45.2072C26.143 45.2072 26.1836 44.6254 26.1836 43.9078C26.1836 43.1902 26.143 42.6084 26.0929 42.6084C26.0428 42.6084 26.0022 43.1902 26.0022 43.9078C26.0022 44.6254 26.0428 45.2072 26.0929 45.2072Z" fill="#0083FF"/>
<path d="M26.667 45.7202C26.2739 45.7202 25.9111 45.7202 25.5181 45.7202C25.9111 45.5087 26.3042 45.1763 26.667 45.7202Z" fill="#0083FF"/>
<path d="M40.9385 24.3564C40.8478 25.0515 41.1804 25.7767 40.6967 26.4113C40.6967 25.7163 40.6967 25.0213 40.6967 24.3564C40.7874 24.3564 40.8478 24.3564 40.9385 24.3564Z" fill="#0083FF"/>
<path d="M26.4556 38.8304C26.4556 38.7398 26.4556 38.6793 26.4556 38.5887C26.6067 37.9843 26.9998 38.1354 27.3626 38.2865C27.5138 38.5283 27.5138 38.8002 27.3626 39.042C27.0905 38.8607 26.6067 39.5557 26.4556 38.8304Z" fill="#0083FF"/>
<path d="M26.9092 37.4706C27.2116 37.4404 27.393 36.8663 27.6953 37.1987C27.907 37.4404 27.4232 37.652 27.3628 37.9239C27.3023 37.9541 27.2721 37.9844 27.2116 38.0146C26.8488 37.9844 26.6976 37.8333 26.9092 37.4706Z" fill="#0083FF"/>
<path d="M27.3623 39.0729C27.3623 38.8311 27.3623 38.6196 27.3623 38.3778C27.2414 38.2267 27.2414 38.0757 27.3623 37.9246C28.2089 38.1663 27.3623 38.7102 27.5437 39.0729C27.5135 39.1031 27.4833 39.1333 27.453 39.1031C27.4228 39.1333 27.3925 39.1031 27.3623 39.0729Z" fill="#0083FF"/>
<path d="M6.25875 27.1066C5.92616 26.4115 6.68204 25.928 6.68204 25.2935C7.2565 26.0791 7.07509 26.8044 6.25875 27.1066Z" fill="#0083FF"/>
<path d="M7.83057 27.3481C7.43751 27.6805 7.0747 27.6805 6.68164 27.3481C7.04446 27.3481 7.43751 27.3481 7.83057 27.3481Z" fill="#0083FF"/>
<path d="M45.7453 18.6147C45.7453 18.8565 45.7453 19.068 45.7453 19.3098C45.5035 19.4911 45.2918 19.4609 45.0499 19.3098C45.0802 18.8565 45.4732 18.7961 45.7453 18.6147Z" fill="#0083FF"/>
<path d="M15.1777 34.4792C15.3591 34.3885 15.3894 34.2072 15.4196 34.0259C15.601 34.0259 15.7824 34.0561 15.8731 34.2676C15.6917 34.4792 15.7522 35.0533 15.208 34.7209C15.1777 34.6302 15.1777 34.5396 15.1777 34.4792Z" fill="#0083FF"/>
<path d="M15.1777 34.6913C15.5406 34.7215 15.6313 34.3891 15.8429 34.238C15.8429 34.4496 15.8429 34.6611 15.8429 34.9028C15.6313 34.9028 15.3894 34.9331 15.1777 34.9331C15.1777 34.8424 15.1777 34.782 15.1777 34.6913Z" fill="#0083FF"/>
<path d="M33.3496 20.9117C32.8356 20.9117 32.2913 20.9117 31.7773 20.9117C31.7169 20.9117 31.6262 20.8815 31.5052 20.821C32.0192 20.4886 32.6239 20.9117 33.1379 20.398C32.4123 20.126 31.6564 20.4886 31.0819 19.9749C30.9912 19.8842 30.9308 19.8238 30.8401 19.7332C30.7191 19.5518 30.6587 19.3705 30.6889 19.1892C30.8098 17.1344 30.7796 15.0493 30.7191 12.9944C30.6889 12.8736 30.6587 12.7527 30.6284 12.6318C30.6284 12.4807 30.6284 12.3296 30.6284 12.1785C30.7796 12.0577 30.9308 12.0577 31.0819 12.1785C31.3238 12.7225 31.8076 12.6923 32.2611 12.6318C33.2286 12.5109 33.41 12.934 33.3798 13.8103C33.3193 16.1674 33.3496 18.5546 33.3496 20.9117Z" fill="#0083FF"/>
<path d="M30.5979 12.6311C30.6886 12.6311 30.749 12.6311 30.8398 12.6311C31.0212 14.8673 31.0212 17.0732 30.8398 19.3094C30.8398 19.4605 30.8398 19.6116 30.8398 19.7627C30.6281 19.672 30.4769 19.5209 30.3862 19.3094C30.6583 17.738 30.4165 16.1364 30.5072 14.5651C30.5072 13.9003 30.356 13.2657 30.5979 12.6311Z" fill="#0083FF"/>
<path d="M30.5975 12.6311C30.5975 14.5046 30.5975 16.348 30.5975 18.2215C30.5975 18.5841 30.7184 19.0072 30.3858 19.2792C30.3858 17.4056 30.3858 15.5623 30.3858 13.6887C30.3556 13.3563 30.2347 12.9333 30.5975 12.6311Z" fill="#0083FF"/>
<path d="M31.0515 12.1782C30.9003 12.1782 30.7492 12.1782 30.598 12.1782C30.2956 11.7853 29.9933 11.4227 30.1445 10.8788C30.3561 10.8486 30.598 10.8486 30.8096 10.8184C30.991 10.9695 31.0515 11.181 31.112 11.3925C31.1724 11.6645 31.2632 11.9364 31.0515 12.1782Z" fill="#0083FF"/>
<path d="M44.1127 20.4578C43.6894 20.3369 42.994 20.6693 42.9637 20.0951C42.9335 19.5814 43.6289 19.7627 43.9917 19.7627C44.415 19.7627 45.1104 19.5814 45.1104 20.1254C45.1406 20.6995 44.4755 20.3369 44.1127 20.4578Z" fill="#0083FF"/>
<path d="M45.0807 19.3091C45.3226 19.3091 45.5342 19.3091 45.7761 19.3091C45.7761 19.7019 45.7761 20.0645 45.7761 20.4574C45.4435 20.125 45.5644 19.5508 45.0807 19.3091Z" fill="#0083FF"/>
<path d="M33.3491 33.3311C30.5977 33.3311 27.8463 33.3311 25.0647 33.3311C25.0647 32.6361 25.0647 31.9411 25.0647 31.2461C25.2159 31.095 25.3368 30.9137 25.5182 30.7928C25.6694 30.7928 25.8206 30.7928 25.9717 30.7928C26.1834 30.823 26.3648 30.7324 26.5462 30.6719C27.8463 30.3093 29.1767 30.551 30.507 30.4906C31.3838 30.4604 32.2606 30.5813 33.1072 30.4C33.3188 30.2791 33.5305 30.2791 33.7421 30.3697C33.8631 30.4302 33.9538 30.5208 34.105 30.4604C34.1654 30.3697 34.1957 30.2489 34.2561 30.1582C34.4375 30.1582 34.6189 30.1884 34.7097 30.3697C35.1632 30.6719 34.9818 30.9741 34.7097 31.2763C34.6189 31.2763 34.5585 31.2763 34.4678 31.2763C34.1654 31.5785 34.2561 31.9713 34.2259 32.3339C34.1957 32.6663 34.2864 33.029 33.8328 33.18C33.4398 32.9987 33.591 32.6059 33.5305 32.3339C33.5305 32.6361 33.6514 33.029 33.3491 33.3311Z" fill="#0083FF"/>
<path d="M34.2865 30.1282C34.347 30.2793 34.4377 30.4304 34.4982 30.5512C34.2563 30.7325 34.0446 30.7325 33.8028 30.5512C33.6516 30.4606 33.5004 30.4001 33.3492 30.3095C32.926 30.6419 32.412 30.521 31.9282 30.521C30.4165 30.5512 28.8745 30.5512 27.3627 30.521C26.8185 30.521 26.365 30.5815 26.244 31.216C26.0626 31.1254 26.0324 30.9441 26.0021 30.7628C25.6998 29.9771 26.3347 30.1282 26.7278 30.1282C29.2373 30.098 31.777 30.1282 34.2865 30.1282Z" fill="#0083FF"/>
<path d="M34.7096 31.2459C34.7096 30.9437 34.9212 30.6415 34.7096 30.3394C34.8608 30.3394 35.0119 30.3394 35.1631 30.3394C35.1631 30.6415 35.1631 30.9437 35.1631 31.2459C35.1027 31.2459 35.0119 31.2459 34.9515 31.2459C34.8608 31.2459 34.8003 31.2459 34.7096 31.2459Z" fill="#0083FF"/>
<path d="M25.5182 30.7922C25.5182 31.0944 25.367 31.2455 25.0647 31.2455C25.1252 31.0037 25.0345 30.6109 25.5182 30.7922Z" fill="#0083FF"/>
<path d="M5.53349 18.645C9.37333 18.645 13.2132 18.645 17.0228 18.645C17.3554 18.7961 17.3856 19.2796 17.8089 19.3703C17.9601 19.4609 18.081 19.5818 18.1415 19.7631C18.081 20.4279 18.4438 21.1229 17.8391 21.6971C13.7876 21.7273 9.73615 21.6971 5.65443 21.6971C4.86832 21.0625 5.32184 20.1559 5.23114 19.3703C5.23114 19.2192 5.26137 19.0983 5.29161 18.9774C5.35208 18.8565 5.44278 18.7357 5.53349 18.645Z" fill="#0083FF"/>
<path d="M4.59525 21.8172C4.50455 21.8172 4.44408 21.8172 4.35337 21.8172C3.41609 21.3035 3.93009 20.4272 3.80915 19.7019C3.83938 19.4904 3.93009 19.3695 4.14173 19.3091C4.2929 19.3091 4.44408 19.3091 4.59525 19.3091C5.35113 20.1552 5.35113 20.9711 4.59525 21.8172Z" fill="#0083FF"/>
<path d="M4.59588 21.8174C4.9587 20.9713 4.92847 20.1252 4.59588 19.3093C4.41447 18.433 5.01917 18.6143 5.53317 18.6445C5.53317 18.7049 5.53317 18.7956 5.53317 18.856C5.01917 19.7021 5.44246 20.6389 5.26105 21.5152C5.20058 21.6361 5.14011 21.7268 5.04941 21.8174C4.89823 21.8174 4.74706 21.8174 4.59588 21.8174Z" fill="#0083FF"/>
<path d="M18.3825 18.6441C18.3825 19.5507 18.3825 20.4572 18.3825 21.3638C18.2616 21.4545 18.1406 21.4242 18.0802 21.3034C18.0197 20.699 18.1104 20.1248 18.0197 19.5205C17.929 19.3089 17.7778 19.0974 17.929 18.8557C18.0197 18.6744 18.1709 18.6139 18.3825 18.6441Z" fill="#0083FF"/>
<path d="M17.4756 19.5208C16.7802 19.4906 17.3244 18.856 17.0221 18.6143C17.264 18.6143 17.5361 18.5841 17.7175 18.856C17.7175 19.0978 17.6873 19.3395 17.4756 19.5208Z" fill="#0083FF"/>
<path d="M4.14212 19.3103C4.05142 19.3707 3.99095 19.4614 3.90024 19.5521C3.83977 19.6729 3.74907 19.6729 3.6886 19.5521C3.6886 19.2499 3.71883 18.9477 3.71883 18.6455C4.26306 18.6153 3.90024 19.1592 4.14212 19.3103Z" fill="#0083FF"/>
<path d="M17.4756 19.5212C17.4756 19.2794 17.4454 19.0075 17.7175 18.8262C17.778 18.8262 17.8687 18.8262 17.9291 18.8262C18.0198 18.9773 18.0803 19.1284 18.171 19.2794C18.0803 19.3701 18.0803 19.5212 17.9291 19.5212C17.778 19.5212 17.6268 19.5212 17.4756 19.5212Z" fill="#0083FF"/>
<path d="M26.6675 4.59302C26.8186 4.59302 26.9698 4.59302 27.1512 4.59302C27.3629 5.98307 27.2117 7.34289 27.2419 8.70272C27.2722 11.1504 27.2419 13.5981 27.2419 16.0458C27.2419 16.5293 27.3024 17.043 26.9093 17.4661C26.6675 17.7078 27.0907 17.9193 26.9093 18.1611C26.6977 18.3122 26.4558 18.2517 26.2139 18.2517C25.579 18.1913 24.9138 18.4331 24.2789 18.1007C24.2184 14.0212 24.2789 9.94168 24.2487 5.89241C24.2487 5.25782 24.7324 5.31826 25.1255 5.25782C25.579 5.16717 26.0325 5.43913 26.4558 5.07651C26.486 4.95564 26.5163 4.80455 26.5767 4.68367C26.607 4.65345 26.6372 4.62324 26.6675 4.59302Z" fill="#0083FF"/>
<path d="M26.9089 17.4661C27.0903 16.8315 27.1508 16.1969 27.1508 15.5624C27.1508 11.9059 27.1508 8.2495 27.1508 4.62329C27.4532 4.89526 27.3625 5.25788 27.3625 5.59028C27.3625 9.21649 27.3625 12.8427 27.3625 16.4689C27.3625 16.8315 27.5439 17.3452 26.9089 17.4661Z" fill="#0083FF"/>
<path d="M26.4558 3.89889C26.6977 3.89889 26.9698 3.86867 27.1512 4.11041C26.8489 4.11041 26.6977 4.26151 26.6675 4.56369C26.1535 5.2285 25.4581 4.83566 24.7627 4.92631C25.2767 4.95653 25.7302 4.89609 26.1535 4.95653C26.3953 4.98675 26.607 5.0774 26.3651 5.37959C25.6395 5.34937 24.8836 5.53068 24.158 5.28893C24.158 4.89609 24.158 4.53347 24.158 4.14063C24.8534 3.50605 25.6697 3.83845 26.4558 3.89889Z" fill="#0083FF"/>
<path d="M26.456 18.1613C26.6374 18.1613 26.8188 18.1311 26.9095 17.9498C26.9095 17.7987 27.0607 17.7987 27.1211 17.708C27.3932 17.8591 27.3328 18.1311 27.3328 18.3728C27.0304 18.3728 26.7281 18.3728 26.4257 18.3728C26.3653 18.3124 26.335 18.2822 26.3653 18.2217C26.3955 18.1915 26.4257 18.1613 26.456 18.1613Z" fill="#0083FF"/>
<path d="M27.1212 17.7085C27.0607 17.769 26.97 17.8596 26.9095 17.9201C26.7281 17.8899 26.5165 17.8899 26.5467 17.6481C26.577 17.5575 26.7886 17.5272 26.9095 17.4668C26.97 17.5575 27.0607 17.6179 27.1212 17.7085Z" fill="#0083FF"/>
<path d="M18.3832 6.64865C18.5646 6.37668 18.8368 6.43712 19.0786 6.43712C19.381 6.64865 19.774 6.67887 20.1066 6.76952C20.409 6.79974 20.7113 6.86018 20.6811 7.19258C20.6811 7.61564 20.3183 7.58542 20.0159 7.58542C19.5624 7.49476 19.1089 7.43433 18.6251 7.34367C18.5949 7.34367 18.5646 7.31345 18.5042 7.28323C18.3832 7.10192 18.2321 6.92061 18.3832 6.64865Z" fill="#0083FF"/>
<path d="M20.0159 7.58448C20.0462 7.28229 20.6206 7.49382 20.4997 7.10098C20.4695 7.01033 20.1671 6.94989 20.0159 6.88945C19.9555 6.82902 19.9252 6.7988 19.9555 6.73836C19.9555 6.67792 19.9857 6.67792 20.0159 6.67792C20.409 6.70814 20.8323 6.49661 21.1649 6.88945C21.1649 7.04054 21.1649 7.19164 21.1346 7.34273C20.7113 7.40317 20.7416 8.55147 20.0159 7.82622C20.0159 7.73557 20.0159 7.67513 20.0159 7.58448Z" fill="#0083FF"/>
<path d="M17.9297 8.27998C17.9297 8.12889 17.9297 7.9778 17.9297 7.8267C18.1716 7.67561 18.2018 7.22234 18.6251 7.37343C18.7763 7.94758 18.4437 8.18932 17.9297 8.27998Z" fill="#0083FF"/>
<path d="M19.1085 8.64247C19.1388 8.49138 19.169 8.3705 19.3202 8.46116C19.4109 8.5216 19.4713 8.61225 19.4713 8.70291C19.4713 8.82378 19.3806 8.91444 19.2597 8.854C19.169 8.82378 19.1388 8.70291 19.1085 8.64247Z" fill="#0083FF"/>
<path d="M31.0516 12.1776C30.9609 11.9358 30.9004 11.7243 30.8097 11.4826C30.9911 11.3617 31.0516 11.0897 31.2632 11.0293C31.9586 11.0293 32.654 11.0293 33.3192 11.0293C33.3192 11.3315 33.3192 11.6337 33.3192 11.9358C32.654 12.238 31.9284 11.8452 31.2632 12.1776C31.2027 12.1776 31.112 12.1776 31.0516 12.1776Z" fill="#0083FF"/>
<path d="M31.2631 12.1777C31.898 11.7245 32.6539 12.0569 33.319 11.936C32.6841 12.4195 31.9585 12.0871 31.2631 12.1777Z" fill="#0083FF"/>
<path d="M33.8031 33.0892C34.1659 32.787 34.0148 32.3942 34.0148 32.0316C34.045 31.6992 33.9845 31.3063 34.4683 31.2761C34.4683 31.7596 34.4381 32.2431 34.4683 32.7266C34.4985 33.2403 34.2264 33.3914 33.7729 33.3612C33.7124 33.3008 33.6822 33.2705 33.7124 33.2101C33.7729 33.1194 33.7729 33.0892 33.8031 33.0892Z" fill="#0083FF"/>
<path d="M33.8029 33.0891C33.8029 33.1798 33.8029 33.2402 33.8029 33.3309C33.6517 33.3309 33.5005 33.3309 33.3494 33.3309C33.3796 32.6963 33.2587 32.0315 33.5308 31.0947C33.9238 31.9408 33.7424 32.5452 33.8029 33.0891Z" fill="#0083FF"/>
<path d="M24.369 5.52992C24.4294 9.48853 24.248 13.4169 24.4597 17.3755C24.4597 17.6475 24.3992 17.8893 24.369 18.1612C24.3085 18.2519 24.2178 18.2519 24.1573 18.1612C24.1573 13.9609 24.1573 9.73028 24.1271 5.52992C24.2178 5.43926 24.3085 5.40905 24.369 5.52992Z" fill="#0083FF"/>
<path d="M24.1573 18.1609C24.2178 18.1609 24.3085 18.1609 24.369 18.1609C25.0644 18.1609 25.7598 18.1609 26.4249 18.1609C26.4249 18.2213 26.4249 18.312 26.4249 18.3724C25.6691 18.3724 24.8829 18.3724 24.1271 18.3724C24.1271 18.2818 24.1573 18.2213 24.1573 18.1609Z" fill="#0083FF"/>
<path d="M18.1715 21.3645C18.232 21.3645 18.3227 21.3645 18.3832 21.3645C18.3832 21.5156 18.3832 21.6667 18.3832 21.8178C14.0898 21.8178 9.79645 21.8178 5.50309 21.848C5.35191 21.848 5.20074 21.848 5.04956 21.8178C5.04956 21.7573 5.04956 21.6667 5.04956 21.6062C5.11003 21.5458 5.20074 21.4854 5.29144 21.4854C5.38215 21.4854 5.47285 21.5458 5.53332 21.6062C9.67551 21.6062 13.8177 21.6062 17.9599 21.6062C18.0204 21.5156 18.0204 21.3947 18.1715 21.3645Z" fill="#0083FF"/>
<path d="M37.4913 19.3096C37.4006 19.3096 37.3401 19.3096 37.2494 19.3096C37.2796 18.5844 38.0053 19.2492 38.1564 18.8564C38.1564 18.7657 38.1564 18.7053 38.1564 18.6146C38.2471 18.4031 38.3983 18.252 38.61 18.1613C39.7287 18.0103 39.124 18.8866 39.3054 19.3096C38.7007 19.6118 38.096 19.6118 37.4913 19.3096Z" fill="#0083FF"/>
<path d="M37.4915 19.3091C38.0962 19.3091 38.7311 19.3091 39.3358 19.3091C39.3358 19.3997 39.3358 19.4602 39.3358 19.5508C38.8218 19.8832 38.2776 19.7624 37.7333 19.7926C37.6426 19.6113 37.5519 19.4602 37.4915 19.3091Z" fill="#0083FF"/>
<path d="M39.7287 20.9117C39.6682 20.9117 39.6078 20.9117 39.5473 20.9117C39.4566 20.3073 39.0031 20.4886 38.6403 20.4584C38.731 19.6425 39.4566 20.3375 39.759 20.0051C39.7287 20.3073 39.7287 20.6095 39.7287 20.9117Z" fill="#0083FF"/>
<path d="M38.64 18.1615C38.64 18.4636 38.4888 18.6147 38.1864 18.6147C37.7934 18.6147 37.8539 18.4032 37.9446 18.1615C38.1562 17.8593 38.3981 17.8593 38.64 18.1615Z" fill="#0083FF"/>
<path d="M12.1846 12.8729C12.1846 12.7822 12.1846 12.7218 12.1846 12.6311C12.9707 12.2081 13.8173 12.4196 14.6336 12.4196C16.3268 12.3894 18.0502 12.4196 19.7433 12.4196C20.1061 13.175 20.0759 13.9305 19.7433 14.686C17.778 14.686 15.7825 14.6557 13.8173 14.686C13.0311 14.686 12.4567 14.6255 12.6079 13.5981C12.6986 13.2959 12.6683 12.9333 12.1846 12.8729Z" fill="#0083FF"/>
<path d="M19.7739 14.7162C19.7739 13.9607 19.7739 13.2053 19.7739 12.4498C20.0763 12.4196 20.2275 12.6009 20.2275 12.8729C20.046 13.4772 20.7112 14.2931 19.7739 14.7162Z" fill="#0083FF"/>
<path d="M27.3624 37.9237C27.3624 38.0748 27.3624 38.2259 27.3624 38.377C27.0601 38.4072 26.6973 38.2561 26.4554 38.6187C26.3647 38.528 26.3042 38.4676 26.2135 38.377C26.2135 38.2863 26.2135 38.2259 26.2135 38.1352C26.4251 37.9539 26.3344 37.6819 26.4554 37.4402C26.6066 37.4402 26.7577 37.4402 26.9089 37.4402C26.9089 37.7726 27.0601 37.9237 27.3624 37.9237Z" fill="#0083FF"/>
<path d="M26.4556 37.4709C26.637 37.7731 26.6068 38.0149 26.2137 38.166C26.3045 37.9242 26.0021 37.5616 26.4556 37.4709Z" fill="#0083FF"/>
<path d="M38.1568 18.8563C38.2475 18.9168 38.6406 18.9168 38.2173 19.0679C37.9149 19.1887 37.4916 18.947 37.2195 19.3096C37.0683 19.3096 36.9172 19.3096 36.766 19.3096C37.0986 18.675 37.673 18.8866 38.1568 18.8563Z" fill="#0083FF"/>
<path d="M20.0158 6.6786C20.0158 6.76926 20.0158 6.8297 20.0158 6.92035C19.7437 6.70882 19.018 7.40385 19.1087 6.46708C19.4111 6.13467 19.7134 6.13467 20.046 6.46708C20.0158 6.52751 20.0158 6.58795 20.0158 6.6786Z" fill="#0083FF"/>
<path d="M18.6249 7.34273C18.3831 7.49382 18.2924 7.85644 17.9295 7.82622C17.99 7.43338 17.7481 6.98011 18.2016 6.64771C18.2621 6.64771 18.3226 6.64771 18.3831 6.64771C18.4738 6.88945 18.5342 7.1312 18.6249 7.34273Z" fill="#0083FF"/>
<path d="M31.2632 11.0299C31.2632 11.3321 31.112 11.4832 30.8097 11.4832C30.8097 11.2716 30.8097 11.0299 30.8097 10.8184C30.9609 10.8184 31.112 10.8184 31.2632 10.8184C31.2632 10.8788 31.2632 10.9695 31.2632 11.0299Z" fill="#0083FF"/>
<path d="M26.4558 3.89811C25.6697 3.95854 24.8836 3.74702 24.158 4.13985C24.158 3.98876 24.158 3.86789 24.158 3.7168C24.9138 3.7168 25.6999 3.7168 26.4558 3.7168C26.4558 3.77723 26.4558 3.83767 26.4558 3.89811Z" fill="#0083FF"/>
<path d="M3.71883 19.5212C3.7793 19.5212 3.87001 19.5212 3.93048 19.5212C3.93048 20.3069 3.71883 21.153 4.35377 21.8178C4.14212 21.8178 3.90024 21.8178 3.6886 21.8178C3.6886 21.0624 3.6886 20.3069 3.71883 19.5212Z" fill="#0083FF"/>
<path d="M24.3696 5.53018C24.3091 5.53018 24.2184 5.53018 24.158 5.53018C24.158 5.43953 24.158 5.37909 24.158 5.28843C24.9138 5.28843 25.6697 5.28843 26.4558 5.28843C26.5163 5.19778 26.5465 5.0769 26.6977 5.0769C26.9093 5.31865 27.1512 5.59062 26.5465 5.59062C25.7906 5.5604 25.0952 5.53018 24.3696 5.53018Z" fill="#0083FF"/>
<path d="M30.8097 19.3094C30.8097 17.0732 30.8097 14.8673 30.8097 12.6311C31.2632 13.1146 31.0516 13.719 31.0213 14.2629C30.9306 15.9551 31.3237 17.6474 30.8097 19.3094Z" fill="#0083FF"/>
<path d="M26.2136 31.2459C26.1531 30.43 26.6369 30.3091 27.3021 30.3091C29.3278 30.3393 31.3233 30.3091 33.3491 30.3091C33.2281 30.9437 32.7444 30.7624 32.3513 30.7624C30.7186 30.7926 29.0557 30.7926 27.423 30.7624C26.9392 30.7926 26.5159 30.853 26.2136 31.2459Z" fill="#0083FF"/>
<path d="M33.8027 30.5818C34.0446 30.5818 34.2563 30.5818 34.4981 30.5818C34.2563 30.9142 34.0446 31.307 33.8027 30.5818Z" fill="#0083FF"/>
<path d="M5.29144 21.6063H5.1705H5.04956C5.04956 20.9415 5.04956 20.2767 5.04956 19.5816C5.04956 19.2492 5.04956 18.8866 5.50309 18.8262C5.50309 18.9168 5.50309 18.9773 5.50309 19.0679C5.20074 19.8838 5.59379 20.7904 5.29144 21.6063Z" fill="#0083FF"/>
<path d="M5.29105 21.6067C5.41199 20.7606 5.01894 19.8843 5.53293 19.0684C5.53293 19.9145 5.53293 20.7606 5.53293 21.6067H5.41199H5.29105Z" fill="#0083FF"/>
<path d="M18.1716 21.3639C18.0809 21.4546 18.0204 21.515 17.9297 21.6057C17.9297 20.9107 17.9297 20.2156 17.9297 19.5508C17.9902 19.4602 18.0809 19.3997 18.1413 19.3091C18.1716 20.0041 18.1716 20.6689 18.1716 21.3639Z" fill="#0083FF"/>
<path d="M26.667 5.04629C26.6065 5.13695 26.5158 5.19739 26.4553 5.28804C25.9111 4.77433 25.1855 5.25782 24.5505 4.92542C25.2459 4.65345 26.032 5.01608 26.667 4.59302C26.667 4.74411 26.667 4.8952 26.667 5.04629Z" fill="#0083FF"/>
</svg>
